<?xml version="1.0" encoding="utf-8"?>
<!-- Generator: Adobe Illustrator 21.0.0, SVG Export Plug-In . SVG Version: 6.00 Build 0)  -->
<svg version="1.1" id="Layer_1" xmlns="http://www.w3.org/2000/svg" xmlns:xlink="http://www.w3.org/1999/xlink" x="0px" y="0px"
	 viewBox="0 0 128 128" style="enable-background:new 0 0 128 128;" xml:space="preserve">
<style type="text/css">
	.st0{fill:#444;}
	.st1{display:none;fill:#FFFFFF;}
</style>
<title>account-replenishment</title>
<g>
	<rect x="18.1" y="0.6" class="st0" width="94.5" height="18.3"/>
	<path class="st1" d="M15-6v24.6h100.7V-6H15z M112.6,15.5H18.1V-2.9h94.5V15.5z"/>
	<path class="st0" d="M94.5,83.4c0-0.5-0.2-1.1-0.7-2.1L67.1,34.8c-0.3-0.7-0.9-1.4-1.6-1.4c-0.8,0.2-1.5,0.7-1.8,1.4L36.9,81.4
		c-0.4,0.9-0.6,1.5-0.6,2c0,0.8,0.9,1.2,2.6,1.2h17.5v43.2h18.6V84.6h17.2C93,84.6,94.5,84.5,94.5,83.4z"/>
	<path class="st1" d="M69.8,33.4c-0.7-1.5-2.3-3.1-4.5-3.1l-0.3,0c-1.9,0.4-3.4,1.5-4.1,3L34.1,79.9c-0.7,1.4-1,2.4-1,3.5
		c0,2.7,2.2,4.4,5.8,4.4h14.3V131h24.9V87.8h14c3.3,0,5.5-1.7,5.5-4.4c0-1-0.3-2.1-1-3.6L69.8,33.4z M74.9,127.9H56.3V84.6H38.9
		c-1.7,0-2.6-0.4-2.6-1.2c0-0.5,0.2-1.1,0.6-2l26.8-46.7c0.3-0.7,1-1.1,1.8-1.4c0.6,0.1,1.2,0.7,1.6,1.4l26.7,46.5
		c0.5,1,0.7,1.6,0.7,2.1c0,1.1-1.5,1.2-2.3,1.2H74.9V127.9z"/>
</g>
</svg>
