<?xml version="1.0" encoding="utf-8"?>
<!-- Generator: Adobe Illustrator 21.0.0, SVG Export Plug-In . SVG Version: 6.00 Build 0)  -->
<svg version="1.1" id="Layer_1" xmlns="http://www.w3.org/2000/svg" xmlns:xlink="http://www.w3.org/1999/xlink" x="0px" y="0px"
	 viewBox="0 0 512 512" style="enable-background:new 0 0 512 512;" xml:space="preserve">
<style type="text/css">
	.st0{fill:#444;}
</style>
<title>accounting</title>
<g id="Layer_2">
	<g id="Capa_1">
		<path class="st0" d="M403.9,0H108.1C73.8,0,46,27.8,46,62.1c0,0,0,0,0,0v387.7c0,34.3,27.8,62.1,62.1,62.1l0,0h295.8
			c34.3,0,62.1-27.8,62.1-62.1l0,0V62.1C466,27.8,438.2,0,403.9,0C403.9,0,403.9,0,403.9,0z M107.5,63.9h297.1V163H107.5V63.9z
			 M144.2,428.8c-21.5,0-38.9-17.4-38.9-38.9c0-21.5,17.4-38.9,38.9-38.9c21.5,0,38.9,17.4,38.9,38.9c0,0,0,0,0,0
			C183,411.4,165.6,428.8,144.2,428.8z M144.2,294.9c-21.5,0-38.9-17.4-38.9-38.9s17.4-38.9,38.9-38.9S183,234.5,183,256l0,0
			C183,277.5,165.6,294.9,144.2,294.9L144.2,294.9z M256,428.8c-21.5,0-38.9-17.4-38.9-38.9c0-21.5,17.4-38.9,38.9-38.9
			c21.5,0,38.9,17.4,38.9,38.9c0,0,0,0,0,0C294.9,411.4,277.5,428.8,256,428.8C256,428.8,256,428.8,256,428.8z M256,294.9
			c-21.5,0-38.9-17.4-38.9-38.9c0-21.5,17.4-38.9,38.9-38.9s38.9,17.4,38.9,38.9v0C294.9,277.5,277.5,294.9,256,294.9L256,294.9
			L256,294.9z M367.8,428.8c-21.5,0-38.9-17.4-38.9-38.9c0-21.5,17.4-38.9,38.9-38.9s38.9,17.4,38.9,38.9c0,0,0,0,0,0
			C406.7,411.4,389.3,428.8,367.8,428.8z M367.8,294.9c-21.5,0-38.9-17.4-38.9-38.9s17.4-38.9,38.9-38.9c21.5,0,38.9,17.4,38.9,38.9
			C406.7,277.5,389.3,294.9,367.8,294.9L367.8,294.9z"/>
	</g>
</g>
</svg>
