<?xml version="1.0" encoding="utf-8"?>
<!-- Generator: Adobe Illustrator 21.0.0, SVG Export Plug-In . SVG Version: 6.00 Build 0)  -->
<svg version="1.1" id="Layer_1" xmlns="http://www.w3.org/2000/svg" xmlns:xlink="http://www.w3.org/1999/xlink" x="0px" y="0px"
	 viewBox="0 0 256 256" style="enable-background:new 0 0 256 256;" xml:space="preserve">
<style type="text/css">
	.st0{fill:#444;}
</style>
<title>advertising</title>
<g id="Layer_2">
	<g id="Layer_1-2">
		<path class="st0" d="M58,138v72c0,14.4,11.6,26,26,26s26-11.6,26-26v-37l85,23V40L58,73V138z"/>
		<path class="st0" d="M233.5,20C221.1,20,211,30.1,211,42.5v149c0,12.4,10.1,22.5,22.5,22.5s22.5-10.1,22.5-22.5v-149
			C256,30.1,245.9,20,233.5,20z"/>
		<path class="st0" d="M22.5,65C10.1,65,0,75.1,0,87.5v59C0,158.9,10.1,169,22.5,169S45,158.9,45,146.5v-59C45,75.1,34.9,65,22.5,65
			z"/>
	</g>
</g>
</svg>
