<?xml version="1.0" encoding="utf-8"?>
<!-- Generator: Adobe Illustrator 21.0.0, SVG Export Plug-In . SVG Version: 6.00 Build 0)  -->
<svg version="1.1" id="Layer_1" xmlns="http://www.w3.org/2000/svg" xmlns:xlink="http://www.w3.org/1999/xlink" x="0px" y="0px"
	 viewBox="0 0 512 512" style="enable-background:new 0 0 512 512;" xml:space="preserve">
<style type="text/css">
	.st0{fill:none;}
	.st1{fill:#444;}
</style>
<title>atm-fee</title>
<g>
	<path class="st0" d="M403.3,427.2c-4.5,1.6-9.2,2.4-13.9,2.5c-21.2,0-39-16.2-44.6-38.4h42.5c8.1,0,14.8-6.6,14.8-14.8
		c0-8.1-6.6-14.8-14.8-14.8h-42.5c5.6-22.1,23.5-38.4,44.6-38.4c4.8,0,9.5,0.8,13.9,2.4c0.1,0.1,0.3,0.1,0.4,0.1
		c7.7,2.6,16.1-1.4,18.7-9.2c2.6-7.7-1.4-16.1-9.2-18.7c-7.7-2.8-15.8-4.2-24-4.2c-37.6,0-68.8,29.8-74.9,68.8
		c-4.1,1.5-7.3,4.7-8.8,8.8c-2.8,7.6,1.1,16.1,8.8,18.9c6.1,39,37.3,68.8,74.9,68.8c8.2,0,16.3-1.4,24-4.2l0,0
		c0.3-0.1,0.6-0.2,0.8-0.3c7.6-3,11.3-11.6,8.3-19.2C419.4,427.9,410.9,424.2,403.3,427.2z"/>
	<path class="st1" d="M310.8,224.6L284.3,65.4H325l36.3,146.3c5-0.5,10.1-0.7,15.2-0.7c9.9,0,19.8,0.9,29.6,2.6l-20.8-82.8h51V43.6
		c-0.1-24-19.5-43.5-43.6-43.6h-349C19.6,0.1,0.1,19.6,0,43.6v87.3h49.7L4.3,316.3c-15.3,56.7,13.1,98.2,74.2,98.2h136.9
		c-2.9-12.4-4.4-25.2-4.4-38c0-1.9,0-3.8,0.1-5.7H78.5c-8.7,0-24-2.2-30.6-8.7c-4.3-6.5-6.5-19.6-2.2-34.9l65.4-261.8h106.9v262.9
		C232.3,281.8,266.2,243.9,310.8,224.6z"/>
	<path class="st1" d="M376.5,241C301,241,241,301,241,376.5S301,512,376.5,512S512,452,512,376.5S452,241,376.5,241z M414.1,454.6
		c-0.3,0.1-0.6,0.2-0.8,0.3l0,0c-7.7,2.8-15.8,4.2-24,4.2c-37.6,0-68.8-29.8-74.9-68.8c-7.6-2.8-11.6-11.3-8.8-18.9
		c1.5-4.1,4.7-7.3,8.8-8.8c6.1-39,37.3-68.8,74.9-68.8c8.2,0,16.3,1.4,24,4.2c7.7,2.6,11.8,11,9.2,18.7c-2.6,7.7-11,11.8-18.7,9.2
		c-0.1,0-0.3-0.1-0.4-0.1c-4.5-1.6-9.2-2.4-13.9-2.4c-21.1,0-39,16.2-44.6,38.4h42.5c8.1,0,14.8,6.6,14.8,14.8
		c0,8.1-6.6,14.8-14.8,14.8h-42.5c5.6,22.1,23.5,38.4,44.6,38.4c4.8,0,9.5-0.8,13.9-2.5c7.6-3,16.2,0.7,19.2,8.3
		C425.4,443,421.7,451.6,414.1,454.6z"/>
</g>
</svg>
