<?xml version="1.0" encoding="utf-8"?>
<!-- Generator: Adobe Illustrator 21.0.0, SVG Export Plug-In . SVG Version: 6.00 Build 0)  -->
<svg version="1.1" xmlns="http://www.w3.org/2000/svg" xmlns:xlink="http://www.w3.org/1999/xlink" x="0px" y="0px"
	 viewBox="0 0 512 512" style="enable-background:new 0 0 512 512;" xml:space="preserve">
<style type="text/css">
	.st0{display:none;}
	.st1{display:inline;}
	.st2{fill:#444;}
</style>
<g id="Layer_1">
	<title>auto-insurance_1</title>
	<g id="Layer_2" class="st0">
		<g id="Layer_1-2" class="st1">
			<path class="st2" d="M181.1,221c-10.9,0-20.4,9.5-20.4,20.4s9.5,20.4,20.4,20.4s20.4-9.5,20.4-20.4S192,221,181.1,221z"/>
			<path class="st2" d="M468.1,85.4c-74-16.3-117.8-39.3-149.7-56C293.7,16.4,275.8,7,256,7s-37.7,9.4-62.5,22.4
				c-31.9,16.8-75.6,39.8-149.6,56L36,87.2v8C36,399.8,249.6,502,251.8,503l4.4,2l4.3-2.2C262.7,501.7,476,389.7,476,95.2v-8
				L468.1,85.4z M378.6,323.2c0.2,3.6-2.5,6.6-6,6.8c-0.3,0-0.5,0-0.8,0h-27.3c-3.6,0.2-6.6-2.5-6.8-6c0-0.3,0-0.5,0-0.8v-20.4
				H174.3v20.4c0.2,3.6-2.5,6.6-6,6.8c-0.3,0-0.5,0-0.8,0h-27.3c-3.6,0.2-6.6-2.5-6.8-6c0-0.3,0-0.5,0-0.8V197.8
				c0-2.7,0-5.4,1.4-8.2l20.4-59.9c2.7-10.9,12.3-17.7,24.5-17.7h152.6c10.9,0,20.4,6.8,24.5,17.7l20.4,60c1.4,2.7,1.4,5.4,1.4,8.2
				L378.6,323.2z"/>
			<path class="st2" d="M330.9,221c-10.9,0-20.4,9.5-20.4,20.4s9.5,20.4,20.4,20.4s20.4-9.5,20.4-20.4S341.8,221,330.9,221z"/>
			<path class="st2" d="M333.7,133.8h-154c-2.7,0-4.1,1.4-4.1,2.7l-19.1,57.2h200.3l-19.1-57.2C336.4,135.1,335,133.8,333.7,133.8z"
				/>
		</g>
	</g>
	<title>health-insurance</title>
</g>
<g id="Layer_2_2_">
	<g>
		<path class="st2" d="M325.1,256c-10.4,0-18.9,8.4-18.9,18.9s8.4,18.9,18.9,18.9s18.9-8.4,18.9-18.9S335.6,256,325.1,256z"/>
		<path class="st2" d="M186.9,256c-10.4,0-18.9,8.4-18.9,18.9s8.4,18.9,18.9,18.9c10.4,0,18.9-8.4,18.9-18.9S197.3,256,186.9,256z"
			/>
		<polygon class="st2" points="186.9,174.3 168,230.9 344,230.9 325.1,174.3 		"/>
		<path class="st2" d="M469.9,140.5c0-13-0.5-25.5-0.5-37.5V90.5c-0.1-8-6.6-14.4-14.6-14.4h-12.5c-70.7,0-122.3-19.6-167.4-63
			l-8.8-9c-5.6-5.4-14.5-5.4-20.1,0l-8.6,8.7c-44.6,43.5-96.2,63-167.4,63H57.3c-8.1,0-14.6,6.5-14.7,14.6c0,0,0,0.1,0,0.1v12.8
			c0,12,0,24.5-0.5,37.5c-2.2,125-5.4,296.8,204.9,369.6c5.8,2.2,12.2,2.2,17.9,0C475.9,437.3,472,266.1,469.9,140.5z M369.1,344
			c0,6.9-5.6,12.6-12.6,12.6H344c-6.9,0-12.6-5.7-12.6-12.6v-12.6H180.6V344c0,6.9-5.6,12.6-12.6,12.6h-12.6
			c-6.9,0-12.6-5.7-12.6-12.6V243.4l26.1-75.3c2.6-7.4,9.6-12.7,17.8-12.7h138.2c8.2,0,15.3,5.3,17.8,12.7l26.1,75.3V344z"/>
	</g>
</g>
</svg>
