<?xml version="1.0"?>
<svg xmlns="http://www.w3.org/2000/svg" viewBox="0 0 30 30" width="22px" height="22px">
    <path style="line-height:normal;text-indent:0;text-align:start;text-decoration-line:none;text-decoration-style:solid;text-decoration-color:#000;text-transform:none;block-progression:tb;isolation:auto;mix-blend-mode:normal" d="M 8 3 C 4.686 3 2 5.686 2 9 C 2 11.22 3.208 13.153406 5 14.191406 L 5 24 C 5 25.657 6.343 27 8 27 C 9.657 27 11 25.657 11 24 L 11 14.191406 C 12.792 13.153406 14 11.22 14 9 C 14 8.12 13.806797 7.2862031 13.466797 6.5332031 L 10 10 L 9 10 L 7 10 L 7 7 L 10.466797 3.5332031 C 9.7137969 3.1932031 8.88 3 8 3 z M 15.732422 11 C 15.548422 11.703 15.26925 12.375 14.90625 13 L 16.857422 13 C 17.862422 13 18.795516 13.498938 19.353516 14.335938 L 20.486328 16.033203 C 20.419736 16.023609 20.351329 16.009245 20.285156 16 L 13 16 L 13.050781 24 L 20.355469 24 C 20.9223 25.175306 22.116848 26 23.5 26 C 25.042277 26 26.347277 24.97536 26.808594 23.580078 L 28 23 L 28 19.095703 C 28 18.157703 27.349594 17.343578 26.433594 17.142578 C 25.570396 16.952877 24.418548 16.718881 23.195312 16.490234 L 21.019531 13.226562 C 20.089531 11.832563 18.535375 11 16.859375 11 L 15.732422 11 z M 23.5 21 C 24.340272 21 25 21.659728 25 22.5 C 25 23.340272 24.340272 24 23.5 24 C 22.659728 24 22 23.340272 22 22.5 C 22 21.659728 22.659728 21 23.5 21 z M 8 23 C 8.552 23 9 23.448 9 24 C 9 24.552 8.552 25 8 25 C 7.448 25 7 24.552 7 24 C 7 23.448 7.448 23 8 23 z" font-weight="400" font-family="sans-serif" white-space="normal" overflow="visible"/>
</svg>
