<?xml version="1.0" encoding="utf-8"?>
<!-- Generator: Adobe Illustrator 21.0.0, SVG Export Plug-In . SVG Version: 6.00 Build 0)  -->
<svg version="1.1" id="Layer_1" xmlns="http://www.w3.org/2000/svg" xmlns:xlink="http://www.w3.org/1999/xlink" x="0px" y="0px"
	 viewBox="0 0 48 48" style="enable-background:new 0 0 48 48;" xml:space="preserve">
<style type="text/css">
	.st0{fill:#444;}
</style>
<title>car-rental</title>
<g id="Layer_2">
	<g id="Layer_1-2">
		<g id="surface1">
			<path class="st0" d="M40.4,30.2l-3.6-9c-0.5-1.2-1.7-2-3-2H14.2c-1.3,0-2.5,0.8-3,2l-3.6,9c-0.3,0.7-0.4,1.4-0.4,2.1v14.5
				c0,0.7,0.5,1.2,1.2,1.2h4.8c0.7,0,1.2-0.5,1.2-1.2v-3.6h19.2v3.6c0,0.7,0.5,1.2,1.2,1.2h4.8c0.7,0,1.2-0.5,1.2-1.2V32.3
				C40.8,31.6,40.7,30.9,40.4,30.2z M14.4,23.9c0.2-0.5,0.7-0.9,1.3-0.9h16.6c0.6,0,1.1,0.3,1.3,0.9l3.1,7.3H11.3
				C11.3,31.2,13.5,26,14.4,23.9z M13.2,40.8c-2,0-3.6-1.6-3.6-3.6c0-2,1.6-3.6,3.6-3.6s3.6,1.6,3.6,3.6
				C16.8,39.2,15.2,40.8,13.2,40.8z M34.8,40.8c-2,0-3.6-1.6-3.6-3.6c0-2,1.6-3.6,3.6-3.6s3.6,1.6,3.6,3.6
				C38.4,39.2,36.8,40.8,34.8,40.8z"/>
			<path class="st0" d="M36,4.8h-2.4l-1.8,1.9L30,4.8h-2.4L25.8,6L24,4.8h-0.8c-2-4.2-7-6-11.2-4S6,7.8,8,12
				c1.4,2.9,4.3,4.8,7.6,4.8c3.2,0,6.2-1.9,7.6-4.8H36l2.4-2.4V7.2L36,4.8z M16.8,11.8C16.4,11.9,16,12,15.6,12
				c-2,0-3.6-1.6-3.6-3.6s1.6-3.6,3.6-3.6c0.4,0,0.8,0.1,1.2,0.2V11.8z"/>
		</g>
	</g>
</g>
</svg>
