<?xml version="1.0" encoding="UTF-8"?>
<svg xmlns="http://www.w3.org/2000/svg" xmlns:xlink="http://www.w3.org/1999/xlink" width="22pt" height="22pt" viewBox="0 0 22 22" version="1.1">
<g id="surface1">
<path style=" stroke:none;fill-rule:nonzero;fill:rgb(26.666667%,26.666667%,26.666667%);fill-opacity:1;" d="M 11 6.964844 C 11 5.410156 10.726563 0.273438 10.726563 0.273438 C 10.726563 0.273438 10.265625 0.183594 9.257813 0.0898438 L 9.257813 5.5 C 9.257813 5.773438 8.984375 6.050781 8.707031 6.050781 C 8.339844 6.050781 8.160156 5.773438 8.160156 5.5 L 8.160156 0 C 7.882813 0 7.609375 0 7.332031 0 C 7.058594 0 6.785156 0 6.507813 0 L 6.507813 5.410156 C 6.507813 5.683594 6.234375 5.957031 5.957031 5.957031 C 5.683594 5.957031 5.410156 5.683594 5.410156 5.410156 L 5.410156 0.0898438 C 4.492188 0.183594 4.035156 0.273438 4.035156 0.273438 C 4.035156 0.273438 3.667969 4.492188 3.667969 6.964844 C 3.667969 9.714844 6.417969 9.714844 6.417969 10.816406 C 6.417969 11.734375 5.5 17.417969 5.5 20.167969 C 5.5 21.175781 6.324219 22 7.332031 22 C 8.339844 22 9.167969 21.175781 9.167969 20.167969 C 9.167969 17.417969 8.25 11.734375 8.25 10.726563 C 8.25 9.714844 11 9.714844 11 6.964844 Z "/>
<path style=" stroke:none;fill-rule:nonzero;fill:rgb(26.666667%,26.666667%,26.666667%);fill-opacity:1;" d="M 15.125 13.75 C 15.125 16.589844 13.75 18.148438 13.75 20.167969 C 13.75 21.175781 14.574219 22 15.582031 22 C 16.589844 22 17.417969 21.175781 17.417969 20.167969 L 17.417969 0 C 15.582031 0 12.832031 5.5 12.832031 10.542969 C 12.832031 10.542969 15.125 12.191406 15.125 13.75 Z "/>
</g>
</svg>
