<?xml version="1.0" encoding="utf-8"?>
<!-- Generator: Adobe Illustrator 21.0.0, SVG Export Plug-In . SVG Version: 6.00 Build 0)  -->
<svg version="1.1" id="Layer_1" xmlns="http://www.w3.org/2000/svg" xmlns:xlink="http://www.w3.org/1999/xlink" x="0px" y="0px"
	 viewBox="0 0 48 48" style="enable-background:new 0 0 48 48;" xml:space="preserve">
<style type="text/css">
	.st0{fill:#444;}
</style>
<title>education-other</title>
<g id="Layer_2">
	<g id="Layer_1-2">
		<g id="surface1">
			<path class="st0" d="M21,34.8l-2.4-2.2l-3.4,0.5c-2.2,0.2-4.3-1.2-4.8-3.4l-0.5-3.1H9.7l-7.4,15l8.6-1.2l4.3,7.6l6.2-12.7
				L21,34.8z"/>
			<path class="st0" d="M38.1,26.7l-0.7,3.1c-0.4,1.9-2.1,3.3-4.1,3.4h-0.5l-3.4-0.5L27,34.8l-0.5,0.5L32.8,48l4.3-7.4l8.6,1.2
				L38.1,26.7z"/>
			<path class="st0" d="M39.7,10.6l-4.1-1.9l-0.7-4.3c-0.2-1-1.2-1.6-2.2-1.4l-4.6,0.7l-3.4-3.1c-0.7-0.7-1.9-0.7-2.6,0l-3.4,3.1
				L15,2.8c-0.9-0.2-1.9,0.3-2.1,1.3c0,0.1,0,0.1,0,0.2l-0.7,4.3l-4.1,2C7.2,11,6.8,12,7.2,12.8c0,0.1,0.1,0.1,0.1,0.2l1.9,3.8
				l-1.9,3.8C6.9,21.5,7.2,22.5,8,23l4.1,1.9l0.7,4.3c0.2,1,1.2,1.6,2.2,1.4l4.6-0.7l3.4,3.1c0.7,0.7,1.9,0.7,2.6,0l3.4-3.1l4.6,0.7
				c1,0.2,1.9-0.5,2.2-1.4l0.7-4.3l4.1-1.9c0.8-0.4,1.2-1.4,0.8-2.2c0-0.1-0.1-0.1-0.1-0.2l-2.6-3.8l1.9-3.8
				c0.5-0.8,0.2-1.8-0.6-2.3C39.8,10.6,39.8,10.6,39.7,10.6z"/>
		</g>
	</g>
</g>
</svg>
