<?xml version="1.0" encoding="utf-8"?>
<!-- Generator: Adobe Illustrator 21.0.0, SVG Export Plug-In . SVG Version: 6.00 Build 0)  -->
<svg version="1.1" id="Capa_1" xmlns="http://www.w3.org/2000/svg" xmlns:xlink="http://www.w3.org/1999/xlink" x="0px" y="0px"
	 viewBox="0 0 512 512" style="enable-background:new 0 0 512 512;" xml:space="preserve">
<style type="text/css">
	.st0{fill:#444;}
</style>
<path class="st0" d="M437,90.3c-48.4-48.4-112.6-75-181-75S123.4,42,75,90.3C26.6,138.7,0,203,0,271.4c0,45.8,12.2,90.6,35.2,129.7
	c22.5,38.1,54.4,69.8,92.5,91.9c4.2,2.4,8.9,3.7,13.6,3.7c9.7,0,18.6-5.2,23.5-13.5c7.5-13,3-29.6-9.8-37
	C92.8,410,54.2,343.1,54.2,271.4c0-111.2,90.5-201.8,201.8-201.8c111.2,0,201.8,90.5,201.8,201.8c0,46.9-12.6,86-36.5,112.9
	c-19.1,21.6-44.7,34-70.2,34c-11.6,0-50.3-3.5-63.7-47.8c41-10.9,71.2-48.3,71.2-92.7v-63.3c0-3-2.5-5.4-5.4-5.4h-29.1v-59.3
	c0-12-9.7-21.7-21.7-21.7c-12,0-21.7,9.7-21.7,21.7v59.3h-49.4v-59.3c0-12-9.7-21.7-21.7-21.7c-12,0-21.7,9.7-21.7,21.7v59.3h-29.1
	c-3,0-5.4,2.5-5.4,5.4v63.3c0,47,34,86.2,78.7,94.3l0.5,2.3c5.4,25.2,16.5,46.4,32.9,63c22.2,22.6,52.6,35,85.7,35
	c41,0,81.3-19,110.8-52.2c22.9-25.7,50.1-72.4,50.1-148.8C512,203,485.4,138.7,437,90.3z"/>
</svg>
