<?xml version="1.0" encoding="utf-8"?>
<!-- Generator: Adobe Illustrator 21.0.0, SVG Export Plug-In . SVG Version: 6.00 Build 0)  -->
<svg version="1.1" id="Capa_1" xmlns="http://www.w3.org/2000/svg" xmlns:xlink="http://www.w3.org/1999/xlink" x="0px" y="0px"
	 viewBox="0 0 512 512" style="enable-background:new 0 0 512 512;" xml:space="preserve">
<style type="text/css">
	.st0{fill:#444;}
</style>
<g>
	<g>
		<path class="st0" d="M421,347c0,24.8,20.2,45,45,45s46-20.2,46-45c0-19.5-13.6-36-31-42.2V181h16c10.3,0,17.5-10.1,14.2-19.7
			c-20-60-76.9-100.2-140.1-100.2H324l-30.6-42.2c-16.7-25.1-58.2-25.1-74.9,0L188,61h-47.1C77.7,61,20.8,101.3,0.8,161.2
			c-3.3,9.7,4,19.7,14.2,19.7h16v123.8C13.6,311,0,327.5,0,347c0,24.8,21.2,45,46,45s45-20.2,45-45c0-19.5-12.6-36-30-42.2V181
			c52.6,0,37.3,0,90,0v123.8c-17.4,6.2-30,22.7-30,42.2c0,24.8,20.2,45,45,45s45-20.2,45-45c0-19.5-12.6-36-30-42.2V181h60v241h-45
			c-36.2,0-66.5,25.8-73.5,60H15c-8.3,0-15,6.7-15,15c0,8.3,6.7,15,15,15h482c8.3,0,15-6.7,15-15c0-8.3-6.7-15-15-15H389.5
			c-7-34.2-37.3-60-73.5-60h-45V181h60v123.8c-17.4,6.2-30,22.7-30,42.2c0,24.8,20.2,45,45,45c24.8,0,45-20.2,45-45
			c0-19.5-12.6-36-30-42.2V181c52.7,0,37.4,0,90,0v123.8C433.6,311,421,327.5,421,347z M152.5,151c7-34.2,37.3-60,73.5-60h60
			c36.2,0,66.5,25.8,73.5,60H152.5z"/>
	</g>
</g>
</svg>
