<?xml version="1.0" encoding="utf-8"?>
<!-- Generator: Adobe Illustrator 21.0.0, SVG Export Plug-In . SVG Version: 6.00 Build 0)  -->
<svg version="1.1" id="Layer_1" xmlns="http://www.w3.org/2000/svg" xmlns:xlink="http://www.w3.org/1999/xlink" x="0px" y="0px"
	 viewBox="0 0 480 480" style="enable-background:new 0 0 480 480;" xml:space="preserve">
<style type="text/css">
	.st0{fill:#444;}
</style>
<title>financial-services</title>
<g id="Layer_2">
	<g id="Capa_1">
		<path class="st0" d="M440,99.3H340v-20c0-22.1-17.9-40-40-40H180c-22.1,0-40,17.9-40,40v20H40c-22.1,0-40,17.9-40,40v60
			c0,22.1,17.9,40,40,40h160v-10c0-5.5,4.5-10,10-10c0,0,0,0,0,0h60c5.5,0,10,4.5,10,10c0,0,0,0,0,0v10h160c22.1,0,40-17.9,40-40
			v-60C480,117.3,462.1,99.4,440,99.3z M300,99.3H180v-20h120V99.3z"/>
		<path class="st0" d="M474.4,250.1c-3.4-1.7-7.5-1.3-10.5,1c-6.9,5.3-15.3,8.2-24,8.2H280v30c0,5.5-4.5,10-10,10c0,0,0,0,0,0h-60
			c-5.5,0-10-4.5-10-10c0,0,0,0,0,0v-30H40c-8.7,0-17.1-2.9-24-8.2c-4.4-3.3-10.7-2.5-14,1.9c-1.3,1.7-2,3.9-2,6v140.3
			c0,22.1,17.9,40,40,40h400c22.1,0,40-17.9,40-40V259.1C480,255.3,477.9,251.8,474.4,250.1z"/>
	</g>
</g>
</svg>
