<?xml version="1.0" encoding="utf-8"?>
<!-- Generator: Adobe Illustrator 21.0.0, SVG Export Plug-In . SVG Version: 6.00 Build 0)  -->
<svg version="1.1" id="Layer_1" xmlns="http://www.w3.org/2000/svg" xmlns:xlink="http://www.w3.org/1999/xlink" x="0px" y="0px"
	 viewBox="0 0 64 64" style="enable-background:new 0 0 64 64;" xml:space="preserve">
<style type="text/css">
	.st0{fill:#444;}
</style>
<title>food</title>
<g id="Layer_2">
	<g id="Layer_1-2">
		<g id="surface1">
			<path class="st0" d="M33.3,20.3c0-4.5-0.8-19.5-0.8-19.5s-1.3-0.3-4.3-0.5V16c-0.1,0.9-0.7,1.5-1.6,1.6c-0.8,0-1.6-0.6-1.6-1.5
				c0,0,0-0.1,0-0.1V0h-4.8v15.7c-0.1,0.9-0.7,1.5-1.6,1.6c-0.9-0.1-1.5-0.7-1.6-1.6V0.3c-2.7,0.3-4,0.5-4,0.5S12,13.1,12,20.3
				c0,8,8,8,8,11.2c0,2.7-2.7,19.2-2.7,27.2c0,2.9,2.4,5.3,5.3,5.3s5.3-2.4,5.3-5.3c0-8-2.7-24.5-2.7-27.5S33.3,28.3,33.3,20.3z"/>
			<path class="st0" d="M45.3,40c0,8.3-4,12.8-4,18.7c0,2.9,2.4,5.3,5.3,5.3s5.3-2.4,5.3-5.3V0c-5.3,0-13.3,16-13.3,30.7
				C38.7,30.7,45.3,35.5,45.3,40z"/>
		</g>
	</g>
</g>
</svg>
