<?xml version="1.0" encoding="UTF-8"?>
<svg xmlns="http://www.w3.org/2000/svg" xmlns:xlink="http://www.w3.org/1999/xlink" width="48pt" height="48pt" viewBox="0 0 48 48" version="1.1">
<g id="surface1">
<path style=" stroke:none;fill-rule:nonzero;fill:#444;fill-opacity:1;" d="M 35.078125 48 L 0 48 L 0 46.152344 C 0 45.136719 0.828125 44.308594 1.847656 44.308594 L 33.230469 44.308594 C 34.246094 44.308594 35.078125 45.136719 35.078125 46.152344 Z "/>
<path style=" stroke:none;fill-rule:nonzero;fill:#444;fill-opacity:1;" d="M 25.847656 0 L 9.230469 0 C 6.171875 0 3.691406 2.480469 3.691406 5.539063 L 3.691406 46.152344 L 31.382813 46.152344 L 31.382813 5.539063 C 31.382813 2.480469 28.90625 0 25.847656 0 Z M 27.691406 16.617188 C 27.691406 17.632813 26.863281 18.460938 25.847656 18.460938 L 9.230469 18.460938 C 8.210938 18.460938 7.382813 17.632813 7.382813 16.617188 L 7.382813 5.539063 C 7.382813 4.519531 8.210938 3.691406 9.230469 3.691406 L 25.847656 3.691406 C 26.863281 3.691406 27.691406 4.519531 27.691406 5.539063 Z "/>
<path style="fill:none;stroke-width:2;stroke-linecap:round;stroke-linejoin:round;stroke:#444;stroke-opacity:1;stroke-miterlimit:10;" d="M 16.000326 14.000814 C 18.844076 14.000814 19.999349 13.869629 19.999349 16.999023 C 19.999349 21.034017 20.619303 22.999674 22.500326 22.999674 C 24.379232 22.999674 24.999186 21.034017 24.999186 16.999023 C 24.999186 15.314779 24.999186 12.451986 24.999186 11.061849 C 24.999186 9.214681 25.663574 9.663249 19.000651 3.000326 " transform="matrix(1.846154,0,0,1.846154,0,0)"/>
<path style=" stroke:none;fill-rule:nonzero;fill:#444;fill-opacity:1;" d="M 46.230469 25.273438 C 46.230469 26.292969 45.402344 26.148438 44.382813 24.949219 L 40.691406 21.316406 C 39.671875 20.121094 38.84375 19.269531 38.84375 17.300781 L 38.84375 11 C 38.84375 9.980469 39.671875 10.125 40.691406 11.324219 L 44.382813 14.507813 C 45.402344 15.703125 46.230469 17.269531 46.230469 18.289063 Z "/>
</g>
</svg>
