<?xml version="1.0" encoding="utf-8"?>
<!-- Generator: Adobe Illustrator 21.0.0, SVG Export Plug-In . SVG Version: 6.00 Build 0)  -->
<svg version="1.1" id="Layer_1" xmlns="http://www.w3.org/2000/svg" xmlns:xlink="http://www.w3.org/1999/xlink" x="0px" y="0px"
	 viewBox="0 0 64 64" style="enable-background:new 0 0 64 64;" xml:space="preserve">
<style type="text/css">
	.st0{fill:#444;}
	.st1{fill:none;stroke:#444;stroke-width:2;stroke-linecap:round;stroke-linejoin:round;}
</style>
<title>gifts</title>
<g id="Layer_2">
	<g id="Layer_1-2">
		<g id="surface1">
			<path class="st0" d="M25.7,4.2h12.6v12.6H25.7V4.2z"/>
			<path class="st1" d="M54,7.3c0,3.5-2.8,6.3-6.3,6.3H32C32,13.6,40.2,1,47.8,1C51.2,1,54,3.8,54,7.3z"/>
			<path class="st1" d="M9.9,7.3c0,3.5,2.8,6.3,6.3,6.3H32C32,13.6,23.8,1,16.3,1C12.8,1,9.9,3.8,9.9,7.3z"/>
			<path class="st0" d="M25.7,29.4H3.7v28.4c0,3.5,2.8,6.3,6.3,6.3h15.8V29.4z"/>
			<path class="st0" d="M38.3,64H54c3.5,0,6.3-2.8,6.3-6.3V29.4h-22V64z"/>
			<path class="st0" d="M57.2,13.6H6.8c-3.5,0-6.3,2.8-6.3,6.3v6.3h25.2v-9.5h12.6v9.5h25.2v-6.3C63.5,16.4,60.7,13.6,57.2,13.6z"/>
		</g>
	</g>
</g>
</svg>
