<?xml version="1.0" encoding="utf-8"?>
<!-- Generator: Adobe Illustrator 21.0.0, SVG Export Plug-In . SVG Version: 6.00 Build 0)  -->
<svg version="1.1" id="Layer_1" xmlns="http://www.w3.org/2000/svg" xmlns:xlink="http://www.w3.org/1999/xlink" x="0px" y="0px"
	 viewBox="0 0 64 64" style="enable-background:new 0 0 64 64;" xml:space="preserve">
<style type="text/css">
	.st0{fill:#444;}
	.st1{fill:none;stroke:#444;stroke-width:2;stroke-linecap:round;stroke-linejoin:round;}
</style>
<title>hair</title>
<g id="Layer_2">
	<g id="Layer_1-2">
		<g id="surface1">
			<path class="st0" d="M17.3,2.3C7.8,2.3,0,10.1,0,19.6S7.8,37,17.3,37s17.3-7.8,17.3-17.3S26.9,2.3,17.3,2.3z M17.3,27.1
				c-4.1,0-7.4-3.3-7.4-7.4s3.3-7.4,7.4-7.4s7.4,3.3,7.4,7.4S21.4,27.1,17.3,27.1z"/>
			<path class="st0" d="M49.5,29.5l-29,7.1l5.3-17l-5.3-17l29,7.1V29.5z"/>
			<path class="st1" d="M53.2,11c6.1,0,3.9,2.5,9.9,2.5"/>
			<path class="st1" d="M53.2,18.4c6.1,0,3.9,2.5,9.9,2.5"/>
			<path class="st1" d="M53.2,25.8c6.1,0,3.9,2.5,9.9,2.5"/>
			<path class="st0" d="M6.8,38.5c-0.3-2.5-1-4.9-2.1-7.1l21.7,3.9c0,0-3.5,1.4-4.7,6.6c-0.7,2.9-1.9,6.9-2.6,10
				c-1.7,7.4,1.8,6,0.9,8.6c-0.6,1.7-3.5,1.2-4.1,1.1l-6.6-1.1c-3.8-1.1-4.6-3.5-3.7-7.3C6.4,48.4,7.1,40.7,6.8,38.5z"/>
		</g>
	</g>
</g>
</svg>
