<?xml version="1.0" encoding="utf-8"?>
<!-- Generator: Adobe Illustrator 21.0.0, SVG Export Plug-In . SVG Version: 6.00 Build 0)  -->
<svg version="1.1" id="Layer_1" xmlns="http://www.w3.org/2000/svg" xmlns:xlink="http://www.w3.org/1999/xlink" x="0px" y="0px"
	 viewBox="0 0 128 128" style="enable-background:new 0 0 128 128;" xml:space="preserve">
<style type="text/css">
	.st0{fill:#444;}
</style>
<title>health-fitness</title>
<g id="Layer_2">
	<g id="Layer_1-2">
		<path class="st0" d="M91,7.2h-0.4c-9.7,0.1-19,3.4-26.6,9.4C55.7,9.6,47.6,5.9,40,5.9c-10.7,0-20.9,4.3-28.4,12
			C-3.9,34-3.9,59.5,11.7,75.6l45.3,43.6c4,3.8,10.2,3.8,14.2,0l45.1-43.5l0.1-0.1c15.5-16.1,15.5-41.6,0-57.7
			C109.7,11.1,100.6,7.2,91,7.2z M59.1,83.5L36.2,63.3l8.3-9.3L59,66.8l28-26.5l8.5,9L59.1,83.5z"/>
	</g>
</g>
</svg>
