<?xml version="1.0" encoding="utf-8"?>
<!-- Generator: Adobe Illustrator 21.0.0, SVG Export Plug-In . SVG Version: 6.00 Build 0)  -->
<svg version="1.1" id="Layer_1" xmlns="http://www.w3.org/2000/svg" xmlns:xlink="http://www.w3.org/1999/xlink" x="0px" y="0px"
	 viewBox="0 0 512 512" style="enable-background:new 0 0 512 512;" xml:space="preserve">
<style type="text/css">
	.st0{fill:#444;}
</style>
<g>
	<g>
		<polygon class="st0" points="37.9,90.3 37.9,65 0,65 0,191.4 37.9,191.4 37.9,166.1 94.8,166.1 94.8,90.3 		"/>
	</g>
</g>
<g>
	<g>
		<path class="st0" d="M183.3,27.1c-27.9,0-50.6,20.5-50.6,45.8v366.3c0,25.3,22.6,45.8,50.6,45.8s50.6-20.5,50.6-45.8V72.9
			C233.9,47.6,211.2,27.1,183.3,27.1z"/>
	</g>
</g>
<g>
	<g>
		<path class="st0" d="M322.4,27.1c-27.9,0-50.6,20.5-50.6,45.8v366.3c0,25.3,22.6,45.8,50.6,45.8s50.6-20.5,50.6-45.8V72.9
			C372.9,47.6,350.3,27.1,322.4,27.1z"/>
	</g>
</g>
<g>
	<g>
		<path class="st0" d="M461.4,27.1c-27.9,0-50.6,20.5-50.6,45.8v366.3c0,25.3,22.6,45.8,50.6,45.8s50.6-20.5,50.6-45.8V72.9
			C512,47.6,489.4,27.1,461.4,27.1z"/>
	</g>
</g>
</svg>
