<?xml version="1.0" encoding="utf-8"?>
<!-- Generator: Adobe Illustrator 21.0.0, SVG Export Plug-In . SVG Version: 6.00 Build 0)  -->
<svg version="1.1" id="Layer_1" xmlns="http://www.w3.org/2000/svg" xmlns:xlink="http://www.w3.org/1999/xlink" x="0px" y="0px"
	 viewBox="0 0 64 64" style="enable-background:new 0 0 64 64;" xml:space="preserve">
<style type="text/css">
	.st0{fill:#444;}
</style>
<title>home-maintenance</title>
<g id="Layer_2">
	<g id="Layer_1-2">
		<path class="st0" d="M25.6,0v9.6c-1.9,1.2-4.1,1.8-6.4,1.9c-2.3-0.1-4.5-0.7-6.4-1.9V0c-0.4,0.1-9.6,8.3-9.6,12.8
			c0,1.9,0.8,3.7,2.1,5.1c1.8,1.9,3.9,3.5,6.3,4.7l0,0l1.2,0.6v34.4c0,3.5,2.9,6.4,6.4,6.4s6.4-2.9,6.4-6.4V23.2l1.2-0.7
			c2.4-1.2,4.6-2.8,6.4-4.8c1.3-1.3,2-3.1,2-5C35.2,8.3,26,0.1,25.6,0z"/>
		<path class="st0" d="M57.6,35.2h-3.2V12.8l3.2-3.2L54.4,0H48l-3.2,9.6l3.2,3.2v22.4h-3.2c-1.8,0-3.2,1.4-3.2,3.2
			c0,1.8,1.4,3.2,3.2,3.2v16c0,3.5,2.9,6.4,6.4,6.4c3.5,0,6.4-2.9,6.4-6.4v-16c1.8,0,3.2-1.4,3.2-3.2C60.8,36.6,59.4,35.2,57.6,35.2
			z"/>
	</g>
</g>
</svg>
