<?xml version="1.0" encoding="utf-8"?>
<!-- Generator: Adobe Illustrator 21.0.0, SVG Export Plug-In . SVG Version: 6.00 Build 0)  -->
<svg version="1.1" id="Layer_1" xmlns="http://www.w3.org/2000/svg" xmlns:xlink="http://www.w3.org/1999/xlink" x="0px" y="0px"
	 viewBox="0 0 480 480" style="enable-background:new 0 0 480 480;" xml:space="preserve">
<style type="text/css">
	.st0{fill:none;}
	.st1{fill:#444;}
</style>
<title>home</title>
<path class="st0" d="M207.2,234.6c0-19.1,12.8-33.5,31.9-33.5s31.9,14.3,31.9,33.5v22.3h31.9v-22.3c0-38.3-25.5-65.3-63.8-65.3
	s-63.8,27.1-63.8,65.3v22.3h31.9V234.6z"/>
<path class="st0" d="M325.1,256.9h-22.3h-31.9h-63.8h-31.9H153c-9.6,0-9.6,0-9.6,9.6v140.3c0,9.6,0,9.6,9.6,9.6h172.1
	c9.6,0,9.6,0,9.6-9.6V266.4C334.7,256.9,334.7,256.9,325.1,256.9z"/>
<path class="st1" d="M239.1,15.7L0,238.9h47.8v188.3h0v10.9c-0.7,12.7,9,23.1,20.9,23.8c0.7,0,1.5,0,3,0h41.5h78h95.6h84.7h34.9
	c12.7,0.7,23.2-8.9,23.9-20.9c0-1.5,0-2.2,0-3v-10.9V238.9h47.8L239.1,15.7z M334.7,388.7c0,9.6,0,9.6-9.6,9.6H153
	c-9.6,0-9.6,0-9.6-9.6V248.4c0-9.6,0-9.6,9.6-9.6h22.3v-22.3c0-38.3,25.5-65.3,63.8-65.3s63.8,27.1,63.8,65.3v22.3h22.3
	c9.6,0,9.6,0,9.6,9.6V388.7z"/>
<path class="st1" d="M239.1,183.1c-19.1,0-31.9,14.3-31.9,33.5v22.3h63.8v-22.3C270.9,197.4,258.2,183.1,239.1,183.1z"/>
</svg>
