<?xml version="1.0" encoding="UTF-8"?>
<svg xmlns="http://www.w3.org/2000/svg" xmlns:xlink="http://www.w3.org/1999/xlink" width="22pt" height="22pt" viewBox="0 0 22 22" version="1.1">
<g id="surface1">
<path style=" stroke:none;fill-rule:nonzero;fill:rgb(26.666667%,26.666667%,26.666667%);fill-opacity:1;" d="M 21.558594 12.113281 L 11.597656 2.152344 C 11.265625 1.820313 10.734375 1.820313 10.402344 2.152344 L 0.464844 12.085938 C 0.136719 12.417969 0.136719 12.953125 0.464844 13.285156 C 0.796875 13.613281 1.332031 13.613281 1.664063 13.285156 L 11 3.945313 L 20.363281 13.308594 C 20.527344 13.476563 20.746094 13.558594 20.960938 13.558594 C 21.179688 13.558594 21.394531 13.476563 21.558594 13.308594 C 21.890625 12.980469 21.890625 12.445313 21.558594 12.113281 Z "/>
<path style=" stroke:none;fill-rule:nonzero;fill:rgb(26.666667%,26.666667%,26.666667%);fill-opacity:1;" d="M 16.078125 7.828125 L 16.078125 2.550781 C 16.078125 2.085938 16.457031 1.707031 16.921875 1.707031 L 17.769531 1.707031 C 18.234375 1.707031 18.617188 2.085938 18.617188 2.550781 L 18.617188 10.367188 Z "/>
<path style=" stroke:none;fill-rule:nonzero;fill:rgb(26.666667%,26.666667%,26.666667%);fill-opacity:1;" d="M 11 5.5 L 1.691406 14.808594 L 1.691406 19.460938 C 1.691406 20.863281 2.828125 22 4.230469 22 L 17.769531 22 C 19.171875 22 20.308594 20.863281 20.308594 19.460938 L 20.308594 14.808594 Z M 13.539063 19.460938 C 13.539063 19.929688 13.160156 20.308594 12.691406 20.308594 L 9.308594 20.308594 C 8.839844 20.308594 8.460938 19.929688 8.460938 19.460938 L 8.460938 14.382813 C 8.460938 13.917969 8.839844 13.539063 9.308594 13.539063 L 12.691406 13.539063 C 13.160156 13.539063 13.539063 13.917969 13.539063 14.382813 Z "/>
</g>
</svg>
