<?xml version="1.0" encoding="utf-8"?>
<!-- Generator: Adobe Illustrator 21.0.0, SVG Export Plug-In . SVG Version: 6.00 Build 0)  -->
<svg version="1.1" id="Layer_1" xmlns="http://www.w3.org/2000/svg" xmlns:xlink="http://www.w3.org/1999/xlink" x="0px" y="0px"
	 viewBox="0 0 64 64" style="enable-background:new 0 0 64 64;" xml:space="preserve">
<style type="text/css">
	.st0{fill:#444;}
</style>
<title>income</title>
<g id="Layer_2">
	<g id="Layer_1-2">
		<g id="surface1">
			<path class="st0" d="M30.2,4.7c-8,0-14.5,6.5-14.5,14.5s6.5,14.5,14.5,14.5s14.5-6.5,14.5-14.5S38.2,4.7,30.2,4.7z M32.5,25.6H28
				v-8.7h-3.2l4.5-4.5h3.5v13.2H32.5z"/>
			<path class="st0" d="M63.3,37.2c-1-0.9-2.2-1.5-3.5-1.6c-1.9-0.3-12.2-1.6-13.5-1.9c-1.9-0.3-4.2,0.6-7.1,2.6
				c-2,1.3-4,2.5-6.1,3.5c0.3,0.3,1.9,0.3,1.9,0.3h0.3c3.4,0,6.1,2.7,6.1,6.1v0.6c0,3.4-2.7,6.1-6.1,6.1h-6.8
				c-5.8,0-11.3-5.8-11.3-5.8c3.6,1.4,7.4,2.3,11.3,2.6h6.4c1.8,0,3.2-1.4,3.2-3.2c0-1.7-1.2-3-2.9-3.2c-6.1-0.6-8.7-3.2-8.7-3.2
				c-2.4-1.8-4.8-3.6-7.4-5.1C12.6,31.1,0,39.1,0,39.1l8.4,18.3c3.1-1.6,6.8-1.7,10-0.3c3.9,1.6,6.1,2.9,10,4.2
				c5.5,1.9,7.4,1.6,10.9-1c3.2-2.3,18.6-14.5,20.9-16.1C63.3,41.3,65,39.1,63.3,37.2z"/>
			<path class="st0" d="M46.3,1.5c-2.6,0-5.1,0.9-7.1,2.6c1.9,1.2,3.7,2.8,5.1,4.5l1-1h2.6v11.6c-0.1,1.6-0.3,3.2-0.6,4.8
				c5.8-0.6,10.2-5.4,10.3-11.3C57.5,6.6,52.5,1.6,46.3,1.5z"/>
		</g>
	</g>
</g>
</svg>
