<?xml version="1.0" encoding="utf-8"?>
<!-- Generator: Adobe Illustrator 21.0.0, SVG Export Plug-In . SVG Version: 6.00 Build 0)  -->
<svg version="1.1" id="Layer_1" xmlns="http://www.w3.org/2000/svg" xmlns:xlink="http://www.w3.org/1999/xlink" x="0px" y="0px"
	 viewBox="0 0 512 512" style="enable-background:new 0 0 512 512;" xml:space="preserve">
<style type="text/css">
	.st0{fill:#444;}
</style>
<title>income-other</title>
<g id="Layer_2">
	<g id="Layer_2-2">
		<path class="st0" d="M352,144H160C88.4,198.4,32,300.4,32,380.6C32,512,151,512,256,512s224,0,224-131.4
			C480,300.4,423.5,198.4,352,144z M288.5,302.3L288.5,302.3c11.4-0.3,20.8,8.8,21,20.1c0.3,11.4-8.8,20.8-20.1,21
			c-0.3,0-0.6,0-0.9,0h-59.3C237,374.4,262,397,291.5,397c6.6,0,13.2-1.1,19.5-3.4c10.7-3.9,22.5,1.7,26.4,12.4s-1.7,22.5-12.4,26.4
			l0,0c-10.7,3.9-22,5.9-33.4,5.9c-52.4,0-96.1-41.6-104.5-96c-10.7-3.9-16.1-15.7-12.2-26.4c2.1-5.7,6.6-10.2,12.2-12.2
			c8.5-54.4,52.1-96,104.5-96c11.4,0,22.7,2,33.4,5.9c10.7,3.9,16.2,15.7,12.4,26.4c-3.9,10.7-15.7,16.2-26.4,12.4
			c-6.2-2.3-12.8-3.4-19.5-3.4c-29.5,0-54.5,22.7-62.3,53.5L288.5,302.3z M160,112h192l43.4-63.5c9.1-15.2,4.2-34.8-11-43.9
			c-5-3-10.7-4.6-16.5-4.6h-48c-8.5,0-16.6,3.4-22.6,9.4L272,34.7L246.6,9.4c-6-6-14.1-9.4-22.6-9.4h-80c-17.7,0-32,14.3-32,32
			c0,5.8,1.6,11.5,4.6,16.5L160,112z"/>
	</g>
</g>
</svg>
