<?xml version="1.0" encoding="UTF-8"?>
<svg xmlns="http://www.w3.org/2000/svg" xmlns:xlink="http://www.w3.org/1999/xlink" width="52pt" height="52pt" viewBox="0 0 52 52" version="1.1">
<g id="surface1">
<path style=" stroke:none;fill-rule:nonzero;fill:#444;fill-opacity:1;" d="M 30.40625 34.277344 L 30.21875 34.277344 C 28.785156 38.3125 26.175781 40.332031 22.398438 40.332031 C 19.5625 40.332031 17.277344 39.273438 15.542969 37.160156 C 13.808594 35.046875 12.941406 32.117188 12.941406 28.378906 C 12.941406 23.539063 14.140625 19.601563 16.542969 16.566406 C 18.945313 13.53125 21.84375 12.015625 25.230469 12.015625 C 28.292969 12.015625 30.210938 13.253906 30.988281 15.726563 L 31.113281 15.726563 L 31.421875 12.589844 L 38.351563 12.589844 C 37.429688 21.59375 36.964844 27.480469 36.964844 30.246094 C 36.964844 33.207031 37.742188 34.6875 39.304688 34.6875 C 40.949219 34.6875 42.304688 33.566406 43.371094 31.324219 C 44.441406 29.085938 44.976563 26.15625 44.976563 22.542969 C 44.976563 17.597656 43.445313 13.542969 40.386719 10.382813 C 37.324219 7.222656 33.054688 5.644531 27.570313 5.644531 C 21.695313 5.644531 16.8125 7.753906 12.921875 11.96875 C 9.03125 16.1875 7.085938 21.328125 7.085938 27.394531 C 7.085938 33.273438 8.804688 37.902344 12.242188 41.285156 C 15.683594 44.664063 20.433594 46.359375 26.492188 46.359375 C 31.113281 46.359375 35.34375 45.449219 39.183594 43.632813 L 39.183594 49.6875 C 35.671875 51.226563 31.152344 52 25.628906 52 C 18.050781 52 11.882813 49.765625 7.128906 45.292969 C 2.375 40.824219 0 34.816406 0 27.269531 C 0 19.574219 2.535156 13.105469 7.609375 7.863281 C 12.679688 2.621094 19.210938 0 27.199219 0 C 34.59375 0 40.574219 2.035156 45.144531 6.105469 C 49.714844 10.175781 52 15.535156 52 22.195313 C 52 27.671875 50.605469 32.0625 47.808594 35.371094 C 45.019531 38.679688 41.554688 40.335938 37.429688 40.335938 C 35.398438 40.335938 33.742188 39.773438 32.46875 38.652344 C 31.195313 37.53125 30.507813 36.070313 30.40625 34.277344 Z M 26.308594 17.535156 C 24.460938 17.535156 22.957031 18.617188 21.796875 20.785156 C 20.632813 22.953125 20.054688 25.460938 20.054688 28.3125 C 20.054688 30.34375 20.449219 31.925781 21.238281 33.054688 C 22.03125 34.1875 23.050781 34.753906 24.304688 34.753906 C 26.234375 34.753906 27.753906 33.6875 28.863281 31.550781 C 29.972656 29.414063 30.527344 26.5625 30.527344 22.988281 C 30.527344 21.296875 30.140625 19.964844 29.371094 18.992188 C 28.601563 18.023438 27.582031 17.535156 26.308594 17.535156 Z "/>
</g>
</svg>
