<?xml version="1.0" encoding="utf-8"?>
<!-- Generator: Adobe Illustrator 21.0.0, SVG Export Plug-In . SVG Version: 6.00 Build 0)  -->
<svg version="1.1" id="Layer_1" xmlns="http://www.w3.org/2000/svg" xmlns:xlink="http://www.w3.org/1999/xlink" x="0px" y="0px"
	 viewBox="0 0 128 128" style="enable-background:new 0 0 128 128;" xml:space="preserve">
<style type="text/css">
	.st0{fill:#444;}
</style>
<title>it-services</title>
<g id="Layer_2">
	<g id="Layer_1-2">
		<path class="st0" d="M21.9,85.9c0,23.2,18.8,42.1,42.1,42.1s42.1-18.8,42.1-42.1V53.7H21.9V85.9z"/>
		<path class="st0" d="M64,0C40.8,0,21.9,18.8,21.9,42.1v4.8h84.1v-4.8C106.1,18.8,87.2,0,64,0z M69.6,30c0,3.1-2.5,5.6-5.6,5.6l0,0
			c-3.1,0-5.6-2.5-5.6-5.6V17.2c0-3.1,2.5-5.6,5.6-5.7c0,0,0,0,0,0l0,0c3.1,0,5.6,2.5,5.6,5.6V30z"/>
	</g>
</g>
</svg>
