<?xml version="1.0" encoding="utf-8"?>
<!-- Generator: Adobe Illustrator 21.0.0, SVG Export Plug-In . SVG Version: 6.00 Build 0)  -->
<svg version="1.1" id="Layer_1" xmlns="http://www.w3.org/2000/svg" xmlns:xlink="http://www.w3.org/1999/xlink" x="0px" y="0px"
	 viewBox="0 0 64 64" style="enable-background:new 0 0 64 64;" xml:space="preserve">
<style type="text/css">
	.st0{fill:#444;}
</style>
<title>jewelry</title>
<g>
	<path class="st0" d="M0.6,20.3c3.7,0,7.4,0,11.1,0c1.3,0,2.7,0,4,0c0.2,0,0.4-0.2,0.5-0.4c1-3.6,1.9-7.2,2.9-10.9
		c0.2-0.7,0.4-1.4,0.5-2c0.1-0.3-0.2-0.7-0.5-0.7c-3.3,0-6.7,0-10,0c0,0,0,0,0,0c-0.2,0-0.3,0.1-0.4,0.2c0,0,0,0,0,0.1
		c-2,3.1-4,6.2-6.1,9.2c-0.8,1.2-1.6,2.4-2.4,3.6C-0.1,19.9,0.2,20.3,0.6,20.3z"/>
	<path class="st0" d="M20.2,20.3c3,0,6.1,0,9.1,0c4.3,0,8.6,0,13,0c0.5,0,1,0,1.4,0c0.2,0,0.3-0.1,0.4-0.2c0.1-0.1,0.1-0.3,0.1-0.4
		c-1-3.6-1.9-7.2-2.9-10.9c-0.2-0.7-0.4-1.4-0.5-2c-0.1-0.2-0.3-0.4-0.5-0.4c-3.6,0-7.2,0-10.8,0c-2,0-4,0-6,0
		c-0.2,0-0.4,0.2-0.5,0.4c-1,3.6-1.9,7.2-2.9,10.9c-0.2,0.7-0.4,1.4-0.5,2C19.6,20,19.9,20.3,20.2,20.3z"/>
	<path class="st0" d="M47.3,17.9c0.2,0.7,0.4,1.4,0.5,2c0.1,0.2,0.3,0.4,0.5,0.4c3.7,0,7.4,0,11.1,0c1.3,0,2.7,0,4,0
		c0.2,0,0.3-0.1,0.4-0.2c0.1-0.1,0.2-0.4,0-0.6c-2-3.1-4-6.2-6.1-9.2c-0.8-1.2-1.6-2.4-2.4-3.6c-0.3-0.4-1-0.3-1.4-0.3
		c-1,0-2.1,0-3.1,0c-2,0-4,0-5.9,0c-0.3,0-0.6,0.3-0.5,0.7C45.4,10.7,46.3,14.3,47.3,17.9z"/>
	<path class="st0" d="M26,50.3c-1.7-4.5-3.3-8.9-5-13.4c-1.4-3.7-2.8-7.4-4.1-11.1c-0.2-0.6-0.4-1.2-0.7-1.8c0,0,0-0.1,0-0.1
		c-0.1-0.2-0.2-0.3-0.5-0.3c-3.7,0-7.4,0-11.1,0c-1.3,0-2.6,0-3.9,0c-0.5,0-0.7,0.6-0.4,0.9c1.3,1.5,2.5,3,3.8,4.6
		C7,32.6,9.9,36,12.7,39.5c3,3.7,6.1,7.3,9.1,11c1.8,2.2,3.6,4.4,5.4,6.5c0.1,0.1,0.2,0.2,0.3,0.3c0.3,0.4,1.1,0,0.9-0.5
		C27.7,54.6,26.9,52.5,26,50.3z"/>
	<path class="st0" d="M43.7,25.4c0.1-0.4,0.3-0.7,0.4-1.1c0.1-0.2,0-0.4-0.2-0.5c-0.1-0.1-0.2-0.1-0.3-0.1c-3.1,0-6.2,0-9.2,0
		c-4.2,0-8.5,0-12.7,0c-0.4,0-0.8,0-1.1,0c-0.3,0-0.6,0.3-0.5,0.7c0.8,2.2,1.6,4.5,2.4,6.7c1.6,4.5,3.3,9,4.9,13.5
		c1.3,3.5,2.5,6.9,3.8,10.4c0.1,0.4,0.3,0.7,0.4,1.1c0.2,0.5,0.8,0.5,1,0c0.8-2.2,1.6-4.5,2.4-6.7c1.6-4.5,3.3-9,4.9-13.5
		C41.1,32.3,42.4,28.9,43.7,25.4z"/>
	<path class="st0" d="M63.5,23.7c-0.1-0.1-0.2-0.1-0.3,0c-3.6,0-7.3,0-10.9,0c-1.3,0-2.6,0-3.9,0c-0.2,0-0.4,0.2-0.5,0.4
		c-0.8,2.2-1.6,4.3-2.4,6.5c-1.7,4.5-3.3,8.9-5,13.4c-1.4,3.7-2.8,7.4-4.2,11.1c-0.2,0.6-0.5,1.3-0.7,1.9c-0.2,0.5,0.5,0.9,0.9,0.5
		c1.3-1.5,2.5-3,3.8-4.6c2.9-3.4,5.7-6.9,8.6-10.3c3-3.7,6.1-7.3,9.1-11c1.8-2.2,3.7-4.4,5.5-6.6c0.1-0.1,0.2-0.3,0.3-0.4
		c0,0,0,0,0,0C63.9,24.3,63.8,23.8,63.5,23.7z"/>
</g>
</svg>
