<?xml version="1.0" encoding="utf-8"?>
<!-- Generator: Adobe Illustrator 21.0.0, SVG Export Plug-In . SVG Version: 6.00 Build 0)  -->
<svg version="1.1" id="Layer_1" xmlns="http://www.w3.org/2000/svg" xmlns:xlink="http://www.w3.org/1999/xlink" x="0px" y="0px"
	 viewBox="0 0 90.7 90.7" style="enable-background:new 0 0 90.7 90.7;" xml:space="preserve">
<style type="text/css">
	.st0{fill:#999999;}
</style>
<title>Hashtag</title>
<path class="st0" d="M80.7,25.8H68.2l2.3-14.5c0.6-2.4-0.9-4.9-3.4-5.5c-0.3-0.1-0.7-0.1-1-0.1c-3.1,0.2-5.7,2.5-6.2,5.6l-2.3,14.5
	H39.3l2.3-14.5c0.6-2.4-0.9-4.9-3.4-5.5c-0.3-0.1-0.7-0.1-1.1-0.1c-3.1,0.2-5.7,2.5-6.2,5.6l-2.3,14.5H16.2c-3,0.1-5.6,2.3-6.2,5.3
	c-0.5,2.4,1.1,4.7,3.5,5.2c0.3,0.1,0.7,0.1,1,0.1H27l-2.9,18.3H11.6C8.6,54.8,6,57,5.4,60c-0.5,2.4,1.1,4.7,3.5,5.2
	c0.3,0.1,0.6,0.1,1,0.1h12.6l-2.3,14.2c-0.6,2.4,0.9,4.9,3.4,5.5c0.3,0.1,0.7,0.1,1,0.1c3.1-0.2,5.7-2.5,6.2-5.6L33,65.2h18.3
	l-2.2,14.1c-0.6,2.5,0.9,4.9,3.4,5.5c0.3,0.1,0.7,0.1,1,0.1c3.1-0.2,5.7-2.5,6.2-5.6l2.2-14.1h12.5c3-0.1,5.6-2.3,6.2-5.3
	c0.5-2.4-1.1-4.7-3.5-5.2c-0.3-0.1-0.7-0.1-1-0.1H63.6l2.9-18.2H79c3-0.1,5.6-2.3,6.2-5.3c0.6-2.4-0.9-4.7-3.3-5.3
	C81.5,25.8,81.1,25.8,80.7,25.8z M53,54.6H34.8l2.9-18.2h18.2L53,54.6z"/>
</svg>
