<?xml version="1.0" encoding="utf-8"?>
<!-- Generator: Adobe Illustrator 21.0.0, SVG Export Plug-In . SVG Version: 6.00 Build 0)  -->
<svg version="1.1" id="Layer_1" xmlns="http://www.w3.org/2000/svg" xmlns:xlink="http://www.w3.org/1999/xlink" x="0px" y="0px"
	 viewBox="0 0 512 512" style="enable-background:new 0 0 512 512;" xml:space="preserve">
<style type="text/css">
	.st0{fill:#444;}
</style>
<circle class="st0" cx="337.2" cy="62.2" r="62.2"/>
<path class="st0" d="M493.3,249.2c-2.7-12-14.5-19.5-26.5-16.8c-0.1,0-13.6,2.4-29.8-3.7c-24.6-9.3-43.4-32.8-55.8-69.9
	c-1.2-3.6-3.3-6.7-5.9-9.1l-99.6-19.4c-0.9-0.4-1.9-0.7-2.9-0.9c-5.8-1.6-56.2-17.8-44.8-103.9c1.6-12.2-6.9-23.3-19.1-24.9
	c-12.2-1.6-23.3,6.9-24.9,19.1c-13.3,100.1,42.2,142.7,75.6,152.1l-27.1,139l0.1,0l-24.4,124.7c-2.3,12,5.5,23.7,17.5,26
	c1.4,0.3,2.9,0.4,4.3,0.4c10.4,0,19.7-7.4,21.8-17.9l24.4-124.7l0.5,0.1l19.3,3.8l0.4,0.1l-12.9,66.1c-2.3,12,5.5,23.7,17.5,26
	c1.4,0.3,2.9,0.4,4.3,0.4c10.4,0,19.7-7.4,21.8-17.9l15.4-78.9l18.5-95l0.7-3.8c29.5,44.6,69.3,57.4,97.6,57.4
	c6.5,0,12.3-0.7,17.3-1.8C488.4,273,496,261.2,493.3,249.2z"/>
<path class="st0" d="M163,440.7c0,39.4-31.9,71.3-71.3,71.3l0,0c-39.4,0-71.3-31.9-71.3-71.3l0,0c0-39.4,31.9-71.3,71.3-71.3l0,0
	C131.1,369.3,163,401.3,163,440.7L163,440.7z"/>
</svg>
