<?xml version="1.0" encoding="utf-8"?>
<!-- Generator: Adobe Illustrator 21.0.0, SVG Export Plug-In . SVG Version: 6.00 Build 0)  -->
<svg version="1.1" id="Layer_1" xmlns="http://www.w3.org/2000/svg" xmlns:xlink="http://www.w3.org/1999/xlink" x="0px" y="0px"
	 viewBox="0 0 40 40" style="enable-background:new 0 0 40 40;" xml:space="preserve">
<style type="text/css">
	.st0{fill:#444;}
</style>
<title>kids</title>
<g id="Layer_2">
	<g id="Layer_1-2">
		<path class="st0" d="M14,19.5c-1.4,0-2.5,1.1-2.5,2.5s1.1,2.5,2.5,2.5s2.5-1.1,2.5-2.5S15.4,19.5,14,19.5z M26,19.5
			c-1.4,0-2.5,1.1-2.5,2.5s1.1,2.5,2.5,2.5s2.5-1.1,2.5-2.5S27.4,19.5,26,19.5z M20,0C9,0,0,9,0,20s9,20,20,20s20-9,20-20S31,0,20,0
			z M20,36c-8.8,0-16-7.1-16-15.9c0-0.6,0-1.2,0.1-1.8c4.7-2.1,8.5-6,10.4-10.7c3.7,5.3,9.8,8.4,16.3,8.4c1.5,0,3-0.2,4.5-0.5
			c0.4,1.5,0.7,3,0.7,4.5C36,28.8,28.8,36,20,36z"/>
	</g>
</g>
</svg>
