<?xml version="1.0" encoding="utf-8"?>
<!-- Generator: Adobe Illustrator 21.0.0, SVG Export Plug-In . SVG Version: 6.00 Build 0)  -->
<svg version="1.1" id="Layer_1" xmlns="http://www.w3.org/2000/svg" xmlns:xlink="http://www.w3.org/1999/xlink" x="0px" y="0px"
	 viewBox="0 0 128 128" style="enable-background:new 0 0 128 128;" xml:space="preserve">
<style type="text/css">
	.st0{fill:#444;}
</style>
<title>legal-services</title>
<g id="Layer_2">
	<g id="Layer_1-2">
		<path class="st0" d="M125.2,74.9l-21.5-42.3v-0.1H82.6c-2.3-10.3-12.5-16.8-22.8-14.5c-7.2,1.6-12.8,7.2-14.5,14.5h-21v0.1
			L2.8,74.9C0.9,78.3,0,82.2,0,86.1c0,13.4,10.9,24.3,24.3,24.3c13.4,0,24.3-10.9,24.3-24.3c0-3.9-0.9-7.7-2.7-11.2L28.5,40.8h16.8
			c2.3,10.3,12.5,16.8,22.8,14.5C75.3,53.6,81,48,82.6,40.8h16.9L82.1,74.9c-1.8,3.5-2.8,7.3-2.8,11.2c0.3,13.4,11.5,24.1,24.9,23.8
			c13-0.3,23.4-10.8,23.8-23.8C128,82.2,127,78.4,125.2,74.9z M11,76.8l13.3-26l13.3,26L11,76.8z M90.4,76.8l13.3-26l13.3,26
			L90.4,76.8z"/>
	</g>
</g>
</svg>
