<?xml version="1.0" encoding="utf-8"?>
<!-- Generator: Adobe Illustrator 21.0.0, SVG Export Plug-In . SVG Version: 6.00 Build 0)  -->
<svg version="1.1" id="Layer_1" xmlns="http://www.w3.org/2000/svg" xmlns:xlink="http://www.w3.org/1999/xlink" x="0px" y="0px"
	 viewBox="0 0 480 480" style="enable-background:new 0 0 480 480;" xml:space="preserve">
<style type="text/css">
	.st0{fill:#444;}
</style>
<title>car-rental</title>
<g>
	<path class="st0" d="M41.8,312.7c0,0,21.9-51.8,30.9-72.7c2-5,7-9,12.9-9h141.1c4.1-13.5,10.2-26.2,18-37.8h-174
		c-12.9,0-24.9,8-29.9,19.9L4.9,302.8c-3,7-4,13.9-4,20.9v144.4c0,7,5,11.9,11.9,11.9h47.8c7,0,11.9-5,11.9-11.9v-35.8h191.2v35.8
		c0,7,5,11.9,11.9,11.9h41.8c-34.5-45.8-76.4-109.7-91.3-167.3H41.8z M60.7,408.3c-19.9,0-35.8-15.9-35.8-35.8
		c0-19.9,15.9-35.8,35.8-35.8s35.8,15.9,35.8,35.8C96.5,392.4,80.6,408.3,60.7,408.3z"/>
	<path class="st0" d="M368.9,164.7C307.3,164.7,257,214,257,274.4c0,82.2,111.9,203.5,111.9,203.5s111.9-121.4,111.9-203.6
		C480.8,214,430.5,164.7,368.9,164.7z M368.9,332.1c-31.4,0-56.9-25.5-56.9-56.9c0-31.4,25.5-56.9,56.9-56.9
		c31.4,0,56.9,25.5,56.9,56.9C425.9,306.7,400.4,332.1,368.9,332.1z"/>
	<path class="st0" d="M84.6,168.4c31.9,0,61.7-18.9,75.7-47.8h127.4l23.9-23.9V72.9L287.7,49h-23.9l-17.9,18.9L228,49h-23.9
		l-17.9,11.9L168.2,49h-8C140.3,7.1,90.6-10.8,48.8,9.1C6.9,29-11,78.8,8.9,120.6C22.9,149.5,51.7,168.4,84.6,168.4z M84.6,49
		c4,0,8,1,11.9,2v67.7c-4,1-8,2-11.9,2c-19.9,0-35.8-15.9-35.8-35.8C48.8,64.9,64.7,49,84.6,49z"/>
</g>
</svg>
