<?xml version="1.0" encoding="UTF-8"?>
<svg xmlns="http://www.w3.org/2000/svg" xmlns:xlink="http://www.w3.org/1999/xlink" width="52pt" height="52pt" viewBox="0 0 52 52" version="1.1">
<g id="surface1">
<path style=" stroke:none;fill-rule:nonzero;fill:#444;fill-opacity:1;" d="M 43.125 0.339844 L 20.90625 7.136719 C 18.214844 7.90625 16.03125 10.714844 16.03125 13.40625 L 16.03125 36.519531 C 16.03125 36.519531 16.03125 36.835938 16.03125 36.84375 C 16.03125 36.84375 14.421875 35.757813 10.835938 36.265625 C 5.570313 37.015625 1.300781 41.054688 1.300781 45.296875 C 1.300781 49.535156 5.570313 52.132813 10.835938 51.386719 C 16.105469 50.640625 19.96875 46.722656 19.96875 42.480469 C 19.96875 42.480469 19.96875 24.351563 19.96875 22.46875 C 19.96875 20.589844 22.226563 19.785156 22.226563 19.785156 L 41.875 13.625 C 41.875 13.625 44.046875 12.894531 44.046875 14.90625 C 44.046875 16.921875 44.046875 30.96875 44.046875 30.96875 C 44.046875 30.96875 44.046875 30.972656 44.046875 30.980469 C 44.046875 30.980469 42.046875 29.828125 38.460938 30.265625 C 33.195313 30.902344 28.925781 34.863281 28.925781 39.101563 C 28.925781 43.34375 33.195313 46.027344 38.460938 45.386719 C 43.730469 44.746094 48 40.792969 48 36.550781 L 48 3.824219 C 48 1.132813 45.816406 -0.429688 43.125 0.339844 Z "/>
</g>
</svg>
