<svg xmlns="http://www.w3.org/2000/svg" viewBox="0 0 137.81 141.11"><defs><style>.cls-1{fill:#444;}</style></defs><title>online-learning</title><g id="Layer_2" data-name="Layer 2"><g id="Layer_1-2" data-name="Layer 1"><path class="cls-1" d="M131.41.3,70,22.85a4.76,4.76,0,0,1-3.31,0L6.43.34A4.76,4.76,0,0,0,0,4.81V112.43a4.76,4.76,0,0,0,3.09,4.46L66.76,140.8a4.76,4.76,0,0,0,3.33,0l64.61-23.93a4.76,4.76,0,0,0,3.11-4.47V4.77A4.76,4.76,0,0,0,131.41.3ZM86.46,98.51l0,0a4.81,4.81,0,0,1-6.88-.16,16.86,16.86,0,0,0-24.91.67,4.74,4.74,0,0,1-6.93.22h0a4.78,4.78,0,0,1-.21-6.52,26.38,26.38,0,0,1,39.08-.86A4.76,4.76,0,0,1,86.46,98.51Zm10.7-11.69,0,0a4.73,4.73,0,0,1-6.74,0,31.95,31.95,0,0,0-46.5.52A4.76,4.76,0,0,1,36.79,81a41.44,41.44,0,0,1,60.48-.8A4.73,4.73,0,0,1,97.16,86.82Zm11.39-12.39,0,0a4.77,4.77,0,0,1-6.79-.07,48,48,0,0,0-69.24.66,4.77,4.77,0,0,1-6.85.13l-.05-.05a4.76,4.76,0,0,1-.1-6.63,57.59,57.59,0,0,1,83.09-.81A4.78,4.78,0,0,1,108.55,74.43Z"/></g></g></svg>