<?xml version="1.0" encoding="utf-8"?>
<!-- Generator: Adobe Illustrator 21.0.0, SVG Export Plug-In . SVG Version: 6.00 Build 0)  -->
<svg version="1.1" id="Layer_1" xmlns="http://www.w3.org/2000/svg" xmlns:xlink="http://www.w3.org/1999/xlink" x="0px" y="0px"
	 viewBox="0 0 48 48" style="enable-background:new 0 0 48 48;" xml:space="preserve">
<style type="text/css">
	.st0{fill:#444;}
	.st1{fill:#FFFFFF;}
</style>
<g id="surface1">
	<path class="st0" d="M45.6,42c0,3.3-2.7,6-6,6H8.4c-3.3,0-6-2.7-6-6V6c0-3.3,2.7-6,6-6h31.2c3.3,0,6,2.7,6,6V42z"/>
	<path class="st1" d="M25.9,10.8H14.5l-0.1,26.4h4.8V26.4h6.7c5.4,0,8.9-2.4,8.9-7.6C34.8,14.9,32.6,10.8,25.9,10.8z M25.7,22.8
		h-6.5v-8.4h6.5c2.8,0,4.5,1.4,4.5,4.4C30.3,22.2,27.5,22.8,25.7,22.8z"/>
</g>
</svg>
