<?xml version="1.0" encoding="utf-8"?>
<!-- Generator: Adobe Illustrator 21.0.0, SVG Export Plug-In . SVG Version: 6.00 Build 0)  -->
<svg version="1.1" id="Capa_1" xmlns="http://www.w3.org/2000/svg" xmlns:xlink="http://www.w3.org/1999/xlink" x="0px" y="0px"
	 viewBox="0 0 512 512" style="enable-background:new 0 0 512 512;" xml:space="preserve">
<style type="text/css">
	.st0{fill:none;}
	.st1{fill:#444;}
</style>
<g>
	<polygon class="st0" points="191,244.3 206.7,228.8 242.4,193.1 226.9,177.5 191.1,213.1 176.2,198.1 160.6,213.6 175.5,228.6 	"/>
	<path class="st1" d="M436.7,385.7c1.7-4.3,3.1-8.9,3.7-13.5c1.6-12.2,1.2-31.9-14.1-43.7c-6.6-5.2-75.8-81.9-94.3-92.8V36.6
		C332,16.4,315.7,0,295.5,0h-188C87.3,0,70.9,16.4,70.9,36.6v348.6c0,20.2,16.4,36.6,36.6,36.6h60.3h21.5l-3.6-30.8
		c-0.2-0.1-0.4-0.2-0.5-0.4H171H147c1.1-4.3,1.4-9,0.8-14c-2-15-13.6-27.8-28.4-31.2c-6-1.4-11.9-1.2-17.3,0.1V74.1
		c6.1,1.1,12.8,0.8,19.7-1.8c7.3-2.8,13.6-8.1,17.8-14.6c6.1-9.5,7.1-18.4,5.7-26.6h112.3c-1.4,8.1-0.5,16.8,5.4,26.2
		c4.2,6.6,10.6,12,17.9,14.8c7.1,2.6,13.7,3,20,1.8v264.7v76.1c-12.9-9.4-27.1-38.7-27.1-38.7s-7-78.2-46.6-78.2c-1,0-2,0-3.1,0.1
		c0,0-30.1,2.5-5.2,88.3l11.1,95.2c0,0,3.1,13,10.6,30.5h175.9C422.7,460.7,430.9,400.5,436.7,385.7z"/>
	<path class="st1" d="M223.6,94.3c0-12.3-10-22.1-22.1-22.1c-12.3,0-22.1,10-22.1,22.1c0,12.2,10,22.1,22.1,22.1
		C213.8,116.6,223.6,106.6,223.6,94.3z"/>
	<path class="st1" d="M121.5,210.8c0,39.1,28.2,71.7,65.3,78.6c0.6-1,1.2-1.9,1.8-2.9c11.9-17.3,28-20,32.7-20.3
		c1.8-0.1,3.9-0.2,5.9-0.2c9.6,0,18.3,2.2,26,5.9c17.2-14.7,28.3-36.6,28.3-61c0-44.2-35.9-80-80-80
		C157.3,130.8,121.5,166.7,121.5,210.8z M176.2,198.1l14.9,15l35.7-35.6l15.5,15.6l-35.7,35.6L191,244.3l-15.5-15.6l-14.9-15
		L176.2,198.1z"/>
</g>
</svg>
