<?xml version="1.0" encoding="utf-8"?>
<!-- Generator: Adobe Illustrator 21.0.0, SVG Export Plug-In . SVG Version: 6.00 Build 0)  -->
<svg version="1.1" id="Layer_1" xmlns="http://www.w3.org/2000/svg" xmlns:xlink="http://www.w3.org/1999/xlink" x="0px" y="0px"
	 viewBox="0 0 512 512" style="enable-background:new 0 0 512 512;" xml:space="preserve">
<style type="text/css">
	.st0{fill:none;}
	.st1{fill:#444;}
</style>
<title>personal-care</title>
<g id="Layer_2">
	<g id="Layer_1-2">
		<g id="Layer_2-2">
			<path class="st0" d="M223.6,111.3H73.1c-12,0-21.7,9.7-21.7,21.7l0,0v65.6h193.9v-65.6C245.3,121.1,235.6,111.3,223.6,111.3
				L223.6,111.3z"/>
			<path class="st1" d="M223.6,84.1H73.1c-27,0-48.9,21.9-48.9,48.9v329.9c0,27,21.9,48.9,48.9,48.9h150.5c27,0,48.9-21.9,48.9-48.9
				V133.1C272.5,106,250.6,84.2,223.6,84.1z M245.3,198.7H51.4v-65.6c0-12,9.7-21.7,21.7-21.7c0,0,0,0,0,0h150.5
				c12,0,21.7,9.7,21.7,21.7l0,0V198.7z"/>
			<path class="st1" d="M198.3,21.8L198.3,21.8c0-12-9.7-21.8-21.7-21.8h-56.4c-12,0-21.8,9.7-21.9,21.7c0,0,0,0,0,0c0,0,0,0,0,0.1
				v41.8h100V21.8z"/>
			<path class="st1" d="M476.7,67.1H374.6c-28.5,0-52,22.2-53.8,50.5h-0.1v340.4c0,29.8,24.1,53.9,53.9,53.9h102.1
				c6.1,0,11.1-4.9,11.1-11.1v0v-16.5c0-6.1-4.9-11.1-11.1-11.1h0h-84.2c-6.1,0-11.1-5-11.1-11.1l0,0v-9.9c0-6.1,5-11.1,11.1-11.1
				l0,0h84.3c6.1,0,11.1-5,11.1-11.1l0,0v-13c0-6.1-5-11.1-11.1-11.1l0,0h-84.3c-6.1,0-11.1-5-11.1-11.1c0,0,0,0,0,0v-9.9
				c0-6.1,4.9-11.1,11.1-11.1c0,0,0,0,0,0h84.3c6.1,0,11.1-4.9,11.1-11v-13c0-6.1-5-11.1-11.1-11.1l0,0h-84.3
				c-6.1,0-11.1-5-11.1-11.1l0,0v-9.9c0-6.1,4.9-11.1,11.1-11.1h0h84.3c6.1,0,11.1-5,11.1-11.1l0,0v-13c0-6.1-5-11.1-11.1-11.1l0,0
				h-84.3c-6.1,0-11.1-5-11.1-11.1l0,0v-9.9c0-6.1,5-11.1,11.1-11.1l0,0h84.3c6.1,0,11.1-5,11.1-11.1v0v-13c0-6.1-5-11.1-11.1-11.1
				l0,0h-84.3c-6.1,0-11.1-5-11.1-11.1v0v-9.9c0-6.1,5-11.1,11.1-11.1l0,0h84.3c6.1,0,11.1-5,11.1-11.1v0v-13.2
				c0-6.1-5-11.1-11.1-11.1h-84.2c-6.1,0-11.1-5-11.1-11.1c0,0,0,0,0,0V116c0-5.3,5-10.3,11.1-10.3h84.2c6.1,0,11.1-5,11.1-11.1
				c0,0,0,0,0,0V78.2C487.8,72.1,482.8,67.1,476.7,67.1L476.7,67.1z"/>
		</g>
	</g>
</g>
</svg>
