<?xml version="1.0" encoding="utf-8"?>
<!-- Generator: Adobe Illustrator 21.0.0, SVG Export Plug-In . SVG Version: 6.00 Build 0)  -->
<svg version="1.1" id="Layer_1" xmlns="http://www.w3.org/2000/svg" xmlns:xlink="http://www.w3.org/1999/xlink" x="0px" y="0px"
	 viewBox="0 0 512 512" style="enable-background:new 0 0 512 512;" xml:space="preserve">
<style type="text/css">
	.st0{fill:#444;}
</style>
<title>personal-care-other</title>
<g id="Layer_2">
	<g id="Layer_1-2">
		<g id="Layer_2-2">
			<g id="Layer_1-2-2">
				<path class="st0" d="M321,199v-46.9c0-18.9-13.9-34.4-33.8-35V51.9h131.3V37.8c0-19.4-15.1-35.6-34.5-35.6H225.1
					c-19.4,0-37.4,16.2-37.4,35.6v14.2h33.8v65.3c-18.1,1.7-31.9,16.8-31.9,35V199H321z"/>
				<path class="st0" d="M323,230.9H188.9c-57,25.9-96.7,82.6-96.7,149.2c-0.1,52,24.7,100.9,66.5,131.7c97.3,0,109.7,0.1,194.4,0.1
					c42-30.8,66.7-79.7,66.7-131.8C419.8,313.6,380.1,256.7,323,230.9L323,230.9z"/>
				<path class="st0" d="M158.7,511.8c42.4,0.1,165.8,0.1,194.4,0.1"/>
				<path class="st0" d="M158.7,511.8c62,0,165.8,0.1,194.4,0.1"/>
				<path class="st0" d="M158.7,511.8c31.4,0,163.1,0.1,194.4,0.1"/>
			</g>
		</g>
	</g>
</g>
</svg>
