<svg xmlns="http://www.w3.org/2000/svg" viewBox="0 0 513.93 511.88"><defs><style>.cls-1{fill:#444;}</style></defs><title>personal-transfer</title><g id="Layer_2" data-name="Layer 2"><g id="Layer_1-2" data-name="Layer 1"><path class="cls-1" d="M484.58,247.2c-16.3-17.5-42.3-30.8-64.1-32.9l-7-.6,7.5-1.9c12.2-2.9,21.3-8.1,30.5-17.3,8.6-8.6,12.8-15.4,16.6-27,3-9.1,3.3-25.9.5-34.9-6.5-21.6-23.4-38.7-44.6-45-8.1-2.4-22.1-2.9-30.5-1-23.1,5.1-42.2,23.1-48.5,45.4-2.5,9.2-2.8,22.9-.5,32.5,5.2,22.8,24.7,41.9,48.2,47.3l7.8,1.8-7.4.7c-22.4,2.2-45.5,13.7-62.8,31.5a108.85,108.85,0,0,0-27,47.7l-2.7,10-.4,41.9c-.4,47.4-.3,47.5,6.9,54.1,5.6,5.1,7.8,5.7,22.1,6.3l12.7.5.3,44.6c.2,31.7.7,45.4,1.5,47.3,2,4.6,8.2,10.6,12.6,12.3,3.7,1.4,10.2,1.5,52.2,1.3l48-.3,4.2-2.7a28,28,0,0,0,7-7.5l2.8-4.8.3-45.1.3-45.2,12.7-.4c10.8-.3,13.4-.7,17.5-2.7a21.62,21.62,0,0,0,11.6-15.2c1.4-6.4,1.4-60.5,0-76.2C510.78,286.9,501.08,264.9,484.58,247.2Z"/><path class="cls-1" d="M75.09,161q-7.3-8.6-10.83-23.64h64.15l4.5-21.79H61.32c-.18-3.57-.27-7-.27-10.27s0-6.15.14-8.3h75.67l4.5-21.8H64Q67.37,61.31,75.4,52q14.18-16.43,37.12-16.43t34.87,11.95l8.3-39Q138.24,0,114.63,0,71.28,0,44.73,28.42,27.14,47.28,21.24,75.26H4.5L0,97.06H18.42q-.29,4.93-.29,11.39c0,2.55,0,4.92.14,7.18H4.5L0,137.41H20.82Q26.57,166,44.6,185.09,71,213.23,112.11,213.21q24.34,0,42.61-9.15V161q-16,16.6-43,16.6Q89.19,177.61,75.09,161Z"/><path class="cls-1" d="M254.69,357.33c0-.36,0-.72-.36-.72v-.36a4.81,4.81,0,0,0-3.22-3.22l-.36-.36L109.41,271.45c-2.5-1.07-4.29-1.79-5.73-1.79-2.5,0-2.86,4.65-2.86,7.16v38.65a15.12,15.12,0,0,1-15,15H0v53.68H86.15a15.12,15.12,0,0,1,15,15v38.65c0,2.86.36,7.16,2.86,7.16a10.77,10.77,0,0,0,5-1.43l.36-.36,1.07-.36,141.35-81.23c1.43-.72,2.15-1.79,3.22-3.22C254.69,357.69,254.69,357.69,254.69,357.33Z"/></g></g></svg>