<?xml version="1.0" encoding="UTF-8"?>
<svg xmlns="http://www.w3.org/2000/svg" xmlns:xlink="http://www.w3.org/1999/xlink" width="52pt" height="52pt" viewBox="0 0 52 52" version="1.1">
<g id="surface1">
<path style=" stroke:none;fill-rule:nonzero;fill:#444;fill-opacity:1;" d="M 44.773438 36.050781 C 41.675781 33.402344 38.535156 31.800781 35.476563 34.445313 L 33.648438 36.042969 C 32.3125 37.203125 29.828125 42.621094 20.226563 31.574219 C 10.625 20.539063 16.339844 18.820313 17.675781 17.671875 L 19.511719 16.070313 C 22.554688 13.421875 21.40625 10.085938 19.210938 6.652344 L 17.886719 4.570313 C 15.683594 1.144531 13.285156 -1.105469 10.234375 1.542969 L 8.585938 2.980469 C 7.238281 3.964844 3.46875 7.15625 2.554688 13.21875 C 1.457031 20.496094 4.925781 28.828125 12.875 37.96875 C 20.816406 47.117188 28.589844 51.710938 35.953125 51.628906 C 42.074219 51.5625 45.769531 48.28125 46.925781 47.085938 L 48.578125 45.644531 C 51.621094 43 49.730469 40.308594 46.632813 37.652344 Z "/>
</g>
</svg>
