<svg xmlns="http://www.w3.org/2000/svg" viewBox="0 0 512 512"><defs><style>.cls-1{fill:#444;}</style></defs><title>property-tax</title><g id="Layer_2" data-name="Layer 2"><g id="Layer_4_copy_5" data-name="Layer 4 copy 5"><path class="cls-1" d="M211,376.5a165.39,165.39,0,0,1,79.11-141.19l13.37-7.37A164.7,164.7,0,0,1,373,211V186.5H248.67V62.17L186.5,0,124.33,62.17v41.45H0V393.73H211.89A167.39,167.39,0,0,1,211,376.5ZM82.89,352.28H41.44V310.84H82.89Zm0-82.89H41.44V227.95H82.89Zm0-82.89H41.44V145.06H82.89ZM207.22,352.28H165.78V310.84h41.45Zm0-82.89H165.78V227.95h41.45Zm0-82.89H165.78V145.06h41.45Zm0-82.89H165.78V62.17h41.45Z"/></g><g id="Layer_11" data-name="Layer 11"><path class="cls-1" d="M376.5,241A135.5,135.5,0,1,0,512,376.5,135.5,135.5,0,0,0,376.5,241ZM307,334.1a25.06,25.06,0,1,1,25.06,25.06A25.06,25.06,0,0,1,307,334.1Zm42.29,95.08a18,18,0,0,1-25.51-25.51l79.85-79.85a18,18,0,1,1,25.51,25.51Zm69.28,16.49a25.06,25.06,0,1,1,25.06-25.06A25.06,25.06,0,0,1,418.61,445.67Z"/></g></g></svg>