<svg xmlns="http://www.w3.org/2000/svg" viewBox="0 0 90.3 94.05"><defs><style>.cls-1,.cls-2{fill:#444;}.cls-1{stroke:#1d1d1b;stroke-linecap:round;stroke-miterlimit:10;stroke-width:8px;}</style></defs><title>return-on-investment</title><g id="Layer_2" data-name="Layer 2"><g id="Layer_1-2" data-name="Layer 1"><path class="cls-1" d="M69.65,0" transform="translate(0 -1.1)"/><path class="cls-2" d="M89.55,41.79a4,4,0,1,0-7.87,1.45A37.1,37.1,0,1,1,57.74,15L53.2,21.21,78,24,68,1.1,62.65,8.36A45.16,45.16,0,1,0,90.3,50,45.49,45.49,0,0,0,89.55,41.79Z" transform="translate(0 -1.1)"/><path class="cls-2" d="M41,36.37a10.69,10.69,0,0,1,7-2.25,16.78,16.78,0,0,1,4.35.56,37,37,0,0,1,4.49,1.55l3.41-7.39A29.06,29.06,0,0,0,48,26.22q-8.45,0-14.09,4.48A18.92,18.92,0,0,0,27,42.88H22.35v5.61h4l-.07,1.69a11,11,0,0,0,.14,2h-4.1v5.67h4.76A18.6,18.6,0,0,0,34,69.54q5.49,4.24,14,4.24A24.16,24.16,0,0,0,58.24,71.9V63.74a25.76,25.76,0,0,1-9.56,1.82q-9.39,0-11.16-7.74H49.27V52.15H36.92l-.07-1.05V49.6l.07-1.11H51.46V42.88h-14A10.58,10.58,0,0,1,41,36.37Z" transform="translate(0 -1.1)"/></g></g></svg>