<svg xmlns="http://www.w3.org/2000/svg" viewBox="0 0 512 512"><defs><style>.cls-1{fill:#444;}</style></defs><title>service-fee</title><g id="Layer_2" data-name="Layer 2"><g id="Capa_1" data-name="Capa 1"><path class="cls-1" d="M376.5,241C301.05,241,241,301.05,241,376.5S301.05,512,376.5,512,512,451.95,512,376.5,451.95,241,376.5,241Zm46.82,206.94c-4.58,3.11-17.32,10.34-36.54,10.34-19.94,0-37.61-7.76-49.75-21.85-9.12-10.07-14.94-23.49-17.3-39.88h-15v-16.2h13.48V379.1c0-2.92.14-5.69.3-8.34H304.77V354.32h16c3-15.6,9.79-29.15,19.67-39.27,13-13.49,29.29-20.33,48.48-20.33a69.69,69.69,0,0,1,32.55,7.84l1.67.89L417,323.71l-2.54-1.52c-5.07-3-14.39-6.29-25.3-6.29-11.9,0-21.84,4.13-29.53,12.29-6.07,5.86-10.53,14.84-13,26.14H412v16.44H343.76c-.17,2.47-.31,5.12-.31,7.63v1.95H412v16.2H345.49c1.92,11.28,6,20.4,12,27.14,8,8.45,19,12.95,31.63,12.95a58.77,58.77,0,0,0,27.73-7.5l2.59-1.47L424.69,447Z"/><path class="cls-1" d="M141,259.84c3.32-8.9,2.2-18.88-4.19-25.71-5.78-6.16-14.17-7.75-22.19-5.85,2.23-8.22,1-17-4.77-23.17s-14.17-7.75-22.19-5.85c2.23-8.22,1-17-4.8-23.21-9.07-9.64-24.76-9.24-35,1S31,205.72,40.12,216.58s19.62,4.23,27.64,2.33c-2.2,8.22-8.9,15.9-.68,26.69s19.62,4.26,27.67,2.33c-2.23,8.22-8.63,16.64-.71,26.66s21,4.67,29.63,1.93c-3.35,8.86-10.45,18.4-1.32,29.19s30.24,5.75,40.56-4.47,11.27-26.35,2.2-36C158.9,258.59,149.59,257.07,141,259.84Z"/><path class="cls-1" d="M350.44,53.49c-7.51,1.12-16.81-3.35-16.81-3.35s-19.89-17.79-42.22-37.28C273.27-3,263.73-2.37,250.54,4.94c-21.75,12-74,42.39-98.71,57.95C143.44,67.8,136.3,75.41,136.3,86c0,13.7,10.72,24.8,24,24.8,5.07,0,9.2-2.2,13.63-4.5,10.93-5.48,36.84-19.49,54.33-29.09,19.11-10.49,31,1.62,31,1.62s69,71.21,88.46,90.53c12.62,12.58,30,6.77,35.52,6s32.48-6.19,32.48-6.19V38.63S366.17,51.15,350.44,53.49Z"/><path class="cls-1" d="M225.64,299.59a19.47,19.47,0,0,0,0-26.79c-.24-.24-25.95-27.5-23.55-30s34.34,32.81,34.95,33.42a18.09,18.09,0,0,0,5,3.69,166.42,166.42,0,0,1,23.71-26.45,18.84,18.84,0,0,0-2.94-4c-.34-.3-29.57-32.54-27.71-34.51s28.4,25.83,36.07,33.85a165.72,165.72,0,0,1,30.39-19.92,19.71,19.71,0,0,0-2.29-3.74c-.14-.41-29.91-33.76-28-35.69s32.27,29.43,32.34,29.5a17.85,17.85,0,0,0,8.62,5,164.27,164.27,0,0,1,18.56-6.55,19.49,19.49,0,0,0-1.33-25.25c-.1-.1-39.78-41.2-79.9-82.88,0,0-12.08-12.48-28-5.24-11.16,5.07-25.51,12-36.33,17.25-11.91,6.43-22.29,8.42-24.46,8.42-22.94,0-41.54-19.32-41.54-43.1A43.34,43.34,0,0,1,138.9,50.1c16.58-11.87,54.7-32.95,54.7-32.95S182,1.9,156.53,1.9,78,38,78,38s-15.09,10-36.57,1L0,24.09V173.48s11.81,3.55,22.46,8.05A48.89,48.89,0,0,1,34.1,162.45C51.73,145,81,144.82,97,162a41.9,41.9,0,0,1,9.95,18.27A39.94,39.94,0,0,1,124,191a41.71,41.71,0,0,1,9.95,18.27,39.69,39.69,0,0,1,17,10.79,42.84,42.84,0,0,1,10.52,20,40.19,40.19,0,0,1,17.79,11.06c9.61,10.25,13.06,24.19,11,37.65,0,0,6,7,9.64,10.79A17.82,17.82,0,0,0,225.64,299.59Z"/></g></g></svg>