<?xml version="1.0" encoding="UTF-8"?>
<svg xmlns="http://www.w3.org/2000/svg" xmlns:xlink="http://www.w3.org/1999/xlink" width="22pt" height="22pt" viewBox="0 0 22 22" version="1.1">
<g id="surface1">
<path style=" stroke:none;fill-rule:nonzero;fill:rgb(26.666667%,26.666667%,26.666667%);fill-opacity:1;" d="M 14.078125 17.601563 L 3.960938 17.601563 C 3.71875 17.601563 3.519531 17.402344 3.519531 17.160156 L 3.519531 10.558594 C 3.519531 10.316406 3.71875 10.121094 3.960938 10.121094 L 14.078125 10.121094 C 14.324219 10.121094 14.519531 10.316406 14.519531 10.558594 L 14.519531 11.09375 L 19.570313 7.984375 C 19.640625 7.941406 19.71875 7.921875 19.800781 7.921875 L 20.234375 7.921875 C 20.238281 7.921875 20.242188 7.921875 20.246094 7.921875 L 21.558594 7.921875 C 21.804688 7.921875 22 8.117188 22 8.359375 C 22 8.601563 21.804688 8.800781 21.558594 8.800781 L 20.46875 8.800781 L 14.441406 17.414063 C 14.359375 17.53125 14.222656 17.601563 14.078125 17.601563 Z "/>
<path style="fill:none;stroke-width:2;stroke-linecap:round;stroke-linejoin:round;stroke:rgb(26.666667%,26.666667%,26.666667%);stroke-opacity:1;stroke-miterlimit:10;" d="M 9.002131 26.997514 L 1.003196 23.996804 L 1.003196 18.004261 L 6.995739 20.001776 L 9.002131 23.996804 " transform="matrix(0.44,0,0,0.44,0,0)"/>
<path style="fill:none;stroke-width:2;stroke-linecap:round;stroke-linejoin:round;stroke:rgb(26.666667%,26.666667%,26.666667%);stroke-opacity:1;stroke-miterlimit:10;" d="M 20.996094 23.996804 L 20.996094 20.996094 " transform="matrix(0.44,0,0,0.44,0,0)"/>
<path style=" stroke:none;fill-rule:nonzero;fill:rgb(26.666667%,26.666667%,26.666667%);fill-opacity:1;" d="M 11 9.238281 L 7.480469 9.238281 C 7.238281 9.238281 7.039063 9.042969 7.039063 8.800781 L 7.039063 7.921875 C 7.039063 7.675781 7.238281 7.480469 7.480469 7.480469 L 11 7.480469 C 11.242188 7.480469 11.441406 7.675781 11.441406 7.921875 L 11.441406 8.800781 C 11.441406 9.042969 11.242188 9.238281 11 9.238281 Z "/>
<path style=" stroke:none;fill-rule:nonzero;fill:rgb(26.666667%,26.666667%,26.666667%);fill-opacity:1;" d="M 22 14.078125 C 22 14.566406 21.605469 14.960938 21.121094 14.960938 C 20.632813 14.960938 20.238281 14.566406 20.238281 14.078125 C 20.238281 13.59375 21.121094 11.878906 21.121094 11.878906 C 21.121094 11.878906 22 13.59375 22 14.078125 Z "/>
</g>
</svg>
