<?xml version="1.0" encoding="UTF-8"?>
<svg xmlns="http://www.w3.org/2000/svg" xmlns:xlink="http://www.w3.org/1999/xlink" width="22pt" height="22pt" viewBox="0 0 22 22" version="1.1">
<g id="surface1">
<path style=" stroke:none;fill-rule:nonzero;fill:rgb(26.666667%,26.666667%,26.666667%);fill-opacity:1;" d="M 14.960938 8.800781 C 14.714844 8.800781 14.519531 8.601563 14.519531 8.359375 L 14.519531 4.839844 C 14.519531 2.898438 12.941406 1.320313 11 1.320313 C 9.058594 1.320313 7.480469 2.898438 7.480469 4.839844 L 7.480469 8.359375 C 7.480469 8.601563 7.28125 8.800781 7.039063 8.800781 C 6.796875 8.800781 6.601563 8.601563 6.601563 8.359375 L 6.601563 4.839844 C 6.601563 2.414063 8.574219 0.441406 11 0.441406 C 13.425781 0.441406 15.398438 2.414063 15.398438 4.839844 L 15.398438 8.359375 C 15.398438 8.601563 15.203125 8.800781 14.960938 8.800781 Z "/>
<path style=" stroke:none;fill-rule:nonzero;fill:rgb(26.666667%,26.666667%,26.666667%);fill-opacity:1;" d="M 18.871094 5.71875 L 16.28125 5.71875 L 16.28125 8.359375 C 16.28125 9.089844 15.6875 9.679688 14.960938 9.679688 C 14.863281 9.679688 14.769531 9.667969 14.675781 9.648438 C 14.675781 9.648438 14.671875 9.648438 14.671875 9.648438 C 14.082031 9.515625 13.640625 8.988281 13.640625 8.359375 C 13.640625 7.632813 14.230469 7.039063 14.960938 7.039063 C 15.117188 7.039063 15.261719 7.070313 15.398438 7.121094 L 15.398438 5.71875 L 8.359375 5.71875 L 8.359375 8.359375 C 8.359375 9.089844 7.769531 9.679688 7.039063 9.679688 C 6.941406 9.679688 6.847656 9.667969 6.757813 9.648438 C 6.753906 9.648438 6.753906 9.648438 6.753906 9.648438 C 6.164063 9.515625 5.71875 8.992188 5.71875 8.359375 C 5.71875 7.632813 6.3125 7.039063 7.039063 7.039063 C 7.195313 7.039063 7.34375 7.070313 7.480469 7.121094 L 7.480469 5.71875 L 3.128906 5.71875 L 1.265625 22 L 20.734375 22 Z "/>
</g>
</svg>
