<svg xmlns="http://www.w3.org/2000/svg" viewBox="0 0 75 75"><defs><style>.cls-1{fill:#444;}</style></defs><title>software</title><g id="Layer_2" data-name="Layer 2"><g id="Layer_1-2" data-name="Layer 1"><path class="cls-1" d="M27.7,0H6A6,6,0,0,0,0,6V27.7a6,6,0,0,0,6,6H27.7a6,6,0,0,0,6-6V6a6,6,0,0,0-6-6Zm0,27.7H6V6H27.7Z"/><path class="cls-1" d="M69,0H47.3a6,6,0,0,0-6,6V27.7a6,6,0,0,0,6,6H69a6,6,0,0,0,6-6V6A6,6,0,0,0,69,0Z"/><path class="cls-1" d="M27.7,41.3H6a6,6,0,0,0-6,6V69a6,6,0,0,0,6,6H27.7a6,6,0,0,0,6-6V47.3A6,6,0,0,0,27.7,41.3Z"/><path class="cls-1" d="M69,41.3H47.3a6,6,0,0,0-6,6V69a6,6,0,0,0,6,6H69a6,6,0,0,0,6-6V47.3A6,6,0,0,0,69,41.3Z"/></g></g></svg>