<svg xmlns="http://www.w3.org/2000/svg" viewBox="0 0 512 512"><defs><style>.cls-1{fill:#444;}</style></defs><title>spa-massage</title><g id="Layer_2" data-name="Layer 2"><g id="Capa_1" data-name="Capa 1"><path class="cls-1" d="M343.3,256.64c27.78-18.56,58.37-33.15,91.39-41.86C401.54,223.49,370.94,238.08,343.3,256.64Z"/><path class="cls-1" d="M333.06,263.17c.71-.51,1.44-1,2.19-1.47l.26-.18C334.67,262,333.85,262.6,333.06,263.17Z"/><path class="cls-1" d="M256,262.66a353.62,353.62,0,0,1,89.47-67.2C340.74,124,311.81,54.27,257.54,0a312,312,0,0,0-90.88,195.46A358.28,358.28,0,0,1,256,262.66Z"/><path class="cls-1" d="M335.5,261.51c2.52-1.62,5.19-3.14,7.79-4.87-2.59,1.8-5.41,3.36-8,5.06A312.17,312.17,0,0,0,256,344.45,312.2,312.2,0,0,0,177.16,262c.64.43,1.29.85,1.92,1.31-.92-.69-1.88-1.35-2.85-2A302.26,302.26,0,0,0,0,204.8c0,136.06,86,251.52,205.7,294A315.75,315.75,0,0,0,256,512a290.61,290.61,0,0,0,50.3-13.18C426,456.32,512,340.86,512,204.8A302.28,302.28,0,0,0,335.5,261.51Z"/></g></g></svg>