<?xml version="1.0" encoding="utf-8"?>
<!-- Generator: Adobe Illustrator 21.0.0, SVG Export Plug-In . SVG Version: 6.00 Build 0)  -->
<svg version="1.1" id="Capa_1" xmlns="http://www.w3.org/2000/svg" xmlns:xlink="http://www.w3.org/1999/xlink" x="0px" y="0px"
	 viewBox="0 0 458.2 458.2" style="enable-background:new 0 0 458.2 458.2;" xml:space="preserve">
<style type="text/css">
	.st0{fill:#444;}
</style>
<g>
	<path class="st0" d="M395.1,398.1V269.8c0-15.6-12.6-28.2-28.2-28.2h-45.6l-11.1-94.1c18.1-16.1,28.3-37.2,28.3-59.3
		C338.6,39.6,289.5,0,229.1,0c-60.4,0-109.5,39.6-109.5,88.2c0,22.1,10.2,43.2,28.3,59.3l-11.1,94.1H91.3
		c-15.6,0-28.2,12.6-28.2,28.2v128.3c-13.7,2.9-24,15.1-24,29.7c0,16.8,13.6,30.4,30.4,30.4h319.2c16.8,0,30.4-13.6,30.4-30.4
		C419.1,413.2,408.8,401,395.1,398.1z M178.8,123.8c-13.8-9.7-21.4-22.3-21.4-35.6c0-27.3,32.8-50.4,71.7-50.4
		c38.9,0,71.7,23.1,71.7,50.4c0,13.3-7.6,25.9-21.4,35.6c-5.7,4-8.7,10.8-7.9,17.7l11.8,100.1H174.9l11.8-100.1
		C187.5,134.6,184.5,127.8,178.8,123.8z"/>
</g>
</svg>
