<svg xmlns="http://www.w3.org/2000/svg" viewBox="0 0 512 512"><defs><style>.cls-1{fill:#444;}</style></defs><title>taxes</title><g id="Layer_2" data-name="Layer 2"><g id="Layer_20" data-name="Layer 20"><path class="cls-1" d="M376.5,241A135.5,135.5,0,1,0,512,376.5,135.5,135.5,0,0,0,376.5,241ZM307,334.1a25.06,25.06,0,1,1,25.06,25.06A25.06,25.06,0,0,1,307,334.1Zm42.29,95.08a18,18,0,0,1-25.51-25.51l79.85-79.85a18,18,0,1,1,25.51,25.51Zm69.28,16.49a25.06,25.06,0,1,1,25.06-25.06A25.06,25.06,0,0,1,418.61,445.67Z"/></g><g id="Layer_21" data-name="Layer 21"><path class="cls-1" d="M320.59,0H24A24,24,0,0,0,0,24V395.58a24,24,0,0,0,24,24H216.68a165.64,165.64,0,0,1,127.91-205.5V24A24,24,0,0,0,320.59,0ZM192.88,244.06a18,18,0,0,1-18,18H94.34a18,18,0,0,1-18-18h0a18,18,0,0,1,18-18h80.51a18,18,0,0,1,18,18Zm57.37-61H94.34a18,18,0,1,1,0-36.08H250.25a18,18,0,1,1,0,36.08Zm18-97.08a18,18,0,0,1-18,18H94.34a18,18,0,0,1-18-18h0a18,18,0,0,1,18-18H250.25a18,18,0,0,1,18,18Z"/></g></g></svg>