<?xml version="1.0" encoding="utf-8"?>
<!-- Generator: Adobe Illustrator 21.0.0, SVG Export Plug-In . SVG Version: 6.00 Build 0)  -->
<svg version="1.1" id="Capa_1" xmlns="http://www.w3.org/2000/svg" xmlns:xlink="http://www.w3.org/1999/xlink" x="0px" y="0px"
	 viewBox="0 0 512 512" style="enable-background:new 0 0 512 512;" xml:space="preserve">
<style type="text/css">
	.st0{fill:#444;}
</style>
<g>
	<g>
		<path class="st0" d="M452.8,85.6c-5.8-16.8-21.8-28.7-40.4-28.7h-71.1V0H170.7v56.9H99.6c-18.6,0-34.6,11.9-40.4,28.7L0,256v227.6
			C0,499.2,12.8,512,28.4,512h28.4c15.8,0,28.4-12.8,28.4-28.4v-28.4h341.3v28.4c0,15.6,12.8,28.4,28.4,28.4h28.4
			c15.8,0,28.4-12.8,28.4-28.4V256L452.8,85.6z M99.6,369.8c-23.6,0-42.7-19.1-42.7-42.7s19.1-42.7,42.7-42.7s42.7,19.1,42.7,42.7
			S123.2,369.8,99.6,369.8z M412.4,369.8c-23.6,0-42.7-19.1-42.7-42.7s19.1-42.7,42.7-42.7c23.6,0,42.7,19.1,42.7,42.7
			S436.1,369.8,412.4,369.8z M56.9,227.6l42.7-128h312.9l42.7,128H56.9z"/>
	</g>
</g>
</svg>
