<?xml version="1.0" encoding="utf-8"?>
<!-- Generator: Adobe Illustrator 21.0.0, SVG Export Plug-In . SVG Version: 6.00 Build 0)  -->
<svg version="1.1" id="Layer_1" xmlns="http://www.w3.org/2000/svg" xmlns:xlink="http://www.w3.org/1999/xlink" x="0px" y="0px"
	 viewBox="0 0 128 128" style="enable-background:new 0 0 128 128;" xml:space="preserve">
<style type="text/css">
	.st0{fill:#444;}
</style>
<title>tolls</title>
<path class="st0" d="M4.3,111h47l2.1-26.8h21.2l2.1,26.8h47c2.4,0,4.3-2,4.3-4.4c0-0.6-0.1-1.1-0.3-1.6L93.9,21.4
	C92.7,18.7,90,16.9,87,17H69.4l1.3,17.9H57.2L58.5,17H40.9c-3,0-5.7,1.8-6.8,4.6L0.3,105.2c-0.8,2.3,0.3,4.7,2.6,5.6
	C3.3,111,3.8,111,4.3,111z M56.3,45.6h15.3l1.9,25.4H54.4L56.3,45.6z"/>
</svg>
