<?xml version="1.0" encoding="utf-8"?>
<!-- Generator: Adobe Illustrator 21.0.0, SVG Export Plug-In . SVG Version: 6.00 Build 0)  -->
<svg version="1.1" id="Layer_1" xmlns="http://www.w3.org/2000/svg" xmlns:xlink="http://www.w3.org/1999/xlink" x="0px" y="0px"
	 viewBox="0 0 128 128" style="enable-background:new 0 0 128 128;" xml:space="preserve">
<style type="text/css">
	.st0{fill:#444;}
</style>
<title>toys</title>
<g>
	<path class="st0" d="M106.2,56.9H88.7c3.6-4.5,6.1-10,6.8-16c9.4-1.9,16.5-10.3,16.5-20.2C112.1,9.3,102.9,0,91.5,0
		c-6.3,0-11.9,2.8-15.7,7.3C72.1,5.8,68.2,5,64,5c-4.2,0-8.1,0.8-11.8,2.3C48.5,2.8,42.8,0,36.5,0C25.2,0,15.9,9.3,15.9,20.6
		c0,10,7.1,18.3,16.5,20.2c0.8,6,3.2,11.5,6.8,16H21.8c-7.2,0-13,5.8-13,13c0,7.2,5.8,13,13,13H36c12.6,0,23.4,7.7,28,18.6
		c4.6-10.9,15.4-18.6,28-18.6h14.2c7.2,0,13-5.8,13-13C119.1,62.7,113.3,56.9,106.2,56.9z M91.5,9.4c6.2,0,11.2,5,11.2,11.2
		c0,4.8-3.1,8.9-7.4,10.5c-1.4-7.6-5.4-14.2-11.1-18.9C86.1,10.5,88.7,9.4,91.5,9.4z M80.7,50.1c0,7.3-7.5,13.2-16.7,13.2
		s-16.7-5.9-16.7-13.2S54.8,36.9,64,36.9S80.7,42.8,80.7,50.1z M25.3,20.6c0-6.2,5-11.2,11.2-11.2c2.8,0,5.3,1.1,7.3,2.8
		c-5.7,4.7-9.8,11.3-11.1,18.9C28.4,29.6,25.3,25.5,25.3,20.6z"/>
	<circle class="st0" cx="33.4" cy="110.7" r="17.3"/>
	<circle class="st0" cx="94.6" cy="110.7" r="17.3"/>
	<ellipse class="st0" cx="64" cy="45.1" rx="8.5" ry="5.9"/>
</g>
</svg>
