<?xml version="1.0" encoding="UTF-8"?>
<svg xmlns="http://www.w3.org/2000/svg" xmlns:xlink="http://www.w3.org/1999/xlink" width="22pt" height="22pt" viewBox="0 0 22 22" version="1.1">
<g id="surface1">
<path style=" stroke:none;fill-rule:nonzero;fill:rgb(26.666667%,26.666667%,26.666667%);fill-opacity:1;" d="M 4.230469 22 L 1.691406 22 C 1.183594 22 0.847656 21.660156 0.847656 21.152344 L 0.847656 18.617188 L 5.078125 18.617188 L 5.078125 21.152344 C 5.078125 21.660156 4.738281 22 4.230469 22 Z "/>
<path style=" stroke:none;fill-rule:nonzero;fill:rgb(26.666667%,26.666667%,26.666667%);fill-opacity:1;" d="M 20.308594 22 L 17.769531 22 C 17.261719 22 16.921875 21.660156 16.921875 21.152344 L 16.921875 18.617188 L 21.152344 18.617188 L 21.152344 21.152344 C 21.152344 21.660156 20.816406 22 20.308594 22 Z "/>
<path style="fill:none;stroke-width:2;stroke-linecap:butt;stroke-linejoin:round;stroke:rgb(26.666667%,26.666667%,26.666667%);stroke-opacity:1;stroke-miterlimit:10;" d="M 24.001065 13 C 24.001065 13 24.001065 12.898438 24.001065 11.001065 C 24.001065 10.197798 23.299361 6.800071 22.699219 4.099432 C 22.302202 2.299006 20.700284 1.001776 18.798295 1.001776 L 7.201705 1.001776 C 5.299716 1.001776 3.697798 2.299006 3.300781 4.099432 C 2.700639 6.698509 1.998935 10.197798 1.998935 11.001065 C 1.998935 13 1.998935 13 1.998935 13 " transform="matrix(0.846154,0,0,0.846154,0,0)"/>
<path style=" stroke:none;fill-rule:nonzero;fill:rgb(26.666667%,26.666667%,26.666667%);fill-opacity:1;" d="M 0.847656 10.152344 L 0.847656 19.460938 L 21.152344 19.460938 L 21.152344 10.152344 Z M 17.769531 16.921875 C 16.839844 16.921875 16.078125 16.160156 16.078125 15.230469 C 16.078125 14.300781 16.839844 13.539063 17.769531 13.539063 C 18.699219 13.539063 19.460938 14.300781 19.460938 15.230469 C 19.460938 16.160156 18.699219 16.921875 17.769531 16.921875 Z M 4.230469 16.921875 C 3.300781 16.921875 2.539063 16.160156 2.539063 15.230469 C 2.539063 14.300781 3.300781 13.539063 4.230469 13.539063 C 5.160156 13.539063 5.921875 14.300781 5.921875 15.230469 C 5.921875 16.160156 5.160156 16.921875 4.230469 16.921875 Z "/>
</g>
</svg>
