<?xml version="1.0" encoding="UTF-8"?>
<svg xmlns="http://www.w3.org/2000/svg" xmlns:xlink="http://www.w3.org/1999/xlink" width="22pt" height="22pt" viewBox="0 0 22 22" version="1.1">
<g id="surface1">
<path style=" stroke:none;fill-rule:nonzero;fill:rgb(26.666667%,26.666667%,26.666667%);fill-opacity:1;" d="M 3.382813 20.308594 L 1.691406 20.308594 C 1.183594 20.308594 0.847656 19.96875 0.847656 19.460938 L 0.847656 17.769531 L 4.230469 17.769531 L 4.230469 19.460938 C 4.230469 19.96875 3.890625 20.308594 3.382813 20.308594 Z "/>
<path style=" stroke:none;fill-rule:nonzero;fill:rgb(26.666667%,26.666667%,26.666667%);fill-opacity:1;" d="M 21.152344 22 L 20.308594 22 C 19.800781 22 19.460938 21.660156 19.460938 21.152344 L 19.460938 19.460938 L 22 19.460938 L 22 21.152344 C 22 21.660156 21.660156 22 21.152344 22 Z "/>
<path style=" stroke:none;fill-rule:nonzero;fill:rgb(26.666667%,26.666667%,26.666667%);fill-opacity:1;" d="M 12.691406 22 L 11.847656 22 C 11.339844 22 11 21.660156 11 21.152344 L 11 19.460938 L 13.539063 19.460938 L 13.539063 21.152344 C 13.539063 21.660156 13.199219 22 12.691406 22 Z "/>
<path style=" stroke:none;fill-rule:nonzero;fill:rgb(26.666667%,26.666667%,26.666667%);fill-opacity:1;" d="M 10.152344 16.753906 C 10.152344 16.246094 10.238281 15.652344 10.492188 15.144531 L 11.507813 12.609375 C 11.929688 11.675781 12.863281 11 13.875 11 L 16.078125 11 L 16.078125 8.800781 C 16.078125 8.546875 16.078125 8.375 15.992188 8.125 L 14.890625 2.707031 C 14.554688 1.101563 13.199219 0 11.59375 0 L 4.484375 0 C 2.875 0 1.4375 1.101563 1.183594 2.707031 L 0.0859375 8.125 C 0 8.375 0 8.546875 0 8.800781 L 0 16.921875 C 0 17.855469 0.761719 18.617188 1.691406 18.617188 L 10.152344 18.617188 Z M 5.921875 0.847656 L 10.152344 0.847656 C 10.660156 0.847656 11 1.183594 11 1.691406 C 11 2.199219 10.660156 2.539063 10.152344 2.539063 L 5.921875 2.539063 C 5.414063 2.539063 5.078125 2.199219 5.078125 1.691406 C 5.078125 1.183594 5.414063 0.847656 5.921875 0.847656 Z M 2.625 4.0625 C 2.707031 3.636719 3.046875 3.382813 3.46875 3.382813 L 12.691406 3.382813 C 13.117188 3.382813 13.453125 3.636719 13.539063 4.0625 L 14.214844 7.445313 C 14.300781 7.953125 13.960938 8.460938 13.371094 8.460938 L 2.792969 8.460938 C 2.285156 8.460938 1.863281 7.953125 1.945313 7.445313 Z M 2.960938 16.921875 C 2.285156 16.921875 1.691406 16.332031 1.691406 15.652344 C 1.691406 14.976563 2.285156 14.382813 2.960938 14.382813 C 3.636719 14.382813 4.230469 14.976563 4.230469 15.652344 C 4.230469 16.332031 3.636719 16.921875 2.960938 16.921875 Z "/>
<path style=" stroke:none;fill-rule:nonzero;fill:rgb(26.666667%,26.666667%,26.666667%);fill-opacity:1;" d="M 21.746094 15.484375 L 20.730469 12.945313 C 20.476563 12.269531 19.882813 11.847656 19.125 11.847656 L 13.792969 11.847656 C 13.117188 11.847656 12.4375 12.269531 12.183594 12.945313 L 11.167969 15.484375 C 11 15.90625 10.914063 16.332031 10.914063 16.753906 L 10.914063 20.308594 L 21.914063 20.308594 L 21.914063 16.753906 C 22 16.332031 21.914063 15.90625 21.746094 15.484375 Z M 13.792969 13.117188 L 19.207031 13.117188 C 19.375 13.117188 19.628906 13.285156 19.714844 13.453125 L 20.5625 15.652344 C 20.644531 15.824219 20.476563 16.078125 20.308594 16.078125 L 12.691406 16.078125 C 12.523438 16.078125 12.355469 15.824219 12.4375 15.652344 L 13.285156 13.453125 C 13.371094 13.285156 13.539063 13.117188 13.792969 13.117188 Z M 12.691406 19.460938 C 12.183594 19.460938 11.847656 19.125 11.847656 18.617188 C 11.847656 18.109375 12.183594 17.769531 12.691406 17.769531 C 13.199219 17.769531 13.539063 18.109375 13.539063 18.617188 C 13.539063 19.125 13.199219 19.460938 12.691406 19.460938 Z M 20.308594 19.460938 C 19.800781 19.460938 19.460938 19.125 19.460938 18.617188 C 19.460938 18.109375 19.800781 17.769531 20.308594 17.769531 C 20.816406 17.769531 21.152344 18.109375 21.152344 18.617188 C 21.152344 19.125 20.816406 19.460938 20.308594 19.460938 Z "/>
</g>
</svg>
