<?xml version="1.0" encoding="UTF-8"?>
<svg xmlns="http://www.w3.org/2000/svg" xmlns:xlink="http://www.w3.org/1999/xlink" width="22pt" height="22pt" viewBox="0 0 22 22" version="1.1">
<g id="surface1">
<path style=" stroke:none;fill-rule:nonzero;fill:rgb(26.666667%,26.666667%,26.666667%);fill-opacity:1;" d="M 10.125 19.351563 C 9.949219 19.351563 9.78125 19.269531 9.671875 19.128906 C 9.5 18.910156 9.476563 18.582031 9.597656 18.097656 L 10.605469 12.722656 L 10.019531 12.984375 C 7.242188 14.222656 5.015625 14.878906 3.582031 14.878906 C 2.324219 14.878906 1.832031 14.371094 1.644531 13.945313 L 0.0898438 10.457031 C -0.0429688 10.164063 -0.0273438 9.867188 0.128906 9.625 C 0.324219 9.324219 0.714844 9.144531 1.171875 9.144531 C 1.480469 9.144531 1.765625 9.230469 1.972656 9.386719 C 2.242188 9.597656 3.105469 10.238281 3.699219 10.675781 C 3.859375 10.792969 4.039063 10.925781 4.140625 10.925781 C 4.167969 10.925781 4.199219 10.917969 4.234375 10.898438 L 16.667969 5.355469 C 17.433594 5.011719 18.210938 4.839844 18.972656 4.839844 C 20.511719 4.839844 21.636719 5.554688 21.949219 6.257813 C 22.222656 6.871094 21.933594 7.492188 15.667969 10.425781 L 12.394531 17.507813 C 12.144531 18.050781 11.601563 18.753906 11.085938 18.984375 L 10.398438 19.289063 C 10.308594 19.332031 10.214844 19.351563 10.125 19.351563 Z "/>
<path style=" stroke:none;fill-rule:nonzero;fill:rgb(26.666667%,26.666667%,26.666667%);fill-opacity:1;" d="M 4.863281 7.523438 L 6.890625 8.753906 L 10.878906 6.972656 L 7.195313 5.847656 C 6.863281 5.746094 6.472656 5.6875 6.097656 5.6875 C 5.851563 5.6875 5.496094 5.714844 5.222656 5.835938 L 4.535156 6.144531 C 4.308594 6.246094 4.167969 6.441406 4.160156 6.667969 C 4.144531 7.09375 4.566406 7.367188 4.863281 7.523438 Z "/>
</g>
</svg>
