<?xml version="1.0" encoding="utf-8"?>
<!-- Generator: Adobe Illustrator 21.0.0, SVG Export Plug-In . SVG Version: 6.00 Build 0)  -->
<svg version="1.1" id="Layer_1" xmlns="http://www.w3.org/2000/svg" xmlns:xlink="http://www.w3.org/1999/xlink" x="0px" y="0px"
	 viewBox="0 0 64 64" style="enable-background:new 0 0 64 64;" xml:space="preserve">
<style type="text/css">
	.st0{fill:#444;}
</style>
<title>vacations</title>
<g id="Layer_2">
	<g id="Capa_1">
		<path class="st0" d="M63,55.2c-0.6-0.5-1.4-0.8-2.2-0.7c-4,0.5-8.1,0.7-12.2,0.6c-3-0.1-5.9-0.7-8.8-1.6l-9.7-27.8
			c7-2.3,14.1-3.8,21.4-4.7c1.5-0.2,2.6-1.6,2.4-3.1c0-0.3-0.1-0.6-0.3-0.9c-6-11.5-19-17.4-31.6-14.3L21.9,2
			c-0.5-1.4-2.1-2.2-3.5-1.7l0,0c-1.4,0.5-2.2,2.1-1.7,3.5l0.2,0.7C5.2,9.9-1.3,22.6,1.1,35.3c0.3,1.5,1.8,2.5,3.3,2.1
			c0.3-0.1,0.6-0.2,0.9-0.4c6.2-3.9,12.8-7.1,19.7-9.5l8.2,23.4c-6.6-2.8-12.9-5.7-21.3-4.5c-5.3,0.8-9.5,5-11.1,6.8
			c-0.4,0.5-0.7,1.1-0.7,1.8v6c0,1.6,1.3,2.8,2.8,2.8h58.3c1.6,0,2.8-1.3,2.8-2.8v-3.8C64,56.5,63.6,55.7,63,55.2z"/>
	</g>
</g>
</svg>
