<?xml version="1.0" encoding="UTF-8"?>
<svg xmlns="http://www.w3.org/2000/svg" xmlns:xlink="http://www.w3.org/1999/xlink" width="22pt" height="22pt" viewBox="0 0 22 22" version="1.1">
<g id="surface1">
<path style=" stroke:none;fill-rule:nonzero;fill:rgb(26.666667%,26.666667%,26.666667%);fill-opacity:1;" d="M 11 2.488281 C 15.695313 2.488281 19.511719 6.304688 19.511719 11 C 19.511719 15.695313 15.695313 19.511719 11 19.511719 C 6.304688 19.511719 2.488281 15.695313 2.488281 11 C 2.488281 6.304688 6.304688 2.488281 11 2.488281 M 11 0.160156 C 5.011719 0.160156 0.160156 5.011719 0.160156 11 C 0.160156 16.988281 5.011719 21.839844 11 21.839844 C 16.988281 21.839844 21.839844 16.988281 21.839844 11 C 21.839844 5.011719 16.988281 0.160156 11 0.160156 Z "/>
<path style=" stroke:none;fill-rule:nonzero;fill:rgb(26.666667%,26.666667%,26.666667%);fill-opacity:1;" d="M 11 5.027344 C 14.292969 5.027344 16.972656 7.707031 16.972656 11 C 16.972656 14.292969 14.292969 16.972656 11 16.972656 C 7.703125 16.972656 5.027344 14.292969 5.027344 11 C 5.027344 7.707031 7.703125 5.027344 11 5.027344 M 11 3.460938 C 6.835938 3.460938 3.460938 6.835938 3.460938 11 C 3.460938 15.164063 6.835938 18.539063 11 18.539063 C 15.164063 18.539063 18.539063 15.164063 18.539063 11 C 18.539063 6.835938 15.164063 3.460938 11 3.460938 Z "/>
<path style=" stroke:none;fill-rule:nonzero;fill:rgb(26.666667%,26.666667%,26.666667%);fill-opacity:1;" d="M 16.476563 13.320313 L 13.742188 11.515625 C 13.773438 11.347656 13.796875 11.175781 13.796875 11 C 13.796875 10.824219 13.777344 10.652344 13.742188 10.484375 L 16.476563 8.679688 C 16.667969 8.550781 16.914063 8.160156 16.652344 7.707031 C 16.390625 7.253906 15.929688 7.269531 15.722656 7.371094 L 12.789063 8.871094 C 12.542969 8.660156 12.257813 8.492188 11.949219 8.378906 L 11.777344 5.097656 C 11.761719 4.867188 11.546875 4.457031 11.019531 4.457031 C 10.5 4.457031 10.285156 4.867188 10.269531 5.097656 L 10.074219 8.371094 C 9.742188 8.488281 9.445313 8.664063 9.183594 8.886719 L 6.246094 7.417969 C 6.042969 7.320313 5.578125 7.300781 5.320313 7.75 C 5.054688 8.207031 5.300781 8.597656 5.492188 8.726563 L 8.25 10.511719 C 8.222656 10.667969 8.199219 10.832031 8.199219 11 C 8.199219 11.167969 8.222656 11.332031 8.25 11.492188 L 5.492188 13.277344 C 5.304688 13.402344 5.054688 13.796875 5.320313 14.25 C 5.582031 14.699219 6.042969 14.683594 6.25 14.582031 L 9.183594 13.113281 C 9.445313 13.339844 9.742188 13.511719 10.074219 13.628906 L 10.269531 16.90625 C 10.285156 17.132813 10.5 17.542969 11.023438 17.542969 C 11.546875 17.542969 11.765625 17.132813 11.78125 16.90625 L 11.949219 13.621094 C 12.261719 13.507813 12.542969 13.339844 12.792969 13.128906 L 15.722656 14.628906 C 15.929688 14.730469 16.390625 14.746094 16.652344 14.292969 C 16.914063 13.839844 16.664063 13.449219 16.476563 13.320313 Z M 11 12.332031 C 10.261719 12.332031 9.667969 11.734375 9.667969 11 C 9.667969 10.265625 10.261719 9.667969 11 9.667969 C 11.730469 9.667969 12.328125 10.265625 12.328125 11 C 12.328125 11.734375 11.730469 12.332031 11 12.332031 Z "/>
</g>
</svg>
