<?xml version="1.0" encoding="utf-8"?>
<!-- Generator: Adobe Illustrator 21.0.0, SVG Export Plug-In . SVG Version: 6.00 Build 0)  -->
<svg version="1.1" id="Capa_1" xmlns="http://www.w3.org/2000/svg" xmlns:xlink="http://www.w3.org/1999/xlink" x="0px" y="0px"
	 viewBox="0 0 315.4 315.4" style="enable-background:new 0 0 315.4 315.4;" xml:space="preserve">
<style type="text/css">
	.st0{fill:#00ACC1;}
</style>
<g>
	<path class="st0" d="M311.9,222.3l-96.1-67.3c-1.4-1-2.8-1.5-4.3-1.5c-3.3,0-6.5,2.5-6.5,7.3v41.1H19.9c-5,0-8.9,4.1-8.9,9.1v35.6
		c0,5,3.9,9.3,8.9,9.3H205v40.8c0,4.8,3.2,7.2,6.5,7.2c0,0-0.1,0-0.1,0c1.5,0,3-0.5,4.4-1.5L312,235c2.2-1.6,3.5-3.9,3.5-6.4
		S314.1,223.8,311.9,222.3z"/>
	<path class="st0" d="M104.1,162.1L104.1,162.1c2.1,0,4.1-1,5.4-2.6c0.9-1.3,1.6-2.9,1.6-4.7v-41.1h184.5c5,0,8.5-4.1,8.5-9.1V69.1
		c0-5-3.6-9.3-8.5-9.3H111V19c0-4.8-3.5-7.3-6.8-7.3c-1.5,0-3.2,0.5-4.6,1.5L3.5,80.5C1.3,82.1,0,84.4,0,86.9s1.3,4.8,3.5,6.4
		l96.1,67.3C101,161.6,102.5,162.1,104.1,162.1z"/>
</g>
</svg>
