<?xml version="1.0" encoding="iso-8859-1"?>
<!-- Generator: Adobe Illustrator 19.0.0, SVG Export Plug-In . SVG Version: 6.00 Build 0)  -->
<svg version="1.1" id="Layer_1" xmlns="http://www.w3.org/2000/svg" xmlns:xlink="http://www.w3.org/1999/xlink" x="0px" y="0px"
	 viewBox="0 0 512 512" style="enable-background:new 0 0 512 512;" xml:space="preserve">
<g>
	<g>
		<path d="M478.609,38.957H33.391C14.978,38.957,0,53.935,0,72.348v100.174c0,18.413,14.978,33.391,33.391,33.391h66.783v217.044
			c0,27.619,22.468,50.087,50.087,50.087h111.304h33.391h66.783c27.619,0,50.087-22.468,50.087-50.087V205.913h66.783
			c18.413,0,33.391-14.978,33.391-33.391V72.348C512,53.935,497.022,38.957,478.609,38.957z M244.87,439.652h-94.609
			c-9.206,0-16.696-7.49-16.696-16.696V139.13H244.87V439.652z M378.435,422.957c0,9.206-7.49,16.696-16.696,16.696h-50.087V139.13
			h66.783V422.957z"/>
	</g>
</g>
<g>
</g>
<g>
</g>
<g>
</g>
<g>
</g>
<g>
</g>
<g>
</g>
<g>
</g>
<g>
</g>
<g>
</g>
<g>
</g>
<g>
</g>
<g>
</g>
<g>
</g>
<g>
</g>
<g>
</g>
</svg>
