<?xml version="1.0" encoding="iso-8859-1"?>
<!-- Generator: Adobe Illustrator 19.0.0, SVG Export Plug-In . SVG Version: 6.00 Build 0)  -->
<svg version="1.1" id="Capa_1" xmlns="http://www.w3.org/2000/svg" xmlns:xlink="http://www.w3.org/1999/xlink" x="0px" y="0px"
	 viewBox="0 0 511.999 511.999" style="enable-background:new 0 0 511.999 511.999;" xml:space="preserve">
<g>
	<g>
		<path d="M420.991,346.995c0,24.813,20.185,44.998,44.998,44.998s45.998-20.185,45.998-44.998
			c0-19.529-13.577-36.022-30.998-42.235V181.003h15.999c10.257,0,17.48-10.065,14.223-19.745
			C491.231,101.29,434.335,61.01,371.13,61.01h-47.107l-30.584-42.167c-16.728-25.106-58.151-25.106-74.879,0L187.976,61.01h-47.107
			c-63.205,0-120.1,40.281-140.08,100.249c-3.257,9.68,3.966,19.745,14.223,19.745h15.999V304.76
			c-17.421,6.213-30.998,22.706-30.998,42.235c0,24.813,21.185,44.998,45.998,44.998s44.998-20.185,44.998-44.998
			c0-19.529-12.577-36.022-29.998-42.235V181.003c52.601,0,37.297,0,89.995,0V304.76c-17.421,6.213-29.998,22.706-29.998,42.235
			c0,24.813,20.185,44.998,44.998,44.998s44.998-20.185,44.998-44.998c0-19.529-12.577-36.022-29.998-42.235V181.003h59.997v240.987
			h-44.998c-36.214,0-66.51,25.808-73.478,59.997H15.012c-8.291,0-14.999,6.709-14.999,14.999s6.709,14.999,14.999,14.999h481.975
			c8.291,0,14.999-6.709,14.999-14.999s-6.709-14.999-14.999-14.999H389.475c-6.969-34.189-37.264-59.997-73.478-59.997h-44.998
			V181.003h59.997V304.76c-17.421,6.213-29.998,22.706-29.998,42.235c0,24.813,20.185,44.998,44.998,44.998
			s44.998-20.185,44.998-44.998c0-19.529-12.577-36.022-29.998-42.235V181.003c52.698,0,37.394,0,89.995,0V304.76
			C433.568,310.973,420.991,327.466,420.991,346.995z M152.514,151.005c6.973-34.187,37.264-59.997,73.487-59.997h59.997
			c36.224,0,66.516,25.81,73.487,59.997H152.514z"/>
	</g>
</g>
<g>
</g>
<g>
</g>
<g>
</g>
<g>
</g>
<g>
</g>
<g>
</g>
<g>
</g>
<g>
</g>
<g>
</g>
<g>
</g>
<g>
</g>
<g>
</g>
<g>
</g>
<g>
</g>
<g>
</g>
</svg>
