<?xml version="1.0" encoding="utf-8"?>
<!-- Generator: Adobe Illustrator 21.0.0, SVG Export Plug-In . SVG Version: 6.00 Build 0)  -->
<svg version="1.1" id="Layer_1" xmlns="http://www.w3.org/2000/svg" xmlns:xlink="http://www.w3.org/1999/xlink" x="0px" y="0px"
	 viewBox="0 0 48 60" style="enable-background:new 0 0 48 60;" xml:space="preserve">
<g>
	<path d="M23.7,30.8L1,23.2c-0.3-0.1-0.5,0.1-0.5,0.4v20.8c0,1.2,1,2.2,2.2,2.2h42.6c1.2,0,2.2-1,2.2-2.2V23.6
		c0-0.3-0.3-0.5-0.5-0.4l-22.6,7.5C24.1,30.8,23.9,30.8,23.7,30.8z"/>
	<path d="M24.3,27.6L47.2,20c0.2-0.1,0.3-0.2,0.3-0.4V13c0-1.2-1-2.2-2.2-2.2H34.9c-0.2,0-0.3-0.1-0.3-0.3C33.7,5.4,29.3,1.4,24,1.4
		s-9.7,3.9-10.5,9.1c0,0.2-0.2,0.3-0.3,0.3H2.8c-1.2,0-2.2,1-2.2,2.2v6.6c0,0.2,0.1,0.3,0.3,0.4l22.9,7.6
		C23.9,27.7,24.1,27.7,24.3,27.6z M24,4.4c3.6,0,6.7,2.5,7.4,5.9c0.1,0.2-0.1,0.4-0.4,0.4H16.9c-0.2,0-0.4-0.2-0.3-0.4
		C17.3,7,20.4,4.4,24,4.4z"/>
</g>
</svg>
