<?xml version="1.0" encoding="UTF-8"?>
<svg xmlns="http://www.w3.org/2000/svg" xmlns:xlink="http://www.w3.org/1999/xlink" width="52pt" height="52pt" viewBox="0 0 52 52" version="1.1">
<g id="surface1">
<path style=" stroke:none;fill-rule:nonzero;fill:rgb(0%,0%,0%);fill-opacity:1;" d="M 26 8.398438 C 16.199219 8.398438 8.398438 16.199219 8.398438 26 C 8.398438 35.800781 16.199219 43.601563 26 43.601563 C 35.800781 43.601563 43.601563 35.800781 43.601563 26 C 43.601563 16.199219 35.800781 8.398438 26 8.398438 Z M 27.199219 33.800781 L 27.199219 36.398438 L 24.601563 36.398438 L 24.601563 34 C 22.800781 34 21.199219 33.398438 20.199219 33 L 21 30 C 22 30.601563 23.601563 31.199219 25.199219 31.199219 C 26.601563 31.199219 27.601563 30.601563 27.601563 29.601563 C 27.601563 28.601563 26.800781 28 24.800781 27.398438 C 22 26.398438 20.199219 25.199219 20.199219 22.601563 C 20.199219 20.398438 21.800781 18.601563 24.601563 18 L 24.601563 15.601563 L 27.199219 15.601563 L 27.199219 17.800781 C 29 17.800781 30 18.199219 31 18.601563 L 30.199219 21.601563 C 29.601563 21.199219 28.398438 20.601563 26.398438 20.601563 C 24.800781 20.601563 24.199219 21.398438 24.199219 22 C 24.199219 22.800781 25.199219 23.398438 27.199219 24.199219 C 30.199219 25.199219 31.398438 26.601563 31.398438 29 C 31.800781 31.398438 30.199219 33.398438 27.199219 33.800781 Z "/>
</g>
</svg>
