<?xml version="1.0" encoding="utf-8"?>
<!-- Generator: Adobe Illustrator 21.0.0, SVG Export Plug-In . SVG Version: 6.00 Build 0)  -->
<svg version="1.1" id="Capa_1" xmlns="http://www.w3.org/2000/svg" xmlns:xlink="http://www.w3.org/1999/xlink" x="0px" y="0px"
	 viewBox="0 0 94.1 94.1" style="enable-background:new 0 0 94.1 94.1;" xml:space="preserve">
<style type="text/css">
	.st0{fill:#00ACC1;}
</style>
<g>
	<path class="st0" d="M3.9,37.7h12.7c0.8,0,1.6-0.5,1.9-1.3c3.7-10.2,13-18,23.6-19.8c1.7-0.3,3.5-0.5,5.3-0.5
		c6.5,0,12.6,2,17.7,5.7l-3.8,3.8c-1.8,1.8-1.3,4,1.3,4.7L87.7,37c2.6,0.6,4.2-0.9,3.5-3.5L84.5,8.4c-0.6-2.6-2.8-3.2-4.7-1.3
		l-3.2,3.2C68.3,3.6,58.2,0,47.4,0c-2.7,0-5.4,0.2-8.1,0.7C21.2,3.8,6.5,17.4,1.9,35.2c-0.2,0.6,0,1.2,0.4,1.7
		C2.7,37.5,3.3,37.7,3.9,37.7z"/>
	<path class="st0" d="M90.9,57.6c-0.4-0.5-1-0.8-1.6-0.8H76.6c-0.8,0-1.6,0.5-1.9,1.3c-3.7,10.2-13,18-23.6,19.8
		c-1.7,0.3-3.5,0.5-5.3,0.5c-6.5,0-12.6-2-17.7-5.7l3.8-3.8c1.8-1.8,1.3-4-1.3-4.7L5.5,57.6c-2.6-0.6-4.2,0.9-3.5,3.5l6.7,25.1
		c0.6,2.6,2.8,3.2,4.7,1.3l3.2-3.2c8.3,6.7,18.5,10.3,29.2,10.3c2.7,0,5.4-0.2,8.1-0.7C72,90.8,86.7,77.2,91.3,59.4
		C91.5,58.8,91.3,58.1,90.9,57.6z"/>
</g>
</svg>
