<?xml version="1.0" encoding="iso-8859-1"?>
<!-- Generator: Adobe Illustrator 19.0.0, SVG Export Plug-In . SVG Version: 6.00 Build 0)  -->
<svg version="1.1" id="Capa_1" xmlns="http://www.w3.org/2000/svg" xmlns:xlink="http://www.w3.org/1999/xlink" x="0px" y="0px"
	 viewBox="0 0 405.333 405.333" style="enable-background:new 0 0 405.333 405.333;" xml:space="preserve">
<g>
	<g>
		<path d="M266.667,192V64l-64-64l-64,64v42.667h-128v298.667h384V192H266.667z M96,362.667H53.333V320H96V362.667z M96,277.333
			H53.333v-42.667H96V277.333z M96,192H53.333v-42.667H96V192z M224,362.667h-42.667V320H224V362.667z M224,277.333h-42.667v-42.667
			H224V277.333z M224,192h-42.667v-42.667H224V192z M224,106.667h-42.667V64H224V106.667z M352,362.667h-42.667V320H352V362.667z
			 M352,277.333h-42.667v-42.667H352V277.333z"/>
	</g>
</g>
<g>
</g>
<g>
</g>
<g>
</g>
<g>
</g>
<g>
</g>
<g>
</g>
<g>
</g>
<g>
</g>
<g>
</g>
<g>
</g>
<g>
</g>
<g>
</g>
<g>
</g>
<g>
</g>
<g>
</g>
</svg>
