<svg xmlns="http://www.w3.org/2000/svg" data-name="Your Icon" viewBox="0 0 85 106.25" x="0px" y="0px"><title>clock</title><path d="M50.26,7.91a42.5,42.5,0,1,0,42.5,42.5A42.5,42.5,0,0,0,50.26,7.91ZM72,64.42a2.83,2.83,0,0,1-3.9.86L48.74,52.94a2.82,2.82,0,0,1-1.3-2.44s0-.06,0-0.1V26.61a2.83,2.83,0,1,1,5.66,0V49l18,11.5A2.83,2.83,0,0,1,72,64.42Z" transform="translate(-7.76 -7.91)"/><text x="0" y="100" fill="#000000" font-size="5px" font-weight="bold" font-family="'Helvetica Neue', Helvetica, Arial-Unicode, Arial, Sans-serif">Created by VectorBakery</text><text x="0" y="105" fill="#000000" font-size="5px" font-weight="bold" font-family="'Helvetica Neue', Helvetica, Arial-Unicode, Arial, Sans-serif">from the Noun Project</text></svg>