<svg xmlns="http://www.w3.org/2000/svg" width="115" height="190" viewbox="0 0 200 200">
	<title>cog</title>
	<g id="Layer_2" data-name="Layer 2">
		<g id="Layer_1-2" data-name="Layer 1">
			<path d="M34,19.08V14.83L28.91,14a12.17,12.17,0,0,0-1.39-3.35l2.95-4.2-3-3-4.14,3A12,12,0,0,0,20,5l-.88-5H14.82L14,5A12.13,12.13,0,0,0,10.63,6.4l-4.13-3-3,3L6.4,10.61A12.36,12.36,0,0,0,5,14l-5,.84v4.25L5,20a12.28,12.28,0,0,0,1.41,3.39L3.45,27.47l3,3,4.16-2.91A12.05,12.05,0,0,0,14,29l.83,5h4.25l.89-5a12.25,12.25,0,0,0,3.36-1.41l4.19,2.94,3-3-3-4.15A12.21,12.21,0,0,0,28.91,20ZM17,22.91A5.92,5.92,0,1,1,22.9,17,5.92,5.92,0,0,1,17,22.91Z">
			
          <animateTransform
            attributeName="transform"
            begin="0s"
            dur="2s"
            type="rotate"
            from="0 100 100"
            to="360 100 100"
            repeatCount="indefinite" />
			
			</path>
			
		</g>
	</g>
</svg>