<?xml version="1.0" encoding="utf-8"?>
<!-- Generator: Adobe Illustrator 21.0.0, SVG Export Plug-In . SVG Version: 6.00 Build 0)  -->
<svg version="1.1" id="Layer_1" xmlns="http://www.w3.org/2000/svg" xmlns:xlink="http://www.w3.org/1999/xlink" x="0px" y="0px"
	 viewBox="0 0 512 512" style="enable-background:new 0 0 512 512;" xml:space="preserve">
<style type="text/css">
	.st0{fill:#4DD0E1;}
	.st1{fill:#005C83;}
	.st2{fill:#00263F;}
	.st3{fill:#FFCF35;}
	.st4{fill:#FFB344;}
	.st5{fill:#FF9451;}
	.st6{fill:#F7674F;}
	.st7{fill:#008CC3;}
	.st8{fill:#0074A3;}
</style>
<circle class="st0" cx="256" cy="256" r="256"/>
<path class="st1" d="M384.4,359.5H127.6c-13.6,0-24.6-11-24.6-24.6V177.1c0-13.6,11-24.6,24.6-24.6h256.8c13.6,0,24.6,11,24.6,24.6
	v157.8C409,348.5,398,359.5,384.4,359.5z"/>
<path class="st2" d="M384.4,152.5H255.6v207.1h128.8c13.6,0,24.6-11,24.6-24.6V177.1C409,163.5,398,152.5,384.4,152.5z"/>
<circle class="st3" cx="358" cy="307" r="25.5"/>
<path class="st4" d="M358,281.5c-0.3,0-0.6,0-0.9,0v50.9c0.3,0,0.6,0,0.9,0c14.1,0,25.5-11.4,25.5-25.5
	C383.5,292.9,372.1,281.5,358,281.5z"/>
<circle class="st5" cx="332.5" cy="307" r="25.5"/>
<path class="st6" d="M358,307c0-14-11.3-25.4-25.3-25.5v51C346.7,332.4,358,321,358,307z"/>
<path class="st7" d="M370.8,256H141.3c-7,0-12.7-5.7-12.7-12.7l0,0c0-7,5.7-12.7,12.7-12.7h229.5c7,0,12.7,5.7,12.7,12.7l0,0
	C383.5,250.3,377.8,256,370.8,256z"/>
<path class="st8" d="M370.8,230.5H255.6V256h115.2c7,0,12.7-5.7,12.7-12.7C383.5,236.2,377.8,230.5,370.8,230.5z"/>
</svg>
