<?xml version="1.0" encoding="utf-8"?>
<!-- Generator: Adobe Illustrator 21.0.0, SVG Export Plug-In . SVG Version: 6.00 Build 0)  -->
<svg version="1.1" id="Layer_1" xmlns="http://www.w3.org/2000/svg" xmlns:xlink="http://www.w3.org/1999/xlink" x="0px" y="0px"
	 viewBox="0 0 297 297" style="enable-background:new 0 0 297 297;" xml:space="preserve">
<style type="text/css">
	.st0{fill:#FFC107;}
	.st1{fill:#008034;}
	.st2{fill:#6DC17D;}
	.st3{fill:#005E18;}
	.st4{fill:#36B059;}
</style>
<circle class="st0" cx="148.5" cy="148.5" r="148.5"/>
<path class="st1" d="M242.6,165l-29.4-77.1c-0.5-1.3-1.9-1.9-3.2-1.4L55.8,145.3c-1.3,0.5-1.9,1.9-1.4,3.2l29.4,77.1
	c0.4,1,1.3,1.6,2.3,1.6c0.3,0,0.6-0.1,0.9-0.2l154.1-58.9C242.5,167.7,243.1,166.2,242.6,165z"/>
<path class="st2" d="M232.1,151.5l-17.8-46.6c-7,1.5-14.3-1.7-17.8-8L72.8,144.2c1.5,7-1.7,14.3-8,17.8l17.8,46.6
	c7-1.5,14.3,1.7,17.8,8l123.7-47.2C222.7,162.3,225.9,155.1,232.1,151.5z"/>
<path class="st3" d="M231,113H66c-1.4,0-2.5,1.1-2.5,2.5V198c0,1.4,1.1,2.5,2.5,2.5h165c1.4,0,2.5-1.1,2.5-2.5v-82.5
	C233.5,114.1,232.4,113,231,113z"/>
<path class="st1" d="M148.2,113H66c-1.4,0-2.5,1.1-2.5,2.5V198c0,1.4,1.1,2.5,2.5,2.5h82.2L148.2,113L148.2,113z"/>
<path class="st2" d="M82,118c-1.1,7.1-6.7,12.7-13.8,13.8v49.9c7.1,1.1,12.7,6.7,13.8,13.8h132.4c1.1-7.1,6.7-12.7,13.8-13.8v-49.9
	c-7.1-1.1-12.7-6.7-13.8-13.8H82z"/>
<path class="st4" d="M214.4,118h-66.2v77.5h66.2c1.1-7.1,6.7-12.7,13.8-13.8v-49.9C221.1,130.7,215.5,125.1,214.4,118z"/>
<ellipse class="st1" cx="148.5" cy="156.8" rx="20" ry="30"/>
<path class="st3" d="M148.5,126.8c-0.1,0-0.2,0-0.3,0v60c0.1,0,0.2,0,0.3,0c11,0,20-13.4,20-30S159.5,126.8,148.5,126.8z"/>
</svg>
