<?xml version="1.0" encoding="utf-8"?>
<!-- Generator: Adobe Illustrator 21.0.0, SVG Export Plug-In . SVG Version: 6.00 Build 0)  -->
<svg version="1.1" id="Capa_1" xmlns="http://www.w3.org/2000/svg" xmlns:xlink="http://www.w3.org/1999/xlink" x="0px" y="0px"
	 viewBox="0 0 512 512" style="enable-background:new 0 0 512 512;" xml:space="preserve">
<style type="text/css">
	.st0{fill:#8BC34A;}
	.st1{fill:#ECF4F6;}
	.st2{fill:#B5DFEC;}
	.st3{fill:#38979E;}
	.st4{fill:#30767A;}
	.st5{fill:#F7DC4D;}
	.st6{fill:#F6CE23;}
	.st7{fill:#FFB33B;}
	.st8{fill:#DF871E;}
	.st9{fill:#FDF7D0;}
	.st10{fill:#F9ED9D;}
</style>
<circle class="st0" cx="256" cy="256" r="256"/>
<rect x="105.9" y="242.5" class="st1" width="289.8" height="141.1"/>
<rect x="250" y="242.5" class="st2" width="145.7" height="141.1"/>
<path class="st3" d="M105.9,242.5c0,5.5,0,136.6,0,141.1l0,0h289.8l0,0c0-4.6,0-135.7,0-141.1C392.7,242.5,108.2,242.5,105.9,242.5z
	 M375.4,339.9c-10.3,4.8-18.7,13.1-23.5,23.5H149.6c-4.8-10.3-13.1-18.7-23.5-23.5v-53.7c10.3-4.8,18.7-13.1,23.5-23.5H352
	c4.8,10.3,13.1,18.7,23.5,23.5L375.4,339.9L375.4,339.9z"/>
<path class="st4" d="M250,242.5v20.2h102c4.8,10.3,13.1,18.7,23.5,23.5v53.7c-10.3,4.8-18.7,13.1-23.5,23.5H250v20.2h145.7V242.5
	H250z"/>
<circle class="st3" cx="250.8" cy="313.1" r="38.4"/>
<path class="st4" d="M250.8,274.6c-0.3,0-0.5,0-0.8,0v76.9c0.3,0,0.5,0,0.8,0c21.2,0,38.4-17.2,38.4-38.4
	C289.2,291.8,272,274.6,250.8,274.6z"/>
<circle class="st5" cx="309.8" cy="242.5" r="50.7"/>
<circle class="st6" cx="309.8" cy="242.5" r="38.1"/>
<path class="st7" d="M309.8,191.8v101.4c28,0,50.7-22.7,50.7-50.7S337.8,191.8,309.8,191.8z"/>
<path class="st8" d="M347.9,242.5c0-21-17.1-38.1-38.1-38.1v76.2C330.8,280.6,347.9,263.5,347.9,242.5z"/>
<path class="st9" d="M322.1,231.2c-0.9-1-5.9-3.9-10.8-4.4V238l1.6,0.4c8.4,2.3,14.8,4.8,14.8,13.6c0,9.1-6.8,13.2-15.8,13.6v7.1
	H308v-7.2c-6.3-0.5-12.2-2.7-16.7-5.8l4-7.7c2,2,8,4.9,13.3,5.5v-11.1c-8.3-1.8-15.4-4.9-15.4-13.1c0-8.6,6.2-13.6,14.8-14.3v-6.6
	h3.9v6.5c5.3,0.4,10.2,2.3,14.2,5.1L322.1,231.2z M302.4,231.8c0,2.8,1.8,4.1,6.2,5.4v-10.5C304.5,227,302.4,228.7,302.4,231.8z
	 M318.2,252.9c0-2.7-2-4.1-6.9-5.7v10.4C315.9,257.5,318.2,255.9,318.2,252.9z"/>
<path class="st10" d="M312.9,238.4l-1.6-0.4v-11.2c4.9,0.5,9.9,3.4,10.8,4.4l4-7.3c-4.1-2.8-8.9-4.7-14.2-5.1v-6.5h-2v60.4h2v-7.1
	c9.1-0.4,15.8-4.5,15.8-13.6C327.7,243.1,321.4,240.6,312.9,238.4z M311.3,257.6v-10.4c5,1.6,6.9,3,6.9,5.7
	C318.2,255.9,315.9,257.5,311.3,257.6z"/>
<circle class="st5" cx="367.9" cy="162.6" r="36.9"/>
<circle class="st6" cx="367.9" cy="162.6" r="27.7"/>
<path class="st7" d="M367.9,125.7v73.8c20.4,0,36.9-16.5,36.9-36.9S388.3,125.7,367.9,125.7z"/>
<path class="st8" d="M395.7,162.6c0-15.3-12.4-27.7-27.7-27.7v55.4C383.3,190.4,395.7,178,395.7,162.6z"/>
<path class="st9" d="M376.9,154.4c-0.8-0.9-4.6-2.9-7.9-3.2v8.2c6.7,1.6,11.9,3.5,11.9,10.2c0,6.7-4.9,9.6-11.5,9.9v5.2h-2.8v-5.2
	c-4.6-0.3-8.9-1.9-12.1-4.2l2.9-5.6c1.4,1.4,5.7,3.6,9.7,4v-8.1c-6.9-1.5-11.2-3.9-11.2-9.5c0-6.2,4.4-9.9,10.8-10.4v-4.8h2.8v4.8
	c3.9,0.3,7.4,1.7,10.3,3.7L376.9,154.4z M362.6,154.9c0,2.1,1.3,3,4.5,3.9v-7.6C364.1,151.3,362.6,152.6,362.6,154.9z M374,170.2
	c0-2-1.4-3-5-4.2v7.6C372.4,173.5,374,172.4,374,170.2z"/>
<path class="st10" d="M369,159.3v-8.2c3.2,0.3,7.1,2.3,7.9,3.2l2.9-5.3c-3-2-6.5-3.4-10.3-3.7v-4.8H368v44h1.5v-5.2
	c6.6-0.3,11.5-3.3,11.5-9.9C381,162.8,375.7,161,369,159.3z M369,173.6V166c3.6,1.2,5,2.2,5,4.2C374,172.4,372.4,173.5,369,173.6z"
	/>
</svg>
