<svg xmlns="http://www.w3.org/2000/svg" xmlns:xlink="http://www.w3.org/1999/xlink" version="1.1" x="0px" y="0px" viewBox="0 0 100 125" enable-background="new 0 0 100 100" xml:space="preserve"><path fill-rule="evenodd" clip-rule="evenodd" d="M49.794,3.882c-10.954,0-15.668-6.442-25.87-2.729  C19.5,2.761,13.151,5.863,11.429,13.985c-3.086,14.631,3.952,23.895,5.752,35.372c0.939,6.057,2.002,13.879,3.802,27.524  c1.873,13.781,9.087,26.877,13.226,22.127c5.508-6.334,4.637-10.006,3.771-21.197c-0.69-8.926,0.026-27.52,11.815-27.52  c11.794,0,12.505,18.594,11.815,27.52c-0.867,11.191-1.738,14.863,3.77,21.197c4.14,4.75,11.354-8.346,13.226-22.127  c1.806-13.645,2.863-21.467,3.808-27.524c1.794-11.478,8.832-20.741,5.746-35.372C86.437,5.863,80.094,2.761,75.664,1.153  C65.457-2.56,60.748,3.882,49.794,3.882z"/><text x="0" y="115" fill="#000000" font-size="5px" font-weight="bold" font-family="'Helvetica Neue', Helvetica, Arial-Unicode, Arial, Sans-serif">Created by Adricons</text><text x="0" y="120" fill="#000000" font-size="5px" font-weight="bold" font-family="'Helvetica Neue', Helvetica, Arial-Unicode, Arial, Sans-serif">from the Noun Project</text></svg>