<svg xmlns="http://www.w3.org/2000/svg" xmlns:xlink="http://www.w3.org/1999/xlink" version="1.1" x="0px" y="0px" viewBox="0 0 40 50" enable-background="new 0 0 40 40" xml:space="preserve"><path fill-rule="evenodd" clip-rule="evenodd" d="M4.5,31.5h25v-17h-25V31.5z M6.5,16.5h21v13h-21V16.5z M7.5,28.5h19  c0,0,0-1.2,0-1.2v-9.8h-19V28.5z M17,19.5c1.9,0,3.5,1.6,3.5,3.5c0,1.9-1.6,3.5-3.5,3.5c-1.9,0-3.5-1.6-3.5-3.5  C13.5,21.1,15.1,19.5,17,19.5z M6.5,13.5h24v16h2v-18h-26V13.5z M8.5,8.5v2h25v17h2v-19H8.5z"/><text x="0" y="55" fill="#000000" font-size="5px" font-weight="bold" font-family="'Helvetica Neue', Helvetica, Arial-Unicode, Arial, Sans-serif">Created by Hello Many</text><text x="0" y="60" fill="#000000" font-size="5px" font-weight="bold" font-family="'Helvetica Neue', Helvetica, Arial-Unicode, Arial, Sans-serif">from the Noun Project</text></svg>