<?xml version="1.0" encoding="utf-8"?>
<!-- Generator: Adobe Illustrator 21.0.0, SVG Export Plug-In . SVG Version: 6.00 Build 0)  -->
<svg version="1.1" xmlns="http://www.w3.org/2000/svg" xmlns:xlink="http://www.w3.org/1999/xlink" x="0px" y="0px"
	 viewBox="0 0 512 512" style="enable-background:new 0 0 512 512;" xml:space="preserve">
<style type="text/css">
	.st0{fill:#1E88E5;}
</style>
<g id="Layer_1">
</g>
<g id="Layer_2_1_">
	<path class="st0" d="M512,237.4v-56.9L256,22.6L0,180.5v56.9h56.9v199.1H0v56.9h512v-56.9h-56.9V237.4H512z M170.7,436.5h-56.9
		V237.4h56.9V436.5z M284.4,436.5h-56.9V237.4h56.9V436.5z M256.3,172.3c-24.9,0-45-20.1-45-45c0-24.9,20.1-45,45-45
		c24.9,0,45,20.1,45,45C301.3,152.2,281.2,172.3,256.3,172.3z M398.2,436.5h-56.9V237.4h56.9V436.5z"/>
</g>
</svg>
