<?xml version="1.0" encoding="iso-8859-1"?>
<!-- Generator: Adobe Illustrator 18.1.1, SVG Export Plug-In . SVG Version: 6.00 Build 0)  -->
<svg version="1.1" id="Capa_1" xmlns="http://www.w3.org/2000/svg" xmlns:xlink="http://www.w3.org/1999/xlink" x="0px" y="0px"
	 viewBox="0 0 611.997 611.997" style="enable-background:new 0 0 611.997 611.997;" xml:space="preserve">
<g>
	<path d="M511.766,431.786c0,0-8.922-201.811-135.07-260.51c9.252-14.1,18.178-28.427,26.625-43.017
		c11.12-19.208,21.525-39.135,28.899-60.117c6.367-18.113,9.368-41.887-6.136-56.494c-1.368-1.286-2.842-2.405-4.387-3.366
		c-0.299-0.236-0.59-0.487-0.896-0.716C405.864-3.551,383.893-0.253,367.2,3.854c-13.717,3.372-26.819,8.891-39.844,14.25
		c-9.109,3.749-18.356,7.338-27.794,10.154c-10.101,3.007-18.164,5.486-31.058-1.625c-3.36-1.854-6.699-3.715-10.15-5.399
		c-10.487-5.129-20.945-8.323-32.722-8.279c-21.399,0.073-43.2,11.615-53.507,30.641c-9.08,16.762-7.027,32.817,0.291,49.304
		c10.567,23.817,29.964,44.77,46.742,64.326c3.588,4.178,7.219,8.323,10.88,12.44c-129.553,56.516-138.64,262.119-138.64,262.119
		S74.586,611.997,301.58,611.997C540.961,612.001,511.766,431.786,511.766,431.786z M334.531,366.326
		c11.363,0,20.588,9.206,20.588,20.586c0,11.36-9.227,20.585-20.588,20.585H275.22c7.825,30.873,32.769,53.529,62.285,53.529
		c6.632,0,13.173-1.148,19.457-3.416c10.698-3.856,22.5,1.687,26.36,12.379c3.848,10.701-1.701,22.492-12.385,26.358
		c-10.775,3.885-22.019,5.85-33.429,5.85c-52.417,0-96.052-41.574-104.539-95.981c-7.866-2.888-13.5-10.438-13.5-19.304
		c0-8.89,5.634-16.439,13.5-19.324c8.487-54.404,52.122-95.971,104.539-95.971c11.411,0,22.655,1.975,33.429,5.857
		c10.684,3.848,16.233,15.648,12.385,26.339c-3.863,10.7-15.655,16.249-26.36,12.385c-6.282-2.259-12.824-3.406-19.457-3.406
		c-29.515,0-54.461,22.648-62.285,53.531h59.311V366.326z"/>
	<rect x="502.624" y="419.278" style="stroke:#FF0000;stroke-miterlimit:10;" width="17.756" height="24.135"/>
</g>
<g>
</g>
<g>
</g>
<g>
</g>
<g>
</g>
<g>
</g>
<g>
</g>
<g>
</g>
<g>
</g>
<g>
</g>
<g>
</g>
<g>
</g>
<g>
</g>
<g>
</g>
<g>
</g>
<g>
</g>
</svg>
