<?xml version="1.0" encoding="iso-8859-1"?>
<!-- Generator: Adobe Illustrator 19.0.0, SVG Export Plug-In . SVG Version: 6.00 Build 0)  -->
<svg version="1.1" id="Capa_1" xmlns="http://www.w3.org/2000/svg" xmlns:xlink="http://www.w3.org/1999/xlink" x="0px" y="0px"
	 viewBox="0 0 512 512" style="enable-background:new 0 0 512 512;" xml:space="preserve">
<g>
	<g>
		<path d="M460.8,0H153.6c-28.16,0-51.2,23.04-51.2,51.2v384c0,15.36-10.24,25.6-25.6,25.6s-25.6-10.24-25.6-25.6v-256
			c0-15.36-10.24-25.6-25.6-25.6C10.24,153.6,0,163.84,0,179.2v281.6C0,488.96,23.04,512,51.2,512h409.6
			c28.16,0,51.2-23.04,51.2-51.2V51.2C512,23.04,488.96,0,460.8,0z M181.76,51.2h102.4v102.4h-102.4V51.2z M384,460.8H207.36
			c-15.36,0-25.6-10.24-25.6-25.6s10.24-25.6,25.6-25.6H384c15.36,0,25.6,10.24,25.6,25.6C409.6,448,399.36,460.8,384,460.8z
			 M435.2,358.4H207.36c-15.36,0-25.6-10.24-25.6-25.6c0-15.36,10.24-25.6,25.6-25.6H435.2c15.36,0,25.6,10.24,25.6,25.6
			C460.8,345.6,450.56,358.4,435.2,358.4z M435.2,256H207.36c-15.36,0-25.6-10.24-25.6-25.6c0-15.36,10.24-25.6,25.6-25.6H435.2
			c15.36,0,25.6,10.24,25.6,25.6C460.8,243.2,450.56,256,435.2,256z M460.8,153.6H358.4V51.2h102.4V153.6z"/>
	</g>
</g>
<g>
</g>
<g>
</g>
<g>
</g>
<g>
</g>
<g>
</g>
<g>
</g>
<g>
</g>
<g>
</g>
<g>
</g>
<g>
</g>
<g>
</g>
<g>
</g>
<g>
</g>
<g>
</g>
<g>
</g>
</svg>
