<?xml version="1.0" encoding="iso-8859-1"?>
<!-- Generator: Adobe Illustrator 19.0.0, SVG Export Plug-In . SVG Version: 6.00 Build 0)  -->
<svg version="1.1" id="Capa_1" xmlns="http://www.w3.org/2000/svg" xmlns:xlink="http://www.w3.org/1999/xlink" x="0px" y="0px"
	 viewBox="0 0 512 512" style="enable-background:new 0 0 512 512;" xml:space="preserve">
<g>
	<g>
		<path d="M460.8,0H153.6c-28.16,0-51.2,23.04-51.2,51.2v384c0,15.36-12.8,25.6-25.6,25.6s-25.6-10.24-25.6-25.6V153.6
			c0-12.8-12.8-25.6-25.6-25.6C12.8,128,0,140.8,0,153.6v307.2C0,488.96,23.04,512,51.2,512h409.6c28.16,0,51.2-23.04,51.2-51.2
			V51.2C512,23.04,488.96,0,460.8,0z M332.8,256H179.2c-12.8,0-25.6-10.24-25.6-25.6c0-12.8,12.8-25.6,25.6-25.6h153.6
			c12.8,0,25.6,12.8,25.6,25.6C358.4,245.76,345.6,256,332.8,256z M435.2,153.6h-256c-12.8,0-25.6-10.24-25.6-25.6
			c0-12.8,12.8-25.6,25.6-25.6h256c12.8,0,25.6,12.8,25.6,25.6C460.8,143.36,448,153.6,435.2,153.6z"/>
	</g>
</g>
<g>
</g>
<g>
</g>
<g>
</g>
<g>
</g>
<g>
</g>
<g>
</g>
<g>
</g>
<g>
</g>
<g>
</g>
<g>
</g>
<g>
</g>
<g>
</g>
<g>
</g>
<g>
</g>
<g>
</g>
</svg>
