<svg xmlns="http://www.w3.org/2000/svg" xmlns:xlink="http://www.w3.org/1999/xlink" version="1.0" x="0px" y="0px" viewBox="0 0 100 125" enable-background="new 0 0 100 100" xml:space="preserve"><polygon stroke="#000000" stroke-width="2" stroke-linecap="round" stroke-linejoin="round" stroke-miterlimit="10" points="  35,12.5 35,27.5 40,27.5 40,17.501 60,17.501 60,27.5 65,27.5 65,12.5 "/><path stroke="#000000" stroke-width="2" stroke-linecap="round" stroke-linejoin="round" stroke-miterlimit="10" d="M57.5,56.249  v3.748c0,2.751-2.249,5.001-5,5.001h-5c-2.75,0-5-2.25-5-5.001v-3.748h-30V87.5h75V56.249H57.5z"/><path stroke="#000000" stroke-width="2" stroke-linecap="round" stroke-linejoin="round" stroke-miterlimit="10" d="M12.5,27.5  v21.251h30v-3.752c0-2.751,2.25-5,5-5h5c2.751,0,5,2.249,5,5v3.752h30V27.5H12.5z"/><text x="0" y="115" fill="#000000" font-size="5px" font-weight="bold" font-family="'Helvetica Neue', Helvetica, Arial-Unicode, Arial, Sans-serif">Created by Danil Polshin</text><text x="0" y="120" fill="#000000" font-size="5px" font-weight="bold" font-family="'Helvetica Neue', Helvetica, Arial-Unicode, Arial, Sans-serif">from the Noun Project</text></svg>