<svg xmlns="http://www.w3.org/2000/svg" xmlns:xlink="http://www.w3.org/1999/xlink" version="1.1" x="0px" y="0px" viewBox="0 0 100 125" style="enable-background:new 0 0 100 100;" xml:space="preserve"><path d="M60,39.6c0-0.1-0.3-0.6-1.1-0.7H39.5c-0.9,0.1-1.1,0.6-1.1,0.7l0,0.1L35,47.3l28.3,0L60,39.6z"/><path d="M86.9,26.3l-0.9-4.6l-5,0.2c-3.2,0-19.6-0.6-27-12.6l-4.6-7.2l-4.7,7.3c-7.4,12-23.8,12.6-27,12.6l-5-0.2  l-0.9,4.6c-0.2,1.3-2.3,13.3,0.7,27.5C15.2,67.7,23.6,86.4,47,96.7l2.3,1l2.2-1c23.5-10.3,31.9-29,34.8-42.8  C89.2,39.4,87.1,27.6,86.9,26.3z M69.1,50.7l-1,0.1c1.5,3,2.8,8-1.5,12.3c-0.4,0.5-1,0.9-1.6,1v2.5c0,1-0.8,1.7-1.7,1.7H61  c-1,0-1.7-0.8-1.7-1.7v-2.3H39.2v2.4c0,1-0.8,1.7-1.7,1.7h-2.3c-1,0-1.7-0.8-1.7-1.7v-2.5c-0.5-0.1-1.6-1-1.7-1  c-4.2-4.3-2.6-9.4-1.1-12.3l-1.2-0.1c-2.3-0.6-2-2.3-1.8-3.3c0.2-1,1-1.2,1-1.2l3.6,0.4l3.3-7.9c0.3-0.9,1.4-2.4,3.6-2.6h0.1h19.7  c2.2,0.2,3.3,1.7,3.6,2.6l3.4,7.9l3.7-0.4c0,0,0.8,0.2,1,1.2C71.1,48.4,71.4,50.1,69.1,50.7z"/><path d="M36.9,52.2c-1.4,0-2.5,1.1-2.5,2.5c0,1.4,1.1,2.5,2.5,2.5c1.4,0,2.5-1.1,2.5-2.5  C39.4,53.4,38.3,52.2,36.9,52.2z"/><path d="M61.2,52.2c-1.4,0-2.5,1.1-2.5,2.5c0,1.4,1.1,2.5,2.5,2.5c1.4,0,2.5-1.1,2.5-2.5  C63.7,53.4,62.6,52.2,61.2,52.2z"/><text x="0" y="115" fill="#000000" font-size="5px" font-weight="bold" font-family="'Helvetica Neue', Helvetica, Arial-Unicode, Arial, Sans-serif">Created by Aneeque Ahmed</text><text x="0" y="120" fill="#000000" font-size="5px" font-weight="bold" font-family="'Helvetica Neue', Helvetica, Arial-Unicode, Arial, Sans-serif">from the Noun Project</text></svg>