<svg xmlns="http://www.w3.org/2000/svg" xmlns:xlink="http://www.w3.org/1999/xlink" version="1.1" x="0px" y="0px" viewBox="0 0 100 125" enable-background="new 0 0 100 100" xml:space="preserve"><rect x="20.257" y="24.522" width="59.57" height="6.191"/><g><circle fill="#000000" cx="49.98" cy="27.618" r="11.263"/></g><g><path d="M49.98,41.976c-7.917,0-14.358-6.442-14.358-14.358c0-7.917,6.441-14.357,14.358-14.357s14.358,6.44,14.358,14.357   C64.338,35.534,57.896,41.976,49.98,41.976z M49.98,19.45c-4.504,0-8.167,3.664-8.167,8.168s3.664,8.167,8.167,8.167   c4.504,0,8.167-3.663,8.167-8.167S54.484,19.45,49.98,19.45z"/></g><g><path d="M20.257,83C10.19,83,2,74.812,2,64.744c0-2.956,0.695-5.79,2.067-8.42l16.19-31.721l16.202,31.743   c1.36,2.607,2.056,5.441,2.056,8.397C38.515,74.812,30.324,83,20.257,83z M20.257,38.221L9.569,59.161   C8.65,60.925,8.19,62.795,8.19,64.744c0,6.653,5.414,12.065,12.067,12.065c6.653,0,12.067-5.412,12.067-12.065   c0-1.949-0.459-3.819-1.367-5.561L20.257,38.221z"/></g><g><path d="M33.702,57.754c1.092,2.094,1.717,4.468,1.717,6.99c0,8.373-6.789,15.16-15.162,15.16S5.095,73.117,5.095,64.744   c0-2.522,0.626-4.896,1.717-6.99H33.702z"/></g><g><path d="M79.827,83c-10.068,0-18.258-8.188-18.258-18.256c0-2.956,0.695-5.79,2.067-8.42l16.19-31.721l16.201,31.743   c1.36,2.607,2.056,5.441,2.056,8.397C98.084,74.812,89.894,83,79.827,83z M79.827,38.221l-10.689,20.94   c-0.919,1.764-1.378,3.634-1.378,5.583c0,6.653,5.414,12.065,12.067,12.065s12.066-5.412,12.066-12.065   c0-1.949-0.46-3.819-1.366-5.561L79.827,38.221z"/></g><g><path d="M93.271,57.754c1.092,2.094,1.717,4.468,1.717,6.99c0,8.373-6.789,15.16-15.161,15.16c-8.374,0-15.162-6.787-15.162-15.16   c0-2.522,0.625-4.896,1.716-6.99H93.271z"/></g><text x="0" y="115" fill="#000000" font-size="5px" font-weight="bold" font-family="'Helvetica Neue', Helvetica, Arial-Unicode, Arial, Sans-serif">Created by Anthony Rees</text><text x="0" y="120" fill="#000000" font-size="5px" font-weight="bold" font-family="'Helvetica Neue', Helvetica, Arial-Unicode, Arial, Sans-serif">from the Noun Project</text></svg>