<svg xmlns="http://www.w3.org/2000/svg" xmlns:xlink="http://www.w3.org/1999/xlink" version="1.1" x="0px" y="0px" viewBox="0 0 93.23 125" enable-background="new 0 0 93.23 100" xml:space="preserve"><circle cx="60.692" cy="15.934" r="10.931"/><path d="M88.134,48.81c-0.468-2.104-2.554-3.429-4.654-2.961c-0.022,0.005-2.39,0.424-5.244-0.659  c-4.328-1.643-7.63-5.773-9.812-12.278c-0.213-0.636-0.574-1.181-1.033-1.608L49.876,27.89c-0.163-0.063-0.329-0.121-0.504-0.163  c-1.017-0.275-9.883-3.124-7.872-18.256c0.284-2.136-1.217-4.097-3.353-4.38c-2.14-0.284-4.097,1.217-4.381,3.353  C31.429,26.036,41.188,33.52,47.05,35.18l-4.764,24.441l0.01,0.002L38.011,81.55c-0.412,2.114,0.968,4.163,3.083,4.575  c0.252,0.049,0.503,0.072,0.75,0.072c1.829,0,3.461-1.292,3.824-3.155l4.285-21.927l0.081,0.016l3.39,0.661l0.072,0.014  l-2.266,11.625c-0.412,2.114,0.968,4.163,3.083,4.575c0.252,0.049,0.503,0.072,0.75,0.072c1.829,0,3.462-1.292,3.824-3.155  l2.704-13.871l3.256-16.702l0.13-0.667c5.185,7.846,12.182,10.096,17.148,10.096c1.138,0,2.17-0.119,3.048-0.313  C87.277,52.996,88.603,50.912,88.134,48.81z"/><path d="M30.079,82.462C30.079,89.387,24.465,95,17.541,95l0,0c-6.925,0-12.538-5.613-12.538-12.538l0,0  c0-6.924,5.613-12.537,12.538-12.537l0,0C24.465,69.925,30.079,75.538,30.079,82.462L30.079,82.462z"/><text x="0" y="115" fill="#000000" font-size="5px" font-weight="bold" font-family="'Helvetica Neue', Helvetica, Arial-Unicode, Arial, Sans-serif">Created by jon trillana</text><text x="0" y="120" fill="#000000" font-size="5px" font-weight="bold" font-family="'Helvetica Neue', Helvetica, Arial-Unicode, Arial, Sans-serif">from the Noun Project</text></svg>