<svg xmlns="http://www.w3.org/2000/svg" xmlns:xlink="http://www.w3.org/1999/xlink" version="1.1" x="0px" y="0px" viewBox="0 0 50 62.5" enable-background="new 0 0 50 50" xml:space="preserve"><path fill-rule="evenodd" clip-rule="evenodd" d="M34.662,29.988c-2.902,1.667-5.793,3.345-8.696,5.006  c-0.144,0.077-0.406,0.071-0.55-0.013c-2.885-1.648-5.77-3.314-8.66-4.963c-0.215-0.138-0.335-0.263-0.335-0.55  c0.024-3.314,0.019-6.647,0-9.957c0-0.299,0.084-0.478,0.347-0.633c2.879-1.636,5.752-3.297,8.619-4.957  c0.245-0.149,0.4-0.132,0.639,0c2.891,1.684,5.788,3.345,8.673,5.035c0.138,0.078,0.263,0.311,0.263,0.466  c0.012,1.684,0.006,3.362,0.006,5.035c0,1.655-0.006,3.321,0.006,4.969C34.973,29.702,34.89,29.852,34.662,29.988z M9.146,13.468  c1.941,1.129,3.883,2.246,5.835,3.356c0.114,0.072,0.335,0.036,0.46-0.036c2.927-1.672,5.848-3.363,8.757-5.059  c0.131-0.06,0.251-0.257,0.251-0.4c0.018-2.258,0.018-4.516,0.018-6.881c-5.196,2.992-10.31,5.943-15.434,8.899  C9.093,13.414,9.11,13.45,9.146,13.468z M24.024,37.036c-2.837-1.624-5.668-3.261-8.499-4.909c-0.239-0.149-0.43-0.149-0.669-0.006  c-1.38,0.813-2.771,1.595-4.151,2.4c-0.531,0.305-1.045,0.628-1.678,1.021c5.178,2.986,10.267,5.926,15.439,8.906  c0-2.276-0.006-4.45,0.006-6.63C24.473,37.442,24.365,37.228,24.024,37.036z M36.012,32.073c-0.973,0.549-1.935,1.129-2.914,1.696  c-1.911,1.093-3.841,2.204-5.77,3.291c-0.275,0.155-0.406,0.328-0.395,0.675c0.012,2.072,0.006,4.151,0.006,6.218  c0,0.144,0.018,0.286,0.03,0.483c5.16-2.98,10.261-5.931,15.434-8.917c-2.055-1.188-4.044-2.342-6.045-3.482  C36.275,31.995,36.107,32.014,36.012,32.073z M27.214,11.748c2.897,1.678,5.788,3.357,8.685,5.035  c0.245,0.143,0.4,0.125,0.627-0.006c0.837-0.502,1.697-0.992,2.551-1.476c1.087-0.639,2.18-1.266,3.315-1.923  c-5.161-2.98-10.273-5.931-15.41-8.894c-0.024,0.09-0.036,0.12-0.036,0.149c-0.006,2.246-0.012,4.498,0,6.744  C26.957,11.497,27.095,11.676,27.214,11.748z M37.637,18.987c-0.107,0.065-0.191,0.257-0.191,0.382  c-0.012,3.333-0.012,6.672-0.012,10.004c0,0.275,0.096,0.454,0.347,0.592c1.296,0.752,2.58,1.522,3.87,2.275  c0.633,0.364,1.278,0.723,1.959,1.117c0-5.967,0-11.856,0-17.823C41.567,16.711,39.596,17.846,37.637,18.987z M13.597,30.019  c0.263-0.149,0.364-0.322,0.364-0.633c-0.013-3.273-0.013-6.547,0-9.826c0-0.371-0.126-0.55-0.431-0.723  c-1.194-0.669-2.365-1.356-3.548-2.037c-0.717-0.413-1.434-0.825-2.186-1.254c0,5.937,0,11.802,0,17.781  c0.656-0.388,1.236-0.723,1.815-1.057C10.938,31.512,12.265,30.759,13.597,30.019z"/><text x="0" y="65" fill="#000000" font-size="5px" font-weight="bold" font-family="'Helvetica Neue', Helvetica, Arial-Unicode, Arial, Sans-serif">Created by Kick</text><text x="0" y="70" fill="#000000" font-size="5px" font-weight="bold" font-family="'Helvetica Neue', Helvetica, Arial-Unicode, Arial, Sans-serif">from the Noun Project</text></svg>