<svg xmlns="http://www.w3.org/2000/svg" xmlns:xlink="http://www.w3.org/1999/xlink" version="1.1" x="0px" y="0px" viewBox="0 0 16 20" style="enable-background:new 0 0 16 16;" xml:space="preserve"><g><path d="M14.867,10.501c-0.276-0.479-0.888-0.644-1.366-0.368L10.255,12H7.5C8.328,12,9,11.328,9,10.5C9,10.224,8.776,10,8.5,10H4   l0,5h4.298c0.651,0,1.29-0.215,1.808-0.606l4.393-2.527C14.977,11.591,15.142,10.98,14.867,10.501z"/><rect x="1" y="10" width="2" height="5"/><path d="M8,9c2.06-1.872,4-3.288,4-4.8C12,2.968,11.032,2,9.8,2C9.104,2,8.436,2.324,8,2.836C7.564,2.324,6.896,2,6.2,2   C4.968,2,4,2.968,4,4.2C4,5.712,5.94,7.132,8,9z"/></g><text x="0" y="31" fill="#000000" font-size="5px" font-weight="bold" font-family="'Helvetica Neue', Helvetica, Arial-Unicode, Arial, Sans-serif">Created by Icon Solid</text><text x="0" y="36" fill="#000000" font-size="5px" font-weight="bold" font-family="'Helvetica Neue', Helvetica, Arial-Unicode, Arial, Sans-serif">from the Noun Project</text></svg>