<svg xmlns="http://www.w3.org/2000/svg" data-name="Layer 1" viewBox="0 0 100 125" x="0px" y="0px"><title>78 all</title><path d="M65.2,18H65a24.6,24.6,0,0,0-15,5.32c-4.73-4-9.27-6.07-13.53-6.07a22.19,22.19,0,0,0-16,6.75,23.42,23.42,0,0,0,0,32.53L46,81.12a5.77,5.77,0,0,0,8,0L79.42,56.6l.07-.07a23.45,23.45,0,0,0,0-32.53A20,20,0,0,0,65.2,18Zm-18,43L34.31,49.58,39,44.35l8.14,7.21L62.87,36.65l4.81,5.09Z"/><text x="0" y="115" fill="#000000" font-size="5px" font-weight="bold" font-family="'Helvetica Neue', Helvetica, Arial-Unicode, Arial, Sans-serif">Created by Ramesha</text><text x="0" y="120" fill="#000000" font-size="5px" font-weight="bold" font-family="'Helvetica Neue', Helvetica, Arial-Unicode, Arial, Sans-serif">from the Noun Project</text></svg>