<svg xmlns:dc="http://purl.org/dc/elements/1.1/" xmlns:cc="http://creativecommons.org/ns#" xmlns:rdf="http://www.w3.org/1999/02/22-rdf-syntax-ns#" xmlns:svg="http://www.w3.org/2000/svg" xmlns="http://www.w3.org/2000/svg" xmlns:sodipodi="http://sodipodi.sourceforge.net/DTD/sodipodi-0.dtd" xmlns:inkscape="http://www.inkscape.org/namespaces/inkscape" version="1.1" x="0px" y="0px" viewBox="0 0 100 125"><g transform="translate(0,-952.36218)"><path style="color:#000000;enable-background:accumulate;" d="m 53.500151,956.36219 c -4.953,0 -9,4.04798 -9,9 l 0,11.09375 c 0.6606,-0.0523 1.3258,-0.0937 2,-0.0937 0.6742,0 1.3394,0.0415 2,0.0937 l 0,-11.09375 c 0,-2.80398 2.1926,-5 5,-5 2.8708,0 4.8995,1.94962 5,5.0625 l 0.062,2 c 0.1617,5.01212 4.1104,8.9375 9,8.9375 4.952999,0 8.937499,-4.07497 8.937499,-9 a 2.0001999,2.0001999 0 1 0 -4,0 c 0,2.83097 -2.130099,5 -4.937499,5 -2.8708,0 -4.8995,-1.94962 -5,-5.0625 l -0.062,-2 c -0.1617,-5.01212 -4.1104,-8.9375 -9,-8.9375 z m -7,22 c -12.742,0 -23,10.258 -23,23.00001 l 0,24 c 0,12.742 10.258,23 23,23 12.742,0 23,-10.258 23,-23 l 0,-24 c 0,-12.74201 -10.258,-23.00001 -23,-23.00001 z m 0,10 c 1.662,0 3,1.338 3,3 l 0,10.00001 c 0,1.662 -1.338,3 -3,3 -1.662,0 -3,-1.338 -3,-3 l 0,-10.00001 c 0,-1.662 1.338,-3 3,-3 z" fill="#000000" stroke="none" marker="none" visibility="visible" display="inline" overflow="visible"/></g><text x="0" y="115" fill="#000000" font-size="5px" font-weight="bold" font-family="'Helvetica Neue', Helvetica, Arial-Unicode, Arial, Sans-serif">Created by iconsphere</text><text x="0" y="120" fill="#000000" font-size="5px" font-weight="bold" font-family="'Helvetica Neue', Helvetica, Arial-Unicode, Arial, Sans-serif">from the Noun Project</text></svg>