<svg xmlns="http://www.w3.org/2000/svg" xmlns:xlink="http://www.w3.org/1999/xlink" version="1.1" x="0px" y="0px" viewBox="0 0 100 125" style="enable-background:new 0 0 100 100;" xml:space="preserve"><g><circle cx="36.8" cy="46.9" r="1.4"/><path d="M87.6,39.9h-8.1c-0.4,0-0.8-0.2-0.9-0.6L72,23.8c-1-2.4-3.4-4-6-4H33.9c-2.6,0-5,1.6-6,4l-6.6,15.5   c-0.2,0.4-0.5,0.6-0.9,0.6h-8.1c-0.6,0-1,0.4-1,1v4c0,0.6,0.4,1,1,1h5.5c0.3,0,0.5,0.1,0.7,0.3c0.2,0.2,0.3,0.5,0.3,0.8l-1.8,19.5   c0,0,0,0.1,0,0.1c0,3.1,2.2,5.8,5.2,6.4c0.5,0.1,0.8,0.5,0.8,1v5.2c0,0.6,0.4,1,1,1h8.6c0.6,0,1-0.4,1-1v-5c0-0.6,0.4-1,1-1h30.6   c0.6,0,1,0.4,1,1v5c0,0.6,0.4,1,1,1h8.6c0.6,0,1-0.4,1-1V74c0-0.5,0.3-0.9,0.8-1c3-0.6,5.2-3.3,5.2-6.4c0,0,0-0.1,0-0.1L81.1,47   c0-0.3,0.1-0.6,0.3-0.8c0.2-0.2,0.5-0.3,0.7-0.3h5.5c0.6,0,1-0.4,1-1v-4C88.6,40.3,88.1,39.9,87.6,39.9z M70,46.5   c0,0.3-0.1,0.5-0.3,0.7l-4.5,4.5C65,51.9,64.7,52,64.5,52H50.7c-1.9,3.6-5.6,5.9-9.7,5.9c-6.1,0-11-4.9-11-11s4.9-11,11-11   c4.1,0,7.8,2.3,9.7,5.9H69c0.6,0,1,0.4,1,1V46.5z"/><path d="M49.2,43.2c-1.5-3.2-4.7-5.3-8.2-5.3c-5,0-9,4-9,9s4,9,9,9c3.5,0,6.7-2.1,8.2-5.3c0.2-0.4,0.5-0.6,0.9-0.6H64l3.9-3.9v-2.3   H50.1C49.7,43.8,49.4,43.6,49.2,43.2z M36.8,50.3c-1.9,0-3.4-1.5-3.4-3.4s1.5-3.4,3.4-3.4s3.4,1.5,3.4,3.4S38.7,50.3,36.8,50.3z"/></g><text x="0" y="115" fill="#000000" font-size="5px" font-weight="bold" font-family="'Helvetica Neue', Helvetica, Arial-Unicode, Arial, Sans-serif">Created by mikicon</text><text x="0" y="120" fill="#000000" font-size="5px" font-weight="bold" font-family="'Helvetica Neue', Helvetica, Arial-Unicode, Arial, Sans-serif">from the Noun Project</text></svg>