<svg xmlns="http://www.w3.org/2000/svg" xmlns:xlink="http://www.w3.org/1999/xlink" version="1.1" x="0px" y="0px" viewBox="0 0 48 60" enable-background="new 0 0 48 48" xml:space="preserve"><g><path fill="#000000" d="M23.7,30.8L1,23.2c-0.3-0.1-0.5,0.1-0.5,0.4v20.8c0,1.2,1,2.2,2.2,2.2h42.6c1.2,0,2.2-1,2.2-2.2V23.6   c0-0.3-0.3-0.5-0.5-0.4l-22.6,7.5C24.1,30.8,23.9,30.8,23.7,30.8z"/><path fill="#000000" d="M24.3,27.6L47.2,20c0.2-0.1,0.3-0.2,0.3-0.4V13c0-1.2-1-2.2-2.2-2.2l-10.4,0c-0.2,0-0.3-0.1-0.3-0.3   C33.7,5.4,29.3,1.4,24,1.4s-9.7,3.9-10.5,9.1c0,0.2-0.2,0.3-0.3,0.3l-10.4,0c-1.2,0-2.2,1-2.2,2.2v6.6c0,0.2,0.1,0.3,0.3,0.4   l22.9,7.6C23.9,27.7,24.1,27.7,24.3,27.6z M24,4.4c3.6,0,6.7,2.5,7.4,5.9c0.1,0.2-0.1,0.4-0.4,0.4H16.9c-0.2,0-0.4-0.2-0.3-0.4   C17.3,7,20.4,4.4,24,4.4z"/></g><text x="0" y="63" fill="#000000" font-size="5px" font-weight="bold" font-family="'Helvetica Neue', Helvetica, Arial-Unicode, Arial, Sans-serif">Created by Creative Stall</text><text x="0" y="68" fill="#000000" font-size="5px" font-weight="bold" font-family="'Helvetica Neue', Helvetica, Arial-Unicode, Arial, Sans-serif">from the Noun Project</text></svg>