<svg xmlns="http://www.w3.org/2000/svg" xmlns:xlink="http://www.w3.org/1999/xlink" version="1.1" x="0px" y="0px" viewBox="0 0 100 125" enable-background="new 0 0 100 100" xml:space="preserve"><path d="M81.638,50.848c0-0.604,0-1.09,0-1.574v-0.24c0-16.455-13.431-29.766-29.766-29.766H51.63  c-14.036,0-26.135,9.68-29.039,23.352c-9.679,0.727-17.424,8.834-17.424,18.756v0.604c0,10.406,8.471,18.754,18.755,18.754h56.384  c7.987,0,14.521-6.533,14.521-14.52v-0.848C95.067,57.744,89.138,51.453,81.638,50.848z M64.093,50.604L51.872,62.826  c-0.483,0.482-1.088,0.725-1.815,0.725c-0.604,0-1.331-0.242-1.815-0.725l-12.22-12.223c-0.969-0.967-0.969-2.539,0-3.508  c0.968-0.969,2.541-0.969,3.509,0l10.406,10.406l10.405-10.406c0.968-0.969,2.54-0.969,3.509,0  C65.062,48.064,65.062,49.637,64.093,50.604z"/><text x="0" y="115" fill="#000000" font-size="5px" font-weight="bold" font-family="'Helvetica Neue', Helvetica, Arial-Unicode, Arial, Sans-serif">Created by Thengakola</text><text x="0" y="120" fill="#000000" font-size="5px" font-weight="bold" font-family="'Helvetica Neue', Helvetica, Arial-Unicode, Arial, Sans-serif">from the Noun Project</text></svg>