<svg xmlns="http://www.w3.org/2000/svg" xmlns:xlink="http://www.w3.org/1999/xlink" version="1.1" x="0px" y="0px" viewBox="0 0 100 125" enable-background="new 0 0 100 100" xml:space="preserve"><g display="none"><rect x="-10.375" y="-368.38" display="inline" fill-rule="evenodd" clip-rule="evenodd" fill="#000000" width="1219.935" height="495.59"/></g><g><g><path d="M56.04,83.656l6.486,8.393c1.004,1.299,2.522,1.981,4.054,1.981c1.092,0,2.191-0.346,3.117-1.061l2.246-1.736    c2.225-1.719,2.638-4.946,0.919-7.171L65.317,74.3c0.238-0.972,0.379-1.98,0.379-3.023v-3.118v-2.473h9.296    c2.775,0,5.046-2.271,5.046-5.046v-0.957c0-2.775-2.271-5.046-5.046-5.046h-12.2c2.328-1.076,4.397-2.446,6.166-4.054    c4.752-4.322,7.316-10.357,6.672-17.053c-0.212-2.482-0.779-4.874-1.649-7.122c3.922-1.737,6.663-5.657,6.663-10.223    C80.643,10.007,75.637,5,69.461,5c-4.511,0-8.388,2.676-10.156,6.522C56.417,10.372,53.28,9.734,50,9.734    c-3.28,0-6.417,0.638-9.305,1.789C38.927,7.676,35.05,5,30.539,5c-6.176,0-11.183,5.007-11.183,11.183    c0,4.566,2.74,8.486,6.663,10.223c-0.87,2.249-1.437,4.641-1.649,7.122c-0.644,6.696,1.919,12.732,6.671,17.053    c1.769,1.609,3.839,2.979,6.167,4.054h-12.2c-2.775,0-5.046,2.271-5.046,5.046v0.957c0,2.775,2.271,5.046,5.046,5.046h9.296v3.443    v2.148c0,1.304,0.2,2.562,0.567,3.749l-7.732,10.006c-1.719,2.225-1.305,5.451,0.919,7.171l2.246,1.736    C31.23,94.654,32.329,95,33.421,95c1.532,0,3.05-0.682,4.054-1.981l7.115-9.207c0.81,0.162,1.645,0.25,2.501,0.25h2.43h1.71h1.68    C53.99,84.063,55.035,83.912,56.04,83.656z M39.692,41.201c0-5.684,4.624-10.308,10.308-10.308    c5.684,0,10.308,4.624,10.308,10.308c0,5.684-4.624,10.308-10.308,10.308C44.316,51.509,39.692,46.885,39.692,41.201z     M69.461,10.953c2.888,0,5.23,2.341,5.23,5.23s-2.341,5.23-5.23,5.23c-2.888,0-5.229-2.341-5.229-5.23    S66.572,10.953,69.461,10.953z M61.373,26.83c1.016,0,1.84,0.824,1.84,1.84s-0.824,1.84-1.84,1.84s-1.84-0.824-1.84-1.84    S60.357,26.83,61.373,26.83z M30.539,21.412c-2.888,0-5.23-2.341-5.23-5.23s2.341-5.23,5.23-5.23s5.23,2.341,5.23,5.23    S33.428,21.412,30.539,21.412z M36.788,28.669c0-1.016,0.824-1.84,1.839-1.84c1.016,0,1.84,0.824,1.84,1.84s-0.824,1.84-1.84,1.84    C37.611,30.509,36.788,29.685,36.788,28.669z"/><circle cx="50" cy="37.541" r="4.599"/></g></g><text x="0" y="115" fill="#000000" font-size="5px" font-weight="bold" font-family="'Helvetica Neue', Helvetica, Arial-Unicode, Arial, Sans-serif">Created by Oksana Latysheva</text><text x="0" y="120" fill="#000000" font-size="5px" font-weight="bold" font-family="'Helvetica Neue', Helvetica, Arial-Unicode, Arial, Sans-serif">from the Noun Project</text></svg>