<svg xmlns:dc="http://purl.org/dc/elements/1.1/" xmlns:cc="http://creativecommons.org/ns#" xmlns:rdf="http://www.w3.org/1999/02/22-rdf-syntax-ns#" xmlns:svg="http://www.w3.org/2000/svg" xmlns="http://www.w3.org/2000/svg" xmlns:sodipodi="http://sodipodi.sourceforge.net/DTD/sodipodi-0.dtd" xmlns:inkscape="http://www.inkscape.org/namespaces/inkscape" version="1.1" x="0px" y="0px" viewBox="0 0 100 125"><g transform="translate(0,-952.36218)"><path style="text-indent:0;text-transform:none;direction:ltr;block-progression:tb;baseline-shift:baseline;color:#000000;enable-background:accumulate;" d="m 30.124998,976.40907 c -3.6453,0 -7.25,3.11687 -7.25,8 l 0,1.34375 c -4.296,-1.6423 -10.5938,0.12102 -10.5938,5.28125 l 0,5.40625 -4.2811995,0 a 2.000005,2.000005 0 0 0 -2,2 l 0,7.84378 a 2.000005,2.000005 0 0 0 2,2 l 4.2811995,0 0,5.4062 c 0,5.1602 6.2978,6.9236 10.5938,5.2813 l 0,1.3437 c 0,4.8832 3.6047,8 7.25,8 3.6452,0 7.25,-3.1168 7.25,-8 l 0,-12.0312 25.375004,0 0,12.0312 c 0,4.8823 3.606299,8 7.249999,8 3.6438,0 7.25,-3.1177 7.25,-8 l 0,-1.3437 c 4.298301,1.6267 10.5938,-0.1292 10.5938,-5.2813 l 0,-5.4062 4.1562,0 a 2.000005,2.000005 0 0 0 2,-2 l 0,-7.84378 a 2.000005,2.000005 0 0 0 -2,-2 l -4.1562,0 0,-5.40625 c 0,-5.15212 -6.2955,-6.93928 -10.5938,-5.3125 l 0,-1.3125 c 0,-4.88229 -3.6062,-8 -7.25,-8 -3.6437,0 -7.25,3.11771 -7.25,8 l 0,12.03125 -25.375003,0 0,-12.03125 c 0,-4.88313 -3.6048,-8 -7.25,-8 z" fill="#000000" fill-opacity="1" fill-rule="evenodd" stroke="none" marker="none" visibility="visible" display="inline" overflow="visible"/></g><text x="0" y="115" fill="#000000" font-size="5px" font-weight="bold" font-family="'Helvetica Neue', Helvetica, Arial-Unicode, Arial, Sans-serif">Created by andriwidodo</text><text x="0" y="120" fill="#000000" font-size="5px" font-weight="bold" font-family="'Helvetica Neue', Helvetica, Arial-Unicode, Arial, Sans-serif">from the Noun Project</text></svg>