<?xml version="1.0" encoding="utf-8"?>
<!-- Generator: Adobe Illustrator 21.0.0, SVG Export Plug-In . SVG Version: 6.00 Build 0)  -->
<svg version="1.1" xmlns="http://www.w3.org/2000/svg" xmlns:xlink="http://www.w3.org/1999/xlink" x="0px" y="0px"
	 viewBox="0 0 90 112.5" style="enable-background:new 0 0 90 112.5;" xml:space="preserve">
<style type="text/css">
	.st0{display:none;}
	.st1{display:inline;fill:#00ACC1;}
	.st2{display:inline;}
	.st3{font-family:'Helvetica-Bold';}
	.st4{font-size:5px;}
	.st5{fill:#00ACC1;}
</style>
<g id="Layer_1" class="st0">
	<path class="st1" d="M73.1,32.8L73.1,32.8c-5.3-5.3-11.7-7.9-19.1-7.9H34.9v-0.9v-5.7c0-2.6-1.9-3.7-4.2-2.4l-22.5,13
		c-1.2,0.7-1.7,1.7-1.7,2.6c0,0,0,0,0,0c0,0,0,0,0,0c0,0.9,0.6,1.7,1.7,2.3l22.5,13c2.3,1.4,4.2,0.3,4.2-2.4v-5.7v-1.2H54
		c4,0,7.4,1.4,10.2,4.2l0,0c2.8,2.8,4.2,6.2,4.2,10.2c0,4-1.4,7.4-4.2,10.2C61.4,65,58,66.4,54,66.4H19.5V79H54
		c7.5,0,13.8-2.6,19.1-7.9c5.3-5.3,7.9-11.7,7.9-19.1C81,44.5,78.4,38.1,73.1,32.8z"/>
	<text transform="matrix(1 0 0 1 0 105)" class="st2 st3 st4">Created by Cristiano Zoucas</text>
	<text transform="matrix(1 0 0 1 0 110)" class="st2 st3 st4">from the Noun Project</text>
</g>
<g id="Layer_2">
	<g>
		<path class="st5" d="M47.5,29.6c-0.7-1.2-1.7-1.7-2.6-1.7c0,0,0,0,0,0c0,0,0,0,0,0c-0.9,0-1.7,0.6-2.3,1.7l-13,22.5
			c-1.4,2.3-0.3,4.2,2.4,4.2h5.7h1V68v8.5h12.6V57.4h0.1v-1.1h0.9h5.7c2.6,0,3.7-1.9,2.4-4.2L47.5,29.6z"/>
		<polygon class="st5" points="18.5,10 18.5,11.1 18.5,22.6 49.4,22.6 71.5,22.6 71.5,10 		"/>
	</g>
</g>
</svg>
