<svg xmlns="http://www.w3.org/2000/svg" xmlns:xlink="http://www.w3.org/1999/xlink" version="1.1" x="0px" y="0px" viewBox="0 0 64 80" enable-background="new 0 0 64 64" xml:space="preserve"><g><g><path d="M38,14c0-3.309-2.691-6-6-6s-6,2.691-6,6s2.691,6,6,6S38,17.309,38,14z"/><path d="M21.368,21.897L26,23.442v4.085l-1.789,3.578c-0.385,0.77-0.234,1.7,0.375,2.309l2,2C26.976,35.805,27.488,36,28,36    s1.024-0.195,1.414-0.586c0.781-0.781,0.781-2.047,0-2.828l-0.98-0.981L29.236,30h5.527l0.803,1.605l-0.98,0.981    c-0.781,0.781-0.781,2.047,0,2.828C34.977,35.805,35.488,36,36,36s1.023-0.195,1.414-0.586l2-2    c0.608-0.608,0.76-1.539,0.375-2.309L38,27.527v-4.085l4.633-1.544c1.048-0.35,1.614-1.482,1.265-2.53    c-0.349-1.048-1.479-1.616-2.53-1.265L35.675,20H32h-3.676l-5.692-1.897c-1.044-0.347-2.18,0.217-2.53,1.265    C19.753,20.416,20.32,21.548,21.368,21.897z"/><path d="M51,38c-0.854,0-1.897,0.401-4.386,1.39c-2.616,1.04-6.569,2.61-8.589,2.612c-0.079-0.016-0.326-0.128-0.525-0.219    c-1.359-0.618-3.567-1.622-9.914-1.766C26.637,37.813,24.071,36,20,36v17.318C22.706,54.545,26.963,56,32,56    c8.508,0,20.599-7.995,21.109-8.336c0.056-0.037,0.109-0.076,0.16-0.119C53.91,47.019,56,45.136,56,43C56,40.243,53.757,38,51,38z    "/><path d="M8,36v16c0,1.104,0.896,2,2,2h6V34h-6C8.896,34,8,34.896,8,36z"/></g></g><text x="0" y="79" fill="#000000" font-size="5px" font-weight="bold" font-family="'Helvetica Neue', Helvetica, Arial-Unicode, Arial, Sans-serif">Created by Ralf Schmitzer</text><text x="0" y="84" fill="#000000" font-size="5px" font-weight="bold" font-family="'Helvetica Neue', Helvetica, Arial-Unicode, Arial, Sans-serif">from the Noun Project</text></svg>