<svg xmlns="http://www.w3.org/2000/svg" xmlns:xlink="http://www.w3.org/1999/xlink" version="1.1" x="0px" y="0px" viewBox="0 0 48 60" enable-background="new 0 0 48 48" xml:space="preserve"><g><path d="M12.5,24c1,0,1.9-0.4,2.3-1.2l1.1-2.2l1.6,1.6C19.4,24,21.6,25,24,25c2.5,0,4.7-1.1,6.4-3c0,0,0,0,0,0l1.6-1.5l1.2,2.3   c0.4,0.7,1.3,1.2,2.3,1.2c0,0,1.8,0.1,2.5,0.2l-4.2-14l0,0C32.9,4.4,28.8,0,24,0c-4.8,0-8.8,4.3-9.7,10.1c0,0,0,0,0,0L10,24.2   C10.7,24.1,12.5,24,12.5,24z M24,23c-4.3,0-7.8-4.7-7.8-10.4c0-0.5,0.1-1.9,0.2-2.1c0.1,0,1.2-1,1.8-1.3c3.1-1.9,7.1-2.1,10.4-0.7   c1.1,0.5,3.1,1.9,3.1,2c0,0.2,0.2,2.3,0.2,2.3C31.8,18.4,28.3,23,24,23z"/><path d="M31.4,23.9c-2,2-4.6,3.2-7.4,3.2c-2.8,0-5.4-1.2-7.4-3.1c-0.6,1-1.7,1.7-3,2c1.3,3.9,5.4,6.8,10.4,6.8   c5,0,9.1-2.9,10.4-6.8C33.1,25.7,32,24.9,31.4,23.9z"/><path d="M36.5,26.1c-1.3,4.7-5.9,8.2-11.5,8.6c0.9,1,1.6,3,1.6,4.1c0,1.4-1.2,2.6-2.6,2.6c-1.4,0-2.6-1.2-2.6-2.6   c0-1.1,0.7-3.1,1.6-4.1c-5.6-0.4-10.2-3.9-11.5-8.6c-4.8,0.3-8.6,3.9-8.6,8.2v7.6C8.8,45.7,16.1,48,24,48c7.9,0,15.2-2.3,21.1-6.1   v-7.6C45.1,29.9,41.3,26.4,36.5,26.1z"/></g><text x="0" y="63" fill="#000000" font-size="5px" font-weight="bold" font-family="'Helvetica Neue', Helvetica, Arial-Unicode, Arial, Sans-serif">Created by Creative Stall</text><text x="0" y="68" fill="#000000" font-size="5px" font-weight="bold" font-family="'Helvetica Neue', Helvetica, Arial-Unicode, Arial, Sans-serif">from the Noun Project</text></svg>