<svg xmlns="http://www.w3.org/2000/svg" xmlns:xlink="http://www.w3.org/1999/xlink" version="1.1" x="0px" y="0px" viewBox="0 0 100 125" style="enable-background:new 0 0 100 100;" xml:space="preserve"><title>Artboard 10</title><g><path d="M61.5,45.6h-7.1v-7.1c0-1.3-1-2.3-2.3-2.3H48c-1.3,0-2.3,1-2.3,2.3v7.1h-7.1c-1.3,0-2.3,1-2.3,2.3V52c0,1.3,1,2.3,2.3,2.3   h7.1v7.1c0,1.3,1,2.3,2.3,2.3H52c1.3,0,2.3-1,2.3-2.3v-7.1h7.1c1.3,0,2.3-1,2.3-2.3V48C63.8,46.7,62.8,45.6,61.5,45.6z"/><path d="M89.3,28.7c0-2.4-0.1-4.7-0.1-6.9v-2.3c0-1.5-1.2-2.7-2.7-2.7h-2.3c-13,0-22.5-3.6-30.8-11.6l-1.6-1.6c-1-1-2.7-1-3.7,0   l-1.6,1.6c-8.2,8-17.7,11.6-30.8,11.6h-2.3c-1.5,0-2.7,1.2-2.7,2.7v2.3c0,2.2,0,4.5-0.1,6.9c-0.4,23-1,54.6,37.7,68h0   c1.1,0.4,2.2,0.4,3.3,0C90.4,83.3,89.7,51.8,89.3,28.7z M50,72.9c-12.7,0-22.9-10.3-22.9-22.9S37.3,27.1,50,27.1S72.9,37.3,72.9,50   S62.7,72.9,50,72.9z"/></g><text x="0" y="115" fill="#000000" font-size="5px" font-weight="bold" font-family="'Helvetica Neue', Helvetica, Arial-Unicode, Arial, Sans-serif">Created by Gregor Cresnar</text><text x="0" y="120" fill="#000000" font-size="5px" font-weight="bold" font-family="'Helvetica Neue', Helvetica, Arial-Unicode, Arial, Sans-serif">from the Noun Project</text></svg>