<svg xmlns="http://www.w3.org/2000/svg" xmlns:xlink="http://www.w3.org/1999/xlink" version="1.1" x="0px" y="0px" viewBox="0 0 50 62.5" style="enable-background:new 0 0 50 50;" xml:space="preserve"><path d="M48.9,6.4L6.4,48.9l-5.3-5.3L43.6,1.1L48.9,6.4z M50,38.2C50,44.7,44.7,50,38.2,50c-6.5,0-11.8-5.3-11.8-11.8  s5.3-11.8,11.8-11.8S50,31.7,50,38.2z M42.5,38.2c0-2.4-1.9-4.3-4.3-4.3c-2.4,0-4.3,1.9-4.3,4.3c0,2.4,1.9,4.3,4.3,4.3  C40.6,42.5,42.5,40.6,42.5,38.2z M0,11.8C0,5.3,5.3,0,11.8,0c6.5,0,11.8,5.3,11.8,11.8c0,6.5-5.3,11.8-11.8,11.8  C5.3,23.5,0,18.3,0,11.8z M7.5,11.8c0,2.4,1.9,4.3,4.3,4.3s4.3-1.9,4.3-4.3c0-2.4-1.9-4.3-4.3-4.3S7.5,9.4,7.5,11.8z"/><text x="0" y="65" fill="#000000" font-size="5px" font-weight="bold" font-family="'Helvetica Neue', Helvetica, Arial-Unicode, Arial, Sans-serif">Created by Maxim Basinski</text><text x="0" y="70" fill="#000000" font-size="5px" font-weight="bold" font-family="'Helvetica Neue', Helvetica, Arial-Unicode, Arial, Sans-serif">from the Noun Project</text></svg>