<?xml version="1.0" encoding="utf-8"?>
<!-- Generator: Adobe Illustrator 21.0.0, SVG Export Plug-In . SVG Version: 6.00 Build 0)  -->
<svg version="1.1" id="Layer_1" xmlns="http://www.w3.org/2000/svg" xmlns:xlink="http://www.w3.org/1999/xlink" x="0px" y="0px"
	 viewBox="0 0 100 125" style="enable-background:new 0 0 100 125;" xml:space="preserve">
<g>
	<path d="M47.1,16.7c0-2.6-1.9-3.7-4.2-2.4l-22.5,13c-2.3,1.4-2.3,3.6,0,4.9l22.5,13c2.3,1.4,4.2,0.3,4.2-2.4v-5.7V22.4V16.7z"/>
	<path d="M50.4,22.4h-0.2h-3.1v14.7h2.7c3.1,0.2,16.8,2.1,16.8,18.1c0,5.3-1.3,9.2-4.1,11.9c-4.7,4.6-12.1,4.7-12.3,4.7H28.4v14.5
		h21.7c1.2,0,13.6,0,22.6-8.8c5.7-5.5,8.5-13,8.4-22.4C81.1,30.4,61,22.9,50.4,22.4z"/>
</g>
</svg>
