<svg xmlns="http://www.w3.org/2000/svg" xmlns:xlink="http://www.w3.org/1999/xlink" version="1.1" x="0px" y="0px" viewBox="0 0 100 125" enable-background="new 0 0 100 100" xml:space="preserve"><path fill="none" stroke="#000000" stroke-width="8" stroke-linecap="round" stroke-miterlimit="10" d="M75.018,17.326  C68.085,12.009,59.412,8.85,50,8.85C27.273,8.85,8.85,27.273,8.85,50S27.273,91.15,50,91.15S91.15,72.727,91.15,50  c0-2.557-0.233-5.059-0.679-7.487"/><path fill="#000000" stroke="#1D1D1B" stroke-width="8" stroke-linecap="round" stroke-miterlimit="10" d="M74.504,0"/><polygon points="72.845,1.096 82.868,23.961 58.055,21.208 "/><g><path stroke="#000000" stroke-linecap="round" stroke-linejoin="round" stroke-miterlimit="10" d="M52.835,34.121   c-2.829,0-5.159,0.749-6.991,2.246c-1.832,1.497-3.014,3.669-3.548,6.514h14.016v5.606H41.775l-0.07,1.115v1.497l0.07,1.051h12.347   v5.67H42.366c1.183,5.16,4.904,7.741,11.164,7.741c3.316,0,6.505-0.605,9.565-1.816V71.9c-2.69,1.253-6.087,1.879-10.191,1.879   c-5.681,0-10.353-1.412-14.016-4.237c-3.663-2.824-5.971-6.732-6.921-11.722h-4.765v-5.67h4.104   c-0.093-0.488-0.139-1.147-0.139-1.975l0.07-1.688h-4.034v-5.606h4.626c0.858-5.139,3.165-9.201,6.921-12.184   c3.756-2.984,8.451-4.476,14.086-4.476c4.359,0,8.441,0.871,12.243,2.612l-3.408,7.39c-1.6-0.658-3.095-1.173-4.487-1.545   C55.791,34.306,54.342,34.121,52.835,34.121z"/></g><text x="0" y="115" fill="#000000" font-size="5px" font-weight="bold" font-family="'Helvetica Neue', Helvetica, Arial-Unicode, Arial, Sans-serif">Created by Federica Sala</text><text x="0" y="120" fill="#000000" font-size="5px" font-weight="bold" font-family="'Helvetica Neue', Helvetica, Arial-Unicode, Arial, Sans-serif">from the Noun Project</text></svg>