<?xml version="1.0" encoding="iso-8859-1"?>
<svg xmlns="http://www.w3.org/2000/svg" xmlns:xlink="http://www.w3.org/1999/xlink" version="1.1" viewBox="0 0 272.313 272.313" enable-background="new 0 0 272.313 272.313" width="512px" height="512px">
  <g>
    <path d="M168.823,99V75.407c0-9.53-7-17.275-17-17.624V25h66v-7.097C217.823,8.151,210.251,0,200.499,0h-79.854   c-9.752,0-18.822,8.151-18.822,17.903V25h17v32.834c-9,0.836-16,8.381-16,17.573V99H168.823z" fill="#6f44b9"/>
    <path d="m169.87,115h-67.43c-28.668,13-48.645,41.545-48.645,75.016 0,45.485 36.873,82.297 82.359,82.297 45.488,0 82.361-36.78 82.361-82.266 0.002-33.471-19.975-62.047-48.645-75.047z" fill="#6f44b9"/>
  </g>
</svg>
