<?xml version="1.0" encoding="utf-8"?>
<!-- Generator: Adobe Illustrator 21.0.0, SVG Export Plug-In . SVG Version: 6.00 Build 0)  -->
<svg version="1.1" id="Capa_1" xmlns="http://www.w3.org/2000/svg" xmlns:xlink="http://www.w3.org/1999/xlink" x="0px" y="0px"
	 viewBox="0 0 297 297" style="enable-background:new 0 0 297 297;" xml:space="preserve">
<style type="text/css">
	.st0{fill:#1282D6;}
</style>
<g>
	<path class="st0" d="M127.7,217.2c0,43.1,35,78.1,78.1,78.1s78.1-35,78.1-78.1s-35-78.1-78.1-78.1
		C162.7,139.1,127.7,174.1,127.7,217.2z M175.3,186.7c1.9-1.9,4.6-3,7.4-3s5.4,1.1,7.4,3c1.9,1.9,3,4.6,3,7.4s-1.1,5.4-3,7.4
		c-1.9,1.9-4.6,3-7.4,3c-2.7,0-5.4-1.1-7.4-3c-1.9-1.9-3-4.6-3-7.4C172.2,191.3,173.4,188.7,175.3,186.7z M236.3,247.7
		c-1.9,1.9-4.6,3-7.4,3s-5.4-1.1-7.4-3c-1.9-1.9-3-4.6-3-7.4c0-2.7,1.1-5.4,3-7.4c1.9-1.9,4.6-3,7.4-3s5.4,1.1,7.4,3s3,4.6,3,7.4
		C239.4,243.1,238.2,245.8,236.3,247.7z M236.2,186.9c4.1,4.1,4.1,10.6,0,14.7l-46,46c-2,2-4.7,3-7.4,3s-5.3-1-7.4-3
		c-4.1-4.1-4.1-10.6,0-14.7l46-46C225.5,182.8,232.1,182.8,236.2,186.9z"/>
	<path class="st0" d="M106.9,217.2c0-54.5,44.4-98.9,98.9-98.9c1.8,0,3.6,0.1,5.4,0.1V10.4c0-5.7-4.7-10.4-10.4-10.4H23.5
		c-5.7,0-10.4,4.7-10.4,10.4v276.2c0,5.7,4.7,10.4,10.4,10.4h123.9C122.8,279,106.9,249.9,106.9,217.2z M71.9,55.2h73.7
		c5.7,0,10.4,4.7,10.4,10.4S151.3,76,145.5,76H71.9c-5.7,0-10.4-4.7-10.4-10.4S66.2,55.2,71.9,55.2z M71.9,110.5h73.7
		c5.7,0,10.4,4.7,10.4,10.4c0,5.7-4.7,10.4-10.4,10.4H71.9c-5.7,0-10.4-4.7-10.4-10.4C61.5,115.1,66.2,110.5,71.9,110.5z
		 M90.3,186.5H71.9c-5.7,0-10.4-4.7-10.4-10.4s4.7-10.4,10.4-10.4h18.4c5.7,0,10.4,4.7,10.4,10.4C100.7,181.9,96,186.5,90.3,186.5z"
		/>
</g>
</svg>
