<svg xmlns="http://www.w3.org/2000/svg" xmlns:xlink="http://www.w3.org/1999/xlink" version="1.1" x="0px" y="0px" viewBox="0 0 100 125" enable-background="new 0 0 100 100" xml:space="preserve"><g><path d="M69.604,46.702h-8.107c1.696-2.089,2.825-4.651,3.179-7.457c4.383-0.886,7.693-4.766,7.693-9.405   c0-5.292-4.306-9.597-9.597-9.597c-2.924,0-5.542,1.318-7.303,3.387c-1.693-0.675-3.536-1.056-5.47-1.056s-3.776,0.381-5.47,1.056   c-1.761-2.069-4.379-3.387-7.303-3.387c-5.291,0-9.597,4.305-9.597,9.597c0,4.64,3.311,8.52,7.693,9.405   c0.354,2.806,1.482,5.368,3.18,7.457h-8.108c-3.331,0-6.032,2.701-6.032,6.033c0,3.331,2.701,6.031,6.032,6.031h6.581   c5.862,0,10.888,3.574,13.023,8.66c2.136-5.086,7.161-8.66,13.023-8.66h6.581c3.331,0,6.032-2.7,6.032-6.031   C75.637,49.402,72.936,46.702,69.604,46.702z M62.772,24.63c2.872,0,5.209,2.337,5.209,5.209c0,2.244-1.434,4.144-3.428,4.875   c-0.641-3.523-2.518-6.613-5.179-8.793C60.289,25.128,61.469,24.63,62.772,24.63z M57.755,43.525c0,3.394-3.472,6.146-7.755,6.146   s-7.755-2.751-7.755-6.146s3.472-6.146,7.755-6.146S57.755,40.131,57.755,43.525z M32.019,29.839c0-2.873,2.337-5.209,5.209-5.209   c1.304,0,2.483,0.498,3.397,1.292c-2.661,2.18-4.538,5.27-5.179,8.793C33.452,33.983,32.019,32.083,32.019,29.839z"/><circle cx="35.783" cy="71.729" r="8.028"/><circle cx="64.217" cy="71.729" r="8.028"/><ellipse cx="50" cy="41.218" rx="3.97" ry="2.742"/></g><text x="0" y="115" fill="#000000" font-size="5px" font-weight="bold" font-family="'Helvetica Neue', Helvetica, Arial-Unicode, Arial, Sans-serif">Created by asianson.design</text><text x="0" y="120" fill="#000000" font-size="5px" font-weight="bold" font-family="'Helvetica Neue', Helvetica, Arial-Unicode, Arial, Sans-serif">from the Noun Project</text></svg>