<svg xmlns="http://www.w3.org/2000/svg" viewBox="0 0 365 250.85"><defs><style>.cls-1{fill:#007c85;}</style></defs><title>bal-dnb</title><g id="Layer_2" data-name="Layer 2"><g id="Layer_1-2" data-name="Layer 1"><path class="cls-1" d="M222.26,0c4.38,0,8.82-.12,13.2.06a42.23,42.23,0,0,0-.18,6.21V192.05c-.18,3.41-5.11,4.62-7.06,1.89q-42.71-54.3-85.36-108.72-.09,82.77,0,165.61c-4.38.06-8.7,0-13.08,0V72.56c.06-4.75-.12-9.55.06-14.3.24-3.41,5.23-4.5,7.12-1.83q42.62,54.3,85.24,108.66C222.32,110.22,222.2,55.1,222.26,0Z"/><path class="cls-1" d="M44.6,56.13c12.66.43,25.37,4.32,35.29,12.29,9,7,15.39,17,19,27.8a96.09,96.09,0,0,1,4.44,38.51c-1.09,11.19-4,22.39-9.8,32.12a55.48,55.48,0,0,1-17.95,18.86C65.83,192,54.21,194.85,42.78,195H4.57A4.35,4.35,0,0,1,0,190.53V61.06a4.8,4.8,0,0,1,2-4.32c1-.73,2.37-.61,3.65-.67C18.62,56.13,31.64,56,44.6,56.13Zm-31.45,13V181.89c10,0,20.08.06,30.18,0C54,181.77,64.86,178.49,73,171.43c7.12-6.08,11.86-14.48,14.54-23.36A79.63,79.63,0,0,0,89,109.86c-2-10-5.84-20-13-27.32-8.15-8.82-20.32-13.08-32.12-13.32C33.59,69.15,23.37,69.15,13.15,69.15Z"/><path class="cls-1" d="M311.75,56.07c10,.18,20.56,1.58,29.2,7.06A30.48,30.48,0,0,1,354.4,82.72c1.89,9.13,1.52,19-2.56,27.56a32.86,32.86,0,0,1-7.79,10.22,37.48,37.48,0,0,1,18.25,19c3.47,8.21,3.22,17.52,1.28,26.1a35,35,0,0,1-14.11,20.69c-9.31,6.51-20.87,8.46-32,8.7H271.35a4.45,4.45,0,0,1-5-4.44v-130a4.26,4.26,0,0,1,4.5-4.44ZM279.39,69.15c-.06,15.39,0,30.79,0,46.18,14,.06,27.93,0,41.92.06,6.75.06,13.87-2.74,17.64-8.58,3.77-6.08,4.08-13.69,2.86-20.5a17.75,17.75,0,0,0-9.13-12.84c-7.85-4.14-17-4.38-25.67-4.26C297.76,69.15,288.57,69.15,279.39,69.15Zm0,59.38v53.36c13.14,0,26.34.06,39.49,0,8.94-.3,18.56-2,25.49-8.09,5.35-4.62,7.61-11.86,7.61-18.74a23.11,23.11,0,0,0-8-19.1c-6.39-5.42-15-7.54-23.18-7.36C306.95,128.54,293.2,128.47,279.39,128.54Z"/></g></g></svg>