<svg xmlns="http://www.w3.org/2000/svg" viewBox="0 0 175.75 77.32">
	<defs>
		<style>.cls-1{fill:#231f20;fill-rule:evenodd;}</style>
	</defs>
	<title>bal-seb</title>
	<g id="Layer_2" data-name="Layer 2">
		<g id="Layer_1-2" data-name="Layer 1">
			<path class="cls-1" d="M47.85,19.75a34.65,34.65,0,0,0-23-8.34c-14.13,0-21.8,8.51-21.8,16.86,0,6,3.24,12.77,14.65,15.84,4.26,1,8.17,1.87,12.6,2.9,4.09,1,5.79,2.72,5.45,4.77-.68,2.72-4.94,3.75-9.71,3.75-4.09,0-9-.85-16-7.15L0,55.86c2.9,3.41,12.43,10.73,26.4,10.73s24.52-6.13,24.52-17.88c0-8.52-6-12.09-14.48-14.65-5.62-1.53-9.37-2.55-13.45-3.58-3.58-1-5.62-2.72-5.11-5.11.51-2.21,3.75-3.24,7-3.24s9,.85,13.45,4.77l9.54-7.15Z"/>
			<polygon class="cls-1" points="108.31 12.26 108.31 24.35 80.89 24.35 80.89 32.7 100.31 32.7 100.31 44.45 80.89 44.45 80.89 52.96 108.99 52.96 108.99 65.05 65.91 65.05 65.91 12.26 108.31 12.26 108.31 12.26"/>
			<polygon class="cls-1" points="55.01 0 58.41 0 58.41 77.32 55.01 77.32 55.01 0 55.01 0"/>
			<polygon class="cls-1" points="114.61 0 117.85 0 117.85 77.32 114.61 77.32 114.61 0 114.61 0"/>
			<path class="cls-1" d="M125.51,65.05V12.26h31c8.86,0,16.18,5.28,16.18,13.45A12,12,0,0,1,165,37.3a.75.75,0,0,1-.51.17H165c6.3,2,10.73,6.47,10.73,13.45,0,8.69-7.32,14.13-16.35,14.13Zm14.82-41.72v9.2h11.92a4.88,4.88,0,0,0,4.94-4.6,4.77,4.77,0,0,0-4.94-4.6Zm14.48,30a4.77,4.77,0,0,0,0-9.54H140.33V53.3Z"/>
		</g>
	</g>
</svg>