<?xml version="1.0" encoding="utf-8"?>
<!-- Generator: Adobe Illustrator 21.0.0, SVG Export Plug-In . SVG Version: 6.00 Build 0)  -->
<svg version="1.1" id="Layer_1" xmlns="http://www.w3.org/2000/svg" xmlns:xlink="http://www.w3.org/1999/xlink" x="0px" y="0px"
	 viewBox="0 0 508 508" style="enable-background:new 0 0 508 508;" xml:space="preserve">
<style type="text/css">
	.st0{fill:#80D197;}
	.st1{display:none;fill:#FFFFFF;}
	.st2{display:none;fill:#E6E9EE;}
	.st3{fill:#FFFFFF;}
</style>
<title>bank</title>
<g id="Layer_2">
	<g id="Layer_1-2">
		<circle class="st0" cx="254" cy="254" r="254"/>
		<rect x="134.8" y="182.4" class="st1" width="46" height="169.2"/>
		<rect x="231.2" y="184.4" class="st1" width="46" height="169.2"/>
		<rect x="327.6" y="184.4" class="st1" width="46" height="169.2"/>
		<rect x="99.2" y="345.2" class="st1" width="309.6" height="30.4"/>
		<polygon class="st1" points="408.8,148 254.8,76.8 99.6,148 99.6,187.2 408.8,187.2 		"/>
		<polygon class="st2" points="123.2,163.2 123.2,163.2 254.8,103.2 384.8,162.8 384.8,163.2 		"/>
		<path class="st2" d="M320,187.2v13.2c0,2.4,2,4.4,4.4,4.4h52.4c2.4,0,4.4-2,4.4-4.4v-13.2H320z"/>
		<path class="st2" d="M223.6,187.2v13.2c0,2.4,2,4.4,4.4,4.4h52.4c2.4,0,4.4-2,4.4-4.4v-13.2H223.6z"/>
		<path class="st2" d="M127.2,187.2v13.2c0,2.4,2,4.4,4.4,4.4H184c2.4,0,4.4-2,4.4-4.4v-13.2H127.2z"/>
		<path class="st2" d="M320,345.2V332c0-2.4,2-4.4,4.4-4.4h52.4c2.4,0,4.4,2,4.4,4.4v13.2H320z"/>
		<path class="st2" d="M223.6,345.2V332c0-2.4,2-4.4,4.4-4.4h52.4c2.4,0,4.4,2,4.4,4.4v13.2H223.6z"/>
		<path class="st2" d="M127.2,345.2V332c0-2.4,2-4.4,4.4-4.4H184c2.4,0,4.4,2,4.4,4.4v13.2H127.2z"/>
	</g>
</g>
<g>
	<path class="st3" d="M387.1,368.3h-5.8H126.7h-5.8c-4.9,0-9,4.7-9,10.4s4,10.4,9,10.4h14.8h236.6h14.8c4.9,0,9-4.7,9-10.4
		C396,372.9,392,368.3,387.1,368.3z"/>
	<path class="st3" d="M143.4,231v103.2h-5.7c-4.9,0-8.8,4.6-8.8,10.2v6.6h250.3v-6.6c0-5.6-3.9-10.2-8.8-10.2h-5.7V231h-46.7v103.2
		h-40.5V231h-46.7v103.2h-40.5V231H143.4z"/>
	<path class="st3" d="M129.7,213.9h248.5c0,0,0,0,0,0c4.9,0,8.8-4.6,8.8-10.2c0-4.1-2.1-7.7-5.1-9.3L258,120.1
		c-2.5-1.5-5.6-1.5-8.1,0l-124.3,74.5c-3.6,2.2-5.5,6.9-4.5,11.5C122.1,210.6,125.7,213.9,129.7,213.9z"/>
</g>
</svg>
