<?xml version="1.0" encoding="utf-8"?>
<!-- Generator: Adobe Illustrator 21.0.0, SVG Export Plug-In . SVG Version: 6.00 Build 0)  -->
<svg version="1.1" id="Capa_1" xmlns="http://www.w3.org/2000/svg" xmlns:xlink="http://www.w3.org/1999/xlink" x="0px" y="0px"
	 viewBox="0 0 174.2 350.5" style="enable-background:new 0 0 174.2 350.5;" xml:space="preserve">
<style type="text/css">
	.st0{fill:#ABABAB;}
	.st1{fill:#FFFFFF;}
	.st2{fill:#F44336;}
</style>
<g>
	<path class="st0" d="M87.1,1C39.1,1,0,40.1,0,88.1c0,48,39.1,87.1,87.1,87.1c48,0,87.1-39.1,87.1-87.1C174.2,40.1,135.2,1,87.1,1z"
		/>
	<path class="st1" d="M126.9,48.3c-3.4-3.4-9-3.4-12.5,0L87.1,75.7L59.8,48.3c-3.4-3.4-9-3.4-12.5,0s-3.4,9,0,12.5l27.3,27.3
		l-27.3,27.3c-3.4,3.4-3.4,9,0,12.5c1.7,1.7,4,2.6,6.2,2.6c2.3,0,4.5-0.9,6.2-2.6l27.3-27.3l27.3,27.3c1.7,1.7,4,2.6,6.2,2.6
		c2.3,0,4.5-0.9,6.2-2.6c3.4-3.4,3.4-9,0-12.5L99.6,88.1l27.3-27.3C130.4,57.4,130.4,51.8,126.9,48.3z"/>
	<g>
		<path class="st2" d="M86.6,176.2c-48,0-87.1,39.1-87.1,87.1c0,48,39.1,87.1,87.1,87.1c48,0,87.1-39.1,87.1-87.1
			C173.7,215.3,134.7,176.2,86.6,176.2z"/>
		<path class="st1" d="M126.4,223.6c-3.4-3.4-9-3.4-12.5,0l-27.3,27.3l-27.3-27.3c-3.4-3.4-9-3.4-12.5,0s-3.4,9,0,12.5l27.3,27.3
			l-27.3,27.3c-3.4,3.4-3.4,9,0,12.5c1.7,1.7,4,2.6,6.2,2.6c2.3,0,4.5-0.9,6.2-2.6l27.3-27.3l27.3,27.3c1.7,1.7,4,2.6,6.2,2.6
			c2.3,0,4.5-0.9,6.2-2.6c3.4-3.4,3.4-9,0-12.5l-27.3-27.3l27.3-27.3C129.9,232.6,129.9,227,126.4,223.6z"/>
	</g>
</g>
</svg>
