<?xml version="1.0" encoding="utf-8"?>
<!-- Generator: Adobe Illustrator 21.0.0, SVG Export Plug-In . SVG Version: 6.00 Build 0)  -->
<svg version="1.1" id="Capa_1" xmlns="http://www.w3.org/2000/svg" xmlns:xlink="http://www.w3.org/1999/xlink" x="0px" y="0px"
	 viewBox="0 0 174.2 174.2" style="enable-background:new 0 0 174.2 174.2;" xml:space="preserve">
<style type="text/css">
	.st0{fill:#FFFFFF;}
</style>
<path class="st0" d="M87.1,0C39.1,0,0,39.1,0,87.1s39.1,87.1,87.1,87.1s87.1-39.1,87.1-87.1S135.2,0,87.1,0z M126.7,114.4
	c3.4,3.5,3.4,9.1,0,12.5c-1.7,1.7-3.9,2.6-6.2,2.6c-2.2,0-4.5-0.9-6.2-2.6L87,99.6l-27.3,27.3c-1.7,1.7-3.9,2.6-6.2,2.6
	c-2.2,0-4.5-0.9-6.2-2.6c-3.4-3.5-3.4-9.1,0-12.5l27.3-27.3L47.3,59.8c-3.4-3.5-3.4-9.1,0-12.5c3.5-3.4,9.1-3.4,12.5,0l27.3,27.4
	l27.3-27.4c3.5-3.4,9.1-3.4,12.5,0c3.5,3.5,3.5,9.1,0,12.5L99.6,87.1L126.7,114.4z"/>
</svg>
