<?xml version="1.0" encoding="utf-8"?>
<!-- Generator: Adobe Illustrator 21.0.0, SVG Export Plug-In . SVG Version: 6.00 Build 0)  -->
<svg version="1.1" id="Capa_1" xmlns="http://www.w3.org/2000/svg" xmlns:xlink="http://www.w3.org/1999/xlink" x="0px" y="0px"
	 viewBox="0 0 174.2 174.2" style="enable-background:new 0 0 174.2 174.2;" xml:space="preserve">
<style type="text/css">
	.st0{fill:#ABABAB;}
	.st1{fill:#FFFFFF;}
</style>
<g>
	<path class="st0" d="M87.1,0C39.1,0,0,39.1,0,87.1c0,48,39.1,87.1,87.1,87.1c48,0,87.1-39.1,87.1-87.1C174.2,39.1,135.2,0,87.1,0z"
		/>
	<path class="st1" d="M126.9,47.3c-3.4-3.4-9-3.4-12.5,0L87.1,74.7L59.8,47.3c-3.4-3.4-9-3.4-12.5,0c-3.4,3.4-3.4,9,0,12.5
		l27.3,27.3l-27.3,27.3c-3.4,3.4-3.4,9,0,12.5c1.7,1.7,4,2.6,6.2,2.6c2.3,0,4.5-0.9,6.2-2.6l27.3-27.3l27.3,27.3
		c1.7,1.7,4,2.6,6.2,2.6c2.3,0,4.5-0.9,6.2-2.6c3.4-3.4,3.4-9,0-12.5L99.6,87.1l27.3-27.3C130.4,56.4,130.4,50.8,126.9,47.3z"/>
</g>
</svg>
