<svg xmlns="http://www.w3.org/2000/svg" viewBox="0 0 399.6 550.8"><defs><style>.cls-1{fill:#a8a8a8;}</style></defs><title>file-xml</title><g id="Layer_2" data-name="Layer 2"><g id="Capa_1" data-name="Capa 1"><polygon class="cls-1" points="55.9 239.8 154.3 290.6 154.3 266.4 79.9 230.2 79.9 229.8 154.3 193.5 154.3 169.4 55.9 220.2 55.9 239.8"/><polygon class="cls-1" points="169.5 299.7 190.3 299.7 234.1 134.6 213.4 134.6 169.5 299.7"/><polygon class="cls-1" points="246.1 193.5 322.2 229.8 322.2 230.2 246.1 266.4 246.1 290.6 344.5 240.5 344.5 219.5 246.1 169.4 246.1 193.5"/><path class="cls-1" d="M399.5,132a10.33,10.33,0,0,0-2.6-7L290.7,3.7a.1.1,0,0,1-.1-.1,11.79,11.79,0,0,0-2.1-1.8,2.51,2.51,0,0,0-.7-.4,9.49,9.49,0,0,0-2.1-.9c-.2-.1-.4-.1-.6-.2a10.68,10.68,0,0,0-2.5-.3H21.6A21.64,21.64,0,0,0,0,21.6V529.2a21.64,21.64,0,0,0,21.6,21.6H378a21.64,21.64,0,0,0,21.6-21.6v-396C399.6,132.8,399.5,132.4,399.5,132ZM101.9,514.5,91.3,493.3c-4.3-8.2-7.1-14.3-10.4-21h-.3c-2.4,6.8-5.4,12.9-9,21l-9.7,21.2H31.6l33.9-59.3L32.8,397.3H63.2l10.3,21.4c3.5,7.1,6.1,12.9,8.9,19.5h.3c2.8-7.5,5-12.7,8-19.5l9.9-21.4h30.3l-33,57.2,34.8,60Zm145.7,0-1.7-44.9c-.5-14.1-1-31.1-1-48.2h-.5c-3.7,15-8.5,31.6-13,45.4l-14.3,45.7H196.4l-12.5-45.4c-3.8-13.7-7.8-30.4-10.6-45.7H173c-.7,15.8-1.2,33.9-2.1,48.5l-2.1,44.5H144.3l7.5-117.2h35.3l11.5,39.1c3.7,13.6,7.3,28.2,9.9,41.9h.5c3.3-13.6,7.3-29,11.1-42.1l12.5-38.9h34.6l6.4,117.2h-26Zm119.5,0H293.9V397.3h26.6v94.9h46.6ZM21.6,366.8V21.6H271.8V132.1a10.76,10.76,0,0,0,10.8,10.8H378V366.7H21.6Z"/></g></g></svg>