<svg xmlns="http://www.w3.org/2000/svg" viewBox="0 0 371.45 512"><defs><style>.cls-1{fill:#a8a8a8;}</style></defs><title>file-xls</title><g id="Layer_2" data-name="Layer 2"><g id="Capa_1" data-name="Capa 1"><path class="cls-1" d="M269.67,413.89c-9,0-12.71,8.19-13.28,14h25.43C281.81,422.65,279.55,413.89,269.67,413.89Z"/><path class="cls-1" d="M371.35,122.7a9.9,9.9,0,0,0-2.38-6.5L270.24,3.43s0,0-.08-.07a9.86,9.86,0,0,0-2-1.68c-.22-.14-.43-.27-.66-.39a10.78,10.78,0,0,0-2-.83c-.18-.06-.35-.13-.54-.18A10.24,10.24,0,0,0,262.7,0H20.08A20.11,20.11,0,0,0,0,20.08V491.92A20.1,20.1,0,0,0,20.08,512H351.37a20.1,20.1,0,0,0,20.08-20.08V123.82A10.22,10.22,0,0,0,371.35,122.7Zm-68,11.19v32.63H225.1V133.89ZM225.1,204.16V171.54h78.22v32.63Zm78.22,42.67v32.63H225.1V246.83ZM93.67,470.25H32.93V375H91.69v17.66H54.54v19.78h35V430h-35v22.6H93.67Zm53.82,0-6.92-12.43c-2-3.39-3.67-6.92-5.37-10.45h-.42c-1.7,3.67-3.53,7.06-5.23,10.45L123,470.25H99.46l23.45-35.17L100,401.18h24l6.78,11.44c2,3.53,3.81,7.06,5.65,10.31h.28c1.84-3.67,3.53-7.2,5.37-10.59l6.07-11.16H171.5l-22.74,32.91,23,36.16Zm67.38-15.4a33.12,33.12,0,0,0,12.29-2.12l2.54,15.82c-3.81,1.7-11,3.11-19.21,3.11-22.32,0-36.58-13.56-36.58-35.31,0-20.2,13.84-36.73,39.55-36.73a49.79,49.79,0,0,1,16.39,2.68l-3.39,16a29.36,29.36,0,0,0-12-2.12c-11.3,0-18.65,8.05-18.51,19.35C195.93,448.22,204.41,454.86,214.86,454.86ZM301,442.57h-44.5c.71,8.9,9.46,13.14,19.49,13.14a60.84,60.84,0,0,0,19.07-2.83l2.83,14.55c-7.06,2.83-15.68,4.24-25,4.24-23.45,0-36.87-13.56-36.87-35.17,0-17.52,10.88-36.87,34.89-36.87,22.32,0,30.79,17.37,30.79,34.47A51.07,51.07,0,0,1,301,442.57Zm35,27.69H314.58V370h21.47Zm-316-129.33h0V20.08H252.66V122.82a10,10,0,0,0,2,6.05H53.6V284.48H308.34V132.86h43V340.92ZM141.86,204.16V171.54h78.22v32.63Zm78.22,42.67v32.63H141.86V246.83Zm-161.46-5V209.18h78.22v32.63Zm78.22,5v32.63H58.62V246.83ZM58.62,204.16V171.54h78.22v32.63Zm0-37.65V133.89h78.22v32.63Z"/></g></g></svg>