<svg xmlns="http://www.w3.org/2000/svg" viewBox="0 0 296.12 110.24"><defs><style>.cls-1{fill:#0054a4;}</style></defs><title>import-siauliu-bankas</title><g id="Layer_2" data-name="Layer 2"><g id="Layer_1-2" data-name="Layer 1"><path class="cls-1" d="M48.4,1.09C43.6,3,43,5.39,43,22.39v15.8l2.3-.7c4.6-1.4,16.3-7.7,19-10.3,6-5.5,7.5-13.6,3.7-19.9S55.3-1.71,48.4,1.09Z"/><path class="cls-1" d="M14.9,17C5.9,22.79,2,28.59,2,36.29c0,8.4,4.6,13.5,18,20.3a67.23,67.23,0,0,0,8.8,3.9l2.2.7V39.89c0-24.8-.3-25.8-7.4-25.8C20.7,14.09,18.1,15,14.9,17Z"/><path class="cls-1" d="M50.8,47.69,43,51.39v21.9c0,12,.3,21.8.6,21.8,1.8,0,21-10.9,24.6-13.9A25.79,25.79,0,0,0,77,61.29c0-10.5-4.5-16.3-13.2-16.9C59.3,44,57.3,44.49,50.8,47.69Z"/><path class="cls-1" d="M0,82.09c0,23.8.6,26.3,6.3,27.8,3.9,1,10-.2,14.4-2.9,10.2-6.3,13.3-21.3,6.2-30.3-1.2-1.5-7-5.1-12.9-8.1S1.47,59.15.66,61.19C.12,62.52,0,62.79,0,82.09Z"/><path class="cls-1" d="M123.87,31.85a3.48,3.48,0,0,0-1.22-2.78,12.39,12.39,0,0,0-4.29-2,24.41,24.41,0,0,1-8.08-3.66,6.94,6.94,0,0,1-2.74-5.8,7.19,7.19,0,0,1,3.14-6,13.06,13.06,0,0,1,8-2.33,12,12,0,0,1,8,2.62,7.85,7.85,0,0,1,3,6.47l0,.12h-5.82a4.37,4.37,0,0,0-1.39-3.36,5.52,5.52,0,0,0-3.9-1.29,5.76,5.76,0,0,0-3.72,1.07,3.37,3.37,0,0,0-1.32,2.74,2.94,2.94,0,0,0,1.41,2.5,19.47,19.47,0,0,0,4.87,2.07,18.89,18.89,0,0,1,7.51,3.64,7.57,7.57,0,0,1,2.55,5.95,7.12,7.12,0,0,1-3,6.07,13.25,13.25,0,0,1-8,2.22,14.63,14.63,0,0,1-8.54-2.52,7.87,7.87,0,0,1-3.54-7.07l0-.12h5.84a4.61,4.61,0,0,0,1.64,3.92,7.37,7.37,0,0,0,4.56,1.24,6,6,0,0,0,3.74-1A3.24,3.24,0,0,0,123.87,31.85ZM118.23,3.32,120.64.71h5.43v.35L120.29,6.3h-4.09L110.41,1V.71h5.43Z"/><path class="cls-1" d="M146.44,39.67h-6v-30h6Z"/><path class="cls-1" d="M174.14,33.21H163.63l-2,6.46h-6.07l10.31-30H172l10.27,30h-6.07Zm-9-4.71h7.55L169,16.73h-.12Z"/><path class="cls-1" d="M214.39,9.72V29.59a9.49,9.49,0,0,1-3.33,7.78,13.31,13.31,0,0,1-8.72,2.74,13.15,13.15,0,0,1-8.67-2.74,9.53,9.53,0,0,1-3.3-7.78V9.72h6V29.57A5.76,5.76,0,0,0,198,34a6.16,6.16,0,0,0,4.36,1.47A6.33,6.33,0,0,0,206.76,34a5.71,5.71,0,0,0,1.6-4.44V9.72Z"/><path class="cls-1" d="M231.29,35h13.33v4.63H225.28v-30h6Z"/><path class="cls-1" d="M260.1,39.67h-6v-30h6Z"/><path class="cls-1" d="M295.43,9.72V29.59a9.49,9.49,0,0,1-3.33,7.78,13.31,13.31,0,0,1-8.72,2.74,13.15,13.15,0,0,1-8.67-2.74,9.53,9.53,0,0,1-3.3-7.78V9.72h6V29.57A5.76,5.76,0,0,0,279,34a6.16,6.16,0,0,0,4.36,1.47A6.33,6.33,0,0,0,287.79,34a5.71,5.71,0,0,0,1.6-4.44V9.72Zm-9.85,30a12.91,12.91,0,0,0-1.62,1.85,3.08,3.08,0,0,0-.51,1.77,1.57,1.57,0,0,0,.35,1,1.76,1.76,0,0,0,1.42.44,3.79,3.79,0,0,0,1-.12q.44-.12.92-.29l.72,3.17a8.45,8.45,0,0,1-1.66.65,8.09,8.09,0,0,1-2.17.26,5.6,5.6,0,0,1-3.65-1.16A3.94,3.94,0,0,1,278.95,44a5.37,5.37,0,0,1,.95-3,8.19,8.19,0,0,1,3-2.54Z"/><path class="cls-1" d="M107.7,93.67v-30h10.12q5.29,0,8.25,2.06a7,7,0,0,1,3,6.15,6.49,6.49,0,0,1-1.1,3.71,6.64,6.64,0,0,1-3.2,2.46,6.36,6.36,0,0,1,4,2.47,7.37,7.37,0,0,1,1.35,4.38,7.75,7.75,0,0,1-2.84,6.51q-2.84,2.21-8,2.21Zm6-17.4H118a6,6,0,0,0,3.7-1A3.4,3.4,0,0,0,123,72.4a3.59,3.59,0,0,0-1.31-3.06,6.42,6.42,0,0,0-3.9-1h-4.11Zm0,4.16V89h5.53a5.59,5.59,0,0,0,3.64-1,3.75,3.75,0,0,0,1.25-3.07,4.78,4.78,0,0,0-1.07-3.36,4.39,4.39,0,0,0-3.37-1.16Z"/><path class="cls-1" d="M156.44,87.21H145.93l-2,6.46h-6.07l10.31-30h6.15l10.27,30h-6.07Zm-9-4.71H155l-3.7-11.77h-.12Z"/><path class="cls-1" d="M197.2,93.67h-6L179.12,73.2l-.12,0V93.67h-6v-30h6l12.1,20.45.12,0V63.72h6Z"/><path class="cls-1" d="M217.8,81.16h-3.33V93.67h-6v-30h6V76h2.61L225,63.72h7.34L222.29,77.66l10.88,16h-7.32Z"/><path class="cls-1" d="M257.39,87.21H246.88l-2,6.46h-6.07l10.31-30h6.15l10.27,30h-6.07Zm-9-4.71h7.55l-3.7-11.77h-.12Z"/><path class="cls-1" d="M290.11,85.85a3.48,3.48,0,0,0-1.22-2.78,12.4,12.4,0,0,0-4.29-2,24.41,24.41,0,0,1-8.08-3.66,6.94,6.94,0,0,1-2.74-5.8,7.19,7.19,0,0,1,3.14-6,13.07,13.07,0,0,1,8-2.33,12,12,0,0,1,8,2.62,7.85,7.85,0,0,1,3,6.47l0,.12h-5.82a4.37,4.37,0,0,0-1.39-3.36,5.52,5.52,0,0,0-3.9-1.29,5.76,5.76,0,0,0-3.72,1.07,3.37,3.37,0,0,0-1.32,2.74,2.93,2.93,0,0,0,1.41,2.5,19.48,19.48,0,0,0,4.87,2.07,18.87,18.87,0,0,1,7.51,3.64,7.57,7.57,0,0,1,2.55,5.95,7.12,7.12,0,0,1-3,6.07,13.25,13.25,0,0,1-8,2.22,14.63,14.63,0,0,1-8.54-2.52A7.87,7.87,0,0,1,273,84.51l0-.12h5.84a4.61,4.61,0,0,0,1.63,3.92,7.37,7.37,0,0,0,4.56,1.25,6,6,0,0,0,3.74-1A3.24,3.24,0,0,0,290.11,85.85Z"/></g></g></svg>