<svg xmlns="http://www.w3.org/2000/svg" viewBox="0 0 175.75 26.54"><defs><style>.cls-1{fill:#004967;}.cls-1,.cls-2{fill-rule:evenodd;}.cls-2{fill:#fff;}</style></defs><title>import-logo-db</title><g id="Layer_2" data-name="Layer 2"><g id="Layer_1-2" data-name="Layer 1"><path class="cls-1" d="M112.81,26.54h62.94V0H112.81V26.54ZM175.05.69V25.84H113.51V.69Z"/><polygon class="cls-1" points="0 26.54 110.03 26.54 110.03 0 0 0 0 26.54 0 26.54"/><path class="cls-2" d="M175.05.69V25.84H113.51V.69Z"/><path class="cls-2" d="M38.07,15c0,2.64-1.39,3.89-4.58,3.89h-5V9.17h4.86c3.75,0,4.72,1.81,4.72,3.89V15ZM40,15V13.34c0-5.42-4.17-5.56-6.95-5.56H26.54V20.42h7.09C39.18,20.42,40,17.37,40,15Z"/><path class="cls-2" d="M51,17.23c0,.83,0,1.53-.83,1.81a10.58,10.58,0,0,1-2.36.14,4.81,4.81,0,0,1-2.36-.28c-.28-.14-.42-.56-.42-1.11a1.63,1.63,0,0,1,.56-1.39,8.09,8.09,0,0,1,2.36-.14H51v1Zm1.94,3.2V13.34a1.91,1.91,0,0,0-.69-1.11c-1-.69-3.2-.69-4.31-.69-.83,0-3.2,0-4,.83-.28.14-.28.42-.28.83v1h1.95a1.67,1.67,0,0,1,.28-1.11c.14-.14.56-.28,1.95-.28a7.39,7.39,0,0,1,2.92.28A1.5,1.5,0,0,1,51,14.17V15H46.68c-1.11,0-2.5,0-3.2,1a3.48,3.48,0,0,0-.42,1.81c0,2.08,1.25,2.78,4.58,2.78a5.53,5.53,0,0,0,3.47-.83l.14.69Z"/><path class="cls-2" d="M64.46,20.42V15.56c0-1.67-.14-2.08-.42-2.36a4.75,4.75,0,0,0-2.36-.42,11.58,11.58,0,0,0-3.06.42v7.22H56.68V11.53h1.81l.14.69a2.24,2.24,0,0,1,1-.56,11.33,11.33,0,0,1,2.5-.28,7.75,7.75,0,0,1,2.92.56,2,2,0,0,1,1.25,1.53c0,.42.14.83.14,1.81v5.14Z"/><path class="cls-2" d="M78.5,19.87a9.8,9.8,0,0,1-4.17.69,17.92,17.92,0,0,1-3.2-.42,1.49,1.49,0,0,1-1.39-1.39,4.29,4.29,0,0,1,.14-1.25h1.81v.69c.14.42.14.69.56.83a8.69,8.69,0,0,0,2.22.28,6.09,6.09,0,0,0,2.64-.42c.42-.14.56-.56.56-1.11s-.14-1-.83-1.11h-.69c-.14-.14-.56-.14-1.25-.14H73.77c-1.81-.14-3.89-.14-3.89-2.36s1.25-2.78,4.58-2.78c.83,0,1.94.14,2.5.14a4.62,4.62,0,0,1,1.81.56c.42.14.56.56.56,1.25V14H77.38v-.42c-.14-.42-.14-.56-.28-.56a3.83,3.83,0,0,0-2.22-.42,8.26,8.26,0,0,0-2.36.28c-.56.14-.69.56-.69,1.11a1.62,1.62,0,0,0,.28,1,18.36,18.36,0,0,0,4,.28,4.44,4.44,0,0,1,2.08.28c1,.28,1.39,1,1.39,2.22a2.05,2.05,0,0,1-1.11,2.08Z"/><polygon class="cls-2" points="90.17 20.42 85.58 16.25 84.89 16.25 84.89 20.42 83.08 20.42 83.08 7.78 84.89 7.78 84.89 15.01 85.58 15.01 89.47 11.53 91.69 11.53 87.25 15.42 92.67 20.42 90.17 20.42 90.17 20.42"/><path class="cls-2" d="M102.11,15.14H96c.14-1.11.28-1.67.83-1.95a4.75,4.75,0,0,1,2.36-.42c1.67,0,2.5.28,2.78,1.11a2.74,2.74,0,0,1,.14,1.25Zm1.81,2.5H102a2.06,2.06,0,0,1-.28,1.25c-.28.28-.83.42-2.36.42a3.94,3.94,0,0,1-2.78-.69c-.42-.28-.56-1-.56-2.08v-.14h7.92v-1c0-1.39-.14-2.22-.83-2.78-.69-.83-2.08-1.11-3.89-1.11q-3.75,0-4.58,1.67a5.75,5.75,0,0,0-.56,2.92c0,1.95.42,3.2,1.53,3.75a7.24,7.24,0,0,0,3.47.69,13.22,13.22,0,0,0,3.47-.42c1.11-.42,1.39-1,1.39-1.53v-1Z"/><path class="cls-1" d="M128.93,11c0,1.81-1,2.22-3.2,2.22H121v-4h5c1.94,0,2.92.14,2.92,1.81Zm2.5,5.84c0-1.53-.83-2.64-3.06-3.06h0C130,13.34,131,12.5,131,11.11c0-2.22-1.11-3.33-4.17-3.33h-7.92V20.42h8.2c2.78,0,4.31-1.25,4.31-3.61Zm-1.94.14c0,1.81-1.39,1.94-3.33,1.94H121V14.59h5.42c2.36,0,3.06.83,3.06,2.36Z"/><path class="cls-1" d="M141.85,17.23c0,.83-.14,1.53-1,1.81a9.29,9.29,0,0,1-2.36.14,4.47,4.47,0,0,1-2.22-.28c-.42-.14-.42-.56-.42-1.11s.14-1.25.56-1.39a6.91,6.91,0,0,1,2.22-.14h3.2v1Zm1.81,3.2V13.34a1.91,1.91,0,0,0-.69-1.11c-1-.69-3.2-.69-4.31-.69-.83,0-3.06,0-3.89.83a.84.84,0,0,0-.42.83v1h1.94a1.67,1.67,0,0,1,.28-1.11,4.14,4.14,0,0,1,1.94-.28,7.39,7.39,0,0,1,2.92.28,1.15,1.15,0,0,1,.42,1.11V15h-4.31c-1.25,0-2.5,0-3.33,1a3.47,3.47,0,0,0-.42,1.81c0,2.08,1.25,2.78,4.58,2.78a5.73,5.73,0,0,0,3.61-.83l.14.69Z"/><path class="cls-1" d="M154.77,20.42V15.56c0-1.67-.14-2.08-.56-2.36a3.83,3.83,0,0,0-2.22-.42,10.84,10.84,0,0,0-3.06.42v7.22H147V11.53h1.67l.14.69a4.15,4.15,0,0,1,1.11-.56,11.34,11.34,0,0,1,2.5-.28,8.38,8.38,0,0,1,2.92.56,2.33,2.33,0,0,1,1.25,1.53v6.95Z"/><polygon class="cls-1" points="167.13 20.42 162.55 16.25 161.85 16.25 161.85 20.42 159.91 20.42 159.91 7.78 161.85 7.78 161.85 15.01 162.55 15.01 166.3 11.53 168.52 11.53 164.08 15.42 169.63 20.42 167.13 20.42 167.13 20.42"/></g></g></svg>