<svg xmlns="http://www.w3.org/2000/svg" viewBox="0 0 157.49 72.55"><defs><style>.cls-1{fill:#ec1d3c;}</style></defs><title>import-logo-citadele</title><g id="Layer_2" data-name="Layer 2"><g id="Layer_1-2" data-name="Layer 1"><path class="cls-1" d="M2.29,25C.88,25,.73,24.47.73,20.83V20.2C.73,16.55.88,16,2.29,16H34.81c1.43,0,1.57.51,1.57,4.16v.63c0,3.64-.14,4.13-1.57,4.13Z"/><path class="cls-1" d="M34.81,0c1.42,0,1.56.51,1.56,4.15v.6c0,3.68-.14,4.17-1.56,4.17H2.29C.88,8.92.73,8.43.73,4.76v-.6C.73.51.88,0,2.29,0H34.81"/><path class="cls-1" d="M7.18,57c0-6,2.89-9.34,7.28-9.34A9.94,9.94,0,0,1,19.1,49c.6.29,1.09.18,1.88-1.7L21.54,46c.58-1.54.61-2.21-.09-2.53a16.42,16.42,0,0,0-7.87-1.95C5.86,41.51,0,47.67,0,57S5.86,72.52,13.58,72.52a17,17,0,0,0,8-2c.69-.33.65-1,.07-2.52l-.56-1.37c-.8-1.9-1.28-2-1.89-1.7a10,10,0,0,1-4.7,1.32c-4.39,0-7.28-3.23-7.28-9.3"/><path class="cls-1" d="M92.61,56.57a4.21,4.21,0,0,0-3.06-1.34c-2.53,0-3.73,2.22-3.73,6.3,0,2.33.5,3.82,1.2,4.61a3.2,3.2,0,0,0,2.56,1,3.14,3.14,0,0,0,2.51-.82c.37-.42.53-1.07.53-2.52Zm6.71,14.51c0,.83-.31,1.06-2.6,1.06h-.24c-2.4,0-2.74-.13-2.94-.74-.11-.33-.21-.83-.3-1.22a6.18,6.18,0,0,1-5.18,2.36c-5.7,0-9.13-4.24-9.13-11,0-7.36,3.81-11.71,9.48-11.71a6.75,6.75,0,0,1,4.19,1.4V41.68c0-.65.06-.89,3.25-.89h.22c2.94,0,3.25.24,3.25.89Z"/><path class="cls-1" d="M133.57,71.25c0,.62-.3.89-3.26.89h-.22c-3.18,0-3.26-.27-3.26-.89V41.68c0-.65.08-.89,3.26-.89h.22c3,0,3.26.24,3.26.89Z"/><path class="cls-1" d="M116.68,59.18c-.1-2.25-1-4.22-3.25-4.22-1.92,0-3.32,1.45-3.58,4.22Zm-6.75,4.2a4.22,4.22,0,0,0,4.62,4,14.54,14.54,0,0,0,6.1-1.42c.46-.19.87,0,1.35,1.52l.34.83c.5,1.56.46,1.9-.08,2.19a16.44,16.44,0,0,1-8.33,2.06c-6.68,0-10.88-4.1-10.88-11.13,0-6.83,3.85-11.59,10.47-11.59s9.88,4.7,9.88,11.19c0,2.16-.19,2.38-.94,2.38Z"/><path class="cls-1" d="M150.77,59.18c-.11-2.25-1-4.22-3.24-4.22-1.93,0-3.33,1.45-3.58,4.22ZM144,63.38a4.21,4.21,0,0,0,4.62,4,14.55,14.55,0,0,0,6.09-1.42c.46-.19.86,0,1.36,1.52l.33.83c.49,1.56.46,1.9-.05,2.19A16.47,16.47,0,0,1,148,72.55c-6.68,0-10.86-4.1-10.86-11.13,0-6.83,3.85-11.59,10.45-11.59s9.89,4.7,9.89,11.19c0,2.16-.19,2.38-1,2.38Z"/><path class="cls-1" d="M75,71.08c0,.83-.3,1.06-2.61,1.06h-.32c-2.4,0-2.73-.13-2.94-.74-.09-.33-.21-.83-.3-1.22a6.14,6.14,0,0,1-5.16,2.36c-5.47,0-9-4.16-9-10.95,0-7.55,4.32-11.78,9.45-11.78A6.31,6.31,0,0,1,69,51.94l.09-.94c.05-.46.17-.76,2.66-.76h.27c2.56,0,2.93.2,2.93.87ZM68.21,56.74a3.67,3.67,0,0,0-2.92-1.46c-2.52,0-3.72,2.22-3.72,6.18,0,3.36.89,5.85,3.64,5.85a3,3,0,0,0,2.3-.8c.5-.52.69-1.22.69-2.81Z"/><path class="cls-1" d="M43.5,43.88c2.53,0,2.67,0,2.67.86v5.5h4.36c.6,0,.79.12.79,2.19v.3c0,2.08-.18,2.2-.79,2.2H46.17v9.89c0,1.68.3,2.55,1.82,2.55A6.82,6.82,0,0,0,50.13,67c.72-.3,1,.07,1.48,1.81l.12.4c.51,1.9.37,2.07-.31,2.39a12.25,12.25,0,0,1-4.86,1c-5.38,0-6.88-2.69-6.88-7.42V54.92H37.15c-.63,0-.78-.12-.78-2.2v-.3c0-2.07.15-2.19.78-2.19H40c.3-1.77.85-4.26,1.16-5.5.2-.71.3-.86,2.35-.86"/><path class="cls-1" d="M29.28,40.44A3.53,3.53,0,1,1,25.6,44a3.59,3.59,0,0,1,3.67-3.56m.18,9.8c2.94,0,3.21.27,3.21.92V71.25c0,.66-.27.89-3.21.89h-.18c-3.25,0-3.32-.23-3.32-.89V51.16c0-.65.07-.92,3.32-.92Z"/></g></g></svg>