<svg xmlns="http://www.w3.org/2000/svg" viewBox="0 0 480.3 149.5"><defs><style>.cls-1{fill:#6e470a;}</style></defs><title>import-logo-mb</title><g id="Layer_2" data-name="Layer 2"><g id="svg6730"><g id="g6738"><g id="g6778"><path id="path6780" class="cls-1" d="M393,58.93V51.57h1.11a14,14,0,0,0,6.26-1.84c1.1-1.47,2.58-3.31,2.95-5.52,1.47-2.95,2.21-6.63,2.21-11.42,0-5.89-.74-11.42-2.58-15.84-.74-1.11-1.47-2.95-2.58-4.05-1.11-1.84-2.58-2.58-3.68-3.68A11,11,0,0,0,393,7.73V.37h.37a26.17,26.17,0,0,1,7.74,1.1,33.21,33.21,0,0,1,8.1,2.21,15.43,15.43,0,0,1,5.89,4.05,24.88,24.88,0,0,1,6.63,9.94,34.41,34.41,0,0,1,2.21,12.52,28.88,28.88,0,0,1-.74,7.73c-.74,2.58-2.21,4.79-2.95,7a14.46,14.46,0,0,1-4.79,5.52c-2.58,2.95-5.89,4.79-9.94,6.26a35.36,35.36,0,0,1-12.15,2.21H393Zm81.4-40.52-2.21.74A7.21,7.21,0,0,0,470,14.73c-.74-1.84-2.21-2.58-3.68-3.68a13,13,0,0,0-4.79-2.95,22,22,0,0,0-4.42-.74c-2.58,0-4.42.37-6.26,1.84A5.37,5.37,0,0,0,448.25,14a4.06,4.06,0,0,0,1.84,3.68,26.73,26.73,0,0,0,6.26,2.58l9.94,2.95a24.43,24.43,0,0,1,7,3.31,14.43,14.43,0,0,1,5.16,4.42,19.85,19.85,0,0,1,1.84,7.74c0,5.89-3.31,11-9.21,15.1-4.79,3.32-11.42,5.16-19.15,5.16-2.95,0-6.63-.74-11.79-1.47a38.32,38.32,0,0,0-5.52-.74,5.13,5.13,0,0,0-4.05,1.84l-1.84-23.2,1.84-.74a18.44,18.44,0,0,0,3.31,8.84,19.13,19.13,0,0,0,7,6.26,17.94,17.94,0,0,0,9.21,2.21,28.44,28.44,0,0,0,5.52-.74c1.47-.74,3.31-1.47,4.05-2.95,1.47-.74,1.84-2.58,1.84-4.79,0-1.84-.74-3.68-2.21-4.42-1.47-.37-3.31-1.84-5.52-2.21l-8.84-2.95c-4.05-1.47-7.37-2.95-9.21-4.79A6.34,6.34,0,0,1,432,24.68a10.4,10.4,0,0,1-1.47-5.52,13.42,13.42,0,0,1,.74-5.16c.74-1.84,1.47-3.68,2.95-4.79a8,8,0,0,1,3.68-4.05A28.7,28.7,0,0,1,453.78.37c1.84,0,5.16,1.1,8.84,1.47a24.35,24.35,0,0,0,4.05.37c2.58,0,4.42-.37,5.52-1.84l2.21,18ZM393,.37V7.73h-1.1a8.32,8.32,0,0,0-5.52,1.84,26.14,26.14,0,0,0-3.68,5.16,34.37,34.37,0,0,0-1.84,11.79c0,5.89.74,11.42,2.58,15.84a17.75,17.75,0,0,0,4.42,6.26A9.36,9.36,0,0,0,393,51.57v7.37a43.65,43.65,0,0,1-11.79-1.84,34.05,34.05,0,0,1-10.31-5.52,21.86,21.86,0,0,1-4.79-6.63,34.11,34.11,0,0,1-2.95-7.37,31.6,31.6,0,0,1-.74-8.47A23.68,23.68,0,0,1,365,17.68c1.1-3.68,3.68-6.63,6.26-9.58a43.24,43.24,0,0,1,9.94-5.52A41.75,41.75,0,0,1,393,.37h0ZM155.43,57.09V50.83a7.64,7.64,0,0,0,3.68-2.21,20.89,20.89,0,0,0,5.53-7.74,26.76,26.76,0,0,0,1.47-9.21,32.85,32.85,0,0,0-1.1-8.1c-.37-2.58-1.84-5.52-2.58-7.73a22.55,22.55,0,0,0-5.53-6.26c-.37-.37-1.1-.37-1.47-.74V2.21h.74a17.21,17.21,0,0,1,6.26,1.1,12.37,12.37,0,0,1,5.16,1.84c1.84.74,3.68,2.21,5.52,2.95a34.47,34.47,0,0,1,7.73,10.31,32.55,32.55,0,0,1,2.95,12.52A28.63,28.63,0,0,1,182,42.36a22,22,0,0,1-5.89,8.1c-4.42,4.42-11.42,6.63-20.63,6.63h0Zm59.67,0H188.58V55.25a3.28,3.28,0,0,0,2.95-1.84c1.1-1.47,1.47-3.68,1.47-6.63V12.52c0-2.95-.37-5.16-1.47-6.63a2.76,2.76,0,0,0-2.95-1.84V1.84H215.1V4.05c-1.84,0-3.31.37-3.68,1.84a14.71,14.71,0,0,0-1.47,6.63V46.78a14.71,14.71,0,0,0,1.47,6.63c.37,1.1,1.84,1.84,3.68,1.84v1.84Zm54.14,1.84a2.16,2.16,0,0,0-1.84-.74c-.37,0-.74-.74-2.21-.74L253,58.93a41.71,41.71,0,0,1-13.26-2.21,36.58,36.58,0,0,1-11.42-5.52c-3.31-2.95-5.89-5.52-7.73-9.94a27.76,27.76,0,0,1-2.95-12.89,29.21,29.21,0,0,1,2.58-11.79,31.75,31.75,0,0,1,6.26-8.84,45.94,45.94,0,0,1,10.31-5.52C240.52,1.47,244.2.37,249,.37c3.32,0,7.37,1.1,12.15,1.47a9.72,9.72,0,0,0,2.58.37c2.58,0,3.31-.74,4.42-2.21l4.42,23.57-1.1,1.1A36.33,36.33,0,0,0,267,16.21a14.36,14.36,0,0,0-6.63-5.89,11.8,11.8,0,0,0-8.1-2.58,16.68,16.68,0,0,0-8.84,2.58,13,13,0,0,0-5.16,7.37c-1.47,2.58-1.84,5.53-1.84,9.21,0,2.95,0,5.52,1.47,8.47.37,3.31,1.84,5.52,2.95,7.73a34.3,34.3,0,0,0,7,6.26c3.31,1.1,6.26,2.21,9.58,2.21a15.43,15.43,0,0,0,9.94-3.31A17.21,17.21,0,0,0,274,39.78l1.84,1.1-6.63,18Zm34.62-1.84H277.72V55.25A3.87,3.87,0,0,0,281,53.41c1.11-1.47,1.11-3.68,1.11-6.63V12.52c0-2.95,0-5.16-1.11-6.63a3.22,3.22,0,0,0-3.31-1.84V1.84h26.15V4.05c-1.84,0-2.95.37-3.68,1.84a24.39,24.39,0,0,0-1.11,6.63V46.78a24.38,24.38,0,0,0,1.11,6.63,4.06,4.06,0,0,0,3.68,1.84v1.84Zm44.2-44.57c0-5.52-1.84-8.47-5.16-8.47V1.84h16.94V4.05c-1.47,0-2.95.37-3.32,1.84-1.1,1.47-1.1,3.68-1.1,6.63V46.41c0,3.31,0,5.52,1.1,7,.37,1.1,1.84,1.84,3.32,1.84v1.84H342.91V55.25c2.95-.37,4.79-1.84,4.79-5.16a7.85,7.85,0,0,0-1.47-4.42,33.63,33.63,0,0,0-3.68-4.79l-25-28.73V46.78a27.43,27.43,0,0,0,.74,6.63c1.1,1.1,1.84,1.84,3.68,1.84v1.84H305.71V55.25a4.53,4.53,0,0,0,3.68-1.84,15.39,15.39,0,0,0,1.1-6.63V12.52a15.39,15.39,0,0,0-1.1-6.63c-.74-1.47-2.21-1.84-3.68-1.84V1.84h32V4.05c-1.1.37-2.21,1.47-2.21,2.21,0,1.1,1.1,2.95,3.68,5.16l8.84,11.79V12.52Zm-336.65.74V46.41c0,3.31,0,5.16,1.1,7,.74,1.1,1.84,1.84,4.05,1.84v1.84H0V55.25a3.87,3.87,0,0,0,3.32-1.84,27.44,27.44,0,0,0,.74-6.63V12.52a27.45,27.45,0,0,0-.74-6.63A3.22,3.22,0,0,0,0,4.05V1.84H28.36V4.05c-1.47.37-2.21,1.11-2.21,1.84a7.64,7.64,0,0,0,.74,2.21L28,10.68l4.42,11,6.26-11.42a33.13,33.13,0,0,0,1.1-4.42,2,2,0,0,0-1.1-1.84V1.84H65.19V4.05c-1.84,0-2.95.37-3.68,1.84a15.39,15.39,0,0,0-1.11,6.63V46.78a15.39,15.39,0,0,0,1.11,6.63,4.06,4.06,0,0,0,3.68,1.84v1.84H38.67V55.25c1.84,0,2.58-.74,3.68-1.84.74-1.47.74-3.68.74-6.63V13.26L26.89,46.41,11.42,13.26h0Zm144-11V8.84a11.66,11.66,0,0,0-5.89-1.47c-2.21,0-3.31.74-4.05,2.21a22.29,22.29,0,0,0-.74,5.53V42.36c0,2.21.37,4.05.37,5.52,0,.74,1.1,1.84,1.84,2.58.37,1.11,1.84,1.11,3.68,1.11a18.65,18.65,0,0,0,4.79-.74v6.26H122.65V55.25c2.21,0,3.31-.74,4.05-1.84a27.44,27.44,0,0,0,.74-6.63V12.52a27.44,27.44,0,0,0-.74-6.63c-.74-1.47-1.84-1.84-4.05-1.84V1.84h27.26c1.84,0,3.68.37,5.52.37h0ZM67,57.09V55.25a3.87,3.87,0,0,0,3.32-1.84c.74-1.47.74-3.68.74-6.63V12.52c0-2.95,0-5.16-.74-6.63A3.22,3.22,0,0,0,67,4.05V1.84h40.15c2.21,0,4.05,0,4.79-1.47l4.42,19.52L114.55,21A16.09,16.09,0,0,0,107.92,11,20.38,20.38,0,0,0,96.13,7.37a12.8,12.8,0,0,0-4.79.74c-1.11.74-1.84,1.47-1.84,2.58-.74.74-1.11,2.58-1.11,4.42v4.79h5.16a30.06,30.06,0,0,0,6.63-.74,8,8,0,0,0,2.21-5.89l1.84-.37,3.68,21.36h-1.84A21,21,0,0,0,102,28.36a5.86,5.86,0,0,0-3.68-1.84c-1.47-1.1-2.95-1.1-4.79-1.1H88.4V44.2a9.5,9.5,0,0,0,2.21,5.89c1.47,1.11,3.31,1.47,6.26,1.47q14.36,0,22.1-15.47l1.84.74-7.37,22.1c-.74-1.47-2.21-1.84-5.16-1.84H67Zm261.45,71V120.4a44,44,0,0,1,5.89,2.95l-5.89-18V92.41h17.68v2.21c-1.47,0-2.21.37-2.21,1.84a30.82,30.82,0,0,1,1.1,4.79,41.08,41.08,0,0,1,3.68,10.31c1.47,3.68,2.95,8.84,5.16,14.36,1.84,5.89,2.95,9.21,3.31,10.68a7.8,7.8,0,0,1,1.11,2.58,23.22,23.22,0,0,0,1.47,3.31c.37.37.74,1.47,1.84,1.84a2.47,2.47,0,0,0,2.58,1.47v1.84H335.48v-1.84c1.47,0,2.21-.74,3.32-1.47.74-.74.74-2.21.74-3.68a8.32,8.32,0,0,0-1.84-5.53,21,21,0,0,0-5.16-4.79,8.78,8.78,0,0,0-4.05-2.21ZM413.57,109l-1.47.74c-.37-2.21-1.84-3.31-2.58-4.42-1.1-1.84-2.58-2.58-3.68-3.68A13,13,0,0,0,401,98.67a25.34,25.34,0,0,0-4.79-.74,8.67,8.67,0,0,0-5.89,1.84,5.75,5.75,0,0,0-2.95,4.79,4.06,4.06,0,0,0,1.84,3.68,35.92,35.92,0,0,0,6.26,2.58l9.58,2.95a18.84,18.84,0,0,1,7.73,3.31,9.36,9.36,0,0,1,4.79,4.42,14.83,14.83,0,0,1,2.21,7.74c0,5.89-3.31,11-9.58,15.1-4.42,3.32-11,5.16-18.42,5.16-3.31,0-7-.74-12.15-1.47a46.22,46.22,0,0,0-5.52-.74,5.83,5.83,0,0,0-4.42,1.84l-1.84-23.2,1.84-.74a23.7,23.7,0,0,0,3.68,8.84,21.42,21.42,0,0,0,6.63,6.26,21.12,21.12,0,0,0,9.21,2.21,36.73,36.73,0,0,0,5.89-.74,8.32,8.32,0,0,0,4.05-2.95c1.47-.74,1.84-2.58,1.84-4.79,0-1.84-.37-3.68-2.21-4.42-1.47-.37-3.31-1.84-5.89-2.21l-8.1-2.95c-4.79-1.47-8.1-2.95-10.31-4.79-1.47-.74-2.21-2.58-3.32-4.42a15.44,15.44,0,0,1-1.47-5.52c0-1.47.74-3.31,1.1-5.16a14.72,14.72,0,0,1,2.58-4.79,10.65,10.65,0,0,1,4.05-4.05,27.49,27.49,0,0,1,15.47-4.79c2.21,0,5.16,1.1,8.84,1.47a30.68,30.68,0,0,0,4.42.37c2.21,0,4.05-.37,5.52-1.84l1.84,18ZM328.48,92.41V105.3l-.37-1.47-5.89,15.47a17.21,17.21,0,0,1,6.26,1.1v7.73a20.47,20.47,0,0,0-8.47-1.47l-3.31,8.47c-.74,3.31-1.47,5.53-1.47,7,0,2.21,1.47,3.31,4.42,3.68v1.84H300.86v-1.84c1.47-.37,2.58-.74,3.31-1.84,1.1-1.47,1.84-1.84,2.21-3.31.74-1.47,1.47-2.21,2.58-4.42l12.89-35c1.1-2.58,1.47-3.68,1.47-4.79a1.72,1.72,0,0,0-1.84-1.84V92.41h7ZM145.42,128.13v-7.37c1.84.74,3.68,1.47,5.89,2.58L145.42,106V92.41h17.31v2.21c-1.47,0-1.84.37-1.84,1.84,0,.37,0,1.84,1.47,4.79.37,2.58,1.84,5.89,3.31,10.31.74,3.68,2.58,8.84,4.42,14.36a58.82,58.82,0,0,1,3.68,10.68c.74.74.74,1.84,1.11,2.58a23.27,23.27,0,0,0,1.47,3.31l1.84,1.84a3.19,3.19,0,0,0,2.58,1.47v1.84H152.05v-1.84a6.62,6.62,0,0,0,3.32-1.47,5.63,5.63,0,0,0,1.47-3.68c0-1.84-1.1-3.68-2.58-5.53a13,13,0,0,0-5.16-4.79c-1.1-.74-2.58-1.47-3.68-2.21h0Zm80.3-25c0-5.52-1.84-8.47-5.16-8.47V92.41h16.57v2.21a3.74,3.74,0,0,0-3.68,1.84,27.43,27.43,0,0,0-.74,6.63V137a28.55,28.55,0,0,0,.74,7c1.1,1.1,1.84,1.84,3.68,1.84v1.84H220.56v-1.84c2.58-.37,4.05-1.84,4.05-5.16a7.85,7.85,0,0,0-1.47-4.42,18.53,18.53,0,0,0-3.68-4.79l-24.68-28.73v34.62c0,2.95,0,5.16,1.1,6.63.37,1.1,1.84,1.84,3.32,1.84v1.84H182.62v-1.84a5.28,5.28,0,0,0,4.05-1.84,27.44,27.44,0,0,0,.74-6.63V103.09a27.45,27.45,0,0,0-.74-6.63,4.32,4.32,0,0,0-4.05-1.84V92.41H215v2.21c-1.47.37-2.58,1.47-2.58,2.21,0,1.1,1.47,2.95,3.68,5.16l9.58,11.79V103.09h0Zm75.14,44.57v-1.84c-1.84,0-2.58-.74-4.05-1.84-.37-1.1-1.84-2.95-2.21-4.79-1.84-4.42-3.31-8.84-5.16-12.52-1.47-3.68-3.68-7-5.52-10.68a93.44,93.44,0,0,0-8.1-9.58l4.05-3.68c5.89-4.79,11.42-7.73,15.84-8.1V92.41H271.76v2.21c.74,0,1.84,0,2.21,1.11,1.11.37,1.47.74,1.47,2.21,0,.37,0,.74-1.1,2.21a6.91,6.91,0,0,1-2.21,2.58,6.9,6.9,0,0,0-2.21,2.58l-8.84,8.1v-9.94c0-3.31,0-5.52.74-7,.37-1.47,1.84-1.84,3.68-1.84V92.41H239v2.21c1.84,0,2.95.37,3.68,1.84a15.39,15.39,0,0,1,1.1,6.63v34.25a15.39,15.39,0,0,1-1.1,6.63,4.07,4.07,0,0,1-3.68,1.84v1.84h27.26v-1.84a4.75,4.75,0,0,1-4.05-1.84c-1.1-1.47-1.1-3.68-1.1-6.63V119.66l2.58-2.21c3.68,4.05,6.63,7.73,8.1,11.79.74,1.84,2.21,4.05,2.58,7.37a11.81,11.81,0,0,1,1.84,6.26c0,1.47-1.11,2.95-3.68,2.95v1.84h28.36ZM145.42,92.41V106l-.74-2.21-5.16,15.47a12.63,12.63,0,0,1,5.89,1.47v7.37a23.48,23.48,0,0,0-8.84-1.47l-3.31,8.47a36.49,36.49,0,0,0-1.1,7c0,2.21,1.1,3.31,3.68,3.68v1.84H117.43v-1.84a12.69,12.69,0,0,0,4.05-1.84c.37-1.47,1.1-1.84,1.84-3.31.37-1.47,1.1-2.21,2.21-4.42l12.89-35c1.1-2.58,1.47-3.68,1.47-4.79a1.72,1.72,0,0,0-1.84-1.84V92.41Zm-58.2,55.25v-5.52A10.19,10.19,0,0,0,92,141,12.3,12.3,0,0,0,96.8,137a15.27,15.27,0,0,0,1.1-5.89,11.9,11.9,0,0,0-2.58-8.1,16.68,16.68,0,0,0-6.63-5.52l-1.47.37v-6.26a24.71,24.71,0,0,0,5.16-3.32,8,8,0,0,0,1.84-5.16A4.05,4.05,0,0,0,92,99.4a6.79,6.79,0,0,0-4.79-1.47V92.41H95.7c3.31,0,5.52.37,7.37.37,2.58.37,3.68,1.47,5.52,2.21a8,8,0,0,1,2.58,5.89q0,4.42-4.42,7.73a73.58,73.58,0,0,1-9.58,5.52c3.31.37,5.89,1.47,9.21,2.95A26.12,26.12,0,0,1,113,123c1.84,2.21,2.58,5.52,2.58,8.47a16,16,0,0,1-1.84,7.74,19.06,19.06,0,0,1-6.26,5.89,19.55,19.55,0,0,1-7,2.21,74.1,74.1,0,0,1-9.58.37H87.23Zm0-55.25v5.52h-.37c-2.95,0-4.79.37-5.52,1.47a6.56,6.56,0,0,0-1.1,4.05v10.68a69.66,69.66,0,0,0,6.63-2.21.36.36,0,0,0,.37-.37v6.26l-7,1.84V136.6c0,1.84,0,2.58.74,3.68,0,.37.37.74,1.11,1.84h5.16v5.52H58.5v-1.84c1.84,0,3.31-.74,3.68-1.84a24.39,24.39,0,0,0,1.1-6.63V103.09a24.38,24.38,0,0,0-1.1-6.63c-.37-1.47-1.84-1.84-3.68-1.84V92.41H87.23Z"/></g></g></g></g></svg>