<svg xmlns="http://www.w3.org/2000/svg" viewBox="0 0 400 400"><defs><style>.cls-1{fill:#dfeefb;}.cls-2{fill:#1e88e5;stroke:#1e88e5;stroke-miterlimit:10;stroke-width:4px;}</style></defs><title>simb-logo_1</title><g id="Layer_2" data-name="Layer 2"><g id="Layer_1-2" data-name="Layer 1"><circle class="cls-1" cx="200" cy="200" r="200"/><path class="cls-2" d="M134.29,272.73a116.88,116.88,0,0,0,55.93,14.75c27.11,0,42.21-12.7,42.21-31.57,0-17.5-11.67-27.79-41.18-38.43-38.09-13.73-62.45-34-62.45-67.26,0-37.75,31.57-66.57,81.67-66.57,25,0,43.58,5.49,55.59,11.67l-10.29,34c-8.24-4.46-24.36-11-46-11-26.77,0-38.43,14.41-38.43,27.79,0,17.84,13.38,26.08,44.27,38.09,40.15,15.1,59.71,35.34,59.71,68.63,0,37.06-28.14,69.31-87.84,69.31-24.36,0-49.75-6.86-62.45-14.41Z"/></g></g></svg>