<?xml version="1.0" encoding="utf-8"?>
<!-- Generator: Adobe Illustrator 21.0.0, SVG Export Plug-In . SVG Version: 6.00 Build 0)  -->
<svg version="1.1" id="Layer_1" xmlns="http://www.w3.org/2000/svg" xmlns:xlink="http://www.w3.org/1999/xlink" x="0px" y="0px"
	 viewBox="0 0 296 296" style="enable-background:new 0 0 296 296;" xml:space="preserve">
<style type="text/css">
	.st0{fill:#BCBCBC;}
</style>
<title>smile-nothing-found</title>
<g id="Layer_2">
	<g id="Capa_1">
		<path class="st0" d="M148,0C66.4,0,0,66.4,0,148s66.4,148,148,148s148-66.4,148-148S229.6,0,148,0z M148,280
			c-34.9,0-68.3-13.8-93-38.4c-9.6-9.5-17.6-20.5-23.9-32.4C21.2,190.3,16,169.3,16,148C16.1,75.1,75.4,16.1,148.3,16.2
			c50.7,0.1,96.9,29.2,118.8,74.9c8.5,17.8,12.9,37.2,12.9,56.9C279.9,220.9,220.9,279.9,148,280z"/>
		<circle class="st0" cx="99.7" cy="115" r="16"/>
		<circle class="st0" cx="198.7" cy="115" r="16"/>
		<path class="st0" d="M139.2,213.5c-22.5-2.8-42.7-15.3-55.1-34.3l-13.4,8.7c15,23,39.4,38.2,66.7,41.5c3.4,0.4,6.9,0.6,10.3,0.6
			c31.3,0,60.5-15.9,77.6-42.1l-13.4-8.7C196.1,203.4,168,216.7,139.2,213.5z"/>
	</g>
</g>
</svg>
