<svg xmlns="http://www.w3.org/2000/svg" viewBox="0 0 75 90"><defs><style>.cls-1{fill:#999;}</style></defs><title>split2</title><g id="Layer_2" data-name="Layer 2"><g id="Layer_1-2" data-name="Layer 1"><path class="cls-1" d="M15,0,0,22.5l10.78-3.06C10.89,28,11.93,33.74,13.91,38a20.44,20.44,0,0,0,8.28,9c2.8,1.73,5,2.78,6.88,5,1.4,1.59,4.18,4.3,4.19,8.31,0,9.91,0,29.72,0,29.72h8.44V60.28c0-3.79,2.85-6.72,4.25-8.31,1.92-2.19,4.08-3.24,6.88-5a20.44,20.44,0,0,0,8.28-9c2-4.29,3-10.06,3.13-18.59L75,22.5,60,0,45,22.5l10.72-3c-.12,7.75-1.12,12.36-2.34,15-1.31,2.86-2.67,3.84-5,5.28s-5.73,3.11-8.81,6.63a23.2,23.2,0,0,0-2,2.72,22.51,22.51,0,0,0-2-2.72c-3.08-3.51-6.48-5.19-8.81-6.62s-3.71-2.42-5-5.28c-1.21-2.64-2.19-7.25-2.31-15L30,22.5Z"/></g></g></svg>