<svg xmlns="http://www.w3.org/2000/svg" viewBox="0 0 89.97 80.62"><defs><style>.cls-1{fill:#999;}</style></defs><title>split5</title><g id="Layer_2" data-name="Layer 2"><g id="Layer_1-2" data-name="Layer 1"><path class="cls-1" d="M88.26.12c-10.8,1.6-23.6,2.3-34.2,1.2A1.48,1.48,0,0,0,53,3.92l8.1,6.7a63.77,63.77,0,0,0-15.8,17.8A58,58,0,0,0,29,10l8-6.8a1.48,1.48,0,0,0-1.1-2.6c-10.6,1.3-23.4.8-34.2-.6a1.45,1.45,0,0,0-1.3,2.4c6.8,8.5,13.8,19.3,18.1,29a1.48,1.48,0,0,0,2.8-.4l1.6-9.4c11,9,15.7,19,15.7,32.6v26.4h12.9V54.22c0-12.5,5.1-22.8,16.1-32.2l1.7,9.3a1.48,1.48,0,0,0,2.8.3c4.1-9.8,11-20.7,17.6-29.3A1.4,1.4,0,0,0,88.26.12Z"/></g></g></svg>