<svg xmlns="http://www.w3.org/2000/svg" viewBox="0 0 80.04 59.49"><defs><style>.cls-1{fill:#999;}</style></defs><title>split3</title><g id="Layer_2" data-name="Layer 2"><g id="Layer_1-2" data-name="Layer 1"><path class="cls-1" d="M19.43,0A.74.74,0,0,0,19,.16L.3,14.53a.75.75,0,0,0-.3.6.79.79,0,0,0,.3.62L19,30.09a.75.75,0,0,0,.92,0,.77.77,0,0,0,.25-.89l-3.76-9.51h6.55c1.42.07,6.1.55,9.28,3.67a11.53,11.53,0,0,1,3.21,7.38c0,.68-.07,1.37-.07,2.09V59.49h9.12v0h.18V32.84c0-.71,0-1.41-.07-2.09A11.49,11.49,0,0,1,47.8,23.4c3.18-3.12,7.86-3.6,9.28-3.67h6.55l-3.76,9.51a.74.74,0,0,0,.25.87.78.78,0,0,0,.94,0L79.75,15.74a.74.74,0,0,0,0-1.19L61.07.18A.81.81,0,0,0,60.59,0a.77.77,0,0,0-.46.16.77.77,0,0,0-.25.89l3.76,9.51H58.8l-1.1.09v-.09c-.41,0-9.76-.1-16.29,6.3A19,19,0,0,0,40,18.4a19.62,19.62,0,0,0-1.42-1.54c-6.53-6.41-15.88-6.31-16.29-6.3v.09c-.64-.05-1.1-.07-1.1-.07l-4.84,0,3.76-9.51a.77.77,0,0,0-.25-.89A.77.77,0,0,0,19.43,0Z"/></g></g></svg>