<svg xmlns="http://www.w3.org/2000/svg" viewBox="0 0 207.03 196.68"><defs><style>.cls-1{fill:#999;}</style></defs><title>split4</title><g id="Layer_2" data-name="Layer 2"><g id="Layer_1-2" data-name="Layer 1"><path class="cls-1" d="M196.68,0H134.57a10.35,10.35,0,0,0,0,20.7h37.12L127.26,65.13a10.36,10.36,0,0,0,0,14.64,10.25,10.25,0,0,0,7.31,3,10.4,10.4,0,0,0,7.33-3l44.43-44.45V72.46a10.35,10.35,0,0,0,20.7,0V10.35A10.36,10.36,0,0,0,196.68,0Z"/><path class="cls-1" d="M10.35,82.81A10.36,10.36,0,0,0,20.7,72.46V35.34L93.16,107.8v78.53a10.35,10.35,0,0,0,20.7,0V103.52a10.43,10.43,0,0,0-3-7.33L35.34,20.7H72.46a10.35,10.35,0,0,0,0-20.7H10.35A10.36,10.36,0,0,0,0,10.35V72.46A10.36,10.36,0,0,0,10.35,82.81Z"/></g></g></svg>