<svg xmlns="http://www.w3.org/2000/svg" viewBox="0 0 51.25 45.76"><defs><style>.cls-1{fill:#e64a19;}</style></defs><title>upload_error</title><g id="Layer_2" data-name="Layer 2"><g id="Layer_1-2" data-name="Layer 1"><g id="surface1"><path class="cls-1" d="M50.2,38,30.09,3.19c-2.46-4.26-6.48-4.26-8.94,0L1.05,38c-2.46,4.26-.45,7.74,4.46,7.74H45.73C50.65,45.76,52.66,42.28,50.2,38ZM22.86,13.07a3.86,3.86,0,0,1,5.52,0A4.09,4.09,0,0,1,29.46,16c0,1-1.5,8.34-2,13.68H23.85C23.41,24.29,21.79,17,21.79,16A4.09,4.09,0,0,1,22.86,13.07Zm5.47,25.39a3.87,3.87,0,0,1-5.42,0,3.6,3.6,0,0,1-1.13-2.68,3.83,3.83,0,0,1,6.55-2.71,3.69,3.69,0,0,1,1.13,2.71A3.59,3.59,0,0,1,28.34,38.46Z"/></g></g></g></svg>