<?xml version="1.0" encoding="UTF-8"?>
<svg xmlns="http://www.w3.org/2000/svg" xmlns:xlink="http://www.w3.org/1999/xlink" width="48pt" height="48pt" viewBox="0 0 48 48" version="1.1">
<g id="surface1">
<path style=" stroke:none;fill-rule:nonzero;fill:rgb(100%,100%,100%);fill-opacity:1;" d="M 39.601563 20.199219 C 37.800781 13.199219 31.601563 8 24 8 C 18 8 12.800781 11.199219 10 16.199219 C 4.398438 17.199219 0 22 0 28 C 0 34.601563 5.398438 40 12 40 C 14 40 35.800781 40 38 40 C 43.601563 40 48 35.601563 48 30 C 48 25 44.398438 20.800781 39.601563 20.199219 Z M 26 26 L 26 34 L 22 34 L 22 26 L 16 26 L 24 16 L 32 26 Z "/>
</g>
</svg>
