<svg xmlns="http://www.w3.org/2000/svg" viewBox="0 0 512 309.75"><defs><style>.cls-1{fill:#999;}</style></defs><title>visibility-on</title><g id="Layer_2" data-name="Layer 2"><g id="Capa_1" data-name="Capa 1"><path class="cls-1" d="M508.53,165.43a18,18,0,0,0-.52-21.95C430.57,48.28,347,0,259.4,0,110.9,0,7.75,138.36,3.47,144.22A18,18,0,0,0,4,166.16C81.32,261.47,164.92,309.75,252.5,309.75,401,309.75,504.14,171.39,508.53,165.43ZM252.5,273.9c-72.94,0-144-40.13-211.52-119.13C67.42,123.52,151.44,35.84,259.4,35.84c72.94,0,144,40.13,211.52,119.13C444.47,186.23,360.45,273.9,252.5,273.9Z"/><path class="cls-1" d="M255.95,63.85a91,91,0,1,0,91,91A91.16,91.16,0,0,0,255.95,63.85Zm0,146.2a55.18,55.18,0,1,1,55.18-55.18A55.26,55.26,0,0,1,255.95,210.05Z"/></g></g></svg>