<svg xmlns="http://www.w3.org/2000/svg" viewBox="0 0 512 359.58"><defs><style>.cls-1{fill:#999;}</style></defs><title>visibility-off</title><g id="Layer_2" data-name="Layer 2"><g id="Layer_3" data-name="Layer 3"><path class="cls-1" d="M508,168.4C430.57,73.2,347,24.92,259.4,24.92c-35.17,0-67.79,7.77-97.16,19.69l31.67,26.73A213.94,213.94,0,0,1,259.4,60.76c72.94,0,144,40.13,211.52,119.13a411.46,411.46,0,0,1-70.69,65.59l28.32,23.9c48.5-36.75,77.71-75.93,80-79A18,18,0,0,0,508,168.4Z"/><path class="cls-1" d="M252.5,298.82c-72.94,0-144-40.13-211.52-119.13a411.44,411.44,0,0,1,70.75-65.63L83.42,90.16c-48.52,36.75-77.71,75.92-79.95,79A18,18,0,0,0,4,191.08C81.32,286.39,164.92,334.67,252.5,334.67c35.2,0,67.84-7.78,97.23-19.72l-31.67-26.73A214,214,0,0,1,252.5,298.82Z"/><path class="cls-1" d="M289.73,264.3l-34.78-29.36A55.28,55.28,0,0,1,201.74,190L167,160.67A91,91,0,0,0,289.73,264.3Z"/><path class="cls-1" d="M310.14,169.45,345,198.84A91,91,0,0,0,222.24,95.25l34.82,29.39A55.28,55.28,0,0,1,310.14,169.45Z"/><path class="cls-1" d="M457,320.38,83.65,5.24A22.22,22.22,0,0,0,52.34,7.89h0A22.22,22.22,0,0,0,55,39.2L428.35,354.34a22.22,22.22,0,0,0,31.31-2.65h0A22.22,22.22,0,0,0,457,320.38Z"/></g></g></svg>