<svg xmlns="http://www.w3.org/2000/svg" viewBox="0 0 512 468.04"><defs><style>.cls-1{fill:#f44336;}</style></defs><title>warning</title><g id="Layer_2" data-name="Layer 2"><g id="Capa_1" data-name="Capa 1"><path class="cls-1" d="M256,328.9a26.31,26.31,0,1,0,0,52.62c13.79,0,26.31-12,25.68-25.68A25.69,25.69,0,0,0,256,328.9Z"/><path class="cls-1" d="M499.54,422.16c16.52-28.52,16.63-62.52.21-90.94L334.93,45.78a90.81,90.81,0,0,0-157.66-.11l-165,285.75A91.16,91.16,0,0,0,91.17,468H420.39C453.34,468,482.91,450.89,499.54,422.16Zm-35.78-20.63a49.74,49.74,0,0,1-43.47,25.15H91.07a49.06,49.06,0,0,1-42.94-24.63,49.8,49.8,0,0,1-.11-50.2l165-285.65a49.56,49.56,0,0,1,86.09.11L464.07,352A49.14,49.14,0,0,1,463.76,401.53Z"/><path class="cls-1" d="M249.47,144.19c-12.52,3.58-20.31,14.95-20.31,28.73.63,8.31,1.16,16.73,1.79,25,1.79,31.68,3.58,62.73,5.37,94.41A19.28,19.28,0,0,0,256,310.91c10.74,0,19.16-8.31,19.68-19.16,0-6.53,0-12.52.63-19.16,1.16-20.31,2.42-40.63,3.58-60.94.63-13.16,1.79-26.31,2.42-39.47A32.5,32.5,0,0,0,279.89,159,26.38,26.38,0,0,0,249.47,144.19Z"/></g></g></svg>