<?xml version="1.0" encoding="utf-8"?>
<!-- Generator: Adobe Illustrator 21.0.0, SVG Export Plug-In . SVG Version: 6.00 Build 0)  -->
<svg version="1.1" id="Layer_1" xmlns="http://www.w3.org/2000/svg" xmlns:xlink="http://www.w3.org/1999/xlink" x="0px" y="0px"
	 viewBox="0 0 1030.6 480" style="enable-background:new 0 0 1030.6 480;" xml:space="preserve">
<style type="text/css">
	.st0{fill:#DFEEFB;}
	.st1{fill:#0081FF;}
</style>
<title>logo-web</title>
<g id="Layer_2">
	<g id="Layer_1-2">
		<circle class="st0" cx="240" cy="240" r="219.6"/>
		<path class="st1" d="M307.8,251.6c-10.7-12-27.1-22.1-50-30.7c-33.5-13-47.4-21.5-47.4-40.1c0-14.3,12.5-28.7,40.4-28.7
			c24.2,0,41.5,7.4,49.6,11.8l2,1.1l12.4-40.9l-1.4-0.7c-11.5-5.9-31.6-13-61.9-13c-53.9,0-91.5,30.8-91.5,74.9
			c0,17.9,6.4,33.5,19.1,46.3c11.5,11.6,28.1,21.2,50.6,29.3c32.1,11.6,44,22.5,44,40.5c0,20.6-16.6,32.8-44.5,32.8
			c-20.5,0-43.1-6-60.5-16l-2.1-1.2l-11.1,42.1l1.2,0.7c13.4,8,41.6,16.1,69.5,16.1c31.1,0,56.6-8,74-23.2
			c15.6-13.7,24.3-33.1,24.3-54.7C324.5,279.4,319.1,264.2,307.8,251.6z"/>
		<path class="st1" d="M690.5,226.9c-17.2-6.7-24.8-12.4-24.8-24.1c0-8.5,6.5-18.7,23.5-18.7c8.3,0,16.4,2,23.7,5.9l4.5-13.1
			c-5.6-3.1-14.8-6.1-27.6-6.1c-24.3,0-40.4,14.4-40.4,33.9c0,17.6,12.6,28.2,33,35.4c16.9,6.5,23.5,13.1,23.5,24.8
			c0,12.6-9.6,21.3-26.1,21.3c-10.2-0.1-20.2-2.9-28.9-8.1l-4.1,13.5c6.7,4.5,19.8,8,31.9,8c29.5,0,43.7-16.7,43.7-35.9
			C722.4,245.3,711.6,235.1,690.5,226.9z"/>
		<path class="st1" d="M752,172.6c-5.5-0.1-10,4.2-10.2,9.7c0,0.2,0,0.4,0,0.5c-0.2,5.3,4,9.8,9.4,10c0.1,0,0.3,0,0.4,0
			c6.5,0,10.6-4.4,10.4-10C762,177.1,758.1,172.6,752,172.6z"/>
		<rect x="743.8" y="208" class="st1" width="16.3" height="89.7"/>
		<path class="st1" d="M885.8,206c-8.5,0-14.5,2.2-19.8,6.3c-4.1,3.1-7.5,7.1-10,11.7h-0.4c-3.9-10.6-13.2-18-25.4-18
			c-14.8,0-23.2,8-28.2,16.5h-0.6l-0.7-14.5h-14.3c0.6,7.4,0.7,15,0.7,24.3v65.4h15.9v-54.1c-0.1-2.7,0.4-5.4,1.3-8
			c2.6-8.1,10-16.3,20.2-16.3c12.4,0,18.7,10.4,18.7,24.6v53.7h15.9v-55.3c0-2.8,0.4-5.5,1.3-8.1c2.8-8,10-14.8,19.3-14.8
			c13.2,0,19.5,10.4,19.5,27.6v50.8h15.9v-52.8C915.2,213.8,897.6,206,885.8,206z"/>
		<path class="st1" d="M988.8,206c-14.5,0-24.8,6.5-30.6,16.5h-0.4v-56.3h-16.1v108.4c0,8-0.4,17-0.7,23.2h14l0.7-14.8h0.6
			c6.7,11.9,17,16.9,30,16.9c20,0,40.2-15.9,40.2-48C1026.7,224.5,1011,206,988.8,206z M983,286.8c-11.9,0-21.3-7.8-24.5-19.1
			c-0.4-1.9-0.7-3.9-0.7-5.9v-16.1c0.1-2.2,0.4-4.5,0.9-6.7c3.3-12.4,13.7-20,24.8-20c17.4,0,26.7,15.4,26.7,33.3
			C1010.3,272.9,1000.1,286.8,983,286.8z"/>
	</g>
</g>
</svg>
