<svg xmlns="http://www.w3.org/2000/svg" viewBox="0 0 153.16 212.73"><defs><style>.cls-1{fill:#ed1921;stroke:#ed1921;stroke-miterlimit:2.61;stroke-width:2.14px;}</style></defs><title>maxima2</title><g id="Layer_2" data-name="Layer 2"><g id="Layer_1-2" data-name="Layer 1"><path id="path4556" class="cls-1" d="M151.66,182.9,146.48,188a15.71,15.71,0,0,0-3.32-.37c-2,0-3.7,1.12-5.17,3.33-.73,1.47.15,3.4,2.59,5.9a97.67,97.67,0,0,0,8.11,6.28v.74c0,.72.38,3.32,1.1,7.74q-22.49,0-40.2-8.86-11-5.52-34.3-23.61A205.89,205.89,0,0,1,58.17,163,147.74,147.74,0,0,1,44,144.54L1.17,179.94l1.12-26.56,28-33.93A110.22,110.22,0,0,1,16.67,101,128.44,128.44,0,0,1,10,84.6,91.82,91.82,0,0,1,6.34,68.18C7.58,65.75,8.18,64,8.18,63L7.07,58.24,46.9,17.66l31.73,52L139.1,3.27c1.25-1.47,2.23-2.2,3-2.2,1.71,0,2.59,3.32,2.59,10a136.23,136.23,0,0,1-1.1,17c-.74,5.91-1.25,10-1.49,12.19q-3.31,16.91-25.45,35-14.73,12.18-21.38,21c1.46,3.4,2.71,6.13,3.67,8.12q8.85,18.38,15.12,29.13a288.84,288.84,0,0,0,17.33,26.18A266.16,266.16,0,0,0,151.66,182.9Z"/></g></g></svg>