<svg xmlns="http://www.w3.org/2000/svg" viewBox="0 0 39.13 47.71"><defs><style>.cls-1{fill:#fefafa;}.cls-2{fill:#3aa8d9;}</style></defs><title>rimi</title><g id="Layer_2" data-name="Layer 2"><g id="Layer_1-2" data-name="Layer 1"><path class="cls-1" d="M2.79,2A37.33,37.33,0,0,1,14,0c2.45,0,5.16.73,6.73,2.75C22.44,5,22.42,8.16,22,10.89a53.73,53.73,0,0,1-4.36,12.78A81,81,0,0,1,6.55,41.61,33.2,33.2,0,0,1,0,47.71,112.83,112.83,0,0,0,5.83,31a55.07,55.07,0,0,0,2-16.37C7.54,10.35,6.39,5.9,3.33,2.78c-.18-.25-.58-.41-.54-.76Z"/><path class="cls-2" d="M23.32,5.79A30.13,30.13,0,0,1,34,4.73C36,5,38.21,6.2,38.85,8.32c.86,2.77-.43,5.55-1.46,8.07C31.89,28.77,20.95,38.15,8.6,43.33A137.27,137.27,0,0,0,21.26,24.24a41,41,0,0,0,4-10.16c.44-2.13.6-4.49-.48-6.46a19.77,19.77,0,0,0-1.45-1.83Z"/></g></g></svg>