<svg xmlns="http://www.w3.org/2000/svg" viewBox="0 0 42.22 41.77"><defs><style>.cls-1{fill:#fc0;}</style></defs><title>ryanair2</title><g id="Layer_2" data-name="Layer 2"><g id="Capa_1" data-name="Capa 1"><path class="cls-1" d="M41.43,3.41a23.67,23.67,0,0,1-2.57.69,8.08,8.08,0,0,1-1.63.07,20.52,20.52,0,0,1-3.06-.3l-1.82-.39c-1.82-.39-3.94-1.08-4.27-1.18s-3.32-.92-5.5-1.51A19.06,19.06,0,0,0,17.21,0a5.39,5.39,0,0,0-3.77,1.62A21.63,21.63,0,0,1,9.62,5.13c-.24.15-.72.63-1.19.63s-.4-.38-.32-.56a2.83,2.83,0,0,0,.38-.72,6.2,6.2,0,0,0,.29-1.7c0-.7-.4-1.11-1.24-1.44a6.21,6.21,0,0,0-2.34-.25c-.25,0-.09-.05-.32,0a6.88,6.88,0,0,0-1.54.3A.67.67,0,0,0,2.84,2a5.28,5.28,0,0,1-.39,1.94A2.17,2.17,0,0,0,2.32,5c0,.41-.14.47,0,.67s.32.26,1.11.43a1.33,1.33,0,0,1,.89.79.71.71,0,0,1-.15.94C3.5,8.64,1.79,9.4.73,10.12a1.23,1.23,0,0,0-.31,2c.48.43.72.61.76,1.24.13,2.39,1.73,4.74,2.29,5.67S5,21.56,5.39,22.36a14.39,14.39,0,0,0,4.18,3.77c4.21,2.83,6.36,4.46,8.25,6.62A63.28,63.28,0,0,1,23.43,41c.32.59.61.83.77.71s.2-.59.08-.94A62.85,62.85,0,0,0,20.93,32a13.45,13.45,0,0,0-2.82-3.81c-1.76-1.72-2.39-1.09-4.06-3.36A35.46,35.46,0,0,1,10.75,19a3.79,3.79,0,0,0-1.52-2.08,10.41,10.41,0,0,1-1.46-1.22A1.43,1.43,0,0,1,7.43,14c1.87-5.62,5.2-7.69,10.65-7.69,4.41,0,7.46,1.57,12.6,1.57A22.09,22.09,0,0,0,42.06,4C42.31,3.75,42.36,3,41.43,3.41ZM18.63,8.17a1.65,1.65,0,0,0-2.12,1.09,32,32,0,0,0-2.61,10c-.05,1,.8.93,1,.41,1.71-5.17,2.86-8.05,4.11-9.82C19.62,8.94,19.29,8.44,18.63,8.17Zm-1,16.63c.41,0,.41-.6.93-2.23a82,82,0,0,1,3.54-7.46c.71-1.39,2-3.81,2.18-4.46s.44-1.36-.41-1.63a1.41,1.41,0,0,0-2,.71A37.65,37.65,0,0,0,20,13.61a42.42,42.42,0,0,0-2.8,8.68C17.11,23.9,17.27,24.83,17.68,24.8Zm3.54,4.82c.35.05.44-.47.49-.63.11-.33.44-1.41,1.12-3.7a32.81,32.81,0,0,1,3.54-7.16c.79-1.31,3.56-6.37,3.81-6.94s.62-1.44-.6-1.8-1.71.05-2.34,1.09c0,0-1.47,2.69-2.42,4.54a31.28,31.28,0,0,0-2.61,6,41.31,41.31,0,0,0-1.39,8.08C20.82,29.45,21,29.58,21.22,29.62ZM35.75,9.34c-1.22-.41-2.11,0-2.75,1.77-1,2.61-3.56,7.27-5.5,11.18a38.48,38.48,0,0,0-3.76,12.27c-.06.6.21,1.21.41,1.25s.54-.7.65-1.12a75,75,0,0,1,3.32-8.57,95.32,95.32,0,0,1,5.71-9.47,30.05,30.05,0,0,0,2.56-5.5C36.54,10.62,37,9.75,35.75,9.34Z"/></g></g></svg>