<svg xmlns="http://www.w3.org/2000/svg" viewBox="0 0 65.06 100"><defs><style>.cls-1{fill:#ff6f00;}</style></defs><title>spending_1</title><g id="Layer_2" data-name="Layer 2"><g id="Layer_2-2" data-name="Layer 2"><path class="cls-1" d="M22.52,55A22.52,22.52,0,1,0,45,77.48,22.53,22.53,0,0,0,22.52,55Zm3.57,32.45h-7V73.91h-5l7-7h5.43v20.5Z"/><path class="cls-1" d="M47.52,50a16.94,16.94,0,0,0-11,4,34.13,34.13,0,0,1,7.92,7L46,59.47h4v18a61.09,61.09,0,0,1-.93,7.45A17.5,17.5,0,0,0,47.52,50Z"/><path class="cls-1" d="M15.69,17.24a.81.81,0,0,0,.74.5h8.83V37.89a.81.81,0,0,0,.81.81H39a.81.81,0,0,0,.81-.81V17.74h8.86a.81.81,0,0,0,.57-1.37L33.13.24A.81.81,0,0,0,32,.24L15.86,16.37A.8.8,0,0,0,15.69,17.24Z"/></g></g></svg>