<svg xmlns="http://www.w3.org/2000/svg" viewBox="0 0 65.06 99.37"><defs><style>.cls-1{fill:#43a047;}</style></defs><title>income</title><g id="Layer_2" data-name="Layer 2"><g id="Layer_2-2" data-name="Layer 2"><polygon class="cls-1" points="13.5 19.03 32.53 38.07 51.56 19.03 46.16 13.63 36 23.8 36 0 29.06 0 29.06 23.8 18.9 13.63 13.5 19.03"/><path class="cls-1" d="M22.52,54.34A22.52,22.52,0,1,0,45,76.85,22.53,22.53,0,0,0,22.52,54.34Zm3.57,32.45h-7V73.28h-5l7-7h5.43v20.5Z"/><path class="cls-1" d="M47.52,49.37a16.94,16.94,0,0,0-11,4,34.13,34.13,0,0,1,7.92,7L46,58.84h4v18a61.09,61.09,0,0,1-.93,7.45,17.5,17.5,0,0,0-1.55-34.94Z"/></g></g></svg>