<?xml version="1.0" encoding="UTF-8"?>
<svg xmlns="http://www.w3.org/2000/svg" xmlns:xlink="http://www.w3.org/1999/xlink" width="48pt" height="48pt" viewBox="0 0 48 48" version="1.1">
<g id="surface1">
<path style="fill:none;stroke-width:2;stroke-linecap:butt;stroke-linejoin:round;stroke:rgb(98.431373%,54.901961%,0%);stroke-opacity:1;stroke-miterlimit:10;" d="M 12 20.900391 L 12 16 " transform="matrix(2,0,0,2,0,0)"/>
<path style="fill:none;stroke-width:2;stroke-linecap:butt;stroke-linejoin:miter;stroke:rgb(98.431373%,54.901961%,0%);stroke-opacity:1;stroke-miterlimit:10;" d="M 7 21 L 17 21 " transform="matrix(2,0,0,2,0,0)"/>
<path style="fill:none;stroke-width:2;stroke-linecap:butt;stroke-linejoin:miter;stroke:rgb(98.431373%,54.901961%,0%);stroke-opacity:1;stroke-miterlimit:10;" d="M 12 16 C 8.699219 16 6 13.099609 6 10 C 6 6.900391 7 3 7 3 L 17 3 C 17 3 18 6.699219 18 10 C 18 13.300781 15.300781 16 12 16 Z " transform="matrix(2,0,0,2,0,0)"/>
<path style=" stroke:none;fill-rule:nonzero;fill:rgb(98.431373%,54.901961%,0%);fill-opacity:1;" d="M 28 32 C 22.398438 32 18 27.601563 18 22 L 18 14 L 36 14 L 36 24 C 36 28.398438 32.398438 32 28 32 Z "/>
</g>
</svg>
