<svg xmlns="http://www.w3.org/2000/svg" viewBox="0 0 8006.97 7305.28"><defs><style>.cls-1{fill:#3f51b5;stroke:#3f51b5;stroke-miterlimit:10;stroke-width:22px;}</style></defs><title>car-insurance</title><g id="Layer_2" data-name="Layer 2"><g id="Layer_1-2" data-name="Layer 1"><path class="cls-1" d="M6265,5232.28v960c0,121-121,229-230,229H2083c-127,0-230-103-230-229v-960Zm-3189,528v133H5042v-133Zm-550-239c-182,0-329,148-329,329,0,182,147,329,329,329,181,0,329-147,329-329C2855,5669.28,2707,5521.28,2526,5521.28Zm3066,658c182,0,329-147,329-329,0-181-147-329-329-329s-329,148-329,329C5263,6032.28,5410,6179.28,5592,6179.28Z"/><path class="cls-1" d="M6260,5215.28H1858l498-1113h0l11-25h0c58-130,177-398,294-398H5449C5661,3679.28,6159,4990.28,6260,5215.28Zm-1065-1348H2916c-169,0-599,995-681,1159H5883C5797,4855.28,5381,3867.28,5195,3867.28Z"/><path class="cls-1" d="M5951,7183.28c-11,63-66,111-133,111H5451c-67,0-122-49-133-113-11-22-18-46-18-72v-667h669v667C5969,7136.28,5963,7161.28,5951,7183.28Z"/><path class="cls-1" d="M2800,7174.28c-8,63-67,120-133,120H2299c-66,0-122-49-132-113-12-22-19-46-19-72v-667h670v667C2818,7132.28,2811,7154.28,2800,7174.28Z"/><path class="cls-1" d="M2654,3392.28c22-324,148-1141,454-1945,203-532,485-1058,868-1432-1088,2-2073,387-2790,1009-687,597-1128,1413-1175,2319,43-238,184-451,390-611,521-406,1354-402,1869,11C2482,2913.28,2623,3139.28,2654,3392.28Z"/><path class="cls-1" d="M5353,3394.28c33-251,174-475,385-643,519-414,1359-414,1878,0,201,160,339,372,380,608-43-906-479-1723-1162-2323-718-629-1709-1019-2803-1021,383,374,665,900,867,1432C5205,2252.28,5331,3070.28,5353,3394.28Z"/><path class="cls-1" d="M5352.4,3392.28c-29.71-352.91-160.87-1145.95-461.08-1926.82C4683.32,926,4394.38,392.53,4003,15.28,3611.57,392.53,3323.65,926,3115.65,1465.46c-298.17,773.77-429.32,1558.69-461.08,1916.68C2700.68,3149.9,2840,2942,3040.85,2783.81c531.78-419.84,1391.44-419.84,1924.25,0C5169,2944,5308.34,3156,5352.4,3392.28Z"/></g></g></svg>