<svg xmlns="http://www.w3.org/2000/svg" viewBox="0 0 76.92 89.95"><defs><style>.cls-1{fill:#3f51b5;}</style></defs><title>car-insurance</title><g id="Layer_2" data-name="Layer 2"><g id="Layer_1-2" data-name="Layer 1"><path class="cls-1" d="M49.1,31.85c0-.1-.3-.6-1.1-.7H28.6c-.9.1-1.1.6-1.1.7v.1l-3.4,7.6H52.4Z"/><path class="cls-1" d="M76,18.55l-.9-4.6-7.58.18C56.77,5.4,38.46,0,38.46,0S19.9,5.25,9.35,14.25L1.8,14l-.9,4.6a77.56,77.56,0,0,0,.7,27.5c2.7,13.8,11.1,32.5,34.5,42.8l2.3,1,2.2-1c23.5-10.3,31.9-29,34.8-42.8A79.28,79.28,0,0,0,76,18.55ZM58.2,43l-1,.1c1.5,3,2.8,8-1.5,12.3a2.75,2.75,0,0,1-1.6,1v2.5a1.69,1.69,0,0,1-1.7,1.7H50.1a1.69,1.69,0,0,1-1.7-1.7v-2.3H28.3v2.4a1.69,1.69,0,0,1-1.7,1.7H24.3a1.69,1.69,0,0,1-1.7-1.7v-2.5a10.89,10.89,0,0,1-1.7-1c-4.2-4.3-2.6-9.4-1.1-12.3L18.6,43c-2.3-.6-2-2.3-1.8-3.3a1.49,1.49,0,0,1,1-1.2l3.6.4L24.7,31a4.11,4.11,0,0,1,3.6-2.6H48.1A4.11,4.11,0,0,1,51.7,31L55.1,39l3.7-.4a1.49,1.49,0,0,1,1,1.2A2.12,2.12,0,0,1,58.2,43Z"/><path class="cls-1" d="M26,44.45A2.5,2.5,0,1,0,28.5,47,2.54,2.54,0,0,0,26,44.45Z"/><path class="cls-1" d="M50.3,44.45A2.5,2.5,0,1,0,52.8,47,2.54,2.54,0,0,0,50.3,44.45Z"/></g></g></svg>