<?xml version="1.0" encoding="UTF-8"?>
<svg xmlns="http://www.w3.org/2000/svg" xmlns:xlink="http://www.w3.org/1999/xlink" width="48pt" height="48pt" viewBox="0 0 48 48" version="1.1">
<g id="surface1">
<path style=" stroke:none;fill-rule:nonzero;fill:rgb(98.431373%,54.901961%,0%);fill-opacity:1;" d="M 39 12.199219 C 37.398438 11.800781 35.601563 12 33.398438 12.601563 C 33.199219 14 33 15.800781 32.601563 17.601563 C 34.601563 16.398438 36.398438 16.199219 37.601563 16.601563 C 40 17.398438 39.398438 20 38.601563 21.199219 C 37.199219 23.601563 34.601563 24 31.199219 23.800781 C 30.800781 25.398438 30.398438 26.800781 29.800781 28.199219 C 34.199219 28.601563 39.199219 28.199219 42.199219 23.601563 C 44.398438 20.601563 45.601563 13.601563 39 12.199219 Z "/>
<path style=" stroke:none;fill-rule:nonzero;fill:rgb(98.431373%,54.901961%,0%);fill-opacity:1;" d="M 32.800781 17.601563 C 33.199219 15.800781 33.398438 14 33.601563 12.601563 C 33.800781 9.800781 34 8 34 8 L 8 8 C 8 8 9.398438 25.601563 14 32 L 28 32 C 28.800781 30.800781 29.398438 29.398438 30 27.800781 C 30.601563 26.398438 31 25 31.398438 23.398438 C 32 21.601563 32.398438 19.601563 32.800781 17.601563 Z "/>
<path style=" stroke:none;fill-rule:nonzero;fill:rgb(98.431373%,54.901961%,0%);fill-opacity:1;" d="M 31.199219 40 C 35.800781 38 38 34 38 34 L 4 34 C 4 34 6.199219 38 10.800781 40 Z "/>
</g>
</svg>
