<?xml version="1.0" encoding="utf-8"?>
<!-- Generator: Adobe Illustrator 21.0.0, SVG Export Plug-In . SVG Version: 6.00 Build 0)  -->
<svg version="1.1" id="Layer_1" xmlns="http://www.w3.org/2000/svg" xmlns:xlink="http://www.w3.org/1999/xlink" x="0px" y="0px"
	 viewBox="0 0 52 52" style="enable-background:new 0 0 52 52;" xml:space="preserve">
<style type="text/css">
	.st0{fill:#F4511E;}
</style>
<g id="surface1">
	<path class="st0" d="M18.1,15.5C8,15.5,0,23.5,0,33.6s8,18.1,18.1,18.1s18.1-8,18.1-18.1S28.2,15.5,18.1,15.5z M16.8,28.5
		c-2.1,0-3.9-1.8-3.9-3.9s1.8-3.9,3.9-3.9s3.9,1.8,3.9,3.9S18.9,28.5,16.8,28.5z M25.9,31c-1.6,0-2.6-1-2.6-2.6s1-2.6,2.6-2.6
		c1.6,0,2.6,1,2.6,2.6S27.5,31,25.9,31z M18.1,36.2c-1.6,0-2.6-1-2.6-2.6s1-2.6,2.6-2.6s2.6,1,2.6,2.6S19.7,36.2,18.1,36.2z"/>
	<path class="st0" d="M38.6,10.6c0,0.8,0,1.6-0.3,2.3h8.8c0-0.8-0.3-1.6-0.3-2.3c0-1,0.5-2.3,0.8-3.6c0.3-1,0.3-2.1,0-3.1
		C47.1,2,45.8,0.5,44,0.2c-3.6-1-6.7,1.8-6.7,5.2c0,0.5,0,1,0.3,1.6C38.1,8,38.6,9.8,38.6,10.6z"/>
	<path class="st0" d="M47.7,15.5h-9.6c-0.5,2.1-1,4.4-1.6,6c2.3,3.6,3.6,7.8,3.6,12.2c0,5.2-1.8,9.8-4.7,13.7c0.5,1,3.6,1.8,7.5,1.8
		c4.1,0,7.5-1,7.5-2.1c0-0.5,0.8-6.2,1.3-10.9c0.5-4.7,0-7.5-1.6-11.9C49.7,23,48.4,19.4,47.7,15.5z"/>
</g>
</svg>
