<svg xmlns="http://www.w3.org/2000/svg" viewBox="0 0 45.94 45.95"><defs><style>.cls-1{fill:#e91e63;}</style></defs><title>hobbies</title><g id="Layer_2" data-name="Layer 2"><g id="Layer_1-2" data-name="Layer 1"><g id="surface1"><path class="cls-1" d="M31.17,26.88c-2.51,0-6-1.86-8-4.22a5.29,5.29,0,0,1-1.45-4.31A1.08,1.08,0,0,1,21.9,18L34.05.43A1,1,0,0,1,34.88,0H44.94a1,1,0,0,1,.88,1.47L32.69,26.29a1,1,0,0,1-.7.52A5,5,0,0,1,31.17,26.88Z"/><path class="cls-1" d="M31.17,28.88c-3.09,0-7.18-2.12-9.52-4.94a7.86,7.86,0,0,1-1.94-4.27C13,21.21,11.35,26.62,9.77,31.88S6.73,42,.68,44A1,1,0,0,0,1,45.95c19.55,0,29.47-2.65,30.6-17.11C31.46,28.85,31.32,28.88,31.17,28.88Z"/></g></g></g></svg>