<?xml version="1.0" encoding="iso-8859-1"?>
<!-- Generator: Adobe Illustrator 19.0.0, SVG Export Plug-In . SVG Version: 6.00 Build 0)  -->
<svg xmlns="http://www.w3.org/2000/svg" xmlns:xlink="http://www.w3.org/1999/xlink" version="1.1" id="Capa_1" x="0px" y="0px" viewBox="0 0 512.001 512.001" style="enable-background:new 0 0 512.001 512.001;" xml:space="preserve" width="512px" height="512px">
<g>
	<g>
		<path d="M389.836,124.251c44.131-17.896,83.721-44.183,117.669-78.131c5.995-5.994,5.995-15.715,0-21.711    c-5.995-5.994-15.715-5.995-21.711,0c-126.709,126.708-332.877,126.708-459.586,0c-5.994-5.995-15.715-5.995-21.711,0    c-5.995,5.995-5.995,15.715,0,21.711c33.947,33.948,73.538,60.235,117.669,78.131c37.882,15.361,77.671,23.975,118.484,25.703    v41.519c-15.334-9.994-33.146-15.524-51.491-15.524c-54.374,0-98.611,47.147-98.611,105.098c0,17.131,3.956,34.138,11.425,49.153    c51.697,104.49,142.529,157.632,146.37,159.843c2.37,1.364,5.014,2.047,7.659,2.047c2.645,0,5.288-0.683,7.659-2.047    c3.841-2.212,94.673-55.353,146.356-159.814c7.484-15.045,11.439-32.052,11.439-49.183c0-57.952-44.237-105.098-98.611-105.098    c-18.344,0-36.157,5.53-51.491,15.524v-41.519C312.165,148.225,351.954,139.613,389.836,124.251z" fill="#e91e63"/>
	</g>
</g>
<g>
</g>
<g>
</g>
<g>
</g>
<g>
</g>
<g>
</g>
<g>
</g>
<g>
</g>
<g>
</g>
<g>
</g>
<g>
</g>
<g>
</g>
<g>
</g>
<g>
</g>
<g>
</g>
<g>
</g>
</svg>
