<svg xmlns="http://www.w3.org/2000/svg" viewBox="0 0 512 512"><defs><style>.cls-1{fill:#5e35b1;}</style></defs><title>sales-tax</title><g id="Layer_2" data-name="Layer 2"><g id="Layer_4_copy_7" data-name="Layer 4 copy 7"><path class="cls-1" d="M211,376.5A165.26,165.26,0,0,1,278.7,243c-10-43.39-32.78-102.42-84.3-126.4,6.3-9.6,12.37-19.35,18.12-29.28,7.57-13.08,14.65-26.64,19.67-40.92,4.33-12.33,6.38-28.51-4.18-38.46a19,19,0,0,0-3-2.29c-.2-.16-.4-.33-.61-.49C214.25-2.42,199.3-.17,187.93,2.62c-9.34,2.3-18.26,6.05-27.12,9.7a201,201,0,0,1-18.92,6.91c-6.88,2-12.36,3.73-21.14-1.11-2.29-1.26-4.56-2.53-6.91-3.68C106.7,11,99.58,8.79,91.57,8.82,77,8.87,62.16,16.73,55.14,29.68,49,41.09,50.36,52,55.34,63.24,62.53,79.45,75.74,93.71,87.16,107q3.66,4.27,7.41,8.47C6.38,154,.19,293.92.19,293.92S-11.25,416.59,143.26,416.59c28.84,0,51.93-3.85,70.44-10.17A166.44,166.44,0,0,1,211,376.5ZM165.69,249.36h0a14,14,0,1,1,0,28H125.32c5.33,21,22.31,36.44,42.4,36.44A38.89,38.89,0,0,0,181,311.5a14,14,0,1,1,9.51,26.37,66.89,66.89,0,0,1-22.76,4c-35.68,0-65.38-28.3-71.16-65.34a14,14,0,0,1,0-26.29c5.78-37,35.48-65.33,71.16-65.33a66.94,66.94,0,0,1,22.76,4A14,14,0,1,1,181,215.24a39,39,0,0,0-13.24-2.32c-20.09,0-37.07,15.42-42.4,36.44Z"/></g><g id="Layer_11" data-name="Layer 11"><path class="cls-1" d="M376.5,241A135.5,135.5,0,1,0,512,376.5,135.5,135.5,0,0,0,376.5,241ZM307,334.1a25.06,25.06,0,1,1,25.06,25.06A25.06,25.06,0,0,1,307,334.1Zm42.29,95.08a18,18,0,1,1-25.51-25.51l79.85-79.85a18,18,0,1,1,25.51,25.51Zm69.28,16.49a25.06,25.06,0,1,1,25.06-25.06A25.06,25.06,0,0,1,418.61,445.67Z"/></g></g></svg>