<?xml version="1.0" encoding="UTF-8"?>
<svg xmlns="http://www.w3.org/2000/svg" xmlns:xlink="http://www.w3.org/1999/xlink" width="50pt" height="50pt" viewBox="0 0 50 50" version="1.1">
<g id="surface1">
<path style=" stroke:none;fill-rule:nonzero;fill:rgb(91.372549%,11.764706%,38.823529%);fill-opacity:1;" d="M 34 20 C 33.445313 20 33 19.550781 33 19 L 33 11 C 33 6.589844 29.410156 3 25 3 C 20.589844 3 17 6.589844 17 11 L 17 19 C 17 19.550781 16.550781 20 16 20 C 15.449219 20 15 19.550781 15 19 L 15 11 C 15 5.484375 19.484375 1 25 1 C 30.515625 1 35 5.484375 35 11 L 35 19 C 35 19.550781 34.554688 20 34 20 Z "/>
<path style=" stroke:none;fill-rule:nonzero;fill:rgb(91.372549%,11.764706%,38.823529%);fill-opacity:1;" d="M 42.894531 13 L 37 13 L 37 19 C 37 20.65625 35.65625 22 34 22 C 33.777344 22 33.5625 21.972656 33.355469 21.925781 C 33.351563 21.925781 33.347656 21.925781 33.34375 21.925781 C 32.003906 21.625 31 20.433594 31 19 C 31 17.34375 32.34375 16 34 16 C 34.351563 16 34.6875 16.070313 35 16.183594 L 35 13 L 19 13 L 19 19 C 19 20.65625 17.65625 22 16 22 C 15.777344 22 15.5625 21.972656 15.355469 21.925781 C 15.351563 21.925781 15.351563 21.925781 15.347656 21.925781 C 14.003906 21.625 13 20.433594 13 19 C 13 17.34375 14.34375 16 16 16 C 16.351563 16 16.6875 16.070313 17 16.183594 L 17 13 L 7.109375 13 L 2.878906 50 L 47.121094 50 Z "/>
</g>
</svg>
