<?xml version="1.0" encoding="UTF-8"?>
<svg xmlns="http://www.w3.org/2000/svg" xmlns:xlink="http://www.w3.org/1999/xlink" width="48pt" height="48pt" viewBox="0 0 48 48" version="1.1">
<g id="surface1">
<path style=" stroke:none;fill-rule:nonzero;fill:rgb(91.372549%,11.764706%,38.823529%);fill-opacity:1;" d="M 40 14 L 8 14 C 5.789063 14 4 15.789063 4 18 L 4 40 C 4 42.210938 5.789063 44 8 44 L 40 44 C 42.210938 44 44 42.210938 44 40 L 44 18 C 44 15.789063 42.210938 14 40 14 Z M 24 24 C 24 21.789063 25.789063 20 28 20 C 30.210938 20 32 21.789063 32 24 C 32 26.210938 30.210938 28 28 28 C 25.789063 28 24 26.210938 24 24 Z M 30.179688 38 L 28 32.410156 L 39.234375 28.03125 L 41.410156 33.621094 Z "/>
<path style="fill:none;stroke-width:2;stroke-linecap:butt;stroke-linejoin:miter;stroke:rgb(91.372549%,11.764706%,38.823529%);stroke-opacity:1;stroke-miterlimit:10;" d="M 15 6 L 15 5 C 15 3.894531 14.105469 3 13 3 L 11 3 C 9.894531 3 9 3.894531 9 5 L 9 6 " transform="matrix(2,0,0,2,0,0)"/>
</g>
</svg>
