<?xml version="1.0" encoding="utf-8"?>
<!-- Generator: Adobe Illustrator 21.0.0, SVG Export Plug-In . SVG Version: 6.00 Build 0)  -->
<svg version="1.1" id="Layer_1" xmlns="http://www.w3.org/2000/svg" xmlns:xlink="http://www.w3.org/1999/xlink" x="0px" y="0px"
	 viewBox="0 0 128 128" style="enable-background:new 0 0 128 128;" xml:space="preserve">
<style type="text/css">
	.st0{fill:#00ACC1;}
	.st1{display:none;fill:#FFFFFF;}
</style>
<title>transfer-between-accounts</title>
<g>
	<path class="st0" d="M1.3,35.5l0.1,0.1l39.4,22.6l0.1,0.1c0.7,0.3,1.2,0.5,1.6,0.5c0.7,0,0.8-1.3,0.8-2V45.9c0-2.3,1.9-4.2,4.2-4.2
		h79.3c0.6,0,1.1-0.5,1.1-1.1V27.9c0-0.6-0.5-1.1-1.1-1.1H47.5c-2.3,0-4.2-1.9-4.2-4.2V11.8c0-0.8-0.1-2-0.8-2
		c-0.4,0-0.8,0.1-1.4,0.4l-0.1,0.1l-0.3,0.1L1.3,33.1C1,33.3,0.7,33.6,0.5,34c0,0.1-0.1,0.1-0.1,0.3c0,0,0,0.1,0,0.1
		C0.6,34.9,0.9,35.3,1.3,35.5z"/>
	<path class="st1" d="M1.5,38.9l38.3,22c0.1,0.1,0.3,0.2,0.5,0.2c1,0.5,1.9,0.7,2.8,0.7c1.8,0,3.8-1.3,3.8-5V46.3
		c0-0.6,0.5-1.1,1.1-1.1h77.4c2.2,0,4.1-1.8,4.1-4.1V28.8c0-2.2-1.8-4.1-4.1-4.1H47.9c-0.6,0-1.1-0.5-1.1-1.1V13.1c0-3.7-2-5-3.8-5
		c-0.9,0-1.8,0.2-2.9,0.8L39.8,9l-0.1,0.1l-38.2,22c-0.9,0.5-1.7,1.2-2.2,2.3C-1,34-1,34.5-1.1,34.8l0,0.2c0,0.6,0.2,1.2,0.4,1.6
		C-0.2,37.6,0.6,38.4,1.5,38.9z M2,34.7c0.2-0.4,0.5-0.7,0.9-0.9l38.5-22.2l0.3-0.1l0.1-0.1c0.6-0.3,1-0.4,1.4-0.4
		c0.7,0,0.8,1.2,0.8,2v10.6c0,2.2,1.8,4.1,4.1,4.1h77.4c0.6,0,1.1,0.5,1.1,1.1v12.4c0,0.6-0.5,1.1-1.1,1.1H47.9
		c-2.2,0-4.1,1.8-4.1,4.1v10.6c0,0.7-0.1,2-0.8,2c-0.4,0-0.9-0.1-1.6-0.5l-0.1-0.1L2.9,36.2l-0.1-0.1c-0.4-0.2-0.7-0.6-0.9-1
		c0,0,0-0.1,0-0.1C1.9,34.9,1.9,34.8,2,34.7z"/>
	<path class="st0" d="M128,94.2c0-0.1,0-0.2-0.1-0.2l0-0.1c-0.2-0.5-0.5-0.8-0.9-0.9l-0.1-0.1L87.4,70.2c-0.7-0.3-1.2-0.5-1.6-0.5
		c-0.7,0-0.8,1.3-0.8,2v10.8c0,2.3-1.9,4.2-4.2,4.2H1.6c-0.6,0-1.1,0.5-1.1,1.1v12.8c0,0.6,0.5,1.1,1.1,1.1h79.3
		c2.3,0,4.2,1.9,4.2,4.2v10.8c0,0.8,0.1,2,0.8,2c0.4,0,0.8-0.1,1.4-0.4l0.1-0.1l0.3-0.1l39.5-22.7c0.4-0.2,0.6-0.5,0.9-0.9
		C128,94.3,128,94.3,128,94.2z"/>
	<path class="st1" d="M129.5,93.3c-0.1-0.6-0.2-1.1-0.4-1.5c-0.5-1-1.3-1.8-2.2-2.2l-38.3-22c-0.1-0.1-0.3-0.2-0.4-0.2
		c-1-0.5-1.9-0.7-2.8-0.7c-1.8,0-3.8,1.3-3.8,5v10.5c0,0.6-0.5,1.1-1.1,1.1H3.1c-2.2,0-4.1,1.8-4.1,4.1v12.4c0,2.2,1.8,4.1,4.1,4.1
		h77.4c0.6,0,1.1,0.5,1.1,1.1v10.6c0,3.7,2,5,3.8,5c0.9,0,1.8-0.2,2.9-0.8l0.3-0.1l0.1-0.1l38.2-22c0.9-0.5,1.7-1.2,2.2-2.3
		c0.3-0.6,0.3-1,0.4-1.4l0-0.2L129.5,93.3z M125.6,94.6l-38.5,22.1l-0.3,0.1l-0.1,0.1c-0.6,0.3-1,0.4-1.4,0.4c-0.7,0-0.8-1.2-0.8-2
		v-10.6c0-2.2-1.8-4.1-4.1-4.1H3.1c-0.6,0-1.1-0.5-1.1-1.1V87.2c0-0.6,0.5-1.1,1.1-1.1h77.4c2.2,0,4.1-1.8,4.1-4.1V71.5
		c0-0.7,0.1-2,0.8-2c0.4,0,0.9,0.1,1.6,0.5l38.5,22.1l0.1,0.1c0.3,0.2,0.6,0.5,0.9,0.9l0,0.1c0,0,0,0.1,0.1,0.2c0,0.1,0,0.2-0.1,0.2
		C126.2,94.1,125.9,94.4,125.6,94.6z"/>
</g>
</svg>
