<?xml version="1.0" encoding="utf-8"?>
<!-- Generator: Adobe Illustrator 21.0.0, SVG Export Plug-In . SVG Version: 6.00 Build 0)  -->
<svg version="1.1" id="Layer_1" xmlns="http://www.w3.org/2000/svg" xmlns:xlink="http://www.w3.org/1999/xlink" x="0px" y="0px"
	 viewBox="0 0 512 512" style="enable-background:new 0 0 512 512;" xml:space="preserve">
<style type="text/css">
	.st0{fill:#1E88E5;}
</style>
<g>
	<path class="st0" d="M407.3,0c-62.1,0-104.5,35.8-141.9,67.4c-31.2,26.3-58,49-90.8,49h-128c-32,0-46.5,60.3-46.5,116.4
		c0,56,14.6,116.4,46.5,116.4h128c32.8,0,59.7,22.7,90.8,49c37.4,31.6,79.8,67.4,141.9,67.4C476,465.5,512,348.4,512,232.7
		S476,0,407.3,0z M407.3,418.9c-19.8,0-58.2-65.7-58.2-186.2s38.4-186.2,58.2-186.2c19.8,0,58.2,65.7,58.2,186.2
		S427,418.9,407.3,418.9z"/>
	<path class="st0" d="M390,165.4c-3.4-0.8-6.8-0.2-9.6,1.7c-2.8,1.9-4.6,5-5,8.3c-2.1,19.4-3.1,38.2-3.1,57.3
		c0,19.2,1,37.9,3.1,57.3c0.4,3.4,2.2,6.4,5,8.3c2,1.4,4.3,2,6.6,2c1,0,2-0.1,2.9-0.4c30.7-8,52.2-35.7,52.2-67.3
		C442.2,201.1,420.7,173.4,390,165.4z"/>
	<path class="st0" d="M217.3,430.5c-6.7,0-12.5-4.2-14.6-10.5l-13.1-39.3c-1.4-4.2-6.4-7.4-10.8-8c-1.4-0.2-2.9-0.3-4.2-0.3H94.7
		c-3.7,0-7.1,1.7-9.3,4.6c-2.2,2.9-2.9,6.7-1.9,10.2l26,91c5.7,19.9,24.1,33.8,44.8,33.8h63c21.3,0,38.7-17.4,38.7-38.7v-4.1
		C256,447.9,238.6,430.5,217.3,430.5z"/>
</g>
</svg>
