<?xml version="1.0" encoding="UTF-8"?>
<svg xmlns="http://www.w3.org/2000/svg" xmlns:xlink="http://www.w3.org/1999/xlink" width="48pt" height="48pt" viewBox="0 0 48 48" version="1.1">
<g id="surface1">
<path style=" stroke:none;fill-rule:nonzero;fill:rgb(24.705882%,31.764706%,70.980392%);fill-opacity:1;" d="M 7.382813 44.308594 L 3.691406 44.308594 C 2.585938 44.308594 1.847656 43.570313 1.847656 42.460938 L 1.847656 38.769531 L 9.230469 38.769531 L 9.230469 42.460938 C 9.230469 43.570313 8.492188 44.308594 7.382813 44.308594 Z "/>
<path style=" stroke:none;fill-rule:nonzero;fill:rgb(24.705882%,31.764706%,70.980392%);fill-opacity:1;" d="M 46.152344 48 L 44.308594 48 C 43.199219 48 42.460938 47.261719 42.460938 46.152344 L 42.460938 42.460938 L 48 42.460938 L 48 46.152344 C 48 47.261719 47.261719 48 46.152344 48 Z "/>
<path style=" stroke:none;fill-rule:nonzero;fill:rgb(24.705882%,31.764706%,70.980392%);fill-opacity:1;" d="M 27.691406 48 L 25.847656 48 C 24.738281 48 24 47.261719 24 46.152344 L 24 42.460938 L 29.539063 42.460938 L 29.539063 46.152344 C 29.539063 47.261719 28.800781 48 27.691406 48 Z "/>
<path style=" stroke:none;fill-rule:nonzero;fill:rgb(24.705882%,31.764706%,70.980392%);fill-opacity:1;" d="M 22.152344 36.554688 C 22.152344 35.445313 22.339844 34.152344 22.890625 33.046875 L 25.109375 27.507813 C 26.03125 25.476563 28.0625 24 30.277344 24 L 35.078125 24 L 35.078125 19.199219 C 35.078125 18.644531 35.078125 18.277344 34.890625 17.722656 L 32.492188 5.90625 C 31.753906 2.398438 28.800781 0 25.292969 0 L 9.785156 0 C 6.277344 0 3.136719 2.398438 2.585938 5.90625 L 0.183594 17.722656 C 0 18.277344 0 18.644531 0 19.199219 L 0 36.921875 C 0 38.953125 1.660156 40.617188 3.691406 40.617188 L 22.152344 40.617188 Z M 12.921875 1.847656 L 22.152344 1.847656 C 23.261719 1.847656 24 2.585938 24 3.691406 C 24 4.800781 23.261719 5.539063 22.152344 5.539063 L 12.921875 5.539063 C 11.816406 5.539063 11.078125 4.800781 11.078125 3.691406 C 11.078125 2.585938 11.816406 1.847656 12.921875 1.847656 Z M 5.722656 8.863281 C 5.90625 7.9375 6.644531 7.382813 7.570313 7.382813 L 27.691406 7.382813 C 28.617188 7.382813 29.355469 7.9375 29.539063 8.863281 L 31.015625 16.246094 C 31.199219 17.355469 30.460938 18.460938 29.167969 18.460938 L 6.09375 18.460938 C 4.984375 18.460938 4.0625 17.355469 4.246094 16.246094 Z M 6.460938 36.921875 C 4.984375 36.921875 3.691406 35.628906 3.691406 34.152344 C 3.691406 32.675781 4.984375 31.382813 6.460938 31.382813 C 7.9375 31.382813 9.230469 32.675781 9.230469 34.152344 C 9.230469 35.628906 7.9375 36.921875 6.460938 36.921875 Z "/>
<path style=" stroke:none;fill-rule:nonzero;fill:rgb(24.705882%,31.764706%,70.980392%);fill-opacity:1;" d="M 47.445313 33.785156 L 45.230469 28.246094 C 44.675781 26.769531 43.382813 25.847656 41.722656 25.847656 L 30.09375 25.847656 C 28.617188 25.847656 27.136719 26.769531 26.585938 28.246094 L 24.371094 33.785156 C 24 34.707031 23.816406 35.628906 23.816406 36.554688 L 23.816406 44.308594 L 47.816406 44.308594 L 47.816406 36.554688 C 48 35.628906 47.816406 34.707031 47.445313 33.785156 Z M 30.09375 28.617188 L 41.90625 28.617188 C 42.277344 28.617188 42.832031 28.984375 43.015625 29.355469 L 44.863281 34.152344 C 45.046875 34.523438 44.675781 35.078125 44.308594 35.078125 L 27.691406 35.078125 C 27.324219 35.078125 26.953125 34.523438 27.136719 34.152344 L 28.984375 29.355469 C 29.167969 28.984375 29.539063 28.617188 30.09375 28.617188 Z M 27.691406 42.460938 C 26.585938 42.460938 25.847656 41.722656 25.847656 40.617188 C 25.847656 39.507813 26.585938 38.769531 27.691406 38.769531 C 28.800781 38.769531 29.539063 39.507813 29.539063 40.617188 C 29.539063 41.722656 28.800781 42.460938 27.691406 42.460938 Z M 44.308594 42.460938 C 43.199219 42.460938 42.460938 41.722656 42.460938 40.617188 C 42.460938 39.507813 43.199219 38.769531 44.308594 38.769531 C 45.414063 38.769531 46.152344 39.507813 46.152344 40.617188 C 46.152344 41.722656 45.414063 42.460938 44.308594 42.460938 Z "/>
</g>
</svg>
