<?xml version="1.0" encoding="utf-8"?>
<!-- Generator: Adobe Illustrator 21.0.0, SVG Export Plug-In . SVG Version: 6.00 Build 0)  -->
<svg version="1.1" id="Layer_1" xmlns="http://www.w3.org/2000/svg" xmlns:xlink="http://www.w3.org/1999/xlink" x="0px" y="0px"
	 viewBox="0 0 50 50" style="enable-background:new 0 0 50 50;" xml:space="preserve">
<style type="text/css">
	.st0{fill:#FF6F00;}
</style>
<g id="surface1">
	<path class="st0" d="M40.5,22.6c-1.4,0-2.9-1.4-5.7-4.2l-3.6-3.6c-2.3-2.3-3.8-3.8-3.8-5.2c0-0.5,0.2-1,0.5-1.3l2.2-2.2
		c2.4-2.4,5.1-2.8,7.8-1.2c0,0,0.3,0.1,0.5,0.1c0.3,0,0.5-0.1,0.5-0.1l2-2c1.2-1.2,2.9-1.1,4.3,0.3l1.6,1.6C47.6,5.5,48,6.3,48,7.1
		c0,0.7-0.3,1.4-0.8,1.9l-2,2c-0.2,0.2-0.2,0.8-0.1,1c1.7,2.7,1.3,5.4-1.1,7.8L41.8,22C41.4,22.4,41,22.6,40.5,22.6z"/>
	<path class="st0" d="M20.2,39.5c-0.4-0.4-0.4-1,0-1.4s1-0.4,1.4,0l5.2,5.2L31,39l-5.2-5.2c-0.4-0.4-0.4-1,0-1.4
		c0.4-0.4,1-0.4,1.4,0l5.2,5.2l4.2-4.2l-5.2-5.2c-0.4-0.4-0.4-1,0-1.4s1-0.4,1.4,0l5.1,5.1c1.8-2.1,2.6-4.7,2.4-7.3
		c-2.3,0-4.2-1.9-7-4.8l-3.6-3.6c-2.7-2.6-4.4-4.4-4.4-6.6l0,0c-0.2,0-0.4,0-0.7,0c-2.7,0-5.3,1.1-7.2,3L5,25c-4,4-4,10.4,0,14.4
		l5.6,5.6c1.9,1.9,4.5,3,7.2,3s5.3-1.1,7.2-3l0.4-0.4L20.2,39.5z"/>
</g>
</svg>
