<?xml version="1.0" encoding="utf-8"?>
<!-- Generator: Adobe Illustrator 21.0.0, SVG Export Plug-In . SVG Version: 6.00 Build 0)  -->
<svg version="1.1" id="Layer_1" xmlns="http://www.w3.org/2000/svg" xmlns:xlink="http://www.w3.org/1999/xlink" x="0px" y="0px"
	 viewBox="0 0 48 48" style="enable-background:new 0 0 48 48;" xml:space="preserve">
<style type="text/css">
	.st0{fill:#FF6F00;}
</style>
<title>babysitter-daycare</title>
<g id="Layer_2">
	<g id="Layer_1-2">
		<path class="st0" d="M12.5,24c0.9,0.1,1.8-0.4,2.3-1.2l1.1-2.2l1.6,1.6c1.7,1.7,4.1,2.8,6.5,2.8c2.5,0,4.8-1.1,6.4-3l0,0l1.6-1.5
			l1.2,2.3c0.5,0.8,1.4,1.2,2.3,1.2c0,0,1.8,0.1,2.5,0.2l-4.2-14l0,0C32.9,4.4,28.8,0,24,0s-8.8,4.3-9.7,10.1l0,0L10,24.2
			C10.7,24.1,12.5,24,12.5,24z M24,23c-4.3,0-7.8-4.7-7.8-10.4c0-0.7,0.1-1.4,0.2-2.1c0.1,0,1.2-1,1.8-1.3c3.2-1.9,7-2.1,10.4-0.7
			c1.1,0.5,2.1,1.2,3.1,2c0,0.2,0.2,2.3,0.2,2.3C31.8,18.4,28.3,23,24,23z"/>
		<path class="st0" d="M31.4,23.9c-1.9,2-4.6,3.2-7.4,3.2s-5.4-1.2-7.4-3.1c-0.7,1-1.8,1.8-3,2c1.3,3.9,5.4,6.8,10.4,6.8
			s9.1-2.9,10.4-6.8C33.2,25.7,32.1,25,31.4,23.9z"/>
		<path class="st0" d="M36.5,26.1c-1.3,4.7-5.9,8.2-11.5,8.6c0.9,1.2,1.5,2.6,1.6,4.1c0,1.4-1.2,2.6-2.6,2.6s-2.6-1.2-2.6-2.6
			c0.1-1.5,0.7-2.9,1.6-4.1c-5.6-0.4-10.2-3.9-11.5-8.6c-4.8,0.3-8.6,3.9-8.6,8.2v7.6C9.2,45.9,16.5,48,24,48s14.8-2.1,21.1-6.1
			v-7.6C45.1,29.9,41.3,26.4,36.5,26.1z"/>
	</g>
</g>
</svg>
