<svg xmlns="http://www.w3.org/2000/svg" viewBox="0 0 386.45 459.32"><defs><style>.cls-1{fill:#f4511e;}</style></defs><title>books-supplies</title><g id="Layer_2" data-name="Layer 2"><g id="Capa_1" data-name="Capa 1"><path class="cls-1" d="M58.49,366.67H371.36a11.94,11.94,0,0,0,2.78-.35h.2a12.11,12.11,0,0,0,12.1-12.1V12.11A12.11,12.11,0,0,0,374.34,0H58.51A58.49,58.49,0,0,0,.08,58.43,12.34,12.34,0,0,0,.2,59.68c0,29.76-.41,303.17,0,339.11,0,.7-.11,1.39-.11,2.1a58.47,58.47,0,0,0,54.76,58.24,12,12,0,0,0,1.85.18H374.34a12.11,12.11,0,0,0,12.11-12.1V401.65a12.11,12.11,0,1,0-24.21,0v33.46H58.49a34.23,34.23,0,0,1-34.15-32.82c0-.33.08-.63.07-1,0-.53,0-1.36,0-2.46A34.24,34.24,0,0,1,58.49,366.67ZM89.88,132.5a31.5,31.5,0,0,1,31.5-31.5H285.06a31.5,31.5,0,0,1,31.5,31.5h0a31.5,31.5,0,0,1-31.5,31.5H121.38a31.5,31.5,0,0,1-31.5-31.5Z"/></g></g></svg>