<?xml version="1.0" encoding="utf-8"?>
<!-- Generator: Adobe Illustrator 21.0.0, SVG Export Plug-In . SVG Version: 6.00 Build 0)  -->
<svg version="1.1" id="Layer_1" xmlns="http://www.w3.org/2000/svg" xmlns:xlink="http://www.w3.org/1999/xlink" x="0px" y="0px"
	 viewBox="0 0 48 48" style="enable-background:new 0 0 48 48;" xml:space="preserve">
<style type="text/css">
	.st0{fill:#1282D6;}
</style>
<title>business-services-other</title>
<g id="Layer_2">
	<g id="Layer_1-2">
		<g id="surface1">
			<path class="st0" d="M19.1,36.6c-0.7-0.7-1.8-1-2.8-0.6c0.4-1,0.2-2.2-0.5-3c-0.7-0.7-1.6-0.9-2.6-0.7c0.3-0.9,0.1-1.9-0.6-2.7
				C12,29,11,28.7,10.1,29c0.3-0.9,0.1-1.9-0.6-2.7c-1.1-1.1-2.9-1-4,0.1c0,0,0,0,0,0c-1.2,1.2-2,3.3-0.9,4.6s2.3,0.5,3.2,0.3
				c-0.3,1-1,1.8-0.1,3.1c0.9,1.2,2.3,0.5,3.2,0.3c-0.3,1-1,1.9-0.1,3.1s2.4,0.5,3.4,0.2c-0.4,1-1.2,2.1-0.1,3.4s3.5,0.7,4.7-0.5
				C20,39.7,20.1,37.9,19.1,36.6z"/>
			<path class="st0" d="M40.5,12.2c-0.7,0-1.3-0.1-1.9-0.4c0,0-2.3-2-4.9-4.3c-2.1-1.8-3.2-1.8-4.7-0.9c-2.5,1.4-8.5,4.9-11.4,6.7
				c-1,0.5-1.7,1.5-1.8,2.7c0,1.6,1.2,2.8,2.8,2.9c0.6,0,1.1-0.2,1.6-0.5c1.3-0.6,4.3-2.3,6.3-3.4c1.1-0.7,2.6-0.7,3.6,0.2
				c0,0,8,8.2,10.2,10.5c1.5,1.5,3.5,0.8,4.1,0.7s3.8-0.7,3.8-0.7V10.5C48,10.5,42.3,11.9,40.5,12.2z"/>
			<path class="st0" d="M38,28.2l-9.2-9.6c-0.8-0.8-2.1-1.1-3.2-0.6c-1.3,0.6-3,1.4-4.2,2c-0.9,0.5-1.8,0.8-2.8,1
				c-2.7,0-4.8-2.3-4.8-5c0,0,0,0,0,0c0-1.7,0.8-3.3,2.2-4.2c2-1.4,6.4-3.8,6.4-3.8c-1.1-1.2-2.7-1.9-4.3-1.8
				c-2.9,0-9.1,4.2-9.1,4.2c-1.3,0.7-2.9,0.8-4.2,0.1L0,8.8V26c0,0,1.4,0.4,2.6,0.9c0.3-0.8,0.7-1.6,1.3-2.2c2-2,5.2-2,7.3,0
				c0.6,0.6,1,1.3,1.1,2.1c0.8,0.2,1.5,0.7,2,1.2c0.6,0.6,1,1.3,1.1,2.1c0.8,0.2,1.5,0.7,2,1.3c0.6,0.6,1,1.4,1.2,2.3
				c0.8,0.3,1.5,0.7,2,1.3c1.1,1.2,1.6,2.8,1.3,4.3c0,0,0.7,0.8,1.1,1.3c0.8,0.8,2.1,0.9,2.9,0.1c0,0,0.1-0.1,0.1-0.1
				c0.8-0.9,0.8-2.2,0-3.1c0,0-3-3.2-2.7-3.5s4,3.8,4,3.9c0.8,0.8,2.1,0.9,2.9,0.1c0,0,0.1-0.1,0.1-0.1c0.8-0.9,0.8-2.2,0-3.1
				c0,0-3.4-3.8-3.2-4s4.4,4.2,4.4,4.2c0.8,0.8,2,0.8,2.8,0c0,0,0,0,0.1-0.1c0.8-0.8,0.8-2.1,0.1-2.9c0,0-3.5-3.9-3.2-4.1
				s3.7,3.4,3.7,3.4c0.8,0.8,2.1,0.9,2.9,0.1c0,0,0.1-0.1,0.1-0.1C38.9,30.4,38.8,29.1,38,28.2z"/>
		</g>
	</g>
</g>
</svg>
