<?xml version="1.0" encoding="utf-8"?>
<!-- Generator: Adobe Illustrator 21.0.0, SVG Export Plug-In . SVG Version: 6.00 Build 0)  -->
<svg version="1.1" id="Layer_1" xmlns="http://www.w3.org/2000/svg" xmlns:xlink="http://www.w3.org/1999/xlink" x="0px" y="0px"
	 viewBox="0 0 512 512" style="enable-background:new 0 0 512 512;" xml:space="preserve">
<style type="text/css">
	.st0{fill:#1E88E5;}
</style>
<title>business-services</title>
<g id="Layer_2">
	<g id="Layer_1-2">
		<circle class="st0" cx="256" cy="139.6" r="139.6"/>
		<path class="st0" d="M454.7,355c-31.6-16.2-64.7-29.1-99-38.4c-5.9-1.6-11.9,1.6-14,7.3L294.1,457l-14.4-72.2l22.3-66.9
			c2-6.1-1.3-12.7-7.5-14.7c-1.2-0.4-2.4-0.6-3.6-0.6h-69.8c-6.4,0-11.6,5.2-11.6,11.7c0,1.2,0.2,2.4,0.6,3.6l22.3,66.8L217.9,457
			l-47.7-133.1c-2-5.7-8.1-8.9-14-7.3C122,326,88.8,338.8,57.3,355C22.1,372.9,0,409,0,448.4v17C0,491.1,20.9,512,46.6,512h418.9
			c25.7,0,46.5-20.9,46.5-46.5v-17C512,409,489.9,372.9,454.7,355z"/>
	</g>
</g>
</svg>
