<?xml version="1.0" encoding="utf-8"?>
<!-- Generator: Adobe Illustrator 21.0.0, SVG Export Plug-In . SVG Version: 6.00 Build 0)  -->
<svg version="1.1" id="Layer_1" xmlns="http://www.w3.org/2000/svg" xmlns:xlink="http://www.w3.org/1999/xlink" x="0px" y="0px"
	 viewBox="0 0 512 512" style="enable-background:new 0 0 512 512;" xml:space="preserve">
<style type="text/css">
	.st0{fill:#3F51B5;}
	.st1{fill:#FFFFFF;}
</style>
<g id="Layer_1_1_">
	<title>car-leasing</title>
	<path class="st0" d="M452.8,57.2c-6-17.2-22.2-28.7-40.4-28.7H99.6c-18.2,0-34.4,11.5-40.4,28.7L0,227.6v227.6
		c0,15.7,12.8,28.4,28.4,28.4h28.5c15.7,0,28.4-12.7,28.5-28.4l0,0v-28.5h341.3v28.4c0,15.7,12.8,28.4,28.4,28.4h28.4
		c15.7,0,28.4-12.7,28.4-28.4V227.6L452.8,57.2z"/>
</g>
<g id="Layer_2_1_">
	<path class="st1" d="M322.8,333.9c-10.5,3.8-21.5,5.7-32.6,5.7c-51,0-93.5-40.5-101.7-93.4c-10.4-3.8-15.7-15.3-11.9-25.7
		c2-5.5,6.4-9.9,11.9-11.9c8.3-53,50.7-93.4,101.7-93.4c11.1,0,22.1,1.9,32.6,5.7c10.5,3.6,16,15,12.4,25.5s-15,16-25.5,12.4
		c-0.2-0.1-0.4-0.1-0.6-0.2c-6.1-2.2-12.5-3.3-18.9-3.3c-28.7,0-53,22-60.6,52.1h57.7c11.1,0,20,9,20,20c0,11.1-9,20-20,20h-57.8
		c7.6,30.1,31.9,52.1,60.6,52.1c6.5,0,12.9-1.1,18.9-3.3c10.3-4.1,21.9,1,26,11.3s-1,21.9-11.3,26
		C323.6,333.6,323.2,333.7,322.8,333.9L322.8,333.9z"/>
</g>
</svg>
