<?xml version="1.0" encoding="utf-8"?>
<!-- Generator: Adobe Illustrator 21.0.0, SVG Export Plug-In . SVG Version: 6.00 Build 0)  -->
<svg version="1.1" id="Layer_1" xmlns="http://www.w3.org/2000/svg" xmlns:xlink="http://www.w3.org/1999/xlink" x="0px" y="0px"
	 viewBox="0 0 512 512" style="enable-background:new 0 0 512 512;" xml:space="preserve">
<style type="text/css">
	.st0{fill:#ad1457;}
</style>
<title>cash-atm</title>
<g id="Layer_2">
	<g id="Capa_1">
		<path class="st0" d="M480.2,272.8v194.7H106.7V272.8H480.2 M512,241H74.9v258.3H512V241z"/>
		<path class="st0" d="M392.8,241l44.7,44.7c-0.5,1.6-0.8,3.3-1,4.9c0,14.2,11.5,25.8,25.8,25.8c0,0,0,0,0,0c1.8,0,3.3-0.7,4.9-1
			l44.8,44.8V241H392.8z"/>
		<circle class="st0" cx="422.6" cy="370.1" r="25.8"/>
		<ellipse class="st0" cx="293.5" cy="370.1" rx="78" ry="67.8"/>
		<circle class="st0" cx="164.3" cy="370.1" r="25.8"/>
		<path class="st0" d="M74.9,360.2l44.7-44.7c1.6,0.5,3.3,0.8,4.9,1c14.2,0,25.8-11.5,25.8-25.8c0,0,0,0,0,0c-0.2-1.7-0.5-3.3-1-4.9
			l44.8-44.8H74.9V360.2z"/>
		<path class="st0" d="M150.4,449.6c0-14.2-11.5-25.8-25.8-25.8c0,0,0,0,0,0c-1.8,0-3.3,0.7-4.9,1L74.9,380v119.2h119.2l-44.7-44.7
			C149.9,452.9,150.2,451.2,150.4,449.6z"/>
		<path class="st0" d="M462.3,423.8c-14.2,0-25.8,11.5-25.8,25.8c0,0,0,0,0,0c0.2,1.7,0.5,3.3,1,4.9l-44.8,44.8H512V380l-44.7,44.8
			C465.7,424.3,464,423.9,462.3,423.8z"/>
		<circle class="st0" cx="367" cy="169" r="25.8"/>
		<path class="st0" d="M45.1,241c0-16.5,13.3-29.8,29.8-29.8h16.3l0.7-2.5l230-126l17.6,5.2c0.3,1.6,0.9,3.3,1.5,4.8
			c6.8,12.5,22.5,17.1,35,10.2c0,0,0,0,0,0c1.4-0.9,2.6-2,3.8-3.2l17.6,5.2l40.1,73.1l-5.1,17.6c-1.6,0.3-3.2,0.8-4.8,1.5
			c-5.5,3.1-9.7,8.2-11.7,14.2H492l-51.4-93.8l0,0L383.4,12.8L278.8,70l0,0l-174.2,95.4L0,222.7l45.1,82.4V241z"/>
		<path class="st0" d="M221.1,171.5c-16.3,8.8-29.2,22.7-36.8,39.6h143.7c-1-6.1-3-12.1-5.9-17.6
			C304.1,160.7,258.9,150.9,221.1,171.5z"/>
	</g>
</g>
</svg>
