<?xml version="1.0" encoding="utf-8"?>
<!-- Generator: Adobe Illustrator 21.0.0, SVG Export Plug-In . SVG Version: 6.00 Build 0)  -->
<svg version="1.1" id="Layer_1" xmlns="http://www.w3.org/2000/svg" xmlns:xlink="http://www.w3.org/1999/xlink" x="0px" y="0px"
	 viewBox="0 0 48 48" style="enable-background:new 0 0 48 48;" xml:space="preserve">
<style type="text/css">
	.st0{fill:#FF6F00;}
</style>
<title>child-support</title>
<g id="Layer_2">
	<g id="Layer_1-2">
		<path class="st0" d="M30,6c0-3.3-2.7-6-6-6s-6,2.7-6,6s2.7,6,6,6S30,9.3,30,6z"/>
		<path class="st0" d="M13.4,13.9l4.6,1.5v4.1l-1.8,3.6c-0.4,0.8-0.2,1.7,0.4,2.3l2,2c0.8,0.8,2,0.8,2.8,0s0.8-2,0-2.8l-1-1l0.8-1.6
			h5.5l0.8,1.6l-1,1c-0.8,0.8-0.8,2,0,2.8s2,0.8,2.8,0l2-2c0.6-0.6,0.8-1.5,0.4-2.3L30,19.5v-4.1l4.6-1.5c1-0.3,1.6-1.5,1.3-2.5
			s-1.5-1.6-2.5-1.3L27.7,12h-7.4l-5.7-1.9c-1-0.4-2.2,0.1-2.6,1.1s0.1,2.2,1.1,2.6C13.2,13.8,13.3,13.9,13.4,13.9L13.4,13.9z"/>
		<path class="st0" d="M43,30c-0.8,0-1.9,0.4-4.4,1.4C36.1,32.4,32,34,30,34c-0.2-0.1-0.4-0.1-0.5-0.2c-1.4-0.6-3.6-1.6-9.9-1.8
			c-1-2.2-3.5-4-7.6-4v17.3c3.8,1.7,7.9,2.6,12,2.7c8.5,0,20.6-8,21.1-8.3l0.2-0.1C45.9,39,48,37.1,48,35C48,32.2,45.8,30,43,30z"/>
		<path class="st0" d="M0,28v16c0,1.1,0.9,2,2,2h6V26H2C0.9,26,0,26.9,0,28z"/>
	</g>
</g>
</svg>
