<?xml version="1.0" encoding="utf-8"?>
<!-- Generator: Adobe Illustrator 21.0.0, SVG Export Plug-In . SVG Version: 6.00 Build 0)  -->
<svg version="1.1" id="Capa_1" xmlns="http://www.w3.org/2000/svg" xmlns:xlink="http://www.w3.org/1999/xlink" x="0px" y="0px"
	 viewBox="0 0 512 512" style="enable-background:new 0 0 512 512;" xml:space="preserve">
<style type="text/css">
	.st0{fill:#E91E63;}
</style>
<g>
	<path class="st0" d="M19.9,70.9l21.3-12.1c18.6-10.5,45.6-28.5,63.1-33.2c16.4-4.4,32.4-5.6,32.4-5.6s8.5,0,19.1,0
		c10.5,0,17.3,18.5,27.1,37.5c20.1,38.8,70.8,42,70.8,42c42.1,0,62.1-21.4,71.6-41.9c8.9-19.4,17.1-37.5,27.6-37.5h19.1
		c13.1,0,23.7,1.7,32.2,4.1c17.3,4.9,43.3,24.1,61.9,34.7l26.1,14.8c18.6,10.6,25.4,34.4,15.2,53.2l-22.3,41
		c-10.2,18.8-30.5,28.5-45.3,21.6c-14.8-6.9-26.8,4.9-26.8,26.3l-0.2,196c0,21.4-14,49.5-33.9,57.4
		c-53.9,21.5-125.1,22.7-125.1,22.7c-48.9,0-92.7-13.3-121.4-24.8c-19.9-8-35-33.9-35-55.3l0.1-196c0-21.4-11.3-33.7-25.2-27.4
		c-13.9,6.3-33.6-3.8-44-22.6l-23.2-42C-5.5,105.2,1.2,81.4,19.9,70.9z"/>
</g>
</svg>
