<?xml version="1.0" encoding="utf-8"?>
<!-- Generator: Adobe Illustrator 21.0.0, SVG Export Plug-In . SVG Version: 6.00 Build 0)  -->
<svg version="1.1" id="Layer_1" xmlns="http://www.w3.org/2000/svg" xmlns:xlink="http://www.w3.org/1999/xlink" x="0px" y="0px"
	 viewBox="0 0 512 424" style="enable-background:new 0 0 512 424;" xml:space="preserve">
<style type="text/css">
	.st0{fill:#E91E63;}
</style>
<title>clothing</title>
<g id="Layer_2">
	<path class="st0" d="M493.9,340.4L286.5,193c-2.8-2.4-5.9-4.3-9.2-5.9v-22.1c0-4.1,2.2-7.4,4.2-8.1c42.1-14.1,65-59.8,50.9-101.9
		c-6.8-20.4-21.2-36.9-40.4-46.6c-19.2-9.6-41.1-11.2-61.5-4.3c-32.9,11-55.1,41.7-55,76.4c0,11.7,9.5,21.2,21.2,21.2
		S218,92.3,218,80.6c0-10.2,4-19.7,11.2-26.9c7.2-7.2,16.7-11.1,26.9-11.1c0,0,0,0,0,0c21,0,38,17.1,38,38.1
		c0,16.4-10.5,30.9-26,36.1c-19.9,6.6-33.3,26.1-33.3,48.4v21.9c-2.9,1.4-5.7,3.1-8.2,5.2c-0.5,0.3-2.3,1.7-5.4,3.9
		C30.3,331.6,16.2,342.3,14.7,343.7l0,0c-13.7,13.4-17.9,32.7-11,50.5c6.8,17.6,23.1,29.1,42.6,29.8l420.1,0
		c19.1-0.5,35.7-12.4,42.2-30.4C516.4,372.4,507.3,349.9,493.9,340.4z M128.5,351.1c-1.3-4.1-0.8-9.9,4.5-13.8l115.8-82
		c2.1-1.5,4.7-2.3,7.2-2.3c2.5,0,5,0.8,7.2,2.3l114.8,82l0,0c0.3,0.2,0.7,0.5,1,0.7c4.5,3.8,4.8,9.2,3.6,13.1
		c-1.3,4.2-5.1,8.6-11.7,8.6H140.2c-4.5,0-7.8-2.1-9.7-4.8C129.6,353.8,128.9,352.4,128.5,351.1z"/>
</g>
</svg>
