<?xml version="1.0" encoding="utf-8"?>
<!-- Generator: Adobe Illustrator 21.0.0, SVG Export Plug-In . SVG Version: 6.00 Build 0)  -->
<svg version="1.1" id="Layer_2_1_" xmlns="http://www.w3.org/2000/svg" xmlns:xlink="http://www.w3.org/1999/xlink" x="0px" y="0px"
	 viewBox="0 0 512 512" style="enable-background:new 0 0 512 512;" xml:space="preserve">
<style type="text/css">
	.st0{fill:#673AB7;}
</style>
<g>
	<path class="st0" d="M108.6,217.2c60,0,108.6-48.6,108.6-108.6S168.6,0,108.6,0S0,48.6,0,108.6C0,168.4,48.8,216.3,108.6,217.2z"/>
	
		<rect x="-46.5" y="195.6" transform="matrix(0.7071 -0.7071 0.7071 0.7071 -95.2893 230.0643)" class="st0" width="553.1" height="69"/>
	<path class="st0" d="M376.5,241C301,241,241,301,241,376.5S301,512,376.5,512S512,452,512,376.5S452,241,376.5,241z M414.1,454.6
		c-0.3,0.1-0.6,0.2-0.8,0.3l0,0c-7.7,2.8-15.8,4.2-24,4.2c-37.6,0-68.8-29.8-74.9-68.8c-7.6-2.8-11.6-11.3-8.8-18.9
		c1.5-4.1,4.7-7.3,8.8-8.8c6.1-39,37.3-68.8,74.9-68.8c8.2,0,16.3,1.4,24,4.2c7.7,2.6,11.8,11,9.2,18.7c-2.6,7.7-11,11.8-18.7,9.2
		c-0.1,0-0.3-0.1-0.4-0.1c-4.5-1.6-9.2-2.4-13.9-2.4c-21.1,0-39,16.2-44.6,38.4h42.5c8.1,0,14.8,6.6,14.8,14.8
		c0,8.1-6.6,14.8-14.8,14.8h-42.5c5.6,22.1,23.5,38.4,44.6,38.4c4.8,0,9.5-0.8,13.9-2.5c7.6-3,16.2,0.7,19.2,8.3
		C425.4,443,421.7,451.6,414.1,454.6z"/>
</g>
</svg>
