<svg xmlns="http://www.w3.org/2000/svg" viewBox="0 0 78 52"><defs><style>.cls-1{fill:#1e88e5;}</style></defs><title>delivery</title><g id="Layer_2" data-name="Layer 2"><g id="Layer_1-2" data-name="Layer 1"><path class="cls-1" d="M6,0A6,6,0,0,0,3.75.44L37.22,30.25a2.5,2.5,0,0,0,3.63,0L74.25.44A6,6,0,0,0,72,0ZM.06,5.16A6.18,6.18,0,0,0,0,6V46a6,6,0,0,0,.47,2.31L23.56,26.13.06,5.16Zm77.87,0L54.5,26.09,77.56,48.28A6,6,0,0,0,78,46V6a6.34,6.34,0,0,0-.06-.84ZM50,30.13l-5.16,4.63a8.8,8.8,0,0,1-11.62,0l-5.16-4.59L5.31,52A6.24,6.24,0,0,0,6,52H72c.22,0,.44,0,.66,0Z"/></g></g></svg>