<svg xmlns="http://www.w3.org/2000/svg" viewBox="0 0 79 82.44"><defs><style>.cls-1{fill:#f4511e;}</style></defs><title>entertainment-other</title><g id="Layer_2" data-name="Layer 2"><g id="Layer_1-2" data-name="Layer 1"><path class="cls-1" d="M73.9.34c-6.7,3.2-18.1,7.1-34.4,7.1S11.8,3.44,5.1.34A3.58,3.58,0,0,0,0,3.64l3.6,37.1c1.7,23.4,17.7,41.7,35.9,41.7s34.2-18.3,35.9-41.7L79,3.64A3.58,3.58,0,0,0,73.9.34ZM13.5,34c0-3.9,4.6-7.7,10.2-7.7s10.2,3.9,10.2,7.7c0,2.2-2.4-2-10.2-2S13.5,36.14,13.5,34Zm26,30.8c-11.3,0-20.4-7.4-20.8-13.7,0-.2.2-.3.3-.2,1.8.8,10.2,5.5,20.4,5.5s18.7-4.7,20.4-5.5c.2-.1.3,0,.3.2C59.9,57.44,50.8,64.84,39.5,64.84ZM55.3,32c-7.8,0-10.2,4.2-10.2,2,0-3.9,4.6-7.7,10.2-7.7s10.2,3.8,10.2,7.7C65.5,36.14,63.1,32,55.3,32Z"/></g></g></svg>