<?xml version="1.0" encoding="utf-8"?>
<!-- Generator: Adobe Illustrator 21.0.0, SVG Export Plug-In . SVG Version: 6.00 Build 0)  -->
<svg version="1.1" id="Layer_1" xmlns="http://www.w3.org/2000/svg" xmlns:xlink="http://www.w3.org/1999/xlink" x="0px" y="0px"
	 viewBox="0 0 40 40" style="enable-background:new 0 0 40 40;" xml:space="preserve">
<style type="text/css">
	.st0{fill:#F4511E;}
</style>
<title>entertainment2</title>
<g id="Layer_2">
	<g id="Layer_1-2">
		<g id="surface1">
			<path class="st0" d="M40,16V8c0-2.2-1.8-4-4-4H4C1.8,4,0,5.8,0,8v8c2.2,0,4,1.8,4,4s-1.8,4-4,4v8c0,2.2,1.8,4,4,4h32
				c2.2,0,4-1.8,4-4v-8c-2.2,0-4-1.8-4-4S37.8,16,40,16z M26.2,28.4L20,24.8l-6.2,3.8l1.6-7L10,16.8l7.2-0.6L20,9.6l2.8,6.6l7.2,0.6
				l-5.4,4.8L26.2,28.4z"/>
		</g>
	</g>
</g>
</svg>
