<?xml version="1.0" encoding="utf-8"?>
<!-- Generator: Adobe Illustrator 21.0.0, SVG Export Plug-In . SVG Version: 6.00 Build 0)  -->
<svg version="1.1" id="Layer_1" xmlns="http://www.w3.org/2000/svg" xmlns:xlink="http://www.w3.org/1999/xlink" x="0px" y="0px"
	 viewBox="0 0 48 48" style="enable-background:new 0 0 48 48;" xml:space="preserve">
<style type="text/css">
	.st0{fill:#673AB7;}
</style>
<g id="surface1">
	<path class="st0" d="M18,6C8,6,0,14,0,24s8,18,18,18s18-8,18-18S28,6,18,6z M20,32h-4V22h-4v-3c4-0.4,8-3,8-3V32z"/>
	<path class="st0" d="M28.8,6.6C34.4,10.4,38,16.8,38,24s-3.6,13.6-9.2,17.4C36.4,39.2,42,32.4,42,24S36.4,8.8,28.8,6.6z"/>
	<path class="st0" d="M34.8,6.6C40.4,10.4,44,16.8,44,24s-3.6,13.6-9.2,17.4C42.4,39.2,48,32.4,48,24S42.4,8.8,34.8,6.6z"/>
</g>
</svg>
