<?xml version="1.0" encoding="utf-8"?>
<!-- Generator: Adobe Illustrator 21.0.0, SVG Export Plug-In . SVG Version: 6.00 Build 0)  -->
<svg version="1.1" id="Layer_1" xmlns="http://www.w3.org/2000/svg" xmlns:xlink="http://www.w3.org/1999/xlink" x="0px" y="0px"
	 viewBox="0 0 64 64" style="enable-background:new 0 0 64 64;" xml:space="preserve">
<style type="text/css">
	.st0{fill:#3F51B5;}
</style>
<title>fuel</title>
<g id="Layer_2">
	<g id="Layer_1-2">
		<path class="st0" d="M48.5,5.7c-0.9-0.8-2.3-0.7-3.1,0.2c-0.7,0.8-0.7,2,0,2.9c2.7,2.7,4.8,4.8,6.6,6.6V23c0,2.6,1.1,3.8,2.5,5.4
			l4.9,4.9l0.2,0.2v8.4c0,12.7-2.7,12.7-4,12.7c-1.3,0-4,0-4-12.7c0-3.8-0.6-6-2.2-7.6c-1.8-1.8-4.2-2-7.4-2v-25
			c0-4.1-3.3-7.4-7.4-7.4H12.4c-4.1,0-7.4,3.3-7.4,7.4v51.9H2.5c-1.4,0-2.5,1.1-2.5,2.5v2.5h47v-2.5c0-1.4-1.1-2.5-2.5-2.5H42V36.6
			c2.1,0,3.7,0.1,4.4,0.8s0.9,2.1,0.9,4.5c0,5.5,0,17,8.3,17s8.3-11.5,8.3-17V27.2c0-0.4,0-0.7,0-1C64.2,21.7,63.3,20.5,48.5,5.7z
			 M9.9,7.3c0-1.4,1.1-2.5,2.5-2.5h22.3c1.4,0,2.5,1.1,2.5,2.5v14.8c0,1.4-1.1,2.5-2.5,2.5H12.4c-1.4,0-2.5-1.1-2.5-2.5V7.3z"/>
	</g>
</g>
</svg>
