<?xml version="1.0" encoding="utf-8"?>
<!-- Generator: Adobe Illustrator 21.0.0, SVG Export Plug-In . SVG Version: 6.00 Build 0)  -->
<svg version="1.1" id="Capa_1" xmlns="http://www.w3.org/2000/svg" xmlns:xlink="http://www.w3.org/1999/xlink" x="0px" y="0px"
	 viewBox="0 0 512 512" style="enable-background:new 0 0 512 512;" xml:space="preserve">
<style type="text/css">
	.st0{fill:#F4511E;}
	.st1{fill:none;}
</style>
<g>
	<g>
		<path class="st0" d="M62.4,400.3v-256c0-44,36-80,80-80h256c5.6,0,11.1,0.6,16.3,1.7C408.1,28.6,375.2,0,336,0H80C36,0,0,36,0,80
			v256c0,38.4,27.4,70.7,63.7,78.3C62.8,409.8,62.4,405.1,62.4,400.3z"/>
	</g>
</g>
<g>
	<circle class="st1" cx="208" cy="400" r="48"/>
	<circle class="st1" cx="208" cy="208" r="48"/>
	<circle class="st1" cx="304" cy="304" r="48"/>
	<circle class="st1" cx="400" cy="400" r="48"/>
	<circle class="st1" cx="400" cy="208" r="48"/>
	<path class="st0" d="M432,96H176c-44,0-80,36-80,80v256c0,44,36,80,80,80h256c44,0,80-36,80-80V176C512,132,476,96,432,96z
		 M208,160c26.5,0,48,21.5,48,48s-21.5,48-48,48c-26.5,0-48-21.5-48-48S181.5,160,208,160z M208,448c-26.5,0-48-21.5-48-48
		c0-26.5,21.5-48,48-48c26.5,0,48,21.5,48,48C256,426.5,234.5,448,208,448z M304,352c-26.5,0-48-21.5-48-48c0-26.5,21.5-48,48-48
		c26.5,0,48,21.5,48,48C352,330.5,330.5,352,304,352z M400,448c-26.5,0-48-21.5-48-48c0-26.5,21.5-48,48-48c26.5,0,48,21.5,48,48
		C448,426.5,426.5,448,400,448z M400,256c-26.5,0-48-21.5-48-48s21.5-48,48-48c26.5,0,48,21.5,48,48S426.5,256,400,256z"/>
</g>
</svg>
