<?xml version="1.0" encoding="utf-8"?>
<!-- Generator: Adobe Illustrator 21.0.0, SVG Export Plug-In . SVG Version: 6.00 Build 0)  -->
<svg version="1.1" id="Layer_1" xmlns="http://www.w3.org/2000/svg" xmlns:xlink="http://www.w3.org/1999/xlink" x="0px" y="0px"
	 viewBox="0 0 64 64" style="enable-background:new 0 0 64 64;" xml:space="preserve">
<style type="text/css">
	.st0{fill:#E53935;}
</style>
<title>gifts-donations</title>
<g id="Layer_2">
	<g id="Layer_1-2">
		<path class="st0" d="M63.3,41.1c-1.2-2.2-4-3-6.2-1.7c0,0,0,0,0,0L42.3,48H29.7c3.8,0,6.8-3.1,6.8-6.8c0-1.3-1-2.3-2.3-2.3H13.7
			v22.8h19.6c3,0,5.9-1,8.3-2.8l20-11.5C63.8,46.1,64.6,43.3,63.3,41.1C63.4,41.1,63.3,41.1,63.3,41.1z"/>
		<rect x="0" y="38.8" class="st0" width="9.1" height="22.8"/>
		<path class="st0" d="M32,34.3c9.4-8.5,18.3-15,18.3-21.9c0.1-5.5-4.4-10-9.9-10c-0.1,0-0.1,0-0.2,0C37,2.4,34,3.8,32,6.2
			c-2.1-2.4-5.1-3.8-8.2-3.8c-5.5-0.1-10,4.4-10,9.9c0,0.1,0,0.1,0,0.2C13.7,19.3,22.6,25.7,32,34.3z"/>
	</g>
</g>
</svg>
