<svg xmlns="http://www.w3.org/2000/svg" viewBox="0 0 512 512"><defs><style>.cls-1{fill:#546e7a;}</style></defs><title>government-tax</title><g id="Layer_2" data-name="Layer 2"><g id="Layer_4_copy_5" data-name="Layer 4 copy 5"><g id="Layer_2-2" data-name="Layer 2"><g id="Layer_7" data-name="Layer 7"><path class="cls-1" d="M211,376.5a164.82,164.82,0,0,1,37.67-105.12V227.95h41.44v7.37A164.64,164.64,0,0,1,373,211V186.5L207.22,114V82.89h82.89V0H165.78V111.9L0,186.5v41.44H41.44V373H0v41.44H215.38A166,166,0,0,1,211,376.5ZM124.33,373H82.89V227.95h41.45Zm82.89,0H165.78V227.95h41.44Z"/></g></g></g><g id="Layer_11" data-name="Layer 11"><path class="cls-1" d="M376.5,241A135.5,135.5,0,1,0,512,376.5,135.5,135.5,0,0,0,376.5,241ZM307,334.1a25.06,25.06,0,1,1,25.06,25.06A25.06,25.06,0,0,1,307,334.1Zm42.29,95.08a18,18,0,0,1-25.51-25.51l79.85-79.85a18,18,0,1,1,25.51,25.51Zm69.28,16.49a25.06,25.06,0,1,1,25.06-25.06A25.06,25.06,0,0,1,418.61,445.67Z"/></g></g></svg>