<?xml version="1.0" encoding="utf-8"?>
<!-- Generator: Adobe Illustrator 21.0.0, SVG Export Plug-In . SVG Version: 6.00 Build 0)  -->
<svg version="1.1" id="Layer_1" xmlns="http://www.w3.org/2000/svg" xmlns:xlink="http://www.w3.org/1999/xlink" x="0px" y="0px"
	 viewBox="0 0 512 512" style="enable-background:new 0 0 512 512;" xml:space="preserve">
<style type="text/css">
	.st0{fill:#AFB42B;}
</style>
<title>groceries</title>
<g id="Layer_2">
	<g id="Capa_1">
		<path class="st0" d="M359.8,145h44.9L338.1,30.9c-5.4-9.2-17.3-12.3-26.5-6.9s-12.3,17.3-6.9,26.5L359.8,145z"/>
		<path class="st0" d="M207.5,50.4c5.3-9.3,2.1-21.1-7.2-26.4c-9.2-5.2-20.8-2.2-26.2,6.9l-66.5,114.3h44.9L207.5,50.4z"/>
		<path class="st0" d="M479,180H32.9C14.7,180,0,194.7,0,212.9c0,0,0,0,0,0v36.5c0,18.2,14.7,32.9,32.9,32.9c0,0,0,0,0,0h10.3
			l31.7,172.1c4,20.3,22.5,36.4,41.7,36.4h272c19.2,0,37.7-16.1,41.7-36.4l32-172.2h16.7c18.2,0,32.9-14.7,32.9-32.9
			c0,0,0-0.1,0-0.1v-36.4C511.9,194.7,497.1,180,479,180z M181.6,352v74.2c0,10.3-8.3,18.6-18.6,18.6s-18.6-8.3-18.6-18.6V322.1
			c0-10.3,8.3-18.6,18.6-18.6s18.6,8.3,18.6,18.6l0,0V352z M241.3,352v74.2c0,10.3-8.3,18.6-18.6,18.6c-10.3,0-18.6-8.3-18.6-18.6
			V322.1c0-10.3,8.3-18.6,18.5-18.6c0,0,0,0,0.1,0c10.2,0.2,18.4,8.4,18.6,18.6L241.3,352z M301.3,395.1v31.1
			c0,10.3-8.3,18.6-18.6,18.6c-10.3,0-18.6-8.3-18.6-18.6V322.1c0.2-10.2,8.4-18.4,18.6-18.6c10.3,0,18.6,8.3,18.6,18.5
			c0,0,0,0,0,0.1L301.3,395.1z M361,395.1v31.1c0,10.3-8.3,18.6-18.6,18.6c-10.3,0-18.6-8.3-18.6-18.6V322.1
			c0-10.3,8.3-18.6,18.6-18.6c10.3,0,18.6,8.3,18.6,18.6l0,0V395.1z"/>
	</g>
</g>
</svg>
