<svg xmlns="http://www.w3.org/2000/svg" viewBox="0 0 453.22 510.58"><defs><style>.cls-1{fill:#8e24aa;}</style></defs><title>hair</title><g id="Layer_2" data-name="Layer 2"><g id="Capa_1" data-name="Capa 1"><path class="cls-1" d="M436.41,364A93.14,93.14,0,0,0,316.29,335.3L276,277.81,394,109.29A75.68,75.68,0,0,0,406.39,51.7,77.47,77.47,0,0,0,374.51,2l-2.81-2L226.61,207.23,81.51,0,78.7,2c-35,24.52-43.78,72.66-19.52,107.31l118,168.53-40.26,57.49a93.1,93.1,0,1,0,40.48,42.56l49.2-70.27,49.2,70.26A93.14,93.14,0,1,0,436.41,364ZM316.85,417.28a43.07,43.07,0,1,1,43.07,43.07A43.12,43.12,0,0,1,316.85,417.28ZM93.3,460.35a43.07,43.07,0,1,1,43.07-43.07A43.12,43.12,0,0,1,93.3,460.35Z"/></g></g></svg>