<?xml version="1.0" encoding="utf-8"?>
<!-- Generator: Adobe Illustrator 21.0.0, SVG Export Plug-In . SVG Version: 6.00 Build 0)  -->
<svg version="1.1" id="Layer_1" xmlns="http://www.w3.org/2000/svg" xmlns:xlink="http://www.w3.org/1999/xlink" x="0px" y="0px"
	 viewBox="0 0 512 512" style="enable-background:new 0 0 512 512;" xml:space="preserve">
<style type="text/css">
	.st0{fill:#009688;}
</style>
<title>health-insurance</title>
<g id="Layer_2">
	<g id="Layer_1-2">
		<path class="st0" d="M318.8,232.4h-38.6v-38.6c0.1-6.8-5.3-12.4-12.1-12.5c-0.1,0-0.3,0-0.4,0h-22.3c-6.8-0.1-12.4,5.3-12.5,12.1
			c0,0.1,0,0.3,0,0.4v38.6h-38.6c-6.8-0.1-12.4,5.3-12.5,12.1c0,0.1,0,0.3,0,0.4v22.3c-0.1,6.8,5.3,12.4,12.1,12.5
			c0.1,0,0.3,0,0.4,0h38.6v38.6c-0.1,6.8,5.3,12.4,12.1,12.5c0.1,0,0.3,0,0.4,0h21.7c6.8,0.1,12.4-5.3,12.5-12.1c0-0.1,0-0.3,0-0.4
			v-38.6h38.6c6.8,0.1,12.4-5.3,12.5-12.1c0-0.1,0-0.3,0-0.4v-21.7c0.6-6.6-4.3-12.4-10.9-13C319.5,232.4,319.2,232.4,318.8,232.4z"
			/>
		<path class="st0" d="M469.9,140.5c0-13-0.5-25.5-0.5-37.5V90.5c-0.1-8-6.6-14.4-14.6-14.4h-12.5c-70.7,0-122.3-19.6-167.4-63
			l-8.8-9c-5.6-5.4-14.5-5.4-20.1,0l-8.6,8.7c-44.6,43.5-96.2,63-167.4,63H57.4c-8.1,0-14.6,6.5-14.7,14.6c0,0,0,0.1,0,0.1v12.8
			c0,12,0,24.5-0.5,37.5C40,265.8,36.7,437.5,247,510.4l0,0c5.8,2.2,12.2,2.2,17.9,0C475.8,437.3,472,266.1,469.9,140.5z
			 M256.3,380.8c-68.7,0-124.5-55.7-124.5-124.5c0-68.7,55.7-124.5,124.5-124.5c68.7,0,124.5,55.7,124.5,124.5
			S325,380.8,256.3,380.8L256.3,380.8z"/>
	</g>
</g>
</svg>
