<?xml version="1.0" encoding="utf-8"?>
<!-- Generator: Adobe Illustrator 21.0.0, SVG Export Plug-In . SVG Version: 6.00 Build 0)  -->
<svg version="1.1" id="Layer_1" xmlns="http://www.w3.org/2000/svg" xmlns:xlink="http://www.w3.org/1999/xlink" x="0px" y="0px"
	 viewBox="0 0 512 512" style="enable-background:new 0 0 512 512;" xml:space="preserve">
<style type="text/css">
	.st0{fill:#F4511E;}
</style>
<title>hobbies</title>
<g id="Layer_2">
	<g id="Capa_1">
		<path class="st0" d="M373.2,359.6c-27.2,39.9-59,79.5-87.7,109.2c-10,10.4-19.5,19.3-28.2,26.7c85.7-1.6,166.1-48.3,121.9-126.5
			C377.2,365.8,375.2,362.7,373.2,359.6z"/>
		<path class="st0" d="M182.3,399.9c0-19.8,16-35.8,35.8-35.8c2.6,0,5.1,0.3,7.6,0.8c13.9-25.9,29.9-52.5,47-77.9
			c13.3-19.8,25.6-36.4,37.1-50c-2-20-0.5-43.8,5.7-73.6c31.3-150.5-224.9-255.8-300-12.7C-31,300.9,29.7,413.5,165.6,477.9
			c4.7,2.2,9.5,4.2,14.4,5.9c1.3-14.3,6.5-33,15.8-55.9C187.3,421.1,182.3,410.8,182.3,399.9z M61.1,225.8c0-19.8,16-35.8,35.8-35.8
			s35.8,16,35.8,35.8s-16,35.8-35.8,35.8C77.1,261.6,61.1,245.6,61.1,225.8C61.1,225.8,61.1,225.8,61.1,225.8z M127.3,364.1
			c-19.7,0-35.7-16.1-35.7-35.8c0-19.7,16.1-35.7,35.8-35.7c19.7,0,35.7,16.1,35.7,35.8C163,348.1,147,364.1,127.3,364.1z
			 M156.8,102.4c0-25.2,20.4-45.5,45.6-45.5s45.5,20.4,45.5,45.6c0,25.1-20.4,45.5-45.5,45.5C177.2,148,156.8,127.6,156.8,102.4
			C156.8,102.4,156.8,102.4,156.8,102.4L156.8,102.4z"/>
		<path class="st0" d="M378.2,236L378.2,236c-8.7-5.5-16.1-12.8-21.7-21.5c-17.9,12.3-40.5,37.2-70.3,81.5
			c-61,90.7-106.1,194.4-84.9,208.3c1.7,1,3.7,1.6,5.7,1.5c27.3,0,99.4-75.8,155.8-159.7c30.9-46,45.4-76.9,49.3-98
			c-6.5-1-12.9-2.6-19.1-4.9C387.8,241.4,382.8,239,378.2,236z"/>
		<path class="st0" d="M511.7,89.6c-1.2-5.4-6.1-9.2-11.6-9c-44.1,1.7-79.4,10.2-104.8,25.5c-28.9,17.4-37.9,38.9-40.2,53.8
			c-1.7,11.2-0.4,22.7,3.9,33.2c7.4,18,22.1,32,40.4,38.6c10,3.7,19,5.5,27.5,5.5l0,0c1.3,0,2.6,0,3.9-0.1
			c9.8-0.6,19.2-3.8,27.4-9.1c25.5-16.2,23.4-42.8,21.5-66.2c-2.4-29.2-2.4-47.7,25.5-59.2C510.2,100.3,512.9,94.9,511.7,89.6z"/>
	</g>
</g>
</svg>
