<?xml version="1.0" encoding="utf-8"?>
<!-- Generator: Adobe Illustrator 21.0.0, SVG Export Plug-In . SVG Version: 6.00 Build 0)  -->
<svg version="1.1" id="Layer_1" xmlns="http://www.w3.org/2000/svg" xmlns:xlink="http://www.w3.org/1999/xlink" x="0px" y="0px"
	 viewBox="0 0 512 512" style="enable-background:new 0 0 512 512;" xml:space="preserve">
<style type="text/css">
	.st0{fill:#795548;}
</style>
<title>home-other</title>
<g id="Layer_2">
	<g id="Capa_1">
		<path class="st0" d="M162,512H26V397.6c0-27.5,19.5-51.1,46.4-56.4l142-27.8c15.6-3.1,31.6-4.6,47.5-4.6l0,0
			c12.8,0,24.1,9.4,25.4,22.1c1.2,11.5-5.8,22.3-16.7,26l-74.9,25c-3.7,1.1-6.4,4.4-6.8,8.3c-0.4,5.1,3.4,9.6,8.6,10
			c0.2,0,0.5,0,0.7,0H261c14,0,27.8-3.3,40.2-9.8l33-17.5l0,0l3.2-1.7l108-57.2c0.9-0.5,1.9-0.9,2.8-1.2c0.3-0.1,0.6-0.2,0.9-0.3
			c0.7-0.2,1.4-0.4,2-0.6l1-0.2c0.7-0.2,1.5-0.3,2.2-0.4l0.8-0.1c1-0.1,1.9-0.2,2.9-0.2h0.5c0.9,0,1.7,0.1,2.5,0.2l0.9,0.1
			c0.8,0.1,1.6,0.3,2.4,0.4l0.6,0.1c1,0.3,1.9,0.6,2.9,0.9l0.6,0.3c0.7,0.3,1.5,0.6,2.2,1l0.8,0.4c0.8,0.4,1.5,0.9,2.3,1.4l0.4,0.3
			c0.8,0.6,1.6,1.2,2.4,1.9l0.6,0.6c0.6,0.5,1.1,1.1,1.7,1.7c0.2,0.2,0.4,0.5,0.6,0.7c0.7,0.8,1.3,1.7,1.9,2.6l0.3,0.5
			c2.5,4,4,8.5,4.3,13.2c0.1,0.9,0.1,1.8,0,2.7c-0.3,9.4-5.4,18-13.5,22.9L298.9,465.8c-6.8,4.1-14.5,6.5-22.5,7
			c-1.1,0.1-2.3,0.1-3.4,0.1h-71.9c-21.6,0-39.1,17.4-39.1,39C162,511.9,162,512,162,512z M436.7,191.1c3-7.2,1.3-15.5-4.2-21
			L268.1,5.7c-7.5-7.5-19.6-7.5-27.1-0.1L73.8,170c-7.6,7.5-7.6,19.7-0.1,27.3c3.6,3.7,8.5,5.7,13.7,5.7h25.1v91.1l94.5-18.5
			c18.1-3.5,36.5-5.3,54.9-5.3c33.1,0,60.5,24.4,63.8,56.8c0.2,2.2,0.3,4.3,0.3,6.5l72.7-38.6v-92h20.1
			C426.7,203,433.7,198.3,436.7,191.1L436.7,191.1z"/>
	</g>
</g>
</svg>
