<?xml version="1.0" encoding="utf-8"?>
<!-- Generator: Adobe Illustrator 21.0.0, SVG Export Plug-In . SVG Version: 6.00 Build 0)  -->
<svg version="1.1" id="Capa_1" xmlns="http://www.w3.org/2000/svg" xmlns:xlink="http://www.w3.org/1999/xlink" x="0px" y="0px"
	 viewBox="0 0 512 512" style="enable-background:new 0 0 512 512;" xml:space="preserve">
<style type="text/css">
	.st0{fill:#795548;}
</style>
<g>
	<g>
		<path class="st0" d="M289.6,163.4h-0.8h-65.5h-0.8C151.8,193.7,98.9,313.9,98.9,408.6c0,109.3,70.3,103.3,157.1,103.3
			s157.1,6,157.1-103.3C413.1,313.9,360.2,193.7,289.6,163.4z M139.3,369.7c2.9-3.1,6.9-5.6,9.4-9c7.6-7.9,10.2-18.5,6-28.8
			c-3.4-8.4-9.2-15.1-1.6-23c1.7-1.8,3.5-3.4,5.3-5c4.1-3.9,8.2-8.3,10.5-13.5c3.4-7.7,3.5-15.6,0.2-22.4
			c7.7-13.3,16.8-24.9,27.7-33.7v224.4c0,0-40.9,3-55.5-32.9c2.3-7.5,6.3-14.8,6.5-22.9c0.2-8.9-5.4-16.7-8.5-24.8
			C138.3,375.4,137.4,372,139.3,369.7z"/>
		<path class="st0" d="M405.5,49.3V15c0-8.3-6.7-15-15-15h-18.8v64.2h18.8C398.8,64.2,405.5,57.5,405.5,49.3z"/>
		<path class="st0" d="M327.9,92.3c-5,5.1-9.4,11.8-13.1,20c-1.3,3-2.5,5.9-3.5,8.8c-0.3,1.4-0.4,2.2-0.4,2.2
			c7.2,0,29.9,8.1,44.3,39.8c14.5,31.7,46.6,24.9,26.2,4.5c-20.4-20.4-30.8-85.9-30.8-85.9C340.9,83.5,333.5,87.5,327.9,92.3z"/>
		<path class="st0" d="M251.7,0c-18.7,0-58,7.9-92.6,53.6c-3.1,4-1,9.9,4,11.1c17.7,4,50.6,20.1,50.6,83.7h76
			c0,0,7.2-83.2,66.9-83.2v-0.9V0h-0.4C350,0,270.9,0,251.7,0z"/>
	</g>
</g>
</svg>
