<?xml version="1.0" encoding="utf-8"?>
<!-- Generator: Adobe Illustrator 21.0.0, SVG Export Plug-In . SVG Version: 6.00 Build 0)  -->
<svg version="1.1" id="Layer_1" xmlns="http://www.w3.org/2000/svg" xmlns:xlink="http://www.w3.org/1999/xlink" x="0px" y="0px"
	 viewBox="0 0 512 512" style="enable-background:new 0 0 512 512;" xml:space="preserve">
<style type="text/css">
	.st0{fill:#7CB342;}
</style>
<title>internet-tv</title>
<g id="Layer_2">
	<g id="Layer_1-2">
		<path class="st0" d="M506.1,163.5c-65-65-151.6-104.4-250.1-104.4S68.9,98.5,5.9,163.5C2,167.4,0,171.3,0,177.2
			c0,5.9,2,9.8,5.9,13.8l27.6,27.6c7.2,7.6,19.2,7.9,26.9,0.7c0.2-0.2,0.5-0.5,0.7-0.7c107.7-107.7,282.2-107.7,389.9,0
			c7.2,7.6,19.2,7.9,26.9,0.7c0.2-0.2,0.5-0.5,0.7-0.7l27.6-27.6c3.9-3.9,5.9-7.9,5.9-13.8C512,171.3,510,165.4,506.1,163.5z"/>
		<path class="st0" d="M256,216.6c-55.1,0-102.4,21.7-137.9,57.1c-7.6,7.2-7.9,19.2-0.7,26.9c0.2,0.2,0.5,0.5,0.7,0.7l27.6,27.6
			c7.2,7.6,19.2,7.9,26.9,0.7c0.2-0.2,0.5-0.5,0.7-0.7c21.7-21.7,51.2-33.5,82.7-33.5s61,13.8,82.7,33.5c7.2,7.6,19.2,7.9,26.9,0.7
			c0.2-0.2,0.5-0.5,0.7-0.7l27.6-27.6c7.6-7.2,7.9-19.2,0.7-26.9c-0.2-0.2-0.5-0.5-0.7-0.7C358.4,238.3,311.1,216.6,256,216.6z"/>
		<circle class="st0" cx="256" cy="413.5" r="39.4"/>
	</g>
</g>
</svg>
