<?xml version="1.0" encoding="utf-8"?>
<!-- Generator: Adobe Illustrator 21.0.0, SVG Export Plug-In . SVG Version: 6.00 Build 0)  -->
<svg version="1.1" id="Layer_1" xmlns="http://www.w3.org/2000/svg" xmlns:xlink="http://www.w3.org/1999/xlink" x="0px" y="0px"
	 viewBox="0 0 64 64" style="enable-background:new 0 0 64 64;" xml:space="preserve">
<style type="text/css">
	.st0{fill:#795548;}
</style>
<title>laundry-dry-cleaning</title>
<g id="Layer_2">
	<g id="Layer_1-2">
		<path class="st0" d="M22.9,47.5C28,52.3,36.2,52.2,41,47c4.6-5,4.6-12.6,0-17.6L22.9,47.5z M51.2,0H12.8C9.3,0,6.4,2.9,6.4,6.4
			v51.2c0,3.5,2.9,6.4,6.4,6.4h38.4c3.5,0,6.4-2.9,6.4-6.4V6.4C57.6,2.9,54.7,0,51.2,0z M25.6,6.4c1.8,0,3.2,1.4,3.2,3.2
			s-1.4,3.2-3.2,3.2s-3.2-1.4-3.2-3.2S23.8,6.4,25.6,6.4z M16,6.4c1.8,0,3.2,1.4,3.2,3.2s-1.4,3.2-3.2,3.2s-3.2-1.4-3.2-3.2
			S14.2,6.4,16,6.4z M32,57.6c-10.6,0-19.2-8.6-19.2-19.2S21.4,19.2,32,19.2s19.2,8.6,19.2,19.2S42.6,57.6,32,57.6z"/>
	</g>
</g>
</svg>
