<?xml version="1.0" encoding="UTF-8"?>
<svg xmlns="http://www.w3.org/2000/svg" xmlns:xlink="http://www.w3.org/1999/xlink" width="50pt" height="50pt" viewBox="0 0 50 50" version="1.1">
<g id="surface1">
<path style=" stroke:none;fill-rule:nonzero;fill:rgb(95.686275%,31.764706%,11.764706%);fill-opacity:1;" d="M 42.046875 17.691406 C 41.785156 17.691406 41.53125 17.589844 41.339844 17.398438 L 32.601563 8.660156 C 32.339844 8.398438 32.242188 8.015625 32.351563 7.660156 C 32.730469 6.414063 33.421875 5.265625 34.34375 4.34375 C 37.460938 1.226563 42.539063 1.226563 45.65625 4.34375 C 48.777344 7.464844 48.777344 12.539063 45.65625 15.65625 C 44.734375 16.578125 43.585938 17.269531 42.339844 17.648438 C 42.242188 17.679688 42.144531 17.691406 42.046875 17.691406 Z "/>
<path style="fill:none;stroke-width:2;stroke-linecap:round;stroke-linejoin:round;stroke:rgb(95.686275%,31.764706%,11.764706%);stroke-opacity:1;stroke-miterlimit:10;" d="M 28.09375 21.90625 L 37.640625 12.359375 "/>
<path style=" stroke:none;fill-rule:nonzero;fill:rgb(95.686275%,31.764706%,11.764706%);fill-opacity:1;" d="M 27.386719 21.203125 C 27.652344 20.929688 28.03125 20.859375 28.371094 20.957031 L 21.527344 14.113281 L 33.703125 8.871094 C 34.210938 8.652344 34.441406 8.0625 34.226563 7.554688 C 34.007813 7.046875 33.414063 6.816406 32.910156 7.03125 L 2.605469 20.082031 C 2.238281 20.238281 2 20.601563 2 21 C 2 23.847656 3.304688 26.15625 4.273438 27.484375 L 22.742188 16.515625 C 23.214844 16.230469 23.828125 16.386719 24.113281 16.863281 C 24.394531 17.339844 24.238281 17.949219 23.761719 18.234375 L 5.078125 29.332031 C 5.625 34.421875 9.203125 36.621094 11.296875 37.488281 Z "/>
<path style="fill:none;stroke-width:2;stroke-linecap:round;stroke-linejoin:round;stroke:rgb(95.686275%,31.764706%,11.764706%);stroke-opacity:1;stroke-miterlimit:10;" d="M 32.769531 26.464844 L 39.640625 15.359375 "/>
<path style=" stroke:none;fill-rule:nonzero;fill:rgb(95.686275%,31.764706%,11.764706%);fill-opacity:1;" d="M 42.441406 15.773438 C 41.9375 15.554688 41.347656 15.789063 41.128906 16.296875 L 35.886719 28.472656 L 29.039063 21.628906 C 29.140625 21.964844 29.070313 22.339844 28.804688 22.605469 L 12.816406 38.792969 C 13.972656 40.742188 16.496094 44.113281 20.4375 44.847656 L 31.742188 26.273438 C 32.03125 25.800781 32.644531 25.652344 33.117188 25.941406 C 33.589844 26.226563 33.738281 26.84375 33.453125 27.3125 L 22.328125 45.585938 C 23.621094 46.5625 26.015625 48 29 48 C 29.398438 48 29.761719 47.761719 29.917969 47.394531 L 42.96875 17.089844 C 43.183594 16.582031 42.949219 15.992188 42.441406 15.773438 Z "/>
<path style="fill:none;stroke-width:2;stroke-linecap:round;stroke-linejoin:round;stroke:rgb(95.686275%,31.764706%,11.764706%);stroke-opacity:1;stroke-miterlimit:10;" d="M 23.644531 17.109375 L 34.640625 10.359375 "/>
<path style="fill:none;stroke-width:2;stroke-linecap:round;stroke-linejoin:round;stroke:rgb(95.686275%,31.764706%,11.764706%);stroke-opacity:1;stroke-miterlimit:10;" d="M 19.8125 13.8125 L 36.207031 30.207031 "/>
<path style="fill:none;stroke-width:2;stroke-linecap:round;stroke-linejoin:round;stroke:rgb(95.686275%,31.764706%,11.764706%);stroke-opacity:1;stroke-miterlimit:10;" d="M 26.804688 10.804688 L 39.222656 23.222656 "/>
</g>
</svg>
