<?xml version="1.0" encoding="utf-8"?>
<!-- Generator: Adobe Illustrator 21.0.0, SVG Export Plug-In . SVG Version: 6.00 Build 0)  -->
<svg version="1.1" id="Layer_1" xmlns="http://www.w3.org/2000/svg" xmlns:xlink="http://www.w3.org/1999/xlink" x="0px" y="0px"
	 viewBox="0 0 512 512" style="enable-background:new 0 0 512 512;" xml:space="preserve">
<style type="text/css">
	.st0{fill:#1E88E5;}
</style>
<title>health-insurance</title>
<g id="Layer_2">
	<path class="st0" d="M469.9,140.5c0-13-0.5-25.5-0.5-37.5V90.5c-0.1-8-6.6-14.4-14.6-14.4h-12.5c-70.7,0-122.3-19.6-167.4-63
		l-8.8-9c-5.6-5.4-14.5-5.4-20.1,0l-8.6,8.7c-44.6,43.5-96.2,63-167.4,63H57.4c-8.1,0-14.6,6.5-14.7,14.6v0.1v12.8
		c0,12,0,24.5-0.5,37.5C40,265.8,36.7,437.5,247,510.4c5.8,2.2,12.2,2.2,17.9,0C475.8,437.3,472,266.1,469.9,140.5z M350.2,281.5
		L262,369.8c-1.5,1.5-3.6,2.4-5.7,2.4c-2.1,0-4.2-0.8-5.7-2.4l-88.3-88.3c-13.1-11.4-21.4-28.2-21.4-46.9
		c0-34.4,27.9-62.3,62.3-62.3c22.5,0,42.1,11.9,53,29.8c11-17.8,30.6-29.8,53-29.8c34.4,0,62.3,27.9,62.3,62.3
		C371.6,253.4,363.3,270.1,350.2,281.5z"/>
</g>
</svg>
