<?xml version="1.0" encoding="utf-8"?>
<!-- Generator: Adobe Illustrator 21.0.0, SVG Export Plug-In . SVG Version: 6.00 Build 0)  -->
<svg version="1.1" id="Layer_1" xmlns="http://www.w3.org/2000/svg" xmlns:xlink="http://www.w3.org/1999/xlink" x="0px" y="0px"
	 viewBox="0 0 50 50" style="enable-background:new 0 0 50 50;" xml:space="preserve">
<style type="text/css">
	.st0{fill:#795548;}
</style>
<g id="surface1">
	<path class="st0" d="M14.4,49C10.2,49,8,46.1,8,43.2c0-3.2,1.8-4.6,3.8-6.2c0.9-0.7,1.8-1.5,2.8-2.5c0.8-0.8,1.5-1.7,2.2-2.5
		C19,29.4,21,27,24.2,27c3.6,0,5.3,2.6,7.2,5.4c0.6,1,1.3,2,2.1,2.9c0.9,1.1,2.4,1.8,3.9,2.4c2.2,1,4.7,2.1,4.7,5
		c0,3.8-2.4,5.7-7.1,5.7c-1.8,0-3.5-0.3-5.1-0.6c-1.7-0.3-3.4-0.6-5.3-0.6c-1.7,0-3.1,0.4-4.5,0.8C18.4,48.5,16.7,49,14.4,49z"/>
	<path class="st0" d="M32.3,22c-5.1,0-6.3-8.3-6.3-11.2C26,7.1,28.7,2,33.8,2c2.6,0,6.2,3,6.2,8.6C40,16.1,37.3,22,32.3,22z"/>
	<path class="st0" d="M18,21c-4.3,0-7-6.6-7-10c0-4.3,2.5-9,7.2-9C21.2,2,24,5.7,24,9.8C24,19.1,20.7,21,18,21z"/>
	<path class="st0" d="M6.6,36c-4,0-6.6-4.9-6.6-8.4C0,22.9,3.4,18,6.7,18c3.2,0,6.3,3.8,6.3,7.7C13,30.8,10.6,36,6.6,36z"/>
	<path class="st0" d="M41.4,36c-0.4,0-0.8,0-1.2-0.1c-1.7-0.4-3-1.5-3.7-3c-1-2.2-0.7-5.1,0.9-8.1c2.7-5,5.8-7.3,8.7-6.6
		c1.1,0.3,2.1,1.1,2.8,2.4c1.2,2.2,1.3,5.3,0.4,7.8C47.6,33,44.5,36,41.4,36z"/>
</g>
</svg>
