<?xml version="1.0" encoding="utf-8"?>
<!-- Generator: Adobe Illustrator 21.0.0, SVG Export Plug-In . SVG Version: 6.00 Build 0)  -->
<svg version="1.1" id="Layer_1" xmlns="http://www.w3.org/2000/svg" xmlns:xlink="http://www.w3.org/1999/xlink" x="0px" y="0px"
	 viewBox="0 0 48 48" style="enable-background:new 0 0 48 48;" xml:space="preserve">
<style type="text/css">
	.st0{fill:#3F51B5;}
</style>
<title>public-transport</title>
<g id="Layer_2">
	<g id="Layer_1-2">
		<path class="st0" d="M3.8,35.4c0,2.2,0.9,4.2,2.5,5.6v4.5c0,1.4,1.1,2.5,2.5,2.5h2.5c1.4,0,2.5-1.1,2.5-2.5V43h20.2v2.5
			c0,1.4,1.1,2.5,2.5,2.5h2.5c1.4,0,2.5-1.1,2.5-2.5V41c1.6-1.4,2.5-3.5,2.5-5.6V10.1C44.2,1.3,35.2,0,24,0S3.8,1.3,3.8,10.1V35.4z
			 M12.6,37.9c-2.1,0-3.8-1.7-3.8-3.8s1.7-3.8,3.8-3.8s3.8,1.7,3.8,3.8C16.4,36.2,14.7,37.9,12.6,37.9
			C12.6,37.9,12.6,37.9,12.6,37.9L12.6,37.9z M35.4,37.9c-2.1,0-3.8-1.7-3.8-3.8c0-2.1,1.7-3.8,3.8-3.8s3.8,1.7,3.8,3.8
			C39.2,36.2,37.5,37.9,35.4,37.9C35.4,37.9,35.4,37.9,35.4,37.9L35.4,37.9z M39.2,22.7H8.8V10.1h30.3V22.7z"/>
	</g>
</g>
</svg>
