<?xml version="1.0" encoding="utf-8"?>
<!-- Generator: Adobe Illustrator 21.0.0, SVG Export Plug-In . SVG Version: 6.00 Build 0)  -->
<svg version="1.1" id="Layer_1" xmlns="http://www.w3.org/2000/svg" xmlns:xlink="http://www.w3.org/1999/xlink" x="0px" y="0px"
	 viewBox="0 0 128 128" style="enable-background:new 0 0 128 128;" xml:space="preserve">
<style type="text/css">
	.st0{fill:#00ACC1;}
	.st1{display:none;fill:#FFFFFF;}
</style>
<title>return</title>
<g>
	<path class="st0" d="M114.6,40.6L114.6,40.6c-5.9-6.1-13.2-10.2-21.7-12.2c-3.9-0.8-6.9-1.2-9.8-1.2H44.8V11.9c0-1.3-0.3-2-0.9-2
		c-0.5,0-1.1,0.2-1.7,0.5L1.2,34.2L1,34.2c-0.4,0.1-0.8,0.3-1,1.4c0.2,0.6,0.5,1,1,1.3L1.2,37l41,23.6c0.4,0.2,1.3,0.7,1.7,0.7
		c0.2,0,0.7,0,0.7-2.2V43.2h38.1c3.9,0,7.6,0.8,11,2.3c3.6,1.5,6.8,3.7,9.3,6.3c5.6,5.5,8.8,13.1,8.5,20.8c0,7.9-3,15.2-8.6,20.8
		C97.5,99,90.1,102,82.2,102H23.5v16.1h59.7c11.7,0,23.2-4.8,31.5-13.3c8.6-8.3,13.4-20,13.3-32.2C128.2,60.7,123.3,49.1,114.6,40.6
		z"/>
	<path class="st1" d="M115.4,39.1c-6-6.2-13.8-10.6-22.5-12.7c-2.7-0.6-6.3-1.2-10.2-1.2H48.3V13.3c0-3-1.5-4.9-3.9-4.9
		c-1,0-2.1,0.3-3.2,0.9L1.7,32.2c-1.2,0.4-2.6,1.4-3,4l0,0.2l0,0.2c0.3,1.7,1.2,3,2.7,3.7l39.9,23c1,0.6,2,1.1,3.1,1.1
		c1.4,0,3.7-0.7,3.7-5.1V46.8h34.1c3.4,0,6.6,0.7,9.5,2c3.2,1.4,5.9,3.2,8.1,5.5c4.9,4.8,7.6,11.4,7.4,18.1c0,6.9-2.6,13.3-7.5,18.1
		C95,95.4,88.6,98,81.7,98H21.6v21.7h61.1c12.2,0,24.2-5,32.7-13.8c8.9-8.6,14-20.8,13.9-33.5C129.5,60,124.4,47.9,115.4,39.1z
		 M82.7,116.7H24.6V101h57.1c7.7,0,14.9-3,20.3-8.3c5.4-5.4,8.3-12.6,8.3-20.2c0.2-7.5-2.8-14.9-8.3-20.3c-2.5-2.6-5.5-4.6-9.1-6.1
		c-3.3-1.5-6.9-2.2-10.7-2.2H45.1v15.5c0,2.1-0.5,2.1-0.7,2.1c-0.4,0-1.3-0.5-1.7-0.7l-39.9-23l-0.1-0.1c-0.5-0.2-0.8-0.6-1-1.3
		c0.2-1,0.6-1.2,1-1.3L2.9,35l39.8-23.1c0.6-0.3,1.2-0.5,1.7-0.5c0.6,0,0.9,0.6,0.9,1.9v14.9h37.3c2.9,0,5.7,0.3,9.5,1.2
		c8.3,2,15.4,6,21.1,11.9l0,0c8.5,8.2,13.2,19.5,13,31.1c0.1,11.9-4.6,23.3-13,31.3C105.3,112,94.1,116.7,82.7,116.7z"/>
</g>
</svg>
