<svg xmlns="http://www.w3.org/2000/svg" viewBox="0 0 512 512"><defs><style>.cls-1{fill:#546e7a;}</style></defs><title>sales-tax_2</title><g id="Layer_2" data-name="Layer 2"><g id="Layer_20" data-name="Layer 20"><path class="cls-1" d="M376.5,241A135.5,135.5,0,1,0,512,376.5,135.5,135.5,0,0,0,376.5,241ZM307,334.1a25.06,25.06,0,1,1,25.06,25.06A25.06,25.06,0,0,1,307,334.1Zm42.29,95.08a18,18,0,0,1-25.51-25.51l79.85-79.85a18,18,0,1,1,25.51,25.51Zm69.28,16.49a25.06,25.06,0,1,1,25.06-25.06A25.06,25.06,0,0,1,418.61,445.67Z"/></g><g id="Layer_4_copy_10" data-name="Layer 4 copy 10"><g id="Layer_23" data-name="Layer 23"><path class="cls-1" d="M340.79,214.87c-19.1-37.67-47-72.91-78.55-96.87H104.9C46.26,162.58,0,246.2,0,311.92,0,419.58,97.53,419.58,183.57,419.58c10.91,0,22,0,33-.22A165.65,165.65,0,0,1,340.79,214.87Z"/><path class="cls-1" d="M104.9,91.78H262.24l35.6-52.07A26.22,26.22,0,0,0,275.35,0H236a26.23,26.23,0,0,0-18.54,7.68L196.68,28.47,175.88,7.68A26.23,26.23,0,0,0,157.34,0H91.78A26.22,26.22,0,0,0,69.3,39.71Z"/></g></g></g></svg>