<?xml version="1.0" encoding="utf-8"?>
<!-- Generator: Adobe Illustrator 21.0.0, SVG Export Plug-In . SVG Version: 6.00 Build 0)  -->
<svg version="1.1" id="Layer_1" xmlns="http://www.w3.org/2000/svg" xmlns:xlink="http://www.w3.org/1999/xlink" x="0px" y="0px"
	 viewBox="0 0 459 459" style="enable-background:new 0 0 459 459;" xml:space="preserve">
<style type="text/css">
	.st0{fill:#828282;}
</style>
<title>select-all</title>
<g id="Layer_2">
	<g id="Capa_1">
		<g id="select-all">
			<path class="st0" d="M0,51h51V0C22.9,0.1,0.1,22.9,0,51z M0,255h51v-51H0V255z M102,459h51v-51h-51V459z M0,153h51v-51H0V153z
				 M255,0h-51v51h51V0z M408,0v51h51C458.9,22.9,436.1,0.1,408,0z M51,459v-51H0C0.1,436.1,22.9,458.9,51,459z M0,357h51v-51H0V357
				z M153,0h-51v51h51V0z M204,459h51v-51h-51V459z M408,255h51v-51h-51V255z M408,459c28.1-0.1,50.9-22.9,51-51h-51V459z M408,153
				h51v-51h-51V153z M408,357h51v-51h-51V357z M306,459h51v-51h-51V459z M306,51h51V0h-51V51z M102,357h255V102H102V357z M153,153
				h153v153H153V153z"/>
		</g>
	</g>
</g>
</svg>
