<svg xmlns="http://www.w3.org/2000/svg" viewBox="0 0 286.02 254.55"><defs><style>.cls-1{fill:#3f51b5;}</style></defs><title>service-auto-parts</title><g id="Layer_2" data-name="Layer 2"><g id="Layer_1-2" data-name="Layer 1"><path class="cls-1" d="M51.49,40.52H157a53.61,53.61,0,0,1,8.88-22.07H51.49A22.12,22.12,0,0,0,30.6,33.31L0,121.44v117.7a14.76,14.76,0,0,0,14.71,14.71H29.42a14.71,14.71,0,0,0,14.71-14.71V224.43h134V106.73H29.42Zm0,95.63a22.07,22.07,0,1,1-22.07,22.07A22,22,0,0,1,51.49,136.15Z"/><path class="cls-1" d="M254.15,0V46.57a14.84,14.84,0,0,1-14.84,14.84H224.86A14.84,14.84,0,0,1,210,46.57V0a53.92,53.92,0,0,0-10,92.58V231.66a22.89,22.89,0,0,0,22.89,22.89h18.3a22.89,22.89,0,0,0,22.89-22.89V92.58A53.92,53.92,0,0,0,254.15,0Z"/></g></g></svg>