<?xml version="1.0" encoding="utf-8"?>
<!-- Generator: Adobe Illustrator 21.0.0, SVG Export Plug-In . SVG Version: 6.00 Build 0)  -->
<svg version="1.1" id="Layer_1" xmlns="http://www.w3.org/2000/svg" xmlns:xlink="http://www.w3.org/1999/xlink" x="0px" y="0px"
	 viewBox="0 0 48 48" style="enable-background:new 0 0 48 48;" xml:space="preserve">
<style type="text/css">
	.st0{fill:#009688;}
	.st1{fill:none;stroke:#009688;stroke-width:2;stroke-linecap:round;stroke-linejoin:round;}
</style>
<title>spirituality</title>
<g id="Layer_2">
	<g id="Layer_1-2">
		<g id="surface1">
			<path class="st0" d="M44.1,30.3l-12.5-4.2c-0.1,0-0.2,0-0.3,0H16.7c-0.1,0-0.2,0-0.3,0.1L3.9,30.3c-0.4,0.1-0.7,0.5-0.7,1V47
				c0,0.6,0.5,1,1,1h39.6c0.6,0,1-0.5,1-1V31.3C44.9,30.8,44.6,30.4,44.1,30.3z"/>
			<path class="st1" d="M24,27.1V23"/>
			<path class="st0" d="M24.9,0.5c-0.3-0.5-1-0.6-1.4-0.3c-0.1,0.1-0.2,0.2-0.3,0.3c-0.8,1.1-7.5,10.9-7.5,15.2
				c0,4.6,3.7,8.3,8.3,8.3s8.3-3.7,8.3-8.3C32.3,11.4,25.6,1.6,24.9,0.5z M24,20.9c-1.7,0-3.1-1.4-3.1-3.1c0-1.7,3.1-6.3,3.1-6.3
				s3.1,4.5,3.1,6.3C27.1,19.5,25.7,20.9,24,20.9z"/>
		</g>
	</g>
</g>
</svg>
