<svg xmlns="http://www.w3.org/2000/svg" viewBox="0 0 90 90"><defs><style>.cls-1{fill:#e91e63;}</style></defs><title>sporting-goods</title><g id="Layer_2" data-name="Layer 2"><g id="Layer_1-2" data-name="Layer 1"><path class="cls-1" d="M43.5,90C34.6,50.2,1.4,46.9,0,46.8A45,45,0,0,0,43.5,90Z"/><path class="cls-1" d="M89.6,49.4c-2-.3-42.4-6.7-48.5-49.2h0V.1A45.16,45.16,0,0,0,.2,41H.5C44,47.3,49.6,89.6,49.6,89.6h0a.1.1,0,0,0,.1.1h.1a45,45,0,0,0,40-40.2C89.7,49.5,89.7,49.5,89.6,49.4Z"/><path class="cls-1" d="M90,43.3A45.14,45.14,0,0,0,46.9,0C47.1,2.6,51.1,34.6,90,43.3Z"/></g></g></svg>