<?xml version="1.0" encoding="utf-8"?>
<!-- Generator: Adobe Illustrator 21.0.0, SVG Export Plug-In . SVG Version: 6.00 Build 0)  -->
<svg version="1.1" id="Layer_1" xmlns="http://www.w3.org/2000/svg" xmlns:xlink="http://www.w3.org/1999/xlink" x="0px" y="0px"
	 viewBox="0 0 128 128" style="enable-background:new 0 0 128 128;" xml:space="preserve">
<style type="text/css">
	.st0{fill:#009688;}
</style>
<title>sports</title>
<g id="Layer_2">
	<g id="Layer_1-2">
		<path class="st0" d="M119.2,55.2h-0.3V42.9c0-3.8-3.1-6.9-6.9-6.9c-3.8,0-6.9,3.1-6.9,6.9v-8.8c0-3.8-3.1-6.9-6.9-6.9
			c-3.8,0-6.9,3.1-6.9,6.9v20.7H36.9V34.1c0-3.8-3.1-6.9-6.9-6.9S23,30.3,23,34.1v8.8c0-3.8-3.1-6.9-6.9-6.9c-3.8,0-6.9,3.1-6.9,6.9
			v12.3H8.8C4,55.2,0,59.1,0,64s3.9,8.8,8.8,8.8h0.3v12.3c0,3.8,3.1,6.9,6.9,6.9c3.8,0,6.9-3.1,6.9-6.9v8.8c0,3.8,3.1,6.9,6.9,6.9
			s6.9-3.1,6.9-6.9l0,0V73.1h54.2v20.7c0,3.8,3.1,6.9,6.9,6.9c3.8,0,6.9-3.1,6.9-6.9V85c0,3.8,3.1,6.9,6.9,6.9
			c3.8,0,6.9-3.1,6.9-6.9c0,0,0,0,0,0V72.7h0.3c4.9,0,8.8-3.9,8.8-8.8S124,55.1,119.2,55.2L119.2,55.2z"/>
	</g>
</g>
</svg>
