<svg xmlns="http://www.w3.org/2000/svg" viewBox="0 0 256 216"><defs><style>.cls-1{fill:#1e88e5;}</style></defs><title>advertising</title><g id="Layer_2" data-name="Layer 2"><g id="Layer_1-2" data-name="Layer 1"><path class="cls-1" d="M58,118v72a26,26,0,0,0,52,0V153l85,23V20L58,53Z"/><path class="cls-1" d="M233.5,0A22.53,22.53,0,0,0,211,22.5v149a22.5,22.5,0,0,0,45,0V22.5A22.53,22.53,0,0,0,233.5,0Z"/><path class="cls-1" d="M22.5,45A22.53,22.53,0,0,0,0,67.5v59a22.5,22.5,0,0,0,45,0v-59A22.53,22.53,0,0,0,22.5,45Z"/></g></g></svg>