<?xml version="1.0" encoding="utf-8"?>
<!-- Generator: Adobe Illustrator 21.0.0, SVG Export Plug-In . SVG Version: 6.00 Build 0)  -->
<svg version="1.1" id="Layer_1" xmlns="http://www.w3.org/2000/svg" xmlns:xlink="http://www.w3.org/1999/xlink" x="0px" y="0px"
	 viewBox="0 0 128 128" style="enable-background:new 0 0 128 128;" xml:space="preserve">
<style type="text/css">
	.st0{display:none;}
	.st1{fill:#00ACC1;}
	.st2{display:none;fill:#FFFFFF;}
</style>
<g id="Layer_1_1_" class="st0">
	<title>transfer-between-accounts</title>
</g>
<g>
	<path class="st1" d="M62.1,14.1c10.4,0,20.2,3.2,28.4,9.2l4.3,3.1L83.3,38c-0.5,0.5-1,1.2-0.7,1.6c0.2,0.2,0.6,0.5,1.4,0.7
		l41.3,11.2c0.5,0.2,1.1,0.2,1.5,0c0.2-0.5,0.3-1.1,0.2-1.6L115.8,8.7c-0.2-0.6-0.5-1-0.8-1.4c-0.1-0.1-0.2-0.1-0.2-0.1
		c-0.3,0-0.9,0.4-1.3,0.9l-0.1,0.1l-8.6,8.6l-3.1-2.5C90.5,5.2,76.6,0.2,62.4,0.2C34.2,0.2,9.5,18.7,1.6,45.3h14.7
		C23.5,26.6,41.8,14.1,62.1,14.1z"/>
	<path class="st2" d="M20.8,48.1C27,30.8,43.7,19.2,62.3,19.2c9.2,0,18,2.8,25.3,8.2l1.3,0.9l-8.1,8.2L80.4,37
		c-2.3,2.3-1.9,4.4-0.7,5.7c0.6,0.6,1.5,1.1,2.6,1.5l39.5,10.7c0.5,0.2,1,0.3,1.7,0.3c0.9,0,1.9-0.3,2.7-0.9l0.2-0.2l0.1-0.2
		c0.7-1.2,1-2.7,0.7-4l-10.8-39.6c-0.4-1.2-0.9-1.9-1.3-2.4L115,7.7c-0.7-0.7-1.5-1.1-2.5-1c-1.6,0.1-2.9,1.3-3.4,1.8l-6.4,6.4
		l-0.9-0.7C90.7,5,76.8,0,62.4,0C33.4,0,8.1,19.4,0.8,47.2l-0.5,1.9h20.1L20.8,48.1z M4.2,46.1C11.8,20.6,35.5,3,62.5,3
		C76.1,3,89.4,7.8,100,16.4l3,2.4l8.3-8.3l0.1-0.1c0.4-0.5,1-0.8,1.3-0.9c0,0,0.1,0,0.2,0.1c0.3,0.3,0.5,0.8,0.7,1.3l10.7,39.5
		c0.1,0.5,0,1.1-0.2,1.6c-0.3,0.1-0.9,0.1-1.4,0L83.2,41.3c-0.7-0.2-1.2-0.5-1.3-0.7c-0.4-0.4,0.2-1.1,0.6-1.5l11-11.1l-4.1-3
		c-7.9-5.8-17.2-8.8-27.2-8.8c-19.4,0-36.9,12-43.8,29.9H4.2z"/>
	<path class="st1" d="M26.5,113.8c11.2,9,25.1,14,39.2,14c28.2,0,52.8-18.4,60.8-45.1h-14.7c-7.2,18.7-25.5,31.3-45.8,31.3
		c-10.4,0-20.2-3.2-28.4-9.2l-4.3-3.1l11.7-11.7c0.5-0.5,1-1.2,0.7-1.6c-0.1-0.1-0.6-0.5-1.4-0.7L2.9,76.4c-0.5-0.2-1.1-0.2-1.5,0
		C1.1,77,1,77.6,1.1,78.2l11.3,41.5c0.1,0.4,0.3,0.8,0.4,0.9l0.2,0.2c0.2,0.2,0.2,0.2,0.3,0.2c0.3,0,0.9-0.4,1.3-0.9l8.7-8.7
		L26.5,113.8z"/>
	<path class="st2" d="M107.6,78.9l-0.4,1c-6.2,17.3-22.9,28.9-41.5,28.9c-9.2,0-18-2.8-25.3-8.2l-1.3-0.9l8.7-8.7
		c2.3-2.3,1.9-4.4,0.7-5.7c-0.6-0.6-1.5-1.1-2.6-1.5L6.4,73c-1.2-0.4-3.1-0.5-4.4,0.7l-0.2,0.2L1.7,74c-1,1.7-1,3.2-0.8,4.2
		l10.8,39.7l0.1,0.4c0.3,0.8,0.6,1.6,1.4,2.2c0.7,0.6,1.5,0.9,2.4,0.9c1.7-0.1,2.9-1.3,3.4-1.8l6.4-6.4l0.9,0.7
		c11.3,9,25.2,14,39.4,14c28.9,0,54.2-19.4,61.5-47.2l0.5-1.9H107.6z M15.5,118.5c0,0-0.1,0-0.3-0.1l-0.2-0.2
		c-0.1-0.1-0.3-0.5-0.4-0.9L3.8,77.6c-0.1-0.6,0-1.1,0.3-1.7c0.3-0.1,0.9-0.1,1.4,0L45,86.6c0.7,0.2,1.2,0.5,1.3,0.7
		c0.4,0.4-0.2,1.1-0.6,1.5L34.5,100l4.2,3c7.9,5.8,17.2,8.8,27.2,8.8c19.4,0,36.9-12,43.8-29.9h14.1c-7.6,25.5-31.2,43.1-58.1,43.1
		c-13.4,0-26.7-4.7-37.5-13.4l-3-2.4l-8.3,8.3C16.4,118.1,15.8,118.5,15.5,118.5z"/>
</g>
</svg>
