<?xml version="1.0" encoding="utf-8"?>
<!-- Generator: Adobe Illustrator 21.0.0, SVG Export Plug-In . SVG Version: 6.00 Build 0)  -->
<svg version="1.1" id="Layer_1" xmlns="http://www.w3.org/2000/svg" xmlns:xlink="http://www.w3.org/1999/xlink" x="0px" y="0px"
	 viewBox="0 0 52 52" style="enable-background:new 0 0 52 52;" xml:space="preserve">
<style type="text/css">
	.st0{fill:#3F51B5;}
</style>
<title>transport-other</title>
<g id="Layer_2">
	<g id="Layer_1-2">
		<path class="st0" d="M47.3,7.8c-1-4.6-5.1-7.8-9.8-7.8H14.4C9.7,0,5.7,3.2,4.7,7.8C3.6,12.2,2,20,2,22v28c-0.1,1,0.7,1.9,1.8,2
			c0.1,0,0.2,0,0.2,0h6c1,0.1,1.9-0.7,2-1.8c0-0.1,0-0.2,0-0.2v-4h28v4c-0.1,1,0.7,1.9,1.8,2c0.1,0,0.2,0,0.2,0h6
			c1,0.1,1.9-0.7,2-1.8c0-0.1,0-0.2,0-0.2V22C50,19.9,48.2,11.3,47.3,7.8z M10,40c-2.2,0-4-1.8-4-4s1.8-4,4-4s4,1.8,4,4
			S12.2,40,10,40z M38,36c0-2.2,1.8-4,4-4s4,1.8,4,4s-1.8,4-4,4S38,38.2,38,36z M6,24v-2c0.6-4.5,1.5-9,2.6-13.4
			C9.2,5.9,11.6,4,14.4,4h23.2c2.8,0,5.2,1.9,5.8,4.6C44.5,13,45.4,17.5,46,22v2H6z"/>
	</g>
</g>
</svg>
