<?xml version="1.0" encoding="utf-8"?>
<!-- Generator: Adobe Illustrator 21.0.0, SVG Export Plug-In . SVG Version: 6.00 Build 0)  -->
<svg version="1.1" id="Layer_1" xmlns="http://www.w3.org/2000/svg" xmlns:xlink="http://www.w3.org/1999/xlink" x="0px" y="0px"
	 viewBox="0 0 512 512" style="enable-background:new 0 0 512 512;" xml:space="preserve">
<style type="text/css">
	.st0{fill:#039BE5;}
</style>
<title>travel</title>
<g id="Layer_2">
	<g id="Layer_1-2">
		<g id="surface1">
			<path class="st0" d="M460.6,115.3H51.4c-28.2,0-51.1,22.9-51.2,51.1c0,0,0,0,0,0.1v281.4c0,28.2,22.9,51.1,51.1,51.2
				c0,0,0,0,0.1,0h409.3c28.2,0,51.1-22.9,51.2-51.1c0,0,0,0,0-0.1V166.5C511.8,138.2,488.9,115.3,460.6,115.3
				C460.7,115.3,460.6,115.3,460.6,115.3z M256,243.2c0-28.3,22.9-51.2,51.2-51.2s51.2,22.9,51.2,51.2s-22.9,51.2-51.2,51.2
				C278.9,294.4,256,271.5,256,243.2C256,243.3,256,243.2,256,243.2z M335.1,422.3l-27.9-71.5l143.6-56l27.8,71.5L335.1,422.3z"/>
			<path class="st0" d="M332.7,89.7V64.2c0-28.2-22.9-51.1-51.1-51.2c0,0,0,0-0.1,0h-51.1c-28.2,0-51.1,22.9-51.2,51.1
				c0,0,0,0,0,0.1v25.6"/>
		</g>
	</g>
</g>
</svg>
