<svg xmlns="http://www.w3.org/2000/svg" viewBox="0 0 21.96 22"><defs><style>.cls-1{fill:#757575;}</style></defs><title>tuition</title><g id="Layer_2" data-name="Layer 2"><g id="Layer_1-2" data-name="Layer 1"><path class="cls-1" d="M21.26,3.1l-9-3a1.27,1.27,0,0,0-.6-.1l-9,3a1,1,0,0,0,0,1.9L12,8l8-2.7V12h2V4A.86.86,0,0,0,21.26,3.1Z"/><path class="cls-1" d="M6,8.2V10a6.59,6.59,0,0,1,5.35,3.91l.65,0a14.73,14.73,0,0,0,5.4-1A1,1,0,0,0,18,12V8.1l-6,2Z"/><path class="cls-1" d="M5.29,11A5.36,5.36,0,0,0,0,16.51,5.36,5.36,0,0,0,5.29,22a5.36,5.36,0,0,0,5.29-5.49A5.36,5.36,0,0,0,5.29,11Zm1.47,8.66h0a2.66,2.66,0,0,1-.94.17,3.1,3.1,0,0,1-2.92-2.79.6.6,0,0,1-.34-.77.59.59,0,0,1,.34-.36,3.1,3.1,0,0,1,2.92-2.79,2.66,2.66,0,0,1,.94.17.6.6,0,0,1,.36.76.57.57,0,0,1-.73.37h0a1.55,1.55,0,0,0-.54-.1A1.89,1.89,0,0,0,4,15.91H5.7a.6.6,0,0,1,0,1.2H4a1.89,1.89,0,0,0,1.74,1.55,1.55,1.55,0,0,0,.54-.1.57.57,0,0,1,.75.34A.61.61,0,0,1,6.75,19.67Z"/></g></g></svg>