<svg xmlns="http://www.w3.org/2000/svg" viewBox="0 0 20 20"><defs><style>.cls-1{fill:#607d8b;}</style></defs><title>uncategorized</title><g id="Layer_2" data-name="Layer 2"><g id="Layer_2-2" data-name="Layer 2"><path class="cls-1" d="M11.32,4.21a4,4,0,0,0-5,2.21C6,7.16,6,7.76,6.66,8.17S7.84,8,8.08,7.45A2,2,0,0,1,10.42,6,2,2,0,0,1,12,8c0,1.7-2.2,1.77-2.83,3.78A1,1,0,0,0,10.11,13h0a1,1,0,0,0,1-.66c.59-1.91,3.63-2.21,2.74-5.43A3.92,3.92,0,0,0,11.32,4.21Z"/><path class="cls-1" d="M19.86,8.31A10,10,0,1,0,8.31,19.86,10,10,0,0,0,19.86,8.31Zm-2,3.26A8,8,0,1,1,8.43,2.15,8,8,0,0,1,17.85,11.57Z"/><circle class="cls-1" cx="9.99" cy="14.99" r="1.08"/></g></g></svg>