<?xml version="1.0" encoding="utf-8"?>
<!-- Generator: Adobe Illustrator 21.0.0, SVG Export Plug-In . SVG Version: 6.00 Build 0)  -->
<svg version="1.1" id="Layer_1" xmlns="http://www.w3.org/2000/svg" xmlns:xlink="http://www.w3.org/1999/xlink" x="0px" y="0px"
	 viewBox="0 0 48 48" style="enable-background:new 0 0 48 48;" xml:space="preserve">
<style type="text/css">
	.st0{fill:#7CB342;}
</style>
<title>utilities</title>
<g id="Layer_2">
	<g id="Layer_1-2">
		<g id="surface1">
			<path class="st0" d="M31.2,38.4H16.8v2.4c0,4.1,3.1,4.8,7.2,4.8s7.2-0.7,7.2-4.8V38.4z"/>
			<path class="st0" d="M27.6,43.2h-7.2v1.2c0,2,1.6,3.6,3.6,3.6c2,0,3.6-1.6,3.6-3.6V43.2z"/>
			<path class="st0" d="M40.8,16.8C40.8,7.5,33.3,0,24,0c-0.1,0-0.2,0-0.2,0C14.9,0.2,7.7,7.2,7.2,16.1c-0.3,5.5,2.2,10.9,6.7,14.2
				c1.8,1.4,2.9,3.5,2.9,5.8h14.4c0-2.2,1-4.3,2.6-5.8C38.3,27.2,40.9,22.2,40.8,16.8z"/>
		</g>
	</g>
</g>
</svg>
